%TF.GenerationSoftware,KiCad,Pcbnew,7.0.6-0*%
%TF.CreationDate,2023-07-21T12:15:06+07:00*%
%TF.ProjectId,RP2040Reference,52503230-3430-4526-9566-6572656e6365,rev?*%
%TF.SameCoordinates,Original*%
%TF.FileFunction,Legend,Top*%
%TF.FilePolarity,Positive*%
%FSLAX46Y46*%
G04 Gerber Fmt 4.6, Leading zero omitted, Abs format (unit mm)*
G04 Created by KiCad (PCBNEW 7.0.6-0) date 2023-07-21 12:15:06*
%MOMM*%
%LPD*%
G01*
G04 APERTURE LIST*
%ADD10C,0.150000*%
%ADD11C,0.120000*%
%ADD12C,0.250000*%
%ADD13C,0.100000*%
G04 APERTURE END LIST*
D10*
X97317731Y-57894295D02*
X97317731Y-58465723D01*
X97317731Y-58465723D02*
X97279636Y-58580009D01*
X97279636Y-58580009D02*
X97203445Y-58656200D01*
X97203445Y-58656200D02*
X97089160Y-58694295D01*
X97089160Y-58694295D02*
X97012969Y-58694295D01*
X98079636Y-58694295D02*
X97698684Y-58694295D01*
X97698684Y-58694295D02*
X97698684Y-57894295D01*
X98803446Y-58618104D02*
X98765350Y-58656200D01*
X98765350Y-58656200D02*
X98651065Y-58694295D01*
X98651065Y-58694295D02*
X98574874Y-58694295D01*
X98574874Y-58694295D02*
X98460588Y-58656200D01*
X98460588Y-58656200D02*
X98384398Y-58580009D01*
X98384398Y-58580009D02*
X98346303Y-58503819D01*
X98346303Y-58503819D02*
X98308207Y-58351438D01*
X98308207Y-58351438D02*
X98308207Y-58237152D01*
X98308207Y-58237152D02*
X98346303Y-58084771D01*
X98346303Y-58084771D02*
X98384398Y-58008580D01*
X98384398Y-58008580D02*
X98460588Y-57932390D01*
X98460588Y-57932390D02*
X98574874Y-57894295D01*
X98574874Y-57894295D02*
X98651065Y-57894295D01*
X98651065Y-57894295D02*
X98765350Y-57932390D01*
X98765350Y-57932390D02*
X98803446Y-57970485D01*
X99374874Y-57894295D02*
X99374874Y-58465723D01*
X99374874Y-58465723D02*
X99336779Y-58580009D01*
X99336779Y-58580009D02*
X99260588Y-58656200D01*
X99260588Y-58656200D02*
X99146303Y-58694295D01*
X99146303Y-58694295D02*
X99070112Y-58694295D01*
X100136779Y-58694295D02*
X99755827Y-58694295D01*
X99755827Y-58694295D02*
X99755827Y-57894295D01*
X100860589Y-58618104D02*
X100822493Y-58656200D01*
X100822493Y-58656200D02*
X100708208Y-58694295D01*
X100708208Y-58694295D02*
X100632017Y-58694295D01*
X100632017Y-58694295D02*
X100517731Y-58656200D01*
X100517731Y-58656200D02*
X100441541Y-58580009D01*
X100441541Y-58580009D02*
X100403446Y-58503819D01*
X100403446Y-58503819D02*
X100365350Y-58351438D01*
X100365350Y-58351438D02*
X100365350Y-58237152D01*
X100365350Y-58237152D02*
X100403446Y-58084771D01*
X100403446Y-58084771D02*
X100441541Y-58008580D01*
X100441541Y-58008580D02*
X100517731Y-57932390D01*
X100517731Y-57932390D02*
X100632017Y-57894295D01*
X100632017Y-57894295D02*
X100708208Y-57894295D01*
X100708208Y-57894295D02*
X100822493Y-57932390D01*
X100822493Y-57932390D02*
X100860589Y-57970485D01*
X101432017Y-57894295D02*
X101432017Y-58465723D01*
X101432017Y-58465723D02*
X101393922Y-58580009D01*
X101393922Y-58580009D02*
X101317731Y-58656200D01*
X101317731Y-58656200D02*
X101203446Y-58694295D01*
X101203446Y-58694295D02*
X101127255Y-58694295D01*
X102193922Y-58694295D02*
X101812970Y-58694295D01*
X101812970Y-58694295D02*
X101812970Y-57894295D01*
X102917732Y-58618104D02*
X102879636Y-58656200D01*
X102879636Y-58656200D02*
X102765351Y-58694295D01*
X102765351Y-58694295D02*
X102689160Y-58694295D01*
X102689160Y-58694295D02*
X102574874Y-58656200D01*
X102574874Y-58656200D02*
X102498684Y-58580009D01*
X102498684Y-58580009D02*
X102460589Y-58503819D01*
X102460589Y-58503819D02*
X102422493Y-58351438D01*
X102422493Y-58351438D02*
X102422493Y-58237152D01*
X102422493Y-58237152D02*
X102460589Y-58084771D01*
X102460589Y-58084771D02*
X102498684Y-58008580D01*
X102498684Y-58008580D02*
X102574874Y-57932390D01*
X102574874Y-57932390D02*
X102689160Y-57894295D01*
X102689160Y-57894295D02*
X102765351Y-57894295D01*
X102765351Y-57894295D02*
X102879636Y-57932390D01*
X102879636Y-57932390D02*
X102917732Y-57970485D01*
X103489160Y-57894295D02*
X103489160Y-58465723D01*
X103489160Y-58465723D02*
X103451065Y-58580009D01*
X103451065Y-58580009D02*
X103374874Y-58656200D01*
X103374874Y-58656200D02*
X103260589Y-58694295D01*
X103260589Y-58694295D02*
X103184398Y-58694295D01*
X104251065Y-58694295D02*
X103870113Y-58694295D01*
X103870113Y-58694295D02*
X103870113Y-57894295D01*
X104974875Y-58618104D02*
X104936779Y-58656200D01*
X104936779Y-58656200D02*
X104822494Y-58694295D01*
X104822494Y-58694295D02*
X104746303Y-58694295D01*
X104746303Y-58694295D02*
X104632017Y-58656200D01*
X104632017Y-58656200D02*
X104555827Y-58580009D01*
X104555827Y-58580009D02*
X104517732Y-58503819D01*
X104517732Y-58503819D02*
X104479636Y-58351438D01*
X104479636Y-58351438D02*
X104479636Y-58237152D01*
X104479636Y-58237152D02*
X104517732Y-58084771D01*
X104517732Y-58084771D02*
X104555827Y-58008580D01*
X104555827Y-58008580D02*
X104632017Y-57932390D01*
X104632017Y-57932390D02*
X104746303Y-57894295D01*
X104746303Y-57894295D02*
X104822494Y-57894295D01*
X104822494Y-57894295D02*
X104936779Y-57932390D01*
X104936779Y-57932390D02*
X104974875Y-57970485D01*
X91487704Y-56676190D02*
X92287704Y-56676190D01*
X91982942Y-56676190D02*
X92021038Y-56752380D01*
X92021038Y-56752380D02*
X92021038Y-56904761D01*
X92021038Y-56904761D02*
X91982942Y-56980952D01*
X91982942Y-56980952D02*
X91944847Y-57019047D01*
X91944847Y-57019047D02*
X91868657Y-57057142D01*
X91868657Y-57057142D02*
X91640085Y-57057142D01*
X91640085Y-57057142D02*
X91563895Y-57019047D01*
X91563895Y-57019047D02*
X91525800Y-56980952D01*
X91525800Y-56980952D02*
X91487704Y-56904761D01*
X91487704Y-56904761D02*
X91487704Y-56752380D01*
X91487704Y-56752380D02*
X91525800Y-56676190D01*
X91487704Y-57514285D02*
X91525800Y-57438095D01*
X91525800Y-57438095D02*
X91563895Y-57400000D01*
X91563895Y-57400000D02*
X91640085Y-57361904D01*
X91640085Y-57361904D02*
X91868657Y-57361904D01*
X91868657Y-57361904D02*
X91944847Y-57400000D01*
X91944847Y-57400000D02*
X91982942Y-57438095D01*
X91982942Y-57438095D02*
X92021038Y-57514285D01*
X92021038Y-57514285D02*
X92021038Y-57628571D01*
X92021038Y-57628571D02*
X91982942Y-57704762D01*
X91982942Y-57704762D02*
X91944847Y-57742857D01*
X91944847Y-57742857D02*
X91868657Y-57780952D01*
X91868657Y-57780952D02*
X91640085Y-57780952D01*
X91640085Y-57780952D02*
X91563895Y-57742857D01*
X91563895Y-57742857D02*
X91525800Y-57704762D01*
X91525800Y-57704762D02*
X91487704Y-57628571D01*
X91487704Y-57628571D02*
X91487704Y-57514285D01*
X91487704Y-58238095D02*
X91525800Y-58161905D01*
X91525800Y-58161905D02*
X91563895Y-58123810D01*
X91563895Y-58123810D02*
X91640085Y-58085714D01*
X91640085Y-58085714D02*
X91868657Y-58085714D01*
X91868657Y-58085714D02*
X91944847Y-58123810D01*
X91944847Y-58123810D02*
X91982942Y-58161905D01*
X91982942Y-58161905D02*
X92021038Y-58238095D01*
X92021038Y-58238095D02*
X92021038Y-58352381D01*
X92021038Y-58352381D02*
X91982942Y-58428572D01*
X91982942Y-58428572D02*
X91944847Y-58466667D01*
X91944847Y-58466667D02*
X91868657Y-58504762D01*
X91868657Y-58504762D02*
X91640085Y-58504762D01*
X91640085Y-58504762D02*
X91563895Y-58466667D01*
X91563895Y-58466667D02*
X91525800Y-58428572D01*
X91525800Y-58428572D02*
X91487704Y-58352381D01*
X91487704Y-58352381D02*
X91487704Y-58238095D01*
X92021038Y-58733334D02*
X92021038Y-59038096D01*
X92287704Y-58847620D02*
X91601990Y-58847620D01*
X91601990Y-58847620D02*
X91525800Y-58885715D01*
X91525800Y-58885715D02*
X91487704Y-58961905D01*
X91487704Y-58961905D02*
X91487704Y-59038096D01*
X110662295Y-59095237D02*
X110128961Y-59095237D01*
X110281342Y-59095237D02*
X110205152Y-59057142D01*
X110205152Y-59057142D02*
X110167057Y-59019047D01*
X110167057Y-59019047D02*
X110128961Y-58942856D01*
X110128961Y-58942856D02*
X110128961Y-58866666D01*
X110624200Y-58295237D02*
X110662295Y-58371428D01*
X110662295Y-58371428D02*
X110662295Y-58523809D01*
X110662295Y-58523809D02*
X110624200Y-58599999D01*
X110624200Y-58599999D02*
X110548009Y-58638095D01*
X110548009Y-58638095D02*
X110243247Y-58638095D01*
X110243247Y-58638095D02*
X110167057Y-58599999D01*
X110167057Y-58599999D02*
X110128961Y-58523809D01*
X110128961Y-58523809D02*
X110128961Y-58371428D01*
X110128961Y-58371428D02*
X110167057Y-58295237D01*
X110167057Y-58295237D02*
X110243247Y-58257142D01*
X110243247Y-58257142D02*
X110319438Y-58257142D01*
X110319438Y-58257142D02*
X110395628Y-58638095D01*
X110624200Y-57952381D02*
X110662295Y-57876190D01*
X110662295Y-57876190D02*
X110662295Y-57723809D01*
X110662295Y-57723809D02*
X110624200Y-57647619D01*
X110624200Y-57647619D02*
X110548009Y-57609523D01*
X110548009Y-57609523D02*
X110509914Y-57609523D01*
X110509914Y-57609523D02*
X110433723Y-57647619D01*
X110433723Y-57647619D02*
X110395628Y-57723809D01*
X110395628Y-57723809D02*
X110395628Y-57838095D01*
X110395628Y-57838095D02*
X110357533Y-57914285D01*
X110357533Y-57914285D02*
X110281342Y-57952381D01*
X110281342Y-57952381D02*
X110243247Y-57952381D01*
X110243247Y-57952381D02*
X110167057Y-57914285D01*
X110167057Y-57914285D02*
X110128961Y-57838095D01*
X110128961Y-57838095D02*
X110128961Y-57723809D01*
X110128961Y-57723809D02*
X110167057Y-57647619D01*
X110624200Y-56961904D02*
X110662295Y-57038095D01*
X110662295Y-57038095D02*
X110662295Y-57190476D01*
X110662295Y-57190476D02*
X110624200Y-57266666D01*
X110624200Y-57266666D02*
X110548009Y-57304762D01*
X110548009Y-57304762D02*
X110243247Y-57304762D01*
X110243247Y-57304762D02*
X110167057Y-57266666D01*
X110167057Y-57266666D02*
X110128961Y-57190476D01*
X110128961Y-57190476D02*
X110128961Y-57038095D01*
X110128961Y-57038095D02*
X110167057Y-56961904D01*
X110167057Y-56961904D02*
X110243247Y-56923809D01*
X110243247Y-56923809D02*
X110319438Y-56923809D01*
X110319438Y-56923809D02*
X110395628Y-57304762D01*
X110128961Y-56695238D02*
X110128961Y-56390476D01*
X109862295Y-56580952D02*
X110548009Y-56580952D01*
X110548009Y-56580952D02*
X110624200Y-56542857D01*
X110624200Y-56542857D02*
X110662295Y-56466667D01*
X110662295Y-56466667D02*
X110662295Y-56390476D01*
D11*
%TO.C,C13*%
X102640000Y-66983335D02*
X102640000Y-66751665D01*
X103360000Y-66983335D02*
X103360000Y-66751665D01*
%TO.C,C14*%
X94860000Y-76251665D02*
X94860000Y-76483335D01*
X94140000Y-76251665D02*
X94140000Y-76483335D01*
%TO.C,R4*%
X103590000Y-81399879D02*
X103590000Y-81735121D01*
X102830000Y-81399879D02*
X102830000Y-81735121D01*
%TO.C,R7*%
X101580000Y-64199879D02*
X101580000Y-64535121D01*
X100820000Y-64199879D02*
X100820000Y-64535121D01*
%TO.C,C11*%
X99740000Y-66983335D02*
X99740000Y-66751665D01*
X100460000Y-66983335D02*
X100460000Y-66751665D01*
%TO.C,C10*%
X103740000Y-66983335D02*
X103740000Y-66751665D01*
X104460000Y-66983335D02*
X104460000Y-66751665D01*
%TO.C,C5*%
X105915835Y-67927500D02*
X105684165Y-67927500D01*
X105915835Y-67207500D02*
X105684165Y-67207500D01*
%TO.C,C6*%
X98640000Y-66983335D02*
X98640000Y-66751665D01*
X99360000Y-66983335D02*
X99360000Y-66751665D01*
%TO.C,C12*%
X107240000Y-70183335D02*
X107240000Y-69951665D01*
X107960000Y-70183335D02*
X107960000Y-69951665D01*
%TO.C,C17*%
X94649750Y-64301665D02*
X94649750Y-64533335D01*
X93929750Y-64301665D02*
X93929750Y-64533335D01*
%TO.C,C9*%
X107960000Y-76351665D02*
X107960000Y-76583335D01*
X107240000Y-76351665D02*
X107240000Y-76583335D01*
%TO.C,C1*%
X96620000Y-81683335D02*
X96620000Y-81451665D01*
X97340000Y-81683335D02*
X97340000Y-81451665D01*
%TO.C,C15*%
X93990000Y-70383335D02*
X93990000Y-70151665D01*
X94710000Y-70383335D02*
X94710000Y-70151665D01*
%TO.C,C7*%
X105540000Y-81451665D02*
X105540000Y-81683335D01*
X104820000Y-81451665D02*
X104820000Y-81683335D01*
%TO.C,U3*%
X97429750Y-77652500D02*
X97429750Y-77002500D01*
X98079750Y-70432500D02*
X97429750Y-70432500D01*
X98079750Y-77652500D02*
X97429750Y-77652500D01*
X103999750Y-70432500D02*
X104649750Y-70432500D01*
X103999750Y-77652500D02*
X104649750Y-77652500D01*
X104649750Y-70432500D02*
X104649750Y-71082500D01*
X104649750Y-77652500D02*
X104649750Y-77002500D01*
%TO.C,C3*%
X102580000Y-81451665D02*
X102580000Y-81683335D01*
X101860000Y-81451665D02*
X101860000Y-81683335D01*
%TO.C,C16*%
X104560000Y-81451665D02*
X104560000Y-81683335D01*
X103840000Y-81451665D02*
X103840000Y-81683335D01*
D12*
%TO.C,IC1*%
X94914750Y-67417500D02*
G75*
G03*
X94914750Y-67417500I-125000J0D01*
G01*
D11*
%TO.C,R3*%
X99380000Y-64199879D02*
X99380000Y-64535121D01*
X98620000Y-64199879D02*
X98620000Y-64535121D01*
%TO.C,C8*%
X101540000Y-66983335D02*
X101540000Y-66751665D01*
X102260000Y-66983335D02*
X102260000Y-66751665D01*
%TO.C,R1*%
X93897250Y-66985121D02*
X93897250Y-66649879D01*
X94657250Y-66985121D02*
X94657250Y-66649879D01*
%TO.C,R9*%
X103720000Y-64535121D02*
X103720000Y-64199879D01*
X104480000Y-64535121D02*
X104480000Y-64199879D01*
%TO.C,R8*%
X93620000Y-61499879D02*
X93620000Y-61835121D01*
X94380000Y-61499879D02*
X94380000Y-61835121D01*
D13*
%TO.C,D3*%
X95100000Y-60402500D02*
G75*
G03*
X95100000Y-60402500I-50000J0D01*
G01*
D11*
%TO.C,C2*%
X107040000Y-61683335D02*
X107040000Y-61451665D01*
X107760000Y-61683335D02*
X107760000Y-61451665D01*
%TO.C,R2*%
X102680000Y-64199879D02*
X102680000Y-64535121D01*
X101920000Y-64199879D02*
X101920000Y-64535121D01*
%TO.C,R6*%
X100480000Y-64199879D02*
X100480000Y-64535121D01*
X99720000Y-64199879D02*
X99720000Y-64535121D01*
%TD*%
M02*
