%TF.GenerationSoftware,KiCad,Pcbnew,7.0.6-0*%
%TF.CreationDate,2023-07-21T12:15:06+07:00*%
%TF.ProjectId,RP2040Reference,52503230-3430-4526-9566-6572656e6365,rev?*%
%TF.SameCoordinates,Original*%
%TF.FileFunction,Paste,Top*%
%TF.FilePolarity,Positive*%
%FSLAX46Y46*%
G04 Gerber Fmt 4.6, Leading zero omitted, Abs format (unit mm)*
G04 Created by KiCad (PCBNEW 7.0.6-0) date 2023-07-21 12:15:06*
%MOMM*%
%LPD*%
G01*
G04 APERTURE LIST*
G04 Aperture macros list*
%AMRoundRect*
0 Rectangle with rounded corners*
0 $1 Rounding radius*
0 $2 $3 $4 $5 $6 $7 $8 $9 X,Y pos of 4 corners*
0 Add a 4 corners polygon primitive as box body*
4,1,4,$2,$3,$4,$5,$6,$7,$8,$9,$2,$3,0*
0 Add four circle primitives for the rounded corners*
1,1,$1+$1,$2,$3*
1,1,$1+$1,$4,$5*
1,1,$1+$1,$6,$7*
1,1,$1+$1,$8,$9*
0 Add four rect primitives between the rounded corners*
20,1,$1+$1,$2,$3,$4,$5,0*
20,1,$1+$1,$4,$5,$6,$7,0*
20,1,$1+$1,$6,$7,$8,$9,0*
20,1,$1+$1,$8,$9,$2,$3,0*%
G04 Aperture macros list end*
%ADD10RoundRect,0.155000X0.155000X-0.212500X0.155000X0.212500X-0.155000X0.212500X-0.155000X-0.212500X0*%
%ADD11RoundRect,0.155000X-0.155000X0.212500X-0.155000X-0.212500X0.155000X-0.212500X0.155000X0.212500X0*%
%ADD12RoundRect,0.160000X-0.160000X0.197500X-0.160000X-0.197500X0.160000X-0.197500X0.160000X0.197500X0*%
%ADD13R,0.600000X1.450000*%
%ADD14R,0.300000X1.450000*%
%ADD15RoundRect,0.155000X0.212500X0.155000X-0.212500X0.155000X-0.212500X-0.155000X0.212500X-0.155000X0*%
%ADD16RoundRect,0.250000X-0.292217X-0.292217X0.292217X-0.292217X0.292217X0.292217X-0.292217X0.292217X0*%
%ADD17RoundRect,0.050000X-0.387500X-0.050000X0.387500X-0.050000X0.387500X0.050000X-0.387500X0.050000X0*%
%ADD18RoundRect,0.050000X-0.050000X-0.387500X0.050000X-0.387500X0.050000X0.387500X-0.050000X0.387500X0*%
%ADD19R,0.650000X1.050000*%
%ADD20R,1.400000X1.200000*%
%ADD21R,0.300000X0.900000*%
%ADD22R,1.650000X0.250000*%
%ADD23R,0.600000X1.200000*%
%ADD24RoundRect,0.160000X0.160000X-0.197500X0.160000X0.197500X-0.160000X0.197500X-0.160000X-0.197500X0*%
%ADD25RoundRect,0.160000X-0.160000X0.222500X-0.160000X-0.222500X0.160000X-0.222500X0.160000X0.222500X0*%
G04 APERTURE END LIST*
D10*
%TO.C,C13*%
X103000000Y-67435000D03*
X103000000Y-66300000D03*
%TD*%
D11*
%TO.C,C14*%
X94500000Y-75800000D03*
X94500000Y-76935000D03*
%TD*%
D12*
%TO.C,R4*%
X103210000Y-80970000D03*
X103210000Y-82165000D03*
%TD*%
%TO.C,R7*%
X101200000Y-63770000D03*
X101200000Y-64965000D03*
%TD*%
D10*
%TO.C,C11*%
X100100000Y-67435000D03*
X100100000Y-66300000D03*
%TD*%
%TO.C,C10*%
X104100000Y-67435000D03*
X104100000Y-66300000D03*
%TD*%
D13*
%TO.C,J2*%
X104250000Y-61452500D03*
X103450000Y-61452500D03*
D14*
X102250000Y-61452500D03*
X101250000Y-61452500D03*
X100750000Y-61452500D03*
X99750000Y-61452500D03*
D13*
X98550000Y-61452500D03*
X97750000Y-61452500D03*
X97750000Y-61452500D03*
X98550000Y-61452500D03*
D14*
X99250000Y-61452500D03*
X100250000Y-61452500D03*
X101750000Y-61452500D03*
X102750000Y-61452500D03*
D13*
X103450000Y-61452500D03*
X104250000Y-61452500D03*
%TD*%
D15*
%TO.C,C5*%
X106367500Y-67567500D03*
X105232500Y-67567500D03*
%TD*%
D10*
%TO.C,C6*%
X99000000Y-67435000D03*
X99000000Y-66300000D03*
%TD*%
%TO.C,C12*%
X107600000Y-70635000D03*
X107600000Y-69500000D03*
%TD*%
D11*
%TO.C,C17*%
X94289750Y-63850000D03*
X94289750Y-64985000D03*
%TD*%
%TO.C,C9*%
X107600000Y-75900000D03*
X107600000Y-77035000D03*
%TD*%
D10*
%TO.C,C1*%
X96980000Y-82135000D03*
X96980000Y-81000000D03*
%TD*%
%TO.C,C15*%
X94350000Y-70835000D03*
X94350000Y-69700000D03*
%TD*%
D11*
%TO.C,C7*%
X105180000Y-81000000D03*
X105180000Y-82135000D03*
%TD*%
D16*
%TO.C,U3*%
X100402250Y-73405000D03*
X100402250Y-74680000D03*
X101677250Y-73405000D03*
X101677250Y-74680000D03*
D17*
X97602250Y-71442500D03*
X97602250Y-71842500D03*
X97602250Y-72242500D03*
X97602250Y-72642500D03*
X97602250Y-73042500D03*
X97602250Y-73442500D03*
X97602250Y-73842500D03*
X97602250Y-74242500D03*
X97602250Y-74642500D03*
X97602250Y-75042500D03*
X97602250Y-75442500D03*
X97602250Y-75842500D03*
X97602250Y-76242500D03*
X97602250Y-76642500D03*
D18*
X98439750Y-77480000D03*
X98839750Y-77480000D03*
X99239750Y-77480000D03*
X99639750Y-77480000D03*
X100039750Y-77480000D03*
X100439750Y-77480000D03*
X100839750Y-77480000D03*
X101239750Y-77480000D03*
X101639750Y-77480000D03*
X102039750Y-77480000D03*
X102439750Y-77480000D03*
X102839750Y-77480000D03*
X103239750Y-77480000D03*
X103639750Y-77480000D03*
D17*
X104477250Y-76642500D03*
X104477250Y-76242500D03*
X104477250Y-75842500D03*
X104477250Y-75442500D03*
X104477250Y-75042500D03*
X104477250Y-74642500D03*
X104477250Y-74242500D03*
X104477250Y-73842500D03*
X104477250Y-73442500D03*
X104477250Y-73042500D03*
X104477250Y-72642500D03*
X104477250Y-72242500D03*
X104477250Y-71842500D03*
X104477250Y-71442500D03*
D18*
X103639750Y-70605000D03*
X103239750Y-70605000D03*
X102839750Y-70605000D03*
X102439750Y-70605000D03*
X102039750Y-70605000D03*
X101639750Y-70605000D03*
X101239750Y-70605000D03*
X100839750Y-70605000D03*
X100439750Y-70605000D03*
X100039750Y-70605000D03*
X99639750Y-70605000D03*
X99239750Y-70605000D03*
X98839750Y-70605000D03*
X98439750Y-70605000D03*
%TD*%
D19*
%TO.C,SW2*%
X93000000Y-59817500D03*
X93000000Y-55667500D03*
X95150000Y-59817500D03*
X95150000Y-55667500D03*
%TD*%
D11*
%TO.C,C3*%
X102220000Y-81000000D03*
X102220000Y-82135000D03*
%TD*%
D20*
%TO.C,Y1*%
X98500000Y-82467500D03*
X100700000Y-82467500D03*
X100700000Y-80767500D03*
X98500000Y-80767500D03*
%TD*%
D11*
%TO.C,C16*%
X104200000Y-81000000D03*
X104200000Y-82135000D03*
%TD*%
D21*
%TO.C,IC1*%
X95439750Y-66967500D03*
X95939750Y-66967500D03*
X96439750Y-66967500D03*
X96939750Y-66967500D03*
X96939750Y-64167500D03*
X96439750Y-64167500D03*
X95939750Y-64167500D03*
X95439750Y-64167500D03*
D22*
X96189750Y-65567500D03*
%TD*%
D23*
%TO.C,IC2*%
X107450000Y-63617500D03*
X106500000Y-63617500D03*
X105550000Y-63617500D03*
X105550000Y-66117500D03*
X107450000Y-66117500D03*
%TD*%
D12*
%TO.C,R3*%
X99000000Y-63770000D03*
X99000000Y-64965000D03*
%TD*%
D10*
%TO.C,C8*%
X101900000Y-67435000D03*
X101900000Y-66300000D03*
%TD*%
D24*
%TO.C,R1*%
X94277250Y-67415000D03*
X94277250Y-66220000D03*
%TD*%
%TO.C,R9*%
X104100000Y-64965000D03*
X104100000Y-63770000D03*
%TD*%
D12*
%TO.C,R8*%
X94000000Y-62265000D03*
X94000000Y-61070000D03*
%TD*%
D19*
%TO.C,SW1*%
X106925000Y-59742500D03*
X106925000Y-55592500D03*
X109075000Y-59742500D03*
X109075000Y-55592500D03*
%TD*%
D25*
%TO.C,D3*%
X95050000Y-62240000D03*
X95050000Y-61095000D03*
%TD*%
D10*
%TO.C,C2*%
X107400000Y-62135000D03*
X107400000Y-61000000D03*
%TD*%
D12*
%TO.C,R2*%
X102300000Y-63770000D03*
X102300000Y-64965000D03*
%TD*%
%TO.C,R6*%
X100100000Y-63770000D03*
X100100000Y-64965000D03*
%TD*%
M02*
