M48
; DRILL file {KiCad 7.0.6-0} date 2023 July 21, Friday 12:15:08
; FORMAT={-:-/ absolute / metric / decimal}
; #@! TF.CreationDate,2023-07-21T12:15:08+07:00
; #@! TF.GenerationSoftware,Kicad,Pcbnew,7.0.6-0
; #@! TF.FileFunction,Plated,1,2,PTH
FMAT,2
METRIC
; #@! TA.AperFunction,Plated,PTH,ViaDrill
T1C0.300
; #@! TA.AperFunction,Plated,PTH,ComponentDrill
T2C0.350
; #@! TA.AperFunction,Plated,PTH,ComponentDrill
T3C0.600
; #@! TA.AperFunction,Plated,PTH,ComponentDrill
T4C1.000
%
G90
G05
T1
X93.0Y-58.767
X94.0Y-58.8
X94.244Y-72.083
X94.5Y-77.867
X94.877Y-68.067
X95.0Y-72.007
X95.032Y-65.098
X95.15Y-58.817
X95.3Y-69.718
X96.0Y-62.417
X96.067Y-81.0
X96.9Y-62.417
X98.33Y-63.057
X99.197Y-67.898
X101.615Y-76.142
X101.975Y-78.792
X102.51Y-71.742
X102.962Y-78.813
X103.25Y-63.217
X103.25Y-64.218
X103.25Y-65.218
X103.385Y-76.387
X103.9Y-78.837
X104.3Y-62.817
X105.25Y-62.167
X106.0Y-82.167
X106.35Y-73.597
X106.4Y-60.767
X106.45Y-62.167
X107.6Y-77.867
X108.1Y-56.617
X108.454Y-69.567
T2
X99.765Y-72.767
X99.765Y-74.042
X99.765Y-75.317
X101.04Y-72.767
X101.04Y-74.042
X101.04Y-75.317
X102.315Y-72.767
X102.315Y-74.042
X102.315Y-75.317
T4
X92.17Y-63.328
X92.17Y-65.867
X92.17Y-68.407
X92.17Y-70.947
X92.17Y-73.487
X92.17Y-76.028
X92.17Y-78.567
X92.17Y-81.108
X109.93Y-63.328
X109.93Y-65.867
X109.93Y-68.407
X109.93Y-70.947
X109.93Y-73.487
X109.93Y-76.028
X109.93Y-78.567
X109.93Y-81.108
T3
X96.68Y-56.657G85X96.68Y-56.057
G05
X96.68Y-61.087G85X96.68Y-59.987
G05
X105.32Y-56.657G85X105.32Y-56.057
G05
X105.32Y-61.087G85X105.32Y-59.987
G05
T0
M30
