  0
SECTION
  2
HEADER
  9
$ANGBASE
  50
0.0
  9
$ANGDIR
  70
1
  9
$MEASUREMENT
  70
1
  0
ENDSEC
  0
SECTION
  2
TABLES
  0
TABLE
  2
LTYPE
  70
4
  0
LTYPE
  5
40F
  2
CONTINUOUS
  70
0
  3
Solid line
  72
65
  73
0
  40
0.0
  0
LTYPE
  5
410
  2
DASHDOT
 70
0
  3
Dash Dot ____ _ ____ _
 72
65
 73
4
 40
2.0
 49
1.25
 49
-0.25
 49
0.25
 49
-0.25
  0
LTYPE
  5
411
  2
DASHED
 70
0
  3
Dashed __ __ __ __ __
 72
65
 73
2
 40
0.75
 49
0.5
 49
-0.25
  0
LTYPE
  5
43B
  2
DOTTED
 70
0
  3
Dotted .  .  .  .
 72
65
 73
2
 40
0.2
 49
0.0
 49
-0.2
  0
ENDTAB
  0
TABLE
  2
STYLE
  70
4
  0
STYLE
  2
KICAD
  70
0
  40
0
  41
1
  42
1
  50
0
  71
0
  3
isocp.shx
  0
STYLE
  2
KICADB
  70
0
  40
0
  41
1
  42
1
  50
0
  71
0
  3
isocp.shx
  0
STYLE
  2
KICADI
  70
0
  40
0
  41
1
  42
1
  50
15
  71
0
  3
isocp.shx
  0
STYLE
  2
KICADBI
  70
0
  40
0
  41
1
  42
1
  50
15
  71
0
  3
isocp.shx
  0
ENDTAB
  0
TABLE
  2
LAYER
  70
1
  0
LAYER
  2
BLACK
  70
0
  62
7
  6
CONTINUOUS
  0
ENDTAB
  0
ENDSEC
  0
SECTION
  2
ENTITIES
0
LINE
8
BLACK
6
CONTINUOUS
10
92.87
20
-83.7675
11
109.23
21
-83.7675
0
LINE
8
BLACK
6
CONTINUOUS
10
109.23
20
-54.5675
11
92.87
21
-54.5675
0
LINE
8
BLACK
6
CONTINUOUS
10
111.23
20
-81.7675
11
111.23
21
-56.5675
0
ARC
8
BLACK
10
109.23
20
-81.7675
40
2
50
-90
51
-0
0
LINE
8
BLACK
6
CONTINUOUS
10
90.87
20
-56.5675
11
90.87
21
-81.7675
0
ARC
8
BLACK
10
109.23
20
-56.5675
40
2
50
-0
51
90
0
ARC
8
BLACK
10
92.87
20
-81.7675
40
2
50
-180
51
-90
0
ARC
8
BLACK
10
92.87
20
-56.5675
40
2
50
90
51
180
0
LINE
8
BLACK
6
CONTINUOUS
10
92.85
20
-58.6175
11
93.15
21
-58.9175
0
LINE
8
BLACK
6
CONTINUOUS
10
93.15
20
-58.6175
11
92.85
21
-58.9175
0
LINE
8
BLACK
6
CONTINUOUS
10
93.85
20
-58.65
11
94.15
21
-58.95
0
LINE
8
BLACK
6
CONTINUOUS
10
94.15
20
-58.65
11
93.85
21
-58.95
0
LINE
8
BLACK
6
CONTINUOUS
10
94.0943
20
-71.9332
11
94.3943
21
-72.2332
0
LINE
8
BLACK
6
CONTINUOUS
10
94.3943
20
-71.9332
11
94.0943
21
-72.2332
0
LINE
8
BLACK
6
CONTINUOUS
10
94.35
20
-77.7175
11
94.65
21
-78.0175
0
LINE
8
BLACK
6
CONTINUOUS
10
94.65
20
-77.7175
11
94.35
21
-78.0175
0
LINE
8
BLACK
6
CONTINUOUS
10
94.7272
20
-67.9175
11
95.0272
21
-68.2175
0
LINE
8
BLACK
6
CONTINUOUS
10
95.0272
20
-67.9175
11
94.7272
21
-68.2175
0
LINE
8
BLACK
6
CONTINUOUS
10
94.85
20
-71.857
11
95.15
21
-72.157
0
LINE
8
BLACK
6
CONTINUOUS
10
95.15
20
-71.857
11
94.85
21
-72.157
0
LINE
8
BLACK
6
CONTINUOUS
10
94.8817
20
-64.9481
11
95.1817
21
-65.2481
0
LINE
8
BLACK
6
CONTINUOUS
10
95.1817
20
-64.9481
11
94.8817
21
-65.2481
0
LINE
8
BLACK
6
CONTINUOUS
10
95
20
-58.6675
11
95.3
21
-58.9675
0
LINE
8
BLACK
6
CONTINUOUS
10
95.3
20
-58.6675
11
95
21
-58.9675
0
LINE
8
BLACK
6
CONTINUOUS
10
95.15
20
-69.5675
11
95.45
21
-69.8675
0
LINE
8
BLACK
6
CONTINUOUS
10
95.45
20
-69.5675
11
95.15
21
-69.8675
0
LINE
8
BLACK
6
CONTINUOUS
10
95.85
20
-62.2675
11
96.15
21
-62.5675
0
LINE
8
BLACK
6
CONTINUOUS
10
96.15
20
-62.2675
11
95.85
21
-62.5675
0
LINE
8
BLACK
6
CONTINUOUS
10
95.9175
20
-80.85
11
96.2175
21
-81.15
0
LINE
8
BLACK
6
CONTINUOUS
10
96.2175
20
-80.85
11
95.9175
21
-81.15
0
LINE
8
BLACK
6
CONTINUOUS
10
96.75
20
-62.2675
11
97.05
21
-62.5675
0
LINE
8
BLACK
6
CONTINUOUS
10
97.05
20
-62.2675
11
96.75
21
-62.5675
0
LINE
8
BLACK
6
CONTINUOUS
10
98.18
20
-62.9075
11
98.48
21
-63.2075
0
LINE
8
BLACK
6
CONTINUOUS
10
98.48
20
-62.9075
11
98.18
21
-63.2075
0
LINE
8
BLACK
6
CONTINUOUS
10
99.0472
20
-67.7484
11
99.3472
21
-68.0484
0
LINE
8
BLACK
6
CONTINUOUS
10
99.3472
20
-67.7484
11
99.0472
21
-68.0484
0
LINE
8
BLACK
6
CONTINUOUS
10
101.465
20
-75.992
11
101.765
21
-76.292
0
LINE
8
BLACK
6
CONTINUOUS
10
101.765
20
-75.992
11
101.465
21
-76.292
0
LINE
8
BLACK
6
CONTINUOUS
10
101.825
20
-78.642
11
102.125
21
-78.942
0
LINE
8
BLACK
6
CONTINUOUS
10
102.125
20
-78.642
11
101.825
21
-78.942
0
LINE
8
BLACK
6
CONTINUOUS
10
102.36
20
-71.5925
11
102.66
21
-71.8925
0
LINE
8
BLACK
6
CONTINUOUS
10
102.66
20
-71.5925
11
102.36
21
-71.8925
0
LINE
8
BLACK
6
CONTINUOUS
10
102.812
20
-78.6635
11
103.112
21
-78.9635
0
LINE
8
BLACK
6
CONTINUOUS
10
103.112
20
-78.6635
11
102.812
21
-78.9635
0
LINE
8
BLACK
6
CONTINUOUS
10
103.1
20
-63.0675
11
103.4
21
-63.3675
0
LINE
8
BLACK
6
CONTINUOUS
10
103.4
20
-63.0675
11
103.1
21
-63.3675
0
LINE
8
BLACK
6
CONTINUOUS
10
103.1
20
-64.0675
11
103.4
21
-64.3675
0
LINE
8
BLACK
6
CONTINUOUS
10
103.4
20
-64.0675
11
103.1
21
-64.3675
0
LINE
8
BLACK
6
CONTINUOUS
10
103.1
20
-65.0675
11
103.4
21
-65.3675
0
LINE
8
BLACK
6
CONTINUOUS
10
103.4
20
-65.0675
11
103.1
21
-65.3675
0
LINE
8
BLACK
6
CONTINUOUS
10
103.235
20
-76.2374
11
103.535
21
-76.5374
0
LINE
8
BLACK
6
CONTINUOUS
10
103.535
20
-76.2374
11
103.235
21
-76.5374
0
LINE
8
BLACK
6
CONTINUOUS
10
103.75
20
-78.6871
11
104.05
21
-78.9871
0
LINE
8
BLACK
6
CONTINUOUS
10
104.05
20
-78.6871
11
103.75
21
-78.9871
0
LINE
8
BLACK
6
CONTINUOUS
10
104.15
20
-62.6675
11
104.45
21
-62.9675
0
LINE
8
BLACK
6
CONTINUOUS
10
104.45
20
-62.6675
11
104.15
21
-62.9675
0
LINE
8
BLACK
6
CONTINUOUS
10
105.1
20
-62.0175
11
105.4
21
-62.3175
0
LINE
8
BLACK
6
CONTINUOUS
10
105.4
20
-62.0175
11
105.1
21
-62.3175
0
LINE
8
BLACK
6
CONTINUOUS
10
105.85
20
-82.0175
11
106.15
21
-82.3175
0
LINE
8
BLACK
6
CONTINUOUS
10
106.15
20
-82.0175
11
105.85
21
-82.3175
0
LINE
8
BLACK
6
CONTINUOUS
10
106.2
20
-73.447
11
106.5
21
-73.747
0
LINE
8
BLACK
6
CONTINUOUS
10
106.5
20
-73.447
11
106.2
21
-73.747
0
LINE
8
BLACK
6
CONTINUOUS
10
106.25
20
-60.6175
11
106.55
21
-60.9175
0
LINE
8
BLACK
6
CONTINUOUS
10
106.55
20
-60.6175
11
106.25
21
-60.9175
0
LINE
8
BLACK
6
CONTINUOUS
10
106.3
20
-62.0175
11
106.6
21
-62.3175
0
LINE
8
BLACK
6
CONTINUOUS
10
106.6
20
-62.0175
11
106.3
21
-62.3175
0
LINE
8
BLACK
6
CONTINUOUS
10
107.45
20
-77.7175
11
107.75
21
-78.0175
0
LINE
8
BLACK
6
CONTINUOUS
10
107.75
20
-77.7175
11
107.45
21
-78.0175
0
LINE
8
BLACK
6
CONTINUOUS
10
107.95
20
-56.4675
11
108.25
21
-56.7675
0
LINE
8
BLACK
6
CONTINUOUS
10
108.25
20
-56.4675
11
107.95
21
-56.7675
0
LINE
8
BLACK
6
CONTINUOUS
10
108.304
20
-69.4175
11
108.605
21
-69.7175
0
LINE
8
BLACK
6
CONTINUOUS
10
108.605
20
-69.4175
11
108.304
21
-69.7175
0
CIRCLE
8
BLACK
10
99.7647
20
-72.7675
40
0.175
0
CIRCLE
8
BLACK
10
99.7647
20
-74.0425
40
0.175
0
CIRCLE
8
BLACK
10
99.7647
20
-75.3175
40
0.175
0
CIRCLE
8
BLACK
10
101.04
20
-72.7675
40
0.175
0
CIRCLE
8
BLACK
10
101.04
20
-74.0425
40
0.175
0
CIRCLE
8
BLACK
10
101.04
20
-75.3175
40
0.175
0
CIRCLE
8
BLACK
10
102.315
20
-72.7675
40
0.175
0
CIRCLE
8
BLACK
10
102.315
20
-74.0425
40
0.175
0
CIRCLE
8
BLACK
10
102.315
20
-75.3175
40
0.175
0
LINE
8
BLACK
6
CONTINUOUS
10
96.68
20
-56.0575
11
96.68
21
-56.6575
0
LINE
8
BLACK
6
CONTINUOUS
10
96.38
20
-56.3575
11
96.98
21
-56.3575
0
LINE
8
BLACK
6
CONTINUOUS
10
96.98
20
-56.6575
11
96.98
21
-56.0575
0
ARC
8
BLACK
10
96.68
20
-56.0575
40
0.3
50
360
51
540
0
LINE
8
BLACK
6
CONTINUOUS
10
96.38
20
-56.0575
11
96.38
21
-56.6575
0
ARC
8
BLACK
10
96.68
20
-56.6575
40
0.3
50
180
51
360
0
LINE
8
BLACK
6
CONTINUOUS
10
96.68
20
-60.2375
11
96.68
21
-60.8375
0
LINE
8
BLACK
6
CONTINUOUS
10
96.38
20
-60.5375
11
96.98
21
-60.5375
0
LINE
8
BLACK
6
CONTINUOUS
10
96.98
20
-61.0875
11
96.98
21
-59.9875
0
ARC
8
BLACK
10
96.68
20
-59.9875
40
0.3
50
360
51
540
0
LINE
8
BLACK
6
CONTINUOUS
10
96.38
20
-59.9875
11
96.38
21
-61.0875
0
ARC
8
BLACK
10
96.68
20
-61.0875
40
0.3
50
180
51
360
0
LINE
8
BLACK
6
CONTINUOUS
10
105.32
20
-56.0575
11
105.32
21
-56.6575
0
LINE
8
BLACK
6
CONTINUOUS
10
105.02
20
-56.3575
11
105.62
21
-56.3575
0
LINE
8
BLACK
6
CONTINUOUS
10
105.62
20
-56.6575
11
105.62
21
-56.0575
0
ARC
8
BLACK
10
105.32
20
-56.0575
40
0.3
50
360
51
540
0
LINE
8
BLACK
6
CONTINUOUS
10
105.02
20
-56.0575
11
105.02
21
-56.6575
0
ARC
8
BLACK
10
105.32
20
-56.6575
40
0.3
50
180
51
360
0
LINE
8
BLACK
6
CONTINUOUS
10
105.32
20
-60.2375
11
105.32
21
-60.8375
0
LINE
8
BLACK
6
CONTINUOUS
10
105.02
20
-60.5375
11
105.62
21
-60.5375
0
LINE
8
BLACK
6
CONTINUOUS
10
105.62
20
-61.0875
11
105.62
21
-59.9875
0
ARC
8
BLACK
10
105.32
20
-59.9875
40
0.3
50
360
51
540
0
LINE
8
BLACK
6
CONTINUOUS
10
105.02
20
-59.9875
11
105.02
21
-61.0875
0
ARC
8
BLACK
10
105.32
20
-61.0875
40
0.3
50
180
51
360
0
LINE
8
BLACK
6
CONTINUOUS
10
92.5236
20
-63.6811
11
92.5236
21
-62.9739
0
LINE
8
BLACK
6
CONTINUOUS
10
92.5236
20
-62.9739
11
91.8164
21
-62.9739
0
LINE
8
BLACK
6
CONTINUOUS
10
91.8164
20
-62.9739
11
91.8164
21
-63.6811
0
LINE
8
BLACK
6
CONTINUOUS
10
91.8164
20
-63.6811
11
92.5236
21
-63.6811
0
LINE
8
BLACK
6
CONTINUOUS
10
92.5236
20
-66.2211
11
92.5236
21
-65.5139
0
LINE
8
BLACK
6
CONTINUOUS
10
92.5236
20
-65.5139
11
91.8164
21
-65.5139
0
LINE
8
BLACK
6
CONTINUOUS
10
91.8164
20
-65.5139
11
91.8164
21
-66.2211
0
LINE
8
BLACK
6
CONTINUOUS
10
91.8164
20
-66.2211
11
92.5236
21
-66.2211
0
LINE
8
BLACK
6
CONTINUOUS
10
92.5236
20
-68.7611
11
92.5236
21
-68.0539
0
LINE
8
BLACK
6
CONTINUOUS
10
92.5236
20
-68.0539
11
91.8164
21
-68.0539
0
LINE
8
BLACK
6
CONTINUOUS
10
91.8164
20
-68.0539
11
91.8164
21
-68.7611
0
LINE
8
BLACK
6
CONTINUOUS
10
91.8164
20
-68.7611
11
92.5236
21
-68.7611
0
LINE
8
BLACK
6
CONTINUOUS
10
92.5236
20
-71.3011
11
92.5236
21
-70.5939
0
LINE
8
BLACK
6
CONTINUOUS
10
92.5236
20
-70.5939
11
91.8164
21
-70.5939
0
LINE
8
BLACK
6
CONTINUOUS
10
91.8164
20
-70.5939
11
91.8164
21
-71.3011
0
LINE
8
BLACK
6
CONTINUOUS
10
91.8164
20
-71.3011
11
92.5236
21
-71.3011
0
LINE
8
BLACK
6
CONTINUOUS
10
92.5236
20
-73.8411
11
92.5236
21
-73.1339
0
LINE
8
BLACK
6
CONTINUOUS
10
92.5236
20
-73.1339
11
91.8164
21
-73.1339
0
LINE
8
BLACK
6
CONTINUOUS
10
91.8164
20
-73.1339
11
91.8164
21
-73.8411
0
LINE
8
BLACK
6
CONTINUOUS
10
91.8164
20
-73.8411
11
92.5236
21
-73.8411
0
LINE
8
BLACK
6
CONTINUOUS
10
92.5236
20
-76.3811
11
92.5236
21
-75.6739
0
LINE
8
BLACK
6
CONTINUOUS
10
92.5236
20
-75.6739
11
91.8164
21
-75.6739
0
LINE
8
BLACK
6
CONTINUOUS
10
91.8164
20
-75.6739
11
91.8164
21
-76.3811
0
LINE
8
BLACK
6
CONTINUOUS
10
91.8164
20
-76.3811
11
92.5236
21
-76.3811
0
LINE
8
BLACK
6
CONTINUOUS
10
92.5236
20
-78.9211
11
92.5236
21
-78.2139
0
LINE
8
BLACK
6
CONTINUOUS
10
92.5236
20
-78.2139
11
91.8164
21
-78.2139
0
LINE
8
BLACK
6
CONTINUOUS
10
91.8164
20
-78.2139
11
91.8164
21
-78.9211
0
LINE
8
BLACK
6
CONTINUOUS
10
91.8164
20
-78.9211
11
92.5236
21
-78.9211
0
LINE
8
BLACK
6
CONTINUOUS
10
92.5236
20
-81.4611
11
92.5236
21
-80.7539
0
LINE
8
BLACK
6
CONTINUOUS
10
92.5236
20
-80.7539
11
91.8164
21
-80.7539
0
LINE
8
BLACK
6
CONTINUOUS
10
91.8164
20
-80.7539
11
91.8164
21
-81.4611
0
LINE
8
BLACK
6
CONTINUOUS
10
91.8164
20
-81.4611
11
92.5236
21
-81.4611
0
LINE
8
BLACK
6
CONTINUOUS
10
110.284
20
-63.6811
11
110.284
21
-62.9739
0
LINE
8
BLACK
6
CONTINUOUS
10
110.284
20
-62.9739
11
109.576
21
-62.9739
0
LINE
8
BLACK
6
CONTINUOUS
10
109.576
20
-62.9739
11
109.576
21
-63.6811
0
LINE
8
BLACK
6
CONTINUOUS
10
109.576
20
-63.6811
11
110.284
21
-63.6811
0
LINE
8
BLACK
6
CONTINUOUS
10
110.284
20
-66.2211
11
110.284
21
-65.5139
0
LINE
8
BLACK
6
CONTINUOUS
10
110.284
20
-65.5139
11
109.576
21
-65.5139
0
LINE
8
BLACK
6
CONTINUOUS
10
109.576
20
-65.5139
11
109.576
21
-66.2211
0
LINE
8
BLACK
6
CONTINUOUS
10
109.576
20
-66.2211
11
110.284
21
-66.2211
0
LINE
8
BLACK
6
CONTINUOUS
10
110.284
20
-68.7611
11
110.284
21
-68.0539
0
LINE
8
BLACK
6
CONTINUOUS
10
110.284
20
-68.0539
11
109.576
21
-68.0539
0
LINE
8
BLACK
6
CONTINUOUS
10
109.576
20
-68.0539
11
109.576
21
-68.7611
0
LINE
8
BLACK
6
CONTINUOUS
10
109.576
20
-68.7611
11
110.284
21
-68.7611
0
LINE
8
BLACK
6
CONTINUOUS
10
110.284
20
-71.3011
11
110.284
21
-70.5939
0
LINE
8
BLACK
6
CONTINUOUS
10
110.284
20
-70.5939
11
109.576
21
-70.5939
0
LINE
8
BLACK
6
CONTINUOUS
10
109.576
20
-70.5939
11
109.576
21
-71.3011
0
LINE
8
BLACK
6
CONTINUOUS
10
109.576
20
-71.3011
11
110.284
21
-71.3011
0
LINE
8
BLACK
6
CONTINUOUS
10
110.284
20
-73.8411
11
110.284
21
-73.1339
0
LINE
8
BLACK
6
CONTINUOUS
10
110.284
20
-73.1339
11
109.576
21
-73.1339
0
LINE
8
BLACK
6
CONTINUOUS
10
109.576
20
-73.1339
11
109.576
21
-73.8411
0
LINE
8
BLACK
6
CONTINUOUS
10
109.576
20
-73.8411
11
110.284
21
-73.8411
0
LINE
8
BLACK
6
CONTINUOUS
10
110.284
20
-76.3811
11
110.284
21
-75.6739
0
LINE
8
BLACK
6
CONTINUOUS
10
110.284
20
-75.6739
11
109.576
21
-75.6739
0
LINE
8
BLACK
6
CONTINUOUS
10
109.576
20
-75.6739
11
109.576
21
-76.3811
0
LINE
8
BLACK
6
CONTINUOUS
10
109.576
20
-76.3811
11
110.284
21
-76.3811
0
LINE
8
BLACK
6
CONTINUOUS
10
110.284
20
-78.9211
11
110.284
21
-78.2139
0
LINE
8
BLACK
6
CONTINUOUS
10
110.284
20
-78.2139
11
109.576
21
-78.2139
0
LINE
8
BLACK
6
CONTINUOUS
10
109.576
20
-78.2139
11
109.576
21
-78.9211
0
LINE
8
BLACK
6
CONTINUOUS
10
109.576
20
-78.9211
11
110.284
21
-78.9211
0
LINE
8
BLACK
6
CONTINUOUS
10
110.284
20
-81.4611
11
110.284
21
-80.7539
0
LINE
8
BLACK
6
CONTINUOUS
10
110.284
20
-80.7539
11
109.576
21
-80.7539
0
LINE
8
BLACK
6
CONTINUOUS
10
109.576
20
-80.7539
11
109.576
21
-81.4611
0
LINE
8
BLACK
6
CONTINUOUS
10
109.576
20
-81.4611
11
110.284
21
-81.4611
0
LINE
8
BLACK
6
CONTINUOUS
10
93.4278
20
-86.9323
11
93.4278
21
-84.9323
0
LINE
8
BLACK
6
CONTINUOUS
10
93.4278
20
-84.9323
11
93.904
21
-84.9323
0
LINE
8
BLACK
6
CONTINUOUS
10
93.904
20
-84.9323
11
94.1897
21
-85.0276
0
LINE
8
BLACK
6
CONTINUOUS
10
94.1897
20
-85.0276
11
94.3801
21
-85.2181
0
LINE
8
BLACK
6
CONTINUOUS
10
94.3801
20
-85.2181
11
94.4754
21
-85.4085
0
LINE
8
BLACK
6
CONTINUOUS
10
94.4754
20
-85.4085
11
94.5706
21
-85.7895
0
LINE
8
BLACK
6
CONTINUOUS
10
94.5706
20
-85.7895
11
94.5706
21
-86.0752
0
LINE
8
BLACK
6
CONTINUOUS
10
94.5706
20
-86.0752
11
94.4754
21
-86.4561
0
LINE
8
BLACK
6
CONTINUOUS
10
94.4754
20
-86.4561
11
94.3801
21
-86.6466
0
LINE
8
BLACK
6
CONTINUOUS
10
94.3801
20
-86.6466
11
94.1897
21
-86.8371
0
LINE
8
BLACK
6
CONTINUOUS
10
94.1897
20
-86.8371
11
93.904
21
-86.9323
0
LINE
8
BLACK
6
CONTINUOUS
10
93.904
20
-86.9323
11
93.4278
21
-86.9323
0
LINE
8
BLACK
6
CONTINUOUS
10
95.4278
20
-86.9323
11
95.4278
21
-85.599
0
LINE
8
BLACK
6
CONTINUOUS
10
95.4278
20
-85.98
11
95.523
21
-85.7895
0
LINE
8
BLACK
6
CONTINUOUS
10
95.523
20
-85.7895
11
95.6182
21
-85.6942
0
LINE
8
BLACK
6
CONTINUOUS
10
95.6182
20
-85.6942
11
95.8087
21
-85.599
0
LINE
8
BLACK
6
CONTINUOUS
10
95.8087
20
-85.599
11
95.9992
21
-85.599
0
LINE
8
BLACK
6
CONTINUOUS
10
96.6659
20
-86.9323
11
96.6659
21
-85.599
0
LINE
8
BLACK
6
CONTINUOUS
10
96.6659
20
-84.9323
11
96.5706
21
-85.0276
0
LINE
8
BLACK
6
CONTINUOUS
10
96.5706
20
-85.0276
11
96.6659
21
-85.1228
0
LINE
8
BLACK
6
CONTINUOUS
10
96.6659
20
-85.1228
11
96.7611
21
-85.0276
0
LINE
8
BLACK
6
CONTINUOUS
10
96.7611
20
-85.0276
11
96.6659
21
-84.9323
0
LINE
8
BLACK
6
CONTINUOUS
10
96.6659
20
-84.9323
11
96.6659
21
-85.1228
0
LINE
8
BLACK
6
CONTINUOUS
10
97.904
20
-86.9323
11
97.7135
21
-86.8371
0
LINE
8
BLACK
6
CONTINUOUS
10
97.7135
20
-86.8371
11
97.6182
21
-86.6466
0
LINE
8
BLACK
6
CONTINUOUS
10
97.6182
20
-86.6466
11
97.6182
21
-84.9323
0
LINE
8
BLACK
6
CONTINUOUS
10
98.9516
20
-86.9323
11
98.7611
21
-86.8371
0
LINE
8
BLACK
6
CONTINUOUS
10
98.7611
20
-86.8371
11
98.6659
21
-86.6466
0
LINE
8
BLACK
6
CONTINUOUS
10
98.6659
20
-86.6466
11
98.6659
21
-84.9323
0
LINE
8
BLACK
6
CONTINUOUS
10
101.237
20
-86.9323
11
101.237
21
-84.9323
0
LINE
8
BLACK
6
CONTINUOUS
10
101.237
20
-84.9323
11
101.904
21
-86.3609
0
LINE
8
BLACK
6
CONTINUOUS
10
101.904
20
-86.3609
11
102.571
21
-84.9323
0
LINE
8
BLACK
6
CONTINUOUS
10
102.571
20
-84.9323
11
102.571
21
-86.9323
0
LINE
8
BLACK
6
CONTINUOUS
10
104.38
20
-86.9323
11
104.38
21
-85.8847
0
LINE
8
BLACK
6
CONTINUOUS
10
104.38
20
-85.8847
11
104.285
21
-85.6942
0
LINE
8
BLACK
6
CONTINUOUS
10
104.285
20
-85.6942
11
104.094
21
-85.599
0
LINE
8
BLACK
6
CONTINUOUS
10
104.094
20
-85.599
11
103.713
21
-85.599
0
LINE
8
BLACK
6
CONTINUOUS
10
103.713
20
-85.599
11
103.523
21
-85.6942
0
LINE
8
BLACK
6
CONTINUOUS
10
104.38
20
-86.8371
11
104.19
21
-86.9323
0
LINE
8
BLACK
6
CONTINUOUS
10
104.19
20
-86.9323
11
103.713
21
-86.9323
0
LINE
8
BLACK
6
CONTINUOUS
10
103.713
20
-86.9323
11
103.523
21
-86.8371
0
LINE
8
BLACK
6
CONTINUOUS
10
103.523
20
-86.8371
11
103.428
21
-86.6466
0
LINE
8
BLACK
6
CONTINUOUS
10
103.428
20
-86.6466
11
103.428
21
-86.4561
0
LINE
8
BLACK
6
CONTINUOUS
10
103.428
20
-86.4561
11
103.523
21
-86.2657
0
LINE
8
BLACK
6
CONTINUOUS
10
103.523
20
-86.2657
11
103.713
21
-86.1704
0
LINE
8
BLACK
6
CONTINUOUS
10
103.713
20
-86.1704
11
104.19
21
-86.1704
0
LINE
8
BLACK
6
CONTINUOUS
10
104.19
20
-86.1704
11
104.38
21
-86.0752
0
LINE
8
BLACK
6
CONTINUOUS
10
105.333
20
-85.599
11
105.333
21
-87.599
0
LINE
8
BLACK
6
CONTINUOUS
10
105.333
20
-85.6942
11
105.523
21
-85.599
0
LINE
8
BLACK
6
CONTINUOUS
10
105.523
20
-85.599
11
105.904
21
-85.599
0
LINE
8
BLACK
6
CONTINUOUS
10
105.904
20
-85.599
11
106.094
21
-85.6942
0
LINE
8
BLACK
6
CONTINUOUS
10
106.094
20
-85.6942
11
106.19
21
-85.7895
0
LINE
8
BLACK
6
CONTINUOUS
10
106.19
20
-85.7895
11
106.285
21
-85.98
0
LINE
8
BLACK
6
CONTINUOUS
10
106.285
20
-85.98
11
106.285
21
-86.5514
0
LINE
8
BLACK
6
CONTINUOUS
10
106.285
20
-86.5514
11
106.19
21
-86.7419
0
LINE
8
BLACK
6
CONTINUOUS
10
106.19
20
-86.7419
11
106.094
21
-86.8371
0
LINE
8
BLACK
6
CONTINUOUS
10
106.094
20
-86.8371
11
105.904
21
-86.9323
0
LINE
8
BLACK
6
CONTINUOUS
10
105.904
20
-86.9323
11
105.523
21
-86.9323
0
LINE
8
BLACK
6
CONTINUOUS
10
105.523
20
-86.9323
11
105.333
21
-86.8371
0
LINE
8
BLACK
6
CONTINUOUS
10
107.142
20
-86.7419
11
107.237
21
-86.8371
0
LINE
8
BLACK
6
CONTINUOUS
10
107.237
20
-86.8371
11
107.142
21
-86.9323
0
LINE
8
BLACK
6
CONTINUOUS
10
107.142
20
-86.9323
11
107.047
21
-86.8371
0
LINE
8
BLACK
6
CONTINUOUS
10
107.047
20
-86.8371
11
107.142
21
-86.7419
0
LINE
8
BLACK
6
CONTINUOUS
10
107.142
20
-86.7419
11
107.142
21
-86.9323
0
LINE
8
BLACK
6
CONTINUOUS
10
107.142
20
-85.6942
11
107.237
21
-85.7895
0
LINE
8
BLACK
6
CONTINUOUS
10
107.237
20
-85.7895
11
107.142
21
-85.8847
0
LINE
8
BLACK
6
CONTINUOUS
10
107.142
20
-85.8847
11
107.047
21
-85.7895
0
LINE
8
BLACK
6
CONTINUOUS
10
107.047
20
-85.7895
11
107.142
21
-85.6942
0
LINE
8
BLACK
6
CONTINUOUS
10
107.142
20
-85.6942
11
107.142
21
-85.8847
0
LINE
8
BLACK
6
CONTINUOUS
10
90.52
20
-90.0675
11
90.82
21
-90.3675
0
LINE
8
BLACK
6
CONTINUOUS
10
90.82
20
-90.0675
11
90.52
21
-90.3675
0
LINE
8
BLACK
6
CONTINUOUS
10
93.8087
20
-89.1323
11
93.9992
21
-89.1323
0
LINE
8
BLACK
6
CONTINUOUS
10
93.9992
20
-89.1323
11
94.1897
21
-89.2276
0
LINE
8
BLACK
6
CONTINUOUS
10
94.1897
20
-89.2276
11
94.2849
21
-89.3228
0
LINE
8
BLACK
6
CONTINUOUS
10
94.2849
20
-89.3228
11
94.3801
21
-89.5133
0
LINE
8
BLACK
6
CONTINUOUS
10
94.3801
20
-89.5133
11
94.4754
21
-89.8942
0
LINE
8
BLACK
6
CONTINUOUS
10
94.4754
20
-89.8942
11
94.4754
21
-90.3704
0
LINE
8
BLACK
6
CONTINUOUS
10
94.4754
20
-90.3704
11
94.3801
21
-90.7514
0
LINE
8
BLACK
6
CONTINUOUS
10
94.3801
20
-90.7514
11
94.2849
21
-90.9419
0
LINE
8
BLACK
6
CONTINUOUS
10
94.2849
20
-90.9419
11
94.1897
21
-91.0371
0
LINE
8
BLACK
6
CONTINUOUS
10
94.1897
20
-91.0371
11
93.9992
21
-91.1323
0
LINE
8
BLACK
6
CONTINUOUS
10
93.9992
20
-91.1323
11
93.8087
21
-91.1323
0
LINE
8
BLACK
6
CONTINUOUS
10
93.8087
20
-91.1323
11
93.6182
21
-91.0371
0
LINE
8
BLACK
6
CONTINUOUS
10
93.6182
20
-91.0371
11
93.523
21
-90.9419
0
LINE
8
BLACK
6
CONTINUOUS
10
93.523
20
-90.9419
11
93.4278
21
-90.7514
0
LINE
8
BLACK
6
CONTINUOUS
10
93.4278
20
-90.7514
11
93.3325
21
-90.3704
0
LINE
8
BLACK
6
CONTINUOUS
10
93.3325
20
-90.3704
11
93.3325
21
-89.8942
0
LINE
8
BLACK
6
CONTINUOUS
10
93.3325
20
-89.8942
11
93.4278
21
-89.5133
0
LINE
8
BLACK
6
CONTINUOUS
10
93.4278
20
-89.5133
11
93.523
21
-89.3228
0
LINE
8
BLACK
6
CONTINUOUS
10
93.523
20
-89.3228
11
93.6182
21
-89.2276
0
LINE
8
BLACK
6
CONTINUOUS
10
93.6182
20
-89.2276
11
93.8087
21
-89.1323
0
LINE
8
BLACK
6
CONTINUOUS
10
95.3325
20
-90.9419
11
95.4278
21
-91.0371
0
LINE
8
BLACK
6
CONTINUOUS
10
95.4278
20
-91.0371
11
95.3325
21
-91.1323
0
LINE
8
BLACK
6
CONTINUOUS
10
95.3325
20
-91.1323
11
95.2373
21
-91.0371
0
LINE
8
BLACK
6
CONTINUOUS
10
95.2373
20
-91.0371
11
95.3325
21
-90.9419
0
LINE
8
BLACK
6
CONTINUOUS
10
95.3325
20
-90.9419
11
95.3325
21
-91.1323
0
LINE
8
BLACK
6
CONTINUOUS
10
96.0944
20
-89.1323
11
97.3325
21
-89.1323
0
LINE
8
BLACK
6
CONTINUOUS
10
97.3325
20
-89.1323
11
96.6659
21
-89.8942
0
LINE
8
BLACK
6
CONTINUOUS
10
96.6659
20
-89.8942
11
96.9516
21
-89.8942
0
LINE
8
BLACK
6
CONTINUOUS
10
96.9516
20
-89.8942
11
97.1421
21
-89.9895
0
LINE
8
BLACK
6
CONTINUOUS
10
97.1421
20
-89.9895
11
97.2373
21
-90.0847
0
LINE
8
BLACK
6
CONTINUOUS
10
97.2373
20
-90.0847
11
97.3325
21
-90.2752
0
LINE
8
BLACK
6
CONTINUOUS
10
97.3325
20
-90.2752
11
97.3325
21
-90.7514
0
LINE
8
BLACK
6
CONTINUOUS
10
97.3325
20
-90.7514
11
97.2373
21
-90.9419
0
LINE
8
BLACK
6
CONTINUOUS
10
97.2373
20
-90.9419
11
97.1421
21
-91.0371
0
LINE
8
BLACK
6
CONTINUOUS
10
97.1421
20
-91.0371
11
96.9516
21
-91.1323
0
LINE
8
BLACK
6
CONTINUOUS
10
96.9516
20
-91.1323
11
96.3801
21
-91.1323
0
LINE
8
BLACK
6
CONTINUOUS
10
96.3801
20
-91.1323
11
96.1897
21
-91.0371
0
LINE
8
BLACK
6
CONTINUOUS
10
96.1897
20
-91.0371
11
96.0944
21
-90.9419
0
LINE
8
BLACK
6
CONTINUOUS
10
98.5706
20
-89.1323
11
98.7611
21
-89.1323
0
LINE
8
BLACK
6
CONTINUOUS
10
98.7611
20
-89.1323
11
98.9516
21
-89.2276
0
LINE
8
BLACK
6
CONTINUOUS
10
98.9516
20
-89.2276
11
99.0468
21
-89.3228
0
LINE
8
BLACK
6
CONTINUOUS
10
99.0468
20
-89.3228
11
99.1421
21
-89.5133
0
LINE
8
BLACK
6
CONTINUOUS
10
99.1421
20
-89.5133
11
99.2373
21
-89.8942
0
LINE
8
BLACK
6
CONTINUOUS
10
99.2373
20
-89.8942
11
99.2373
21
-90.3704
0
LINE
8
BLACK
6
CONTINUOUS
10
99.2373
20
-90.3704
11
99.1421
21
-90.7514
0
LINE
8
BLACK
6
CONTINUOUS
10
99.1421
20
-90.7514
11
99.0468
21
-90.9419
0
LINE
8
BLACK
6
CONTINUOUS
10
99.0468
20
-90.9419
11
98.9516
21
-91.0371
0
LINE
8
BLACK
6
CONTINUOUS
10
98.9516
20
-91.0371
11
98.7611
21
-91.1323
0
LINE
8
BLACK
6
CONTINUOUS
10
98.7611
20
-91.1323
11
98.5706
21
-91.1323
0
LINE
8
BLACK
6
CONTINUOUS
10
98.5706
20
-91.1323
11
98.3801
21
-91.0371
0
LINE
8
BLACK
6
CONTINUOUS
10
98.3801
20
-91.0371
11
98.2849
21
-90.9419
0
LINE
8
BLACK
6
CONTINUOUS
10
98.2849
20
-90.9419
11
98.1897
21
-90.7514
0
LINE
8
BLACK
6
CONTINUOUS
10
98.1897
20
-90.7514
11
98.0944
21
-90.3704
0
LINE
8
BLACK
6
CONTINUOUS
10
98.0944
20
-90.3704
11
98.0944
21
-89.8942
0
LINE
8
BLACK
6
CONTINUOUS
10
98.0944
20
-89.8942
11
98.1897
21
-89.5133
0
LINE
8
BLACK
6
CONTINUOUS
10
98.1897
20
-89.5133
11
98.2849
21
-89.3228
0
LINE
8
BLACK
6
CONTINUOUS
10
98.2849
20
-89.3228
11
98.3801
21
-89.2276
0
LINE
8
BLACK
6
CONTINUOUS
10
98.3801
20
-89.2276
11
98.5706
21
-89.1323
0
LINE
8
BLACK
6
CONTINUOUS
10
100.475
20
-89.1323
11
100.666
21
-89.1323
0
LINE
8
BLACK
6
CONTINUOUS
10
100.666
20
-89.1323
11
100.856
21
-89.2276
0
LINE
8
BLACK
6
CONTINUOUS
10
100.856
20
-89.2276
11
100.952
21
-89.3228
0
LINE
8
BLACK
6
CONTINUOUS
10
100.952
20
-89.3228
11
101.047
21
-89.5133
0
LINE
8
BLACK
6
CONTINUOUS
10
101.047
20
-89.5133
11
101.142
21
-89.8942
0
LINE
8
BLACK
6
CONTINUOUS
10
101.142
20
-89.8942
11
101.142
21
-90.3704
0
LINE
8
BLACK
6
CONTINUOUS
10
101.142
20
-90.3704
11
101.047
21
-90.7514
0
LINE
8
BLACK
6
CONTINUOUS
10
101.047
20
-90.7514
11
100.952
21
-90.9419
0
LINE
8
BLACK
6
CONTINUOUS
10
100.952
20
-90.9419
11
100.856
21
-91.0371
0
LINE
8
BLACK
6
CONTINUOUS
10
100.856
20
-91.0371
11
100.666
21
-91.1323
0
LINE
8
BLACK
6
CONTINUOUS
10
100.666
20
-91.1323
11
100.475
21
-91.1323
0
LINE
8
BLACK
6
CONTINUOUS
10
100.475
20
-91.1323
11
100.285
21
-91.0371
0
LINE
8
BLACK
6
CONTINUOUS
10
100.285
20
-91.0371
11
100.19
21
-90.9419
0
LINE
8
BLACK
6
CONTINUOUS
10
100.19
20
-90.9419
11
100.094
21
-90.7514
0
LINE
8
BLACK
6
CONTINUOUS
10
100.094
20
-90.7514
11
99.9992
21
-90.3704
0
LINE
8
BLACK
6
CONTINUOUS
10
99.9992
20
-90.3704
11
99.9992
21
-89.8942
0
LINE
8
BLACK
6
CONTINUOUS
10
99.9992
20
-89.8942
11
100.094
21
-89.5133
0
LINE
8
BLACK
6
CONTINUOUS
10
100.094
20
-89.5133
11
100.19
21
-89.3228
0
LINE
8
BLACK
6
CONTINUOUS
10
100.19
20
-89.3228
11
100.285
21
-89.2276
0
LINE
8
BLACK
6
CONTINUOUS
10
100.285
20
-89.2276
11
100.475
21
-89.1323
0
LINE
8
BLACK
6
CONTINUOUS
10
101.999
20
-91.1323
11
101.999
21
-89.799
0
LINE
8
BLACK
6
CONTINUOUS
10
101.999
20
-89.9895
11
102.094
21
-89.8942
0
LINE
8
BLACK
6
CONTINUOUS
10
102.094
20
-89.8942
11
102.285
21
-89.799
0
LINE
8
BLACK
6
CONTINUOUS
10
102.285
20
-89.799
11
102.571
21
-89.799
0
LINE
8
BLACK
6
CONTINUOUS
10
102.571
20
-89.799
11
102.761
21
-89.8942
0
LINE
8
BLACK
6
CONTINUOUS
10
102.761
20
-89.8942
11
102.856
21
-90.0847
0
LINE
8
BLACK
6
CONTINUOUS
10
102.856
20
-90.0847
11
102.856
21
-91.1323
0
LINE
8
BLACK
6
CONTINUOUS
10
102.856
20
-90.0847
11
102.952
21
-89.8942
0
LINE
8
BLACK
6
CONTINUOUS
10
102.952
20
-89.8942
11
103.142
21
-89.799
0
LINE
8
BLACK
6
CONTINUOUS
10
103.142
20
-89.799
11
103.428
21
-89.799
0
LINE
8
BLACK
6
CONTINUOUS
10
103.428
20
-89.799
11
103.618
21
-89.8942
0
LINE
8
BLACK
6
CONTINUOUS
10
103.618
20
-89.8942
11
103.713
21
-90.0847
0
LINE
8
BLACK
6
CONTINUOUS
10
103.713
20
-90.0847
11
103.713
21
-91.1323
0
LINE
8
BLACK
6
CONTINUOUS
10
104.666
20
-91.1323
11
104.666
21
-89.799
0
LINE
8
BLACK
6
CONTINUOUS
10
104.666
20
-89.9895
11
104.761
21
-89.8942
0
LINE
8
BLACK
6
CONTINUOUS
10
104.761
20
-89.8942
11
104.952
21
-89.799
0
LINE
8
BLACK
6
CONTINUOUS
10
104.952
20
-89.799
11
105.237
21
-89.799
0
LINE
8
BLACK
6
CONTINUOUS
10
105.237
20
-89.799
11
105.428
21
-89.8942
0
LINE
8
BLACK
6
CONTINUOUS
10
105.428
20
-89.8942
11
105.523
21
-90.0847
0
LINE
8
BLACK
6
CONTINUOUS
10
105.523
20
-90.0847
11
105.523
21
-91.1323
0
LINE
8
BLACK
6
CONTINUOUS
10
105.523
20
-90.0847
11
105.618
21
-89.8942
0
LINE
8
BLACK
6
CONTINUOUS
10
105.618
20
-89.8942
11
105.809
21
-89.799
0
LINE
8
BLACK
6
CONTINUOUS
10
105.809
20
-89.799
11
106.094
21
-89.799
0
LINE
8
BLACK
6
CONTINUOUS
10
106.094
20
-89.799
11
106.285
21
-89.8942
0
LINE
8
BLACK
6
CONTINUOUS
10
106.285
20
-89.8942
11
106.38
21
-90.0847
0
LINE
8
BLACK
6
CONTINUOUS
10
106.38
20
-90.0847
11
106.38
21
-91.1323
0
LINE
8
BLACK
6
CONTINUOUS
10
110.285
20
-89.0371
11
108.571
21
-91.6085
0
LINE
8
BLACK
6
CONTINUOUS
10
112.856
20
-89.1323
11
113.047
21
-89.1323
0
LINE
8
BLACK
6
CONTINUOUS
10
113.047
20
-89.1323
11
113.237
21
-89.2276
0
LINE
8
BLACK
6
CONTINUOUS
10
113.237
20
-89.2276
11
113.333
21
-89.3228
0
LINE
8
BLACK
6
CONTINUOUS
10
113.333
20
-89.3228
11
113.428
21
-89.5133
0
LINE
8
BLACK
6
CONTINUOUS
10
113.428
20
-89.5133
11
113.523
21
-89.8942
0
LINE
8
BLACK
6
CONTINUOUS
10
113.523
20
-89.8942
11
113.523
21
-90.3704
0
LINE
8
BLACK
6
CONTINUOUS
10
113.523
20
-90.3704
11
113.428
21
-90.7514
0
LINE
8
BLACK
6
CONTINUOUS
10
113.428
20
-90.7514
11
113.333
21
-90.9419
0
LINE
8
BLACK
6
CONTINUOUS
10
113.333
20
-90.9419
11
113.237
21
-91.0371
0
LINE
8
BLACK
6
CONTINUOUS
10
113.237
20
-91.0371
11
113.047
21
-91.1323
0
LINE
8
BLACK
6
CONTINUOUS
10
113.047
20
-91.1323
11
112.856
21
-91.1323
0
LINE
8
BLACK
6
CONTINUOUS
10
112.856
20
-91.1323
11
112.666
21
-91.0371
0
LINE
8
BLACK
6
CONTINUOUS
10
112.666
20
-91.0371
11
112.571
21
-90.9419
0
LINE
8
BLACK
6
CONTINUOUS
10
112.571
20
-90.9419
11
112.475
21
-90.7514
0
LINE
8
BLACK
6
CONTINUOUS
10
112.475
20
-90.7514
11
112.38
21
-90.3704
0
LINE
8
BLACK
6
CONTINUOUS
10
112.38
20
-90.3704
11
112.38
21
-89.8942
0
LINE
8
BLACK
6
CONTINUOUS
10
112.38
20
-89.8942
11
112.475
21
-89.5133
0
LINE
8
BLACK
6
CONTINUOUS
10
112.475
20
-89.5133
11
112.571
21
-89.3228
0
LINE
8
BLACK
6
CONTINUOUS
10
112.571
20
-89.3228
11
112.666
21
-89.2276
0
LINE
8
BLACK
6
CONTINUOUS
10
112.666
20
-89.2276
11
112.856
21
-89.1323
0
LINE
8
BLACK
6
CONTINUOUS
10
114.38
20
-90.9419
11
114.475
21
-91.0371
0
LINE
8
BLACK
6
CONTINUOUS
10
114.475
20
-91.0371
11
114.38
21
-91.1323
0
LINE
8
BLACK
6
CONTINUOUS
10
114.38
20
-91.1323
11
114.285
21
-91.0371
0
LINE
8
BLACK
6
CONTINUOUS
10
114.285
20
-91.0371
11
114.38
21
-90.9419
0
LINE
8
BLACK
6
CONTINUOUS
10
114.38
20
-90.9419
11
114.38
21
-91.1323
0
LINE
8
BLACK
6
CONTINUOUS
10
115.713
20
-89.1323
11
115.904
21
-89.1323
0
LINE
8
BLACK
6
CONTINUOUS
10
115.904
20
-89.1323
11
116.094
21
-89.2276
0
LINE
8
BLACK
6
CONTINUOUS
10
116.094
20
-89.2276
11
116.19
21
-89.3228
0
LINE
8
BLACK
6
CONTINUOUS
10
116.19
20
-89.3228
11
116.285
21
-89.5133
0
LINE
8
BLACK
6
CONTINUOUS
10
116.285
20
-89.5133
11
116.38
21
-89.8942
0
LINE
8
BLACK
6
CONTINUOUS
10
116.38
20
-89.8942
11
116.38
21
-90.3704
0
LINE
8
BLACK
6
CONTINUOUS
10
116.38
20
-90.3704
11
116.285
21
-90.7514
0
LINE
8
BLACK
6
CONTINUOUS
10
116.285
20
-90.7514
11
116.19
21
-90.9419
0
LINE
8
BLACK
6
CONTINUOUS
10
116.19
20
-90.9419
11
116.094
21
-91.0371
0
LINE
8
BLACK
6
CONTINUOUS
10
116.094
20
-91.0371
11
115.904
21
-91.1323
0
LINE
8
BLACK
6
CONTINUOUS
10
115.904
20
-91.1323
11
115.713
21
-91.1323
0
LINE
8
BLACK
6
CONTINUOUS
10
115.713
20
-91.1323
11
115.523
21
-91.0371
0
LINE
8
BLACK
6
CONTINUOUS
10
115.523
20
-91.0371
11
115.428
21
-90.9419
0
LINE
8
BLACK
6
CONTINUOUS
10
115.428
20
-90.9419
11
115.333
21
-90.7514
0
LINE
8
BLACK
6
CONTINUOUS
10
115.333
20
-90.7514
11
115.237
21
-90.3704
0
LINE
8
BLACK
6
CONTINUOUS
10
115.237
20
-90.3704
11
115.237
21
-89.8942
0
LINE
8
BLACK
6
CONTINUOUS
10
115.237
20
-89.8942
11
115.333
21
-89.5133
0
LINE
8
BLACK
6
CONTINUOUS
10
115.333
20
-89.5133
11
115.428
21
-89.3228
0
LINE
8
BLACK
6
CONTINUOUS
10
115.428
20
-89.3228
11
115.523
21
-89.2276
0
LINE
8
BLACK
6
CONTINUOUS
10
115.523
20
-89.2276
11
115.713
21
-89.1323
0
LINE
8
BLACK
6
CONTINUOUS
10
118.285
20
-91.1323
11
117.142
21
-91.1323
0
LINE
8
BLACK
6
CONTINUOUS
10
117.713
20
-91.1323
11
117.713
21
-89.1323
0
LINE
8
BLACK
6
CONTINUOUS
10
117.713
20
-89.1323
11
117.523
21
-89.4181
0
LINE
8
BLACK
6
CONTINUOUS
10
117.523
20
-89.4181
11
117.333
21
-89.6085
0
LINE
8
BLACK
6
CONTINUOUS
10
117.333
20
-89.6085
11
117.142
21
-89.7038
0
LINE
8
BLACK
6
CONTINUOUS
10
120.19
20
-91.1323
11
119.047
21
-91.1323
0
LINE
8
BLACK
6
CONTINUOUS
10
119.618
20
-91.1323
11
119.618
21
-89.1323
0
LINE
8
BLACK
6
CONTINUOUS
10
119.618
20
-89.1323
11
119.428
21
-89.4181
0
LINE
8
BLACK
6
CONTINUOUS
10
119.428
20
-89.4181
11
119.237
21
-89.6085
0
LINE
8
BLACK
6
CONTINUOUS
10
119.237
20
-89.6085
11
119.047
21
-89.7038
0
LINE
8
BLACK
6
CONTINUOUS
10
121.333
20
-89.9895
11
121.142
21
-89.8942
0
LINE
8
BLACK
6
CONTINUOUS
10
121.142
20
-89.8942
11
121.047
21
-89.799
0
LINE
8
BLACK
6
CONTINUOUS
10
121.047
20
-89.799
11
120.952
21
-89.6085
0
LINE
8
BLACK
6
CONTINUOUS
10
120.952
20
-89.6085
11
120.952
21
-89.5133
0
LINE
8
BLACK
6
CONTINUOUS
10
120.952
20
-89.5133
11
121.047
21
-89.3228
0
LINE
8
BLACK
6
CONTINUOUS
10
121.047
20
-89.3228
11
121.142
21
-89.2276
0
LINE
8
BLACK
6
CONTINUOUS
10
121.142
20
-89.2276
11
121.333
21
-89.1323
0
LINE
8
BLACK
6
CONTINUOUS
10
121.333
20
-89.1323
11
121.713
21
-89.1323
0
LINE
8
BLACK
6
CONTINUOUS
10
121.713
20
-89.1323
11
121.904
21
-89.2276
0
LINE
8
BLACK
6
CONTINUOUS
10
121.904
20
-89.2276
11
121.999
21
-89.3228
0
LINE
8
BLACK
6
CONTINUOUS
10
121.999
20
-89.3228
11
122.094
21
-89.5133
0
LINE
8
BLACK
6
CONTINUOUS
10
122.094
20
-89.5133
11
122.094
21
-89.6085
0
LINE
8
BLACK
6
CONTINUOUS
10
122.094
20
-89.6085
11
121.999
21
-89.799
0
LINE
8
BLACK
6
CONTINUOUS
10
121.999
20
-89.799
11
121.904
21
-89.8942
0
LINE
8
BLACK
6
CONTINUOUS
10
121.904
20
-89.8942
11
121.713
21
-89.9895
0
LINE
8
BLACK
6
CONTINUOUS
10
121.713
20
-89.9895
11
121.333
21
-89.9895
0
LINE
8
BLACK
6
CONTINUOUS
10
121.333
20
-89.9895
11
121.142
21
-90.0847
0
LINE
8
BLACK
6
CONTINUOUS
10
121.142
20
-90.0847
11
121.047
21
-90.18
0
LINE
8
BLACK
6
CONTINUOUS
10
121.047
20
-90.18
11
120.952
21
-90.3704
0
LINE
8
BLACK
6
CONTINUOUS
10
120.952
20
-90.3704
11
120.952
21
-90.7514
0
LINE
8
BLACK
6
CONTINUOUS
10
120.952
20
-90.7514
11
121.047
21
-90.9419
0
LINE
8
BLACK
6
CONTINUOUS
10
121.047
20
-90.9419
11
121.142
21
-91.0371
0
LINE
8
BLACK
6
CONTINUOUS
10
121.142
20
-91.0371
11
121.333
21
-91.1323
0
LINE
8
BLACK
6
CONTINUOUS
10
121.333
20
-91.1323
11
121.713
21
-91.1323
0
LINE
8
BLACK
6
CONTINUOUS
10
121.713
20
-91.1323
11
121.904
21
-91.0371
0
LINE
8
BLACK
6
CONTINUOUS
10
121.904
20
-91.0371
11
121.999
21
-90.9419
0
LINE
8
BLACK
6
CONTINUOUS
10
121.999
20
-90.9419
11
122.094
21
-90.7514
0
LINE
8
BLACK
6
CONTINUOUS
10
122.094
20
-90.7514
11
122.094
21
-90.3704
0
LINE
8
BLACK
6
CONTINUOUS
10
122.094
20
-90.3704
11
121.999
21
-90.18
0
LINE
8
BLACK
6
CONTINUOUS
10
121.999
20
-90.18
11
121.904
21
-90.0847
0
LINE
8
BLACK
6
CONTINUOUS
10
121.904
20
-90.0847
11
121.713
21
-89.9895
0
LINE
8
BLACK
6
CONTINUOUS
10
122.856
20
-89.1323
11
122.856
21
-89.5133
0
LINE
8
BLACK
6
CONTINUOUS
10
123.618
20
-89.1323
11
123.618
21
-89.5133
0
LINE
8
BLACK
6
CONTINUOUS
10
126.571
20
-91.8942
11
126.475
21
-91.799
0
LINE
8
BLACK
6
CONTINUOUS
10
126.475
20
-91.799
11
126.285
21
-91.5133
0
LINE
8
BLACK
6
CONTINUOUS
10
126.285
20
-91.5133
11
126.19
21
-91.3228
0
LINE
8
BLACK
6
CONTINUOUS
10
126.19
20
-91.3228
11
126.094
21
-91.0371
0
LINE
8
BLACK
6
CONTINUOUS
10
126.094
20
-91.0371
11
125.999
21
-90.5609
0
LINE
8
BLACK
6
CONTINUOUS
10
125.999
20
-90.5609
11
125.999
21
-90.18
0
LINE
8
BLACK
6
CONTINUOUS
10
125.999
20
-90.18
11
126.094
21
-89.7038
0
LINE
8
BLACK
6
CONTINUOUS
10
126.094
20
-89.7038
11
126.19
21
-89.4181
0
LINE
8
BLACK
6
CONTINUOUS
10
126.19
20
-89.4181
11
126.285
21
-89.2276
0
LINE
8
BLACK
6
CONTINUOUS
10
126.285
20
-89.2276
11
126.475
21
-88.9419
0
LINE
8
BLACK
6
CONTINUOUS
10
126.475
20
-88.9419
11
126.571
21
-88.8466
0
LINE
8
BLACK
6
CONTINUOUS
10
127.142
20
-89.1323
11
128.38
21
-89.1323
0
LINE
8
BLACK
6
CONTINUOUS
10
128.38
20
-89.1323
11
127.713
21
-89.8942
0
LINE
8
BLACK
6
CONTINUOUS
10
127.713
20
-89.8942
11
127.999
21
-89.8942
0
LINE
8
BLACK
6
CONTINUOUS
10
127.999
20
-89.8942
11
128.19
21
-89.9895
0
LINE
8
BLACK
6
CONTINUOUS
10
128.19
20
-89.9895
11
128.285
21
-90.0847
0
LINE
8
BLACK
6
CONTINUOUS
10
128.285
20
-90.0847
11
128.38
21
-90.2752
0
LINE
8
BLACK
6
CONTINUOUS
10
128.38
20
-90.2752
11
128.38
21
-90.7514
0
LINE
8
BLACK
6
CONTINUOUS
10
128.38
20
-90.7514
11
128.285
21
-90.9419
0
LINE
8
BLACK
6
CONTINUOUS
10
128.285
20
-90.9419
11
128.19
21
-91.0371
0
LINE
8
BLACK
6
CONTINUOUS
10
128.19
20
-91.0371
11
127.999
21
-91.1323
0
LINE
8
BLACK
6
CONTINUOUS
10
127.999
20
-91.1323
11
127.428
21
-91.1323
0
LINE
8
BLACK
6
CONTINUOUS
10
127.428
20
-91.1323
11
127.237
21
-91.0371
0
LINE
8
BLACK
6
CONTINUOUS
10
127.237
20
-91.0371
11
127.142
21
-90.9419
0
LINE
8
BLACK
6
CONTINUOUS
10
129.142
20
-89.3228
11
129.237
21
-89.2276
0
LINE
8
BLACK
6
CONTINUOUS
10
129.237
20
-89.2276
11
129.428
21
-89.1323
0
LINE
8
BLACK
6
CONTINUOUS
10
129.428
20
-89.1323
11
129.904
21
-89.1323
0
LINE
8
BLACK
6
CONTINUOUS
10
129.904
20
-89.1323
11
130.094
21
-89.2276
0
LINE
8
BLACK
6
CONTINUOUS
10
130.094
20
-89.2276
11
130.19
21
-89.3228
0
LINE
8
BLACK
6
CONTINUOUS
10
130.19
20
-89.3228
11
130.285
21
-89.5133
0
LINE
8
BLACK
6
CONTINUOUS
10
130.285
20
-89.5133
11
130.285
21
-89.7038
0
LINE
8
BLACK
6
CONTINUOUS
10
130.285
20
-89.7038
11
130.19
21
-89.9895
0
LINE
8
BLACK
6
CONTINUOUS
10
130.19
20
-89.9895
11
129.047
21
-91.1323
0
LINE
8
BLACK
6
CONTINUOUS
10
129.047
20
-91.1323
11
130.285
21
-91.1323
0
LINE
8
BLACK
6
CONTINUOUS
10
132.666
20
-91.1323
11
132.666
21
-89.1323
0
LINE
8
BLACK
6
CONTINUOUS
10
133.523
20
-91.1323
11
133.523
21
-90.0847
0
LINE
8
BLACK
6
CONTINUOUS
10
133.523
20
-90.0847
11
133.428
21
-89.8942
0
LINE
8
BLACK
6
CONTINUOUS
10
133.428
20
-89.8942
11
133.237
21
-89.799
0
LINE
8
BLACK
6
CONTINUOUS
10
133.237
20
-89.799
11
132.952
21
-89.799
0
LINE
8
BLACK
6
CONTINUOUS
10
132.952
20
-89.799
11
132.761
21
-89.8942
0
LINE
8
BLACK
6
CONTINUOUS
10
132.761
20
-89.8942
11
132.666
21
-89.9895
0
LINE
8
BLACK
6
CONTINUOUS
10
134.761
20
-91.1323
11
134.571
21
-91.0371
0
LINE
8
BLACK
6
CONTINUOUS
10
134.571
20
-91.0371
11
134.475
21
-90.9419
0
LINE
8
BLACK
6
CONTINUOUS
10
134.475
20
-90.9419
11
134.38
21
-90.7514
0
LINE
8
BLACK
6
CONTINUOUS
10
134.38
20
-90.7514
11
134.38
21
-90.18
0
LINE
8
BLACK
6
CONTINUOUS
10
134.38
20
-90.18
11
134.475
21
-89.9895
0
LINE
8
BLACK
6
CONTINUOUS
10
134.475
20
-89.9895
11
134.571
21
-89.8942
0
LINE
8
BLACK
6
CONTINUOUS
10
134.571
20
-89.8942
11
134.761
21
-89.799
0
LINE
8
BLACK
6
CONTINUOUS
10
134.761
20
-89.799
11
135.047
21
-89.799
0
LINE
8
BLACK
6
CONTINUOUS
10
135.047
20
-89.799
11
135.237
21
-89.8942
0
LINE
8
BLACK
6
CONTINUOUS
10
135.237
20
-89.8942
11
135.333
21
-89.9895
0
LINE
8
BLACK
6
CONTINUOUS
10
135.333
20
-89.9895
11
135.428
21
-90.18
0
LINE
8
BLACK
6
CONTINUOUS
10
135.428
20
-90.18
11
135.428
21
-90.7514
0
LINE
8
BLACK
6
CONTINUOUS
10
135.428
20
-90.7514
11
135.333
21
-90.9419
0
LINE
8
BLACK
6
CONTINUOUS
10
135.333
20
-90.9419
11
135.237
21
-91.0371
0
LINE
8
BLACK
6
CONTINUOUS
10
135.237
20
-91.0371
11
135.047
21
-91.1323
0
LINE
8
BLACK
6
CONTINUOUS
10
135.047
20
-91.1323
11
134.761
21
-91.1323
0
LINE
8
BLACK
6
CONTINUOUS
10
136.571
20
-91.1323
11
136.38
21
-91.0371
0
LINE
8
BLACK
6
CONTINUOUS
10
136.38
20
-91.0371
11
136.285
21
-90.8466
0
LINE
8
BLACK
6
CONTINUOUS
10
136.285
20
-90.8466
11
136.285
21
-89.1323
0
LINE
8
BLACK
6
CONTINUOUS
10
138.094
20
-91.0371
11
137.904
21
-91.1323
0
LINE
8
BLACK
6
CONTINUOUS
10
137.904
20
-91.1323
11
137.523
21
-91.1323
0
LINE
8
BLACK
6
CONTINUOUS
10
137.523
20
-91.1323
11
137.333
21
-91.0371
0
LINE
8
BLACK
6
CONTINUOUS
10
137.333
20
-91.0371
11
137.237
21
-90.8466
0
LINE
8
BLACK
6
CONTINUOUS
10
137.237
20
-90.8466
11
137.237
21
-90.0847
0
LINE
8
BLACK
6
CONTINUOUS
10
137.237
20
-90.0847
11
137.333
21
-89.8942
0
LINE
8
BLACK
6
CONTINUOUS
10
137.333
20
-89.8942
11
137.523
21
-89.799
0
LINE
8
BLACK
6
CONTINUOUS
10
137.523
20
-89.799
11
137.904
21
-89.799
0
LINE
8
BLACK
6
CONTINUOUS
10
137.904
20
-89.799
11
138.094
21
-89.8942
0
LINE
8
BLACK
6
CONTINUOUS
10
138.094
20
-89.8942
11
138.19
21
-90.0847
0
LINE
8
BLACK
6
CONTINUOUS
10
138.19
20
-90.0847
11
138.19
21
-90.2752
0
LINE
8
BLACK
6
CONTINUOUS
10
138.19
20
-90.2752
11
137.237
21
-90.4657
0
LINE
8
BLACK
6
CONTINUOUS
10
138.952
20
-91.0371
11
139.142
21
-91.1323
0
LINE
8
BLACK
6
CONTINUOUS
10
139.142
20
-91.1323
11
139.523
21
-91.1323
0
LINE
8
BLACK
6
CONTINUOUS
10
139.523
20
-91.1323
11
139.713
21
-91.0371
0
LINE
8
BLACK
6
CONTINUOUS
10
139.713
20
-91.0371
11
139.809
21
-90.8466
0
LINE
8
BLACK
6
CONTINUOUS
10
139.809
20
-90.8466
11
139.809
21
-90.7514
0
LINE
8
BLACK
6
CONTINUOUS
10
139.809
20
-90.7514
11
139.713
21
-90.5609
0
LINE
8
BLACK
6
CONTINUOUS
10
139.713
20
-90.5609
11
139.523
21
-90.4657
0
LINE
8
BLACK
6
CONTINUOUS
10
139.523
20
-90.4657
11
139.237
21
-90.4657
0
LINE
8
BLACK
6
CONTINUOUS
10
139.237
20
-90.4657
11
139.047
21
-90.3704
0
LINE
8
BLACK
6
CONTINUOUS
10
139.047
20
-90.3704
11
138.952
21
-90.18
0
LINE
8
BLACK
6
CONTINUOUS
10
138.952
20
-90.18
11
138.952
21
-90.0847
0
LINE
8
BLACK
6
CONTINUOUS
10
138.952
20
-90.0847
11
139.047
21
-89.8942
0
LINE
8
BLACK
6
CONTINUOUS
10
139.047
20
-89.8942
11
139.237
21
-89.799
0
LINE
8
BLACK
6
CONTINUOUS
10
139.237
20
-89.799
11
139.523
21
-89.799
0
LINE
8
BLACK
6
CONTINUOUS
10
139.523
20
-89.799
11
139.713
21
-89.8942
0
LINE
8
BLACK
6
CONTINUOUS
10
140.475
20
-91.8942
11
140.571
21
-91.799
0
LINE
8
BLACK
6
CONTINUOUS
10
140.571
20
-91.799
11
140.761
21
-91.5133
0
LINE
8
BLACK
6
CONTINUOUS
10
140.761
20
-91.5133
11
140.856
21
-91.3228
0
LINE
8
BLACK
6
CONTINUOUS
10
140.856
20
-91.3228
11
140.952
21
-91.0371
0
LINE
8
BLACK
6
CONTINUOUS
10
140.952
20
-91.0371
11
141.047
21
-90.5609
0
LINE
8
BLACK
6
CONTINUOUS
10
141.047
20
-90.5609
11
141.047
21
-90.18
0
LINE
8
BLACK
6
CONTINUOUS
10
141.047
20
-90.18
11
140.952
21
-89.7038
0
LINE
8
BLACK
6
CONTINUOUS
10
140.952
20
-89.7038
11
140.856
21
-89.4181
0
LINE
8
BLACK
6
CONTINUOUS
10
140.856
20
-89.4181
11
140.761
21
-89.2276
0
LINE
8
BLACK
6
CONTINUOUS
10
140.761
20
-89.2276
11
140.571
21
-88.9419
0
LINE
8
BLACK
6
CONTINUOUS
10
140.571
20
-88.9419
11
140.475
21
-88.8466
0
CIRCLE
8
BLACK
10
90.645
20
-92.8575
40
0.175
0
LINE
8
BLACK
6
CONTINUOUS
10
93.8087
20
-91.7723
11
93.9992
21
-91.7723
0
LINE
8
BLACK
6
CONTINUOUS
10
93.9992
20
-91.7723
11
94.1897
21
-91.8676
0
LINE
8
BLACK
6
CONTINUOUS
10
94.1897
20
-91.8676
11
94.2849
21
-91.9628
0
LINE
8
BLACK
6
CONTINUOUS
10
94.2849
20
-91.9628
11
94.3801
21
-92.1533
0
LINE
8
BLACK
6
CONTINUOUS
10
94.3801
20
-92.1533
11
94.4754
21
-92.5342
0
LINE
8
BLACK
6
CONTINUOUS
10
94.4754
20
-92.5342
11
94.4754
21
-93.0104
0
LINE
8
BLACK
6
CONTINUOUS
10
94.4754
20
-93.0104
11
94.3801
21
-93.3914
0
LINE
8
BLACK
6
CONTINUOUS
10
94.3801
20
-93.3914
11
94.2849
21
-93.5819
0
LINE
8
BLACK
6
CONTINUOUS
10
94.2849
20
-93.5819
11
94.1897
21
-93.6771
0
LINE
8
BLACK
6
CONTINUOUS
10
94.1897
20
-93.6771
11
93.9992
21
-93.7723
0
LINE
8
BLACK
6
CONTINUOUS
10
93.9992
20
-93.7723
11
93.8087
21
-93.7723
0
LINE
8
BLACK
6
CONTINUOUS
10
93.8087
20
-93.7723
11
93.6182
21
-93.6771
0
LINE
8
BLACK
6
CONTINUOUS
10
93.6182
20
-93.6771
11
93.523
21
-93.5819
0
LINE
8
BLACK
6
CONTINUOUS
10
93.523
20
-93.5819
11
93.4278
21
-93.3914
0
LINE
8
BLACK
6
CONTINUOUS
10
93.4278
20
-93.3914
11
93.3325
21
-93.0104
0
LINE
8
BLACK
6
CONTINUOUS
10
93.3325
20
-93.0104
11
93.3325
21
-92.5342
0
LINE
8
BLACK
6
CONTINUOUS
10
93.3325
20
-92.5342
11
93.4278
21
-92.1533
0
LINE
8
BLACK
6
CONTINUOUS
10
93.4278
20
-92.1533
11
93.523
21
-91.9628
0
LINE
8
BLACK
6
CONTINUOUS
10
93.523
20
-91.9628
11
93.6182
21
-91.8676
0
LINE
8
BLACK
6
CONTINUOUS
10
93.6182
20
-91.8676
11
93.8087
21
-91.7723
0
LINE
8
BLACK
6
CONTINUOUS
10
95.3325
20
-93.5819
11
95.4278
21
-93.6771
0
LINE
8
BLACK
6
CONTINUOUS
10
95.4278
20
-93.6771
11
95.3325
21
-93.7723
0
LINE
8
BLACK
6
CONTINUOUS
10
95.3325
20
-93.7723
11
95.2373
21
-93.6771
0
LINE
8
BLACK
6
CONTINUOUS
10
95.2373
20
-93.6771
11
95.3325
21
-93.5819
0
LINE
8
BLACK
6
CONTINUOUS
10
95.3325
20
-93.5819
11
95.3325
21
-93.7723
0
LINE
8
BLACK
6
CONTINUOUS
10
96.0944
20
-91.7723
11
97.3325
21
-91.7723
0
LINE
8
BLACK
6
CONTINUOUS
10
97.3325
20
-91.7723
11
96.6659
21
-92.5342
0
LINE
8
BLACK
6
CONTINUOUS
10
96.6659
20
-92.5342
11
96.9516
21
-92.5342
0
LINE
8
BLACK
6
CONTINUOUS
10
96.9516
20
-92.5342
11
97.1421
21
-92.6295
0
LINE
8
BLACK
6
CONTINUOUS
10
97.1421
20
-92.6295
11
97.2373
21
-92.7247
0
LINE
8
BLACK
6
CONTINUOUS
10
97.2373
20
-92.7247
11
97.3325
21
-92.9152
0
LINE
8
BLACK
6
CONTINUOUS
10
97.3325
20
-92.9152
11
97.3325
21
-93.3914
0
LINE
8
BLACK
6
CONTINUOUS
10
97.3325
20
-93.3914
11
97.2373
21
-93.5819
0
LINE
8
BLACK
6
CONTINUOUS
10
97.2373
20
-93.5819
11
97.1421
21
-93.6771
0
LINE
8
BLACK
6
CONTINUOUS
10
97.1421
20
-93.6771
11
96.9516
21
-93.7723
0
LINE
8
BLACK
6
CONTINUOUS
10
96.9516
20
-93.7723
11
96.3801
21
-93.7723
0
LINE
8
BLACK
6
CONTINUOUS
10
96.3801
20
-93.7723
11
96.1897
21
-93.6771
0
LINE
8
BLACK
6
CONTINUOUS
10
96.1897
20
-93.6771
11
96.0944
21
-93.5819
0
LINE
8
BLACK
6
CONTINUOUS
10
99.1421
20
-91.7723
11
98.1897
21
-91.7723
0
LINE
8
BLACK
6
CONTINUOUS
10
98.1897
20
-91.7723
11
98.0944
21
-92.7247
0
LINE
8
BLACK
6
CONTINUOUS
10
98.0944
20
-92.7247
11
98.1897
21
-92.6295
0
LINE
8
BLACK
6
CONTINUOUS
10
98.1897
20
-92.6295
11
98.3801
21
-92.5342
0
LINE
8
BLACK
6
CONTINUOUS
10
98.3801
20
-92.5342
11
98.8563
21
-92.5342
0
LINE
8
BLACK
6
CONTINUOUS
10
98.8563
20
-92.5342
11
99.0468
21
-92.6295
0
LINE
8
BLACK
6
CONTINUOUS
10
99.0468
20
-92.6295
11
99.1421
21
-92.7247
0
LINE
8
BLACK
6
CONTINUOUS
10
99.1421
20
-92.7247
11
99.2373
21
-92.9152
0
LINE
8
BLACK
6
CONTINUOUS
10
99.2373
20
-92.9152
11
99.2373
21
-93.3914
0
LINE
8
BLACK
6
CONTINUOUS
10
99.2373
20
-93.3914
11
99.1421
21
-93.5819
0
LINE
8
BLACK
6
CONTINUOUS
10
99.1421
20
-93.5819
11
99.0468
21
-93.6771
0
LINE
8
BLACK
6
CONTINUOUS
10
99.0468
20
-93.6771
11
98.8563
21
-93.7723
0
LINE
8
BLACK
6
CONTINUOUS
10
98.8563
20
-93.7723
11
98.3801
21
-93.7723
0
LINE
8
BLACK
6
CONTINUOUS
10
98.3801
20
-93.7723
11
98.1897
21
-93.6771
0
LINE
8
BLACK
6
CONTINUOUS
10
98.1897
20
-93.6771
11
98.0944
21
-93.5819
0
LINE
8
BLACK
6
CONTINUOUS
10
100.475
20
-91.7723
11
100.666
21
-91.7723
0
LINE
8
BLACK
6
CONTINUOUS
10
100.666
20
-91.7723
11
100.856
21
-91.8676
0
LINE
8
BLACK
6
CONTINUOUS
10
100.856
20
-91.8676
11
100.952
21
-91.9628
0
LINE
8
BLACK
6
CONTINUOUS
10
100.952
20
-91.9628
11
101.047
21
-92.1533
0
LINE
8
BLACK
6
CONTINUOUS
10
101.047
20
-92.1533
11
101.142
21
-92.5342
0
LINE
8
BLACK
6
CONTINUOUS
10
101.142
20
-92.5342
11
101.142
21
-93.0104
0
LINE
8
BLACK
6
CONTINUOUS
10
101.142
20
-93.0104
11
101.047
21
-93.3914
0
LINE
8
BLACK
6
CONTINUOUS
10
101.047
20
-93.3914
11
100.952
21
-93.5819
0
LINE
8
BLACK
6
CONTINUOUS
10
100.952
20
-93.5819
11
100.856
21
-93.6771
0
LINE
8
BLACK
6
CONTINUOUS
10
100.856
20
-93.6771
11
100.666
21
-93.7723
0
LINE
8
BLACK
6
CONTINUOUS
10
100.666
20
-93.7723
11
100.475
21
-93.7723
0
LINE
8
BLACK
6
CONTINUOUS
10
100.475
20
-93.7723
11
100.285
21
-93.6771
0
LINE
8
BLACK
6
CONTINUOUS
10
100.285
20
-93.6771
11
100.19
21
-93.5819
0
LINE
8
BLACK
6
CONTINUOUS
10
100.19
20
-93.5819
11
100.094
21
-93.3914
0
LINE
8
BLACK
6
CONTINUOUS
10
100.094
20
-93.3914
11
99.9992
21
-93.0104
0
LINE
8
BLACK
6
CONTINUOUS
10
99.9992
20
-93.0104
11
99.9992
21
-92.5342
0
LINE
8
BLACK
6
CONTINUOUS
10
99.9992
20
-92.5342
11
100.094
21
-92.1533
0
LINE
8
BLACK
6
CONTINUOUS
10
100.094
20
-92.1533
11
100.19
21
-91.9628
0
LINE
8
BLACK
6
CONTINUOUS
10
100.19
20
-91.9628
11
100.285
21
-91.8676
0
LINE
8
BLACK
6
CONTINUOUS
10
100.285
20
-91.8676
11
100.475
21
-91.7723
0
LINE
8
BLACK
6
CONTINUOUS
10
101.999
20
-93.7723
11
101.999
21
-92.439
0
LINE
8
BLACK
6
CONTINUOUS
10
101.999
20
-92.6295
11
102.094
21
-92.5342
0
LINE
8
BLACK
6
CONTINUOUS
10
102.094
20
-92.5342
11
102.285
21
-92.439
0
LINE
8
BLACK
6
CONTINUOUS
10
102.285
20
-92.439
11
102.571
21
-92.439
0
LINE
8
BLACK
6
CONTINUOUS
10
102.571
20
-92.439
11
102.761
21
-92.5342
0
LINE
8
BLACK
6
CONTINUOUS
10
102.761
20
-92.5342
11
102.856
21
-92.7247
0
LINE
8
BLACK
6
CONTINUOUS
10
102.856
20
-92.7247
11
102.856
21
-93.7723
0
LINE
8
BLACK
6
CONTINUOUS
10
102.856
20
-92.7247
11
102.952
21
-92.5342
0
LINE
8
BLACK
6
CONTINUOUS
10
102.952
20
-92.5342
11
103.142
21
-92.439
0
LINE
8
BLACK
6
CONTINUOUS
10
103.142
20
-92.439
11
103.428
21
-92.439
0
LINE
8
BLACK
6
CONTINUOUS
10
103.428
20
-92.439
11
103.618
21
-92.5342
0
LINE
8
BLACK
6
CONTINUOUS
10
103.618
20
-92.5342
11
103.713
21
-92.7247
0
LINE
8
BLACK
6
CONTINUOUS
10
103.713
20
-92.7247
11
103.713
21
-93.7723
0
LINE
8
BLACK
6
CONTINUOUS
10
104.666
20
-93.7723
11
104.666
21
-92.439
0
LINE
8
BLACK
6
CONTINUOUS
10
104.666
20
-92.6295
11
104.761
21
-92.5342
0
LINE
8
BLACK
6
CONTINUOUS
10
104.761
20
-92.5342
11
104.952
21
-92.439
0
LINE
8
BLACK
6
CONTINUOUS
10
104.952
20
-92.439
11
105.237
21
-92.439
0
LINE
8
BLACK
6
CONTINUOUS
10
105.237
20
-92.439
11
105.428
21
-92.5342
0
LINE
8
BLACK
6
CONTINUOUS
10
105.428
20
-92.5342
11
105.523
21
-92.7247
0
LINE
8
BLACK
6
CONTINUOUS
10
105.523
20
-92.7247
11
105.523
21
-93.7723
0
LINE
8
BLACK
6
CONTINUOUS
10
105.523
20
-92.7247
11
105.618
21
-92.5342
0
LINE
8
BLACK
6
CONTINUOUS
10
105.618
20
-92.5342
11
105.809
21
-92.439
0
LINE
8
BLACK
6
CONTINUOUS
10
105.809
20
-92.439
11
106.094
21
-92.439
0
LINE
8
BLACK
6
CONTINUOUS
10
106.094
20
-92.439
11
106.285
21
-92.5342
0
LINE
8
BLACK
6
CONTINUOUS
10
106.285
20
-92.5342
11
106.38
21
-92.7247
0
LINE
8
BLACK
6
CONTINUOUS
10
106.38
20
-92.7247
11
106.38
21
-93.7723
0
LINE
8
BLACK
6
CONTINUOUS
10
110.285
20
-91.6771
11
108.571
21
-94.2485
0
LINE
8
BLACK
6
CONTINUOUS
10
112.856
20
-91.7723
11
113.047
21
-91.7723
0
LINE
8
BLACK
6
CONTINUOUS
10
113.047
20
-91.7723
11
113.237
21
-91.8676
0
LINE
8
BLACK
6
CONTINUOUS
10
113.237
20
-91.8676
11
113.333
21
-91.9628
0
LINE
8
BLACK
6
CONTINUOUS
10
113.333
20
-91.9628
11
113.428
21
-92.1533
0
LINE
8
BLACK
6
CONTINUOUS
10
113.428
20
-92.1533
11
113.523
21
-92.5342
0
LINE
8
BLACK
6
CONTINUOUS
10
113.523
20
-92.5342
11
113.523
21
-93.0104
0
LINE
8
BLACK
6
CONTINUOUS
10
113.523
20
-93.0104
11
113.428
21
-93.3914
0
LINE
8
BLACK
6
CONTINUOUS
10
113.428
20
-93.3914
11
113.333
21
-93.5819
0
LINE
8
BLACK
6
CONTINUOUS
10
113.333
20
-93.5819
11
113.237
21
-93.6771
0
LINE
8
BLACK
6
CONTINUOUS
10
113.237
20
-93.6771
11
113.047
21
-93.7723
0
LINE
8
BLACK
6
CONTINUOUS
10
113.047
20
-93.7723
11
112.856
21
-93.7723
0
LINE
8
BLACK
6
CONTINUOUS
10
112.856
20
-93.7723
11
112.666
21
-93.6771
0
LINE
8
BLACK
6
CONTINUOUS
10
112.666
20
-93.6771
11
112.571
21
-93.5819
0
LINE
8
BLACK
6
CONTINUOUS
10
112.571
20
-93.5819
11
112.475
21
-93.3914
0
LINE
8
BLACK
6
CONTINUOUS
10
112.475
20
-93.3914
11
112.38
21
-93.0104
0
LINE
8
BLACK
6
CONTINUOUS
10
112.38
20
-93.0104
11
112.38
21
-92.5342
0
LINE
8
BLACK
6
CONTINUOUS
10
112.38
20
-92.5342
11
112.475
21
-92.1533
0
LINE
8
BLACK
6
CONTINUOUS
10
112.475
20
-92.1533
11
112.571
21
-91.9628
0
LINE
8
BLACK
6
CONTINUOUS
10
112.571
20
-91.9628
11
112.666
21
-91.8676
0
LINE
8
BLACK
6
CONTINUOUS
10
112.666
20
-91.8676
11
112.856
21
-91.7723
0
LINE
8
BLACK
6
CONTINUOUS
10
114.38
20
-93.5819
11
114.475
21
-93.6771
0
LINE
8
BLACK
6
CONTINUOUS
10
114.475
20
-93.6771
11
114.38
21
-93.7723
0
LINE
8
BLACK
6
CONTINUOUS
10
114.38
20
-93.7723
11
114.285
21
-93.6771
0
LINE
8
BLACK
6
CONTINUOUS
10
114.285
20
-93.6771
11
114.38
21
-93.5819
0
LINE
8
BLACK
6
CONTINUOUS
10
114.38
20
-93.5819
11
114.38
21
-93.7723
0
LINE
8
BLACK
6
CONTINUOUS
10
115.713
20
-91.7723
11
115.904
21
-91.7723
0
LINE
8
BLACK
6
CONTINUOUS
10
115.904
20
-91.7723
11
116.094
21
-91.8676
0
LINE
8
BLACK
6
CONTINUOUS
10
116.094
20
-91.8676
11
116.19
21
-91.9628
0
LINE
8
BLACK
6
CONTINUOUS
10
116.19
20
-91.9628
11
116.285
21
-92.1533
0
LINE
8
BLACK
6
CONTINUOUS
10
116.285
20
-92.1533
11
116.38
21
-92.5342
0
LINE
8
BLACK
6
CONTINUOUS
10
116.38
20
-92.5342
11
116.38
21
-93.0104
0
LINE
8
BLACK
6
CONTINUOUS
10
116.38
20
-93.0104
11
116.285
21
-93.3914
0
LINE
8
BLACK
6
CONTINUOUS
10
116.285
20
-93.3914
11
116.19
21
-93.5819
0
LINE
8
BLACK
6
CONTINUOUS
10
116.19
20
-93.5819
11
116.094
21
-93.6771
0
LINE
8
BLACK
6
CONTINUOUS
10
116.094
20
-93.6771
11
115.904
21
-93.7723
0
LINE
8
BLACK
6
CONTINUOUS
10
115.904
20
-93.7723
11
115.713
21
-93.7723
0
LINE
8
BLACK
6
CONTINUOUS
10
115.713
20
-93.7723
11
115.523
21
-93.6771
0
LINE
8
BLACK
6
CONTINUOUS
10
115.523
20
-93.6771
11
115.428
21
-93.5819
0
LINE
8
BLACK
6
CONTINUOUS
10
115.428
20
-93.5819
11
115.333
21
-93.3914
0
LINE
8
BLACK
6
CONTINUOUS
10
115.333
20
-93.3914
11
115.237
21
-93.0104
0
LINE
8
BLACK
6
CONTINUOUS
10
115.237
20
-93.0104
11
115.237
21
-92.5342
0
LINE
8
BLACK
6
CONTINUOUS
10
115.237
20
-92.5342
11
115.333
21
-92.1533
0
LINE
8
BLACK
6
CONTINUOUS
10
115.333
20
-92.1533
11
115.428
21
-91.9628
0
LINE
8
BLACK
6
CONTINUOUS
10
115.428
20
-91.9628
11
115.523
21
-91.8676
0
LINE
8
BLACK
6
CONTINUOUS
10
115.523
20
-91.8676
11
115.713
21
-91.7723
0
LINE
8
BLACK
6
CONTINUOUS
10
118.285
20
-93.7723
11
117.142
21
-93.7723
0
LINE
8
BLACK
6
CONTINUOUS
10
117.713
20
-93.7723
11
117.713
21
-91.7723
0
LINE
8
BLACK
6
CONTINUOUS
10
117.713
20
-91.7723
11
117.523
21
-92.0581
0
LINE
8
BLACK
6
CONTINUOUS
10
117.523
20
-92.0581
11
117.333
21
-92.2485
0
LINE
8
BLACK
6
CONTINUOUS
10
117.333
20
-92.2485
11
117.142
21
-92.3438
0
LINE
8
BLACK
6
CONTINUOUS
10
118.952
20
-91.7723
11
120.19
21
-91.7723
0
LINE
8
BLACK
6
CONTINUOUS
10
120.19
20
-91.7723
11
119.523
21
-92.5342
0
LINE
8
BLACK
6
CONTINUOUS
10
119.523
20
-92.5342
11
119.809
21
-92.5342
0
LINE
8
BLACK
6
CONTINUOUS
10
119.809
20
-92.5342
11
119.999
21
-92.6295
0
LINE
8
BLACK
6
CONTINUOUS
10
119.999
20
-92.6295
11
120.094
21
-92.7247
0
LINE
8
BLACK
6
CONTINUOUS
10
120.094
20
-92.7247
11
120.19
21
-92.9152
0
LINE
8
BLACK
6
CONTINUOUS
10
120.19
20
-92.9152
11
120.19
21
-93.3914
0
LINE
8
BLACK
6
CONTINUOUS
10
120.19
20
-93.3914
11
120.094
21
-93.5819
0
LINE
8
BLACK
6
CONTINUOUS
10
120.094
20
-93.5819
11
119.999
21
-93.6771
0
LINE
8
BLACK
6
CONTINUOUS
10
119.999
20
-93.6771
11
119.809
21
-93.7723
0
LINE
8
BLACK
6
CONTINUOUS
10
119.809
20
-93.7723
11
119.237
21
-93.7723
0
LINE
8
BLACK
6
CONTINUOUS
10
119.237
20
-93.7723
11
119.047
21
-93.6771
0
LINE
8
BLACK
6
CONTINUOUS
10
119.047
20
-93.6771
11
118.952
21
-93.5819
0
LINE
8
BLACK
6
CONTINUOUS
10
121.333
20
-92.6295
11
121.142
21
-92.5342
0
LINE
8
BLACK
6
CONTINUOUS
10
121.142
20
-92.5342
11
121.047
21
-92.439
0
LINE
8
BLACK
6
CONTINUOUS
10
121.047
20
-92.439
11
120.952
21
-92.2485
0
LINE
8
BLACK
6
CONTINUOUS
10
120.952
20
-92.2485
11
120.952
21
-92.1533
0
LINE
8
BLACK
6
CONTINUOUS
10
120.952
20
-92.1533
11
121.047
21
-91.9628
0
LINE
8
BLACK
6
CONTINUOUS
10
121.047
20
-91.9628
11
121.142
21
-91.8676
0
LINE
8
BLACK
6
CONTINUOUS
10
121.142
20
-91.8676
11
121.333
21
-91.7723
0
LINE
8
BLACK
6
CONTINUOUS
10
121.333
20
-91.7723
11
121.713
21
-91.7723
0
LINE
8
BLACK
6
CONTINUOUS
10
121.713
20
-91.7723
11
121.904
21
-91.8676
0
LINE
8
BLACK
6
CONTINUOUS
10
121.904
20
-91.8676
11
121.999
21
-91.9628
0
LINE
8
BLACK
6
CONTINUOUS
10
121.999
20
-91.9628
11
122.094
21
-92.1533
0
LINE
8
BLACK
6
CONTINUOUS
10
122.094
20
-92.1533
11
122.094
21
-92.2485
0
LINE
8
BLACK
6
CONTINUOUS
10
122.094
20
-92.2485
11
121.999
21
-92.439
0
LINE
8
BLACK
6
CONTINUOUS
10
121.999
20
-92.439
11
121.904
21
-92.5342
0
LINE
8
BLACK
6
CONTINUOUS
10
121.904
20
-92.5342
11
121.713
21
-92.6295
0
LINE
8
BLACK
6
CONTINUOUS
10
121.713
20
-92.6295
11
121.333
21
-92.6295
0
LINE
8
BLACK
6
CONTINUOUS
10
121.333
20
-92.6295
11
121.142
21
-92.7247
0
LINE
8
BLACK
6
CONTINUOUS
10
121.142
20
-92.7247
11
121.047
21
-92.82
0
LINE
8
BLACK
6
CONTINUOUS
10
121.047
20
-92.82
11
120.952
21
-93.0104
0
LINE
8
BLACK
6
CONTINUOUS
10
120.952
20
-93.0104
11
120.952
21
-93.3914
0
LINE
8
BLACK
6
CONTINUOUS
10
120.952
20
-93.3914
11
121.047
21
-93.5819
0
LINE
8
BLACK
6
CONTINUOUS
10
121.047
20
-93.5819
11
121.142
21
-93.6771
0
LINE
8
BLACK
6
CONTINUOUS
10
121.142
20
-93.6771
11
121.333
21
-93.7723
0
LINE
8
BLACK
6
CONTINUOUS
10
121.333
20
-93.7723
11
121.713
21
-93.7723
0
LINE
8
BLACK
6
CONTINUOUS
10
121.713
20
-93.7723
11
121.904
21
-93.6771
0
LINE
8
BLACK
6
CONTINUOUS
10
121.904
20
-93.6771
11
121.999
21
-93.5819
0
LINE
8
BLACK
6
CONTINUOUS
10
121.999
20
-93.5819
11
122.094
21
-93.3914
0
LINE
8
BLACK
6
CONTINUOUS
10
122.094
20
-93.3914
11
122.094
21
-93.0104
0
LINE
8
BLACK
6
CONTINUOUS
10
122.094
20
-93.0104
11
121.999
21
-92.82
0
LINE
8
BLACK
6
CONTINUOUS
10
121.999
20
-92.82
11
121.904
21
-92.7247
0
LINE
8
BLACK
6
CONTINUOUS
10
121.904
20
-92.7247
11
121.713
21
-92.6295
0
LINE
8
BLACK
6
CONTINUOUS
10
122.856
20
-91.7723
11
122.856
21
-92.1533
0
LINE
8
BLACK
6
CONTINUOUS
10
123.618
20
-91.7723
11
123.618
21
-92.1533
0
LINE
8
BLACK
6
CONTINUOUS
10
126.571
20
-94.5342
11
126.475
21
-94.439
0
LINE
8
BLACK
6
CONTINUOUS
10
126.475
20
-94.439
11
126.285
21
-94.1533
0
LINE
8
BLACK
6
CONTINUOUS
10
126.285
20
-94.1533
11
126.19
21
-93.9628
0
LINE
8
BLACK
6
CONTINUOUS
10
126.19
20
-93.9628
11
126.094
21
-93.6771
0
LINE
8
BLACK
6
CONTINUOUS
10
126.094
20
-93.6771
11
125.999
21
-93.2009
0
LINE
8
BLACK
6
CONTINUOUS
10
125.999
20
-93.2009
11
125.999
21
-92.82
0
LINE
8
BLACK
6
CONTINUOUS
10
125.999
20
-92.82
11
126.094
21
-92.3438
0
LINE
8
BLACK
6
CONTINUOUS
10
126.094
20
-92.3438
11
126.19
21
-92.0581
0
LINE
8
BLACK
6
CONTINUOUS
10
126.19
20
-92.0581
11
126.285
21
-91.8676
0
LINE
8
BLACK
6
CONTINUOUS
10
126.285
20
-91.8676
11
126.475
21
-91.5819
0
LINE
8
BLACK
6
CONTINUOUS
10
126.475
20
-91.5819
11
126.571
21
-91.4866
0
LINE
8
BLACK
6
CONTINUOUS
10
127.428
20
-93.7723
11
127.809
21
-93.7723
0
LINE
8
BLACK
6
CONTINUOUS
10
127.809
20
-93.7723
11
127.999
21
-93.6771
0
LINE
8
BLACK
6
CONTINUOUS
10
127.999
20
-93.6771
11
128.094
21
-93.5819
0
LINE
8
BLACK
6
CONTINUOUS
10
128.094
20
-93.5819
11
128.285
21
-93.2961
0
LINE
8
BLACK
6
CONTINUOUS
10
128.285
20
-93.2961
11
128.38
21
-92.9152
0
LINE
8
BLACK
6
CONTINUOUS
10
128.38
20
-92.9152
11
128.38
21
-92.1533
0
LINE
8
BLACK
6
CONTINUOUS
10
128.38
20
-92.1533
11
128.285
21
-91.9628
0
LINE
8
BLACK
6
CONTINUOUS
10
128.285
20
-91.9628
11
128.19
21
-91.8676
0
LINE
8
BLACK
6
CONTINUOUS
10
128.19
20
-91.8676
11
127.999
21
-91.7723
0
LINE
8
BLACK
6
CONTINUOUS
10
127.999
20
-91.7723
11
127.618
21
-91.7723
0
LINE
8
BLACK
6
CONTINUOUS
10
127.618
20
-91.7723
11
127.428
21
-91.8676
0
LINE
8
BLACK
6
CONTINUOUS
10
127.428
20
-91.8676
11
127.333
21
-91.9628
0
LINE
8
BLACK
6
CONTINUOUS
10
127.333
20
-91.9628
11
127.237
21
-92.1533
0
LINE
8
BLACK
6
CONTINUOUS
10
127.237
20
-92.1533
11
127.237
21
-92.6295
0
LINE
8
BLACK
6
CONTINUOUS
10
127.237
20
-92.6295
11
127.333
21
-92.82
0
LINE
8
BLACK
6
CONTINUOUS
10
127.333
20
-92.82
11
127.428
21
-92.9152
0
LINE
8
BLACK
6
CONTINUOUS
10
127.428
20
-92.9152
11
127.618
21
-93.0104
0
LINE
8
BLACK
6
CONTINUOUS
10
127.618
20
-93.0104
11
127.999
21
-93.0104
0
LINE
8
BLACK
6
CONTINUOUS
10
127.999
20
-93.0104
11
128.19
21
-92.9152
0
LINE
8
BLACK
6
CONTINUOUS
10
128.19
20
-92.9152
11
128.285
21
-92.82
0
LINE
8
BLACK
6
CONTINUOUS
10
128.285
20
-92.82
11
128.38
21
-92.6295
0
LINE
8
BLACK
6
CONTINUOUS
10
130.761
20
-93.7723
11
130.761
21
-91.7723
0
LINE
8
BLACK
6
CONTINUOUS
10
131.618
20
-93.7723
11
131.618
21
-92.7247
0
LINE
8
BLACK
6
CONTINUOUS
10
131.618
20
-92.7247
11
131.523
21
-92.5342
0
LINE
8
BLACK
6
CONTINUOUS
10
131.523
20
-92.5342
11
131.333
21
-92.439
0
LINE
8
BLACK
6
CONTINUOUS
10
131.333
20
-92.439
11
131.047
21
-92.439
0
LINE
8
BLACK
6
CONTINUOUS
10
131.047
20
-92.439
11
130.856
21
-92.5342
0
LINE
8
BLACK
6
CONTINUOUS
10
130.856
20
-92.5342
11
130.761
21
-92.6295
0
LINE
8
BLACK
6
CONTINUOUS
10
132.856
20
-93.7723
11
132.666
21
-93.6771
0
LINE
8
BLACK
6
CONTINUOUS
10
132.666
20
-93.6771
11
132.571
21
-93.5819
0
LINE
8
BLACK
6
CONTINUOUS
10
132.571
20
-93.5819
11
132.475
21
-93.3914
0
LINE
8
BLACK
6
CONTINUOUS
10
132.475
20
-93.3914
11
132.475
21
-92.82
0
LINE
8
BLACK
6
CONTINUOUS
10
132.475
20
-92.82
11
132.571
21
-92.6295
0
LINE
8
BLACK
6
CONTINUOUS
10
132.571
20
-92.6295
11
132.666
21
-92.5342
0
LINE
8
BLACK
6
CONTINUOUS
10
132.666
20
-92.5342
11
132.856
21
-92.439
0
LINE
8
BLACK
6
CONTINUOUS
10
132.856
20
-92.439
11
133.142
21
-92.439
0
LINE
8
BLACK
6
CONTINUOUS
10
133.142
20
-92.439
11
133.333
21
-92.5342
0
LINE
8
BLACK
6
CONTINUOUS
10
133.333
20
-92.5342
11
133.428
21
-92.6295
0
LINE
8
BLACK
6
CONTINUOUS
10
133.428
20
-92.6295
11
133.523
21
-92.82
0
LINE
8
BLACK
6
CONTINUOUS
10
133.523
20
-92.82
11
133.523
21
-93.3914
0
LINE
8
BLACK
6
CONTINUOUS
10
133.523
20
-93.3914
11
133.428
21
-93.5819
0
LINE
8
BLACK
6
CONTINUOUS
10
133.428
20
-93.5819
11
133.333
21
-93.6771
0
LINE
8
BLACK
6
CONTINUOUS
10
133.333
20
-93.6771
11
133.142
21
-93.7723
0
LINE
8
BLACK
6
CONTINUOUS
10
133.142
20
-93.7723
11
132.856
21
-93.7723
0
LINE
8
BLACK
6
CONTINUOUS
10
134.666
20
-93.7723
11
134.475
21
-93.6771
0
LINE
8
BLACK
6
CONTINUOUS
10
134.475
20
-93.6771
11
134.38
21
-93.4866
0
LINE
8
BLACK
6
CONTINUOUS
10
134.38
20
-93.4866
11
134.38
21
-91.7723
0
LINE
8
BLACK
6
CONTINUOUS
10
136.19
20
-93.6771
11
135.999
21
-93.7723
0
LINE
8
BLACK
6
CONTINUOUS
10
135.999
20
-93.7723
11
135.618
21
-93.7723
0
LINE
8
BLACK
6
CONTINUOUS
10
135.618
20
-93.7723
11
135.428
21
-93.6771
0
LINE
8
BLACK
6
CONTINUOUS
10
135.428
20
-93.6771
11
135.333
21
-93.4866
0
LINE
8
BLACK
6
CONTINUOUS
10
135.333
20
-93.4866
11
135.333
21
-92.7247
0
LINE
8
BLACK
6
CONTINUOUS
10
135.333
20
-92.7247
11
135.428
21
-92.5342
0
LINE
8
BLACK
6
CONTINUOUS
10
135.428
20
-92.5342
11
135.618
21
-92.439
0
LINE
8
BLACK
6
CONTINUOUS
10
135.618
20
-92.439
11
135.999
21
-92.439
0
LINE
8
BLACK
6
CONTINUOUS
10
135.999
20
-92.439
11
136.19
21
-92.5342
0
LINE
8
BLACK
6
CONTINUOUS
10
136.19
20
-92.5342
11
136.285
21
-92.7247
0
LINE
8
BLACK
6
CONTINUOUS
10
136.285
20
-92.7247
11
136.285
21
-92.9152
0
LINE
8
BLACK
6
CONTINUOUS
10
136.285
20
-92.9152
11
135.333
21
-93.1057
0
LINE
8
BLACK
6
CONTINUOUS
10
137.047
20
-93.6771
11
137.237
21
-93.7723
0
LINE
8
BLACK
6
CONTINUOUS
10
137.237
20
-93.7723
11
137.618
21
-93.7723
0
LINE
8
BLACK
6
CONTINUOUS
10
137.618
20
-93.7723
11
137.809
21
-93.6771
0
LINE
8
BLACK
6
CONTINUOUS
10
137.809
20
-93.6771
11
137.904
21
-93.4866
0
LINE
8
BLACK
6
CONTINUOUS
10
137.904
20
-93.4866
11
137.904
21
-93.3914
0
LINE
8
BLACK
6
CONTINUOUS
10
137.904
20
-93.3914
11
137.809
21
-93.2009
0
LINE
8
BLACK
6
CONTINUOUS
10
137.809
20
-93.2009
11
137.618
21
-93.1057
0
LINE
8
BLACK
6
CONTINUOUS
10
137.618
20
-93.1057
11
137.333
21
-93.1057
0
LINE
8
BLACK
6
CONTINUOUS
10
137.333
20
-93.1057
11
137.142
21
-93.0104
0
LINE
8
BLACK
6
CONTINUOUS
10
137.142
20
-93.0104
11
137.047
21
-92.82
0
LINE
8
BLACK
6
CONTINUOUS
10
137.047
20
-92.82
11
137.047
21
-92.7247
0
LINE
8
BLACK
6
CONTINUOUS
10
137.047
20
-92.7247
11
137.142
21
-92.5342
0
LINE
8
BLACK
6
CONTINUOUS
10
137.142
20
-92.5342
11
137.333
21
-92.439
0
LINE
8
BLACK
6
CONTINUOUS
10
137.333
20
-92.439
11
137.618
21
-92.439
0
LINE
8
BLACK
6
CONTINUOUS
10
137.618
20
-92.439
11
137.809
21
-92.5342
0
LINE
8
BLACK
6
CONTINUOUS
10
138.571
20
-94.5342
11
138.666
21
-94.439
0
LINE
8
BLACK
6
CONTINUOUS
10
138.666
20
-94.439
11
138.856
21
-94.1533
0
LINE
8
BLACK
6
CONTINUOUS
10
138.856
20
-94.1533
11
138.952
21
-93.9628
0
LINE
8
BLACK
6
CONTINUOUS
10
138.952
20
-93.9628
11
139.047
21
-93.6771
0
LINE
8
BLACK
6
CONTINUOUS
10
139.047
20
-93.6771
11
139.142
21
-93.2009
0
LINE
8
BLACK
6
CONTINUOUS
10
139.142
20
-93.2009
11
139.142
21
-92.82
0
LINE
8
BLACK
6
CONTINUOUS
10
139.142
20
-92.82
11
139.047
21
-92.3438
0
LINE
8
BLACK
6
CONTINUOUS
10
139.047
20
-92.3438
11
138.952
21
-92.0581
0
LINE
8
BLACK
6
CONTINUOUS
10
138.952
20
-92.0581
11
138.856
21
-91.8676
0
LINE
8
BLACK
6
CONTINUOUS
10
138.856
20
-91.8676
11
138.666
21
-91.5819
0
LINE
8
BLACK
6
CONTINUOUS
10
138.666
20
-91.5819
11
138.571
21
-91.4866
0
LINE
8
BLACK
6
CONTINUOUS
10
90.52
20
-95.1975
11
90.52
21
-95.7975
0
LINE
8
BLACK
6
CONTINUOUS
10
90.22
20
-95.4975
11
90.82
21
-95.4975
0
LINE
8
BLACK
6
CONTINUOUS
10
93.8087
20
-94.4123
11
93.9992
21
-94.4123
0
LINE
8
BLACK
6
CONTINUOUS
10
93.9992
20
-94.4123
11
94.1897
21
-94.5076
0
LINE
8
BLACK
6
CONTINUOUS
10
94.1897
20
-94.5076
11
94.2849
21
-94.6028
0
LINE
8
BLACK
6
CONTINUOUS
10
94.2849
20
-94.6028
11
94.3801
21
-94.7933
0
LINE
8
BLACK
6
CONTINUOUS
10
94.3801
20
-94.7933
11
94.4754
21
-95.1742
0
LINE
8
BLACK
6
CONTINUOUS
10
94.4754
20
-95.1742
11
94.4754
21
-95.6504
0
LINE
8
BLACK
6
CONTINUOUS
10
94.4754
20
-95.6504
11
94.3801
21
-96.0314
0
LINE
8
BLACK
6
CONTINUOUS
10
94.3801
20
-96.0314
11
94.2849
21
-96.2219
0
LINE
8
BLACK
6
CONTINUOUS
10
94.2849
20
-96.2219
11
94.1897
21
-96.3171
0
LINE
8
BLACK
6
CONTINUOUS
10
94.1897
20
-96.3171
11
93.9992
21
-96.4123
0
LINE
8
BLACK
6
CONTINUOUS
10
93.9992
20
-96.4123
11
93.8087
21
-96.4123
0
LINE
8
BLACK
6
CONTINUOUS
10
93.8087
20
-96.4123
11
93.6182
21
-96.3171
0
LINE
8
BLACK
6
CONTINUOUS
10
93.6182
20
-96.3171
11
93.523
21
-96.2219
0
LINE
8
BLACK
6
CONTINUOUS
10
93.523
20
-96.2219
11
93.4278
21
-96.0314
0
LINE
8
BLACK
6
CONTINUOUS
10
93.4278
20
-96.0314
11
93.3325
21
-95.6504
0
LINE
8
BLACK
6
CONTINUOUS
10
93.3325
20
-95.6504
11
93.3325
21
-95.1742
0
LINE
8
BLACK
6
CONTINUOUS
10
93.3325
20
-95.1742
11
93.4278
21
-94.7933
0
LINE
8
BLACK
6
CONTINUOUS
10
93.4278
20
-94.7933
11
93.523
21
-94.6028
0
LINE
8
BLACK
6
CONTINUOUS
10
93.523
20
-94.6028
11
93.6182
21
-94.5076
0
LINE
8
BLACK
6
CONTINUOUS
10
93.6182
20
-94.5076
11
93.8087
21
-94.4123
0
LINE
8
BLACK
6
CONTINUOUS
10
95.3325
20
-96.2219
11
95.4278
21
-96.3171
0
LINE
8
BLACK
6
CONTINUOUS
10
95.4278
20
-96.3171
11
95.3325
21
-96.4123
0
LINE
8
BLACK
6
CONTINUOUS
10
95.3325
20
-96.4123
11
95.2373
21
-96.3171
0
LINE
8
BLACK
6
CONTINUOUS
10
95.2373
20
-96.3171
11
95.3325
21
-96.2219
0
LINE
8
BLACK
6
CONTINUOUS
10
95.3325
20
-96.2219
11
95.3325
21
-96.4123
0
LINE
8
BLACK
6
CONTINUOUS
10
97.1421
20
-94.4123
11
96.7611
21
-94.4123
0
LINE
8
BLACK
6
CONTINUOUS
10
96.7611
20
-94.4123
11
96.5706
21
-94.5076
0
LINE
8
BLACK
6
CONTINUOUS
10
96.5706
20
-94.5076
11
96.4754
21
-94.6028
0
LINE
8
BLACK
6
CONTINUOUS
10
96.4754
20
-94.6028
11
96.2849
21
-94.8885
0
LINE
8
BLACK
6
CONTINUOUS
10
96.2849
20
-94.8885
11
96.1897
21
-95.2695
0
LINE
8
BLACK
6
CONTINUOUS
10
96.1897
20
-95.2695
11
96.1897
21
-96.0314
0
LINE
8
BLACK
6
CONTINUOUS
10
96.1897
20
-96.0314
11
96.2849
21
-96.2219
0
LINE
8
BLACK
6
CONTINUOUS
10
96.2849
20
-96.2219
11
96.3801
21
-96.3171
0
LINE
8
BLACK
6
CONTINUOUS
10
96.3801
20
-96.3171
11
96.5706
21
-96.4123
0
LINE
8
BLACK
6
CONTINUOUS
10
96.5706
20
-96.4123
11
96.9516
21
-96.4123
0
LINE
8
BLACK
6
CONTINUOUS
10
96.9516
20
-96.4123
11
97.1421
21
-96.3171
0
LINE
8
BLACK
6
CONTINUOUS
10
97.1421
20
-96.3171
11
97.2373
21
-96.2219
0
LINE
8
BLACK
6
CONTINUOUS
10
97.2373
20
-96.2219
11
97.3325
21
-96.0314
0
LINE
8
BLACK
6
CONTINUOUS
10
97.3325
20
-96.0314
11
97.3325
21
-95.5552
0
LINE
8
BLACK
6
CONTINUOUS
10
97.3325
20
-95.5552
11
97.2373
21
-95.3647
0
LINE
8
BLACK
6
CONTINUOUS
10
97.2373
20
-95.3647
11
97.1421
21
-95.2695
0
LINE
8
BLACK
6
CONTINUOUS
10
97.1421
20
-95.2695
11
96.9516
21
-95.1742
0
LINE
8
BLACK
6
CONTINUOUS
10
96.9516
20
-95.1742
11
96.5706
21
-95.1742
0
LINE
8
BLACK
6
CONTINUOUS
10
96.5706
20
-95.1742
11
96.3801
21
-95.2695
0
LINE
8
BLACK
6
CONTINUOUS
10
96.3801
20
-95.2695
11
96.2849
21
-95.3647
0
LINE
8
BLACK
6
CONTINUOUS
10
96.2849
20
-95.3647
11
96.1897
21
-95.5552
0
LINE
8
BLACK
6
CONTINUOUS
10
98.5706
20
-94.4123
11
98.7611
21
-94.4123
0
LINE
8
BLACK
6
CONTINUOUS
10
98.7611
20
-94.4123
11
98.9516
21
-94.5076
0
LINE
8
BLACK
6
CONTINUOUS
10
98.9516
20
-94.5076
11
99.0468
21
-94.6028
0
LINE
8
BLACK
6
CONTINUOUS
10
99.0468
20
-94.6028
11
99.1421
21
-94.7933
0
LINE
8
BLACK
6
CONTINUOUS
10
99.1421
20
-94.7933
11
99.2373
21
-95.1742
0
LINE
8
BLACK
6
CONTINUOUS
10
99.2373
20
-95.1742
11
99.2373
21
-95.6504
0
LINE
8
BLACK
6
CONTINUOUS
10
99.2373
20
-95.6504
11
99.1421
21
-96.0314
0
LINE
8
BLACK
6
CONTINUOUS
10
99.1421
20
-96.0314
11
99.0468
21
-96.2219
0
LINE
8
BLACK
6
CONTINUOUS
10
99.0468
20
-96.2219
11
98.9516
21
-96.3171
0
LINE
8
BLACK
6
CONTINUOUS
10
98.9516
20
-96.3171
11
98.7611
21
-96.4123
0
LINE
8
BLACK
6
CONTINUOUS
10
98.7611
20
-96.4123
11
98.5706
21
-96.4123
0
LINE
8
BLACK
6
CONTINUOUS
10
98.5706
20
-96.4123
11
98.3801
21
-96.3171
0
LINE
8
BLACK
6
CONTINUOUS
10
98.3801
20
-96.3171
11
98.2849
21
-96.2219
0
LINE
8
BLACK
6
CONTINUOUS
10
98.2849
20
-96.2219
11
98.1897
21
-96.0314
0
LINE
8
BLACK
6
CONTINUOUS
10
98.1897
20
-96.0314
11
98.0944
21
-95.6504
0
LINE
8
BLACK
6
CONTINUOUS
10
98.0944
20
-95.6504
11
98.0944
21
-95.1742
0
LINE
8
BLACK
6
CONTINUOUS
10
98.0944
20
-95.1742
11
98.1897
21
-94.7933
0
LINE
8
BLACK
6
CONTINUOUS
10
98.1897
20
-94.7933
11
98.2849
21
-94.6028
0
LINE
8
BLACK
6
CONTINUOUS
10
98.2849
20
-94.6028
11
98.3801
21
-94.5076
0
LINE
8
BLACK
6
CONTINUOUS
10
98.3801
20
-94.5076
11
98.5706
21
-94.4123
0
LINE
8
BLACK
6
CONTINUOUS
10
100.475
20
-94.4123
11
100.666
21
-94.4123
0
LINE
8
BLACK
6
CONTINUOUS
10
100.666
20
-94.4123
11
100.856
21
-94.5076
0
LINE
8
BLACK
6
CONTINUOUS
10
100.856
20
-94.5076
11
100.952
21
-94.6028
0
LINE
8
BLACK
6
CONTINUOUS
10
100.952
20
-94.6028
11
101.047
21
-94.7933
0
LINE
8
BLACK
6
CONTINUOUS
10
101.047
20
-94.7933
11
101.142
21
-95.1742
0
LINE
8
BLACK
6
CONTINUOUS
10
101.142
20
-95.1742
11
101.142
21
-95.6504
0
LINE
8
BLACK
6
CONTINUOUS
10
101.142
20
-95.6504
11
101.047
21
-96.0314
0
LINE
8
BLACK
6
CONTINUOUS
10
101.047
20
-96.0314
11
100.952
21
-96.2219
0
LINE
8
BLACK
6
CONTINUOUS
10
100.952
20
-96.2219
11
100.856
21
-96.3171
0
LINE
8
BLACK
6
CONTINUOUS
10
100.856
20
-96.3171
11
100.666
21
-96.4123
0
LINE
8
BLACK
6
CONTINUOUS
10
100.666
20
-96.4123
11
100.475
21
-96.4123
0
LINE
8
BLACK
6
CONTINUOUS
10
100.475
20
-96.4123
11
100.285
21
-96.3171
0
LINE
8
BLACK
6
CONTINUOUS
10
100.285
20
-96.3171
11
100.19
21
-96.2219
0
LINE
8
BLACK
6
CONTINUOUS
10
100.19
20
-96.2219
11
100.094
21
-96.0314
0
LINE
8
BLACK
6
CONTINUOUS
10
100.094
20
-96.0314
11
99.9992
21
-95.6504
0
LINE
8
BLACK
6
CONTINUOUS
10
99.9992
20
-95.6504
11
99.9992
21
-95.1742
0
LINE
8
BLACK
6
CONTINUOUS
10
99.9992
20
-95.1742
11
100.094
21
-94.7933
0
LINE
8
BLACK
6
CONTINUOUS
10
100.094
20
-94.7933
11
100.19
21
-94.6028
0
LINE
8
BLACK
6
CONTINUOUS
10
100.19
20
-94.6028
11
100.285
21
-94.5076
0
LINE
8
BLACK
6
CONTINUOUS
10
100.285
20
-94.5076
11
100.475
21
-94.4123
0
LINE
8
BLACK
6
CONTINUOUS
10
101.999
20
-96.4123
11
101.999
21
-95.079
0
LINE
8
BLACK
6
CONTINUOUS
10
101.999
20
-95.2695
11
102.094
21
-95.1742
0
LINE
8
BLACK
6
CONTINUOUS
10
102.094
20
-95.1742
11
102.285
21
-95.079
0
LINE
8
BLACK
6
CONTINUOUS
10
102.285
20
-95.079
11
102.571
21
-95.079
0
LINE
8
BLACK
6
CONTINUOUS
10
102.571
20
-95.079
11
102.761
21
-95.1742
0
LINE
8
BLACK
6
CONTINUOUS
10
102.761
20
-95.1742
11
102.856
21
-95.3647
0
LINE
8
BLACK
6
CONTINUOUS
10
102.856
20
-95.3647
11
102.856
21
-96.4123
0
LINE
8
BLACK
6
CONTINUOUS
10
102.856
20
-95.3647
11
102.952
21
-95.1742
0
LINE
8
BLACK
6
CONTINUOUS
10
102.952
20
-95.1742
11
103.142
21
-95.079
0
LINE
8
BLACK
6
CONTINUOUS
10
103.142
20
-95.079
11
103.428
21
-95.079
0
LINE
8
BLACK
6
CONTINUOUS
10
103.428
20
-95.079
11
103.618
21
-95.1742
0
LINE
8
BLACK
6
CONTINUOUS
10
103.618
20
-95.1742
11
103.713
21
-95.3647
0
LINE
8
BLACK
6
CONTINUOUS
10
103.713
20
-95.3647
11
103.713
21
-96.4123
0
LINE
8
BLACK
6
CONTINUOUS
10
104.666
20
-96.4123
11
104.666
21
-95.079
0
LINE
8
BLACK
6
CONTINUOUS
10
104.666
20
-95.2695
11
104.761
21
-95.1742
0
LINE
8
BLACK
6
CONTINUOUS
10
104.761
20
-95.1742
11
104.952
21
-95.079
0
LINE
8
BLACK
6
CONTINUOUS
10
104.952
20
-95.079
11
105.237
21
-95.079
0
LINE
8
BLACK
6
CONTINUOUS
10
105.237
20
-95.079
11
105.428
21
-95.1742
0
LINE
8
BLACK
6
CONTINUOUS
10
105.428
20
-95.1742
11
105.523
21
-95.3647
0
LINE
8
BLACK
6
CONTINUOUS
10
105.523
20
-95.3647
11
105.523
21
-96.4123
0
LINE
8
BLACK
6
CONTINUOUS
10
105.523
20
-95.3647
11
105.618
21
-95.1742
0
LINE
8
BLACK
6
CONTINUOUS
10
105.618
20
-95.1742
11
105.809
21
-95.079
0
LINE
8
BLACK
6
CONTINUOUS
10
105.809
20
-95.079
11
106.094
21
-95.079
0
LINE
8
BLACK
6
CONTINUOUS
10
106.094
20
-95.079
11
106.285
21
-95.1742
0
LINE
8
BLACK
6
CONTINUOUS
10
106.285
20
-95.1742
11
106.38
21
-95.3647
0
LINE
8
BLACK
6
CONTINUOUS
10
106.38
20
-95.3647
11
106.38
21
-96.4123
0
LINE
8
BLACK
6
CONTINUOUS
10
110.285
20
-94.3171
11
108.571
21
-96.8885
0
LINE
8
BLACK
6
CONTINUOUS
10
112.856
20
-94.4123
11
113.047
21
-94.4123
0
LINE
8
BLACK
6
CONTINUOUS
10
113.047
20
-94.4123
11
113.237
21
-94.5076
0
LINE
8
BLACK
6
CONTINUOUS
10
113.237
20
-94.5076
11
113.333
21
-94.6028
0
LINE
8
BLACK
6
CONTINUOUS
10
113.333
20
-94.6028
11
113.428
21
-94.7933
0
LINE
8
BLACK
6
CONTINUOUS
10
113.428
20
-94.7933
11
113.523
21
-95.1742
0
LINE
8
BLACK
6
CONTINUOUS
10
113.523
20
-95.1742
11
113.523
21
-95.6504
0
LINE
8
BLACK
6
CONTINUOUS
10
113.523
20
-95.6504
11
113.428
21
-96.0314
0
LINE
8
BLACK
6
CONTINUOUS
10
113.428
20
-96.0314
11
113.333
21
-96.2219
0
LINE
8
BLACK
6
CONTINUOUS
10
113.333
20
-96.2219
11
113.237
21
-96.3171
0
LINE
8
BLACK
6
CONTINUOUS
10
113.237
20
-96.3171
11
113.047
21
-96.4123
0
LINE
8
BLACK
6
CONTINUOUS
10
113.047
20
-96.4123
11
112.856
21
-96.4123
0
LINE
8
BLACK
6
CONTINUOUS
10
112.856
20
-96.4123
11
112.666
21
-96.3171
0
LINE
8
BLACK
6
CONTINUOUS
10
112.666
20
-96.3171
11
112.571
21
-96.2219
0
LINE
8
BLACK
6
CONTINUOUS
10
112.571
20
-96.2219
11
112.475
21
-96.0314
0
LINE
8
BLACK
6
CONTINUOUS
10
112.475
20
-96.0314
11
112.38
21
-95.6504
0
LINE
8
BLACK
6
CONTINUOUS
10
112.38
20
-95.6504
11
112.38
21
-95.1742
0
LINE
8
BLACK
6
CONTINUOUS
10
112.38
20
-95.1742
11
112.475
21
-94.7933
0
LINE
8
BLACK
6
CONTINUOUS
10
112.475
20
-94.7933
11
112.571
21
-94.6028
0
LINE
8
BLACK
6
CONTINUOUS
10
112.571
20
-94.6028
11
112.666
21
-94.5076
0
LINE
8
BLACK
6
CONTINUOUS
10
112.666
20
-94.5076
11
112.856
21
-94.4123
0
LINE
8
BLACK
6
CONTINUOUS
10
114.38
20
-96.2219
11
114.475
21
-96.3171
0
LINE
8
BLACK
6
CONTINUOUS
10
114.475
20
-96.3171
11
114.38
21
-96.4123
0
LINE
8
BLACK
6
CONTINUOUS
10
114.38
20
-96.4123
11
114.285
21
-96.3171
0
LINE
8
BLACK
6
CONTINUOUS
10
114.285
20
-96.3171
11
114.38
21
-96.2219
0
LINE
8
BLACK
6
CONTINUOUS
10
114.38
20
-96.2219
11
114.38
21
-96.4123
0
LINE
8
BLACK
6
CONTINUOUS
10
115.713
20
-94.4123
11
115.904
21
-94.4123
0
LINE
8
BLACK
6
CONTINUOUS
10
115.904
20
-94.4123
11
116.094
21
-94.5076
0
LINE
8
BLACK
6
CONTINUOUS
10
116.094
20
-94.5076
11
116.19
21
-94.6028
0
LINE
8
BLACK
6
CONTINUOUS
10
116.19
20
-94.6028
11
116.285
21
-94.7933
0
LINE
8
BLACK
6
CONTINUOUS
10
116.285
20
-94.7933
11
116.38
21
-95.1742
0
LINE
8
BLACK
6
CONTINUOUS
10
116.38
20
-95.1742
11
116.38
21
-95.6504
0
LINE
8
BLACK
6
CONTINUOUS
10
116.38
20
-95.6504
11
116.285
21
-96.0314
0
LINE
8
BLACK
6
CONTINUOUS
10
116.285
20
-96.0314
11
116.19
21
-96.2219
0
LINE
8
BLACK
6
CONTINUOUS
10
116.19
20
-96.2219
11
116.094
21
-96.3171
0
LINE
8
BLACK
6
CONTINUOUS
10
116.094
20
-96.3171
11
115.904
21
-96.4123
0
LINE
8
BLACK
6
CONTINUOUS
10
115.904
20
-96.4123
11
115.713
21
-96.4123
0
LINE
8
BLACK
6
CONTINUOUS
10
115.713
20
-96.4123
11
115.523
21
-96.3171
0
LINE
8
BLACK
6
CONTINUOUS
10
115.523
20
-96.3171
11
115.428
21
-96.2219
0
LINE
8
BLACK
6
CONTINUOUS
10
115.428
20
-96.2219
11
115.333
21
-96.0314
0
LINE
8
BLACK
6
CONTINUOUS
10
115.333
20
-96.0314
11
115.237
21
-95.6504
0
LINE
8
BLACK
6
CONTINUOUS
10
115.237
20
-95.6504
11
115.237
21
-95.1742
0
LINE
8
BLACK
6
CONTINUOUS
10
115.237
20
-95.1742
11
115.333
21
-94.7933
0
LINE
8
BLACK
6
CONTINUOUS
10
115.333
20
-94.7933
11
115.428
21
-94.6028
0
LINE
8
BLACK
6
CONTINUOUS
10
115.428
20
-94.6028
11
115.523
21
-94.5076
0
LINE
8
BLACK
6
CONTINUOUS
10
115.523
20
-94.5076
11
115.713
21
-94.4123
0
LINE
8
BLACK
6
CONTINUOUS
10
117.142
20
-94.6028
11
117.237
21
-94.5076
0
LINE
8
BLACK
6
CONTINUOUS
10
117.237
20
-94.5076
11
117.428
21
-94.4123
0
LINE
8
BLACK
6
CONTINUOUS
10
117.428
20
-94.4123
11
117.904
21
-94.4123
0
LINE
8
BLACK
6
CONTINUOUS
10
117.904
20
-94.4123
11
118.094
21
-94.5076
0
LINE
8
BLACK
6
CONTINUOUS
10
118.094
20
-94.5076
11
118.19
21
-94.6028
0
LINE
8
BLACK
6
CONTINUOUS
10
118.19
20
-94.6028
11
118.285
21
-94.7933
0
LINE
8
BLACK
6
CONTINUOUS
10
118.285
20
-94.7933
11
118.285
21
-94.9838
0
LINE
8
BLACK
6
CONTINUOUS
10
118.285
20
-94.9838
11
118.19
21
-95.2695
0
LINE
8
BLACK
6
CONTINUOUS
10
118.19
20
-95.2695
11
117.047
21
-96.4123
0
LINE
8
BLACK
6
CONTINUOUS
10
117.047
20
-96.4123
11
118.285
21
-96.4123
0
LINE
8
BLACK
6
CONTINUOUS
10
118.952
20
-94.4123
11
120.19
21
-94.4123
0
LINE
8
BLACK
6
CONTINUOUS
10
120.19
20
-94.4123
11
119.523
21
-95.1742
0
LINE
8
BLACK
6
CONTINUOUS
10
119.523
20
-95.1742
11
119.809
21
-95.1742
0
LINE
8
BLACK
6
CONTINUOUS
10
119.809
20
-95.1742
11
119.999
21
-95.2695
0
LINE
8
BLACK
6
CONTINUOUS
10
119.999
20
-95.2695
11
120.094
21
-95.3647
0
LINE
8
BLACK
6
CONTINUOUS
10
120.094
20
-95.3647
11
120.19
21
-95.5552
0
LINE
8
BLACK
6
CONTINUOUS
10
120.19
20
-95.5552
11
120.19
21
-96.0314
0
LINE
8
BLACK
6
CONTINUOUS
10
120.19
20
-96.0314
11
120.094
21
-96.2219
0
LINE
8
BLACK
6
CONTINUOUS
10
120.094
20
-96.2219
11
119.999
21
-96.3171
0
LINE
8
BLACK
6
CONTINUOUS
10
119.999
20
-96.3171
11
119.809
21
-96.4123
0
LINE
8
BLACK
6
CONTINUOUS
10
119.809
20
-96.4123
11
119.237
21
-96.4123
0
LINE
8
BLACK
6
CONTINUOUS
10
119.237
20
-96.4123
11
119.047
21
-96.3171
0
LINE
8
BLACK
6
CONTINUOUS
10
119.047
20
-96.3171
11
118.952
21
-96.2219
0
LINE
8
BLACK
6
CONTINUOUS
10
121.904
20
-94.4123
11
121.523
21
-94.4123
0
LINE
8
BLACK
6
CONTINUOUS
10
121.523
20
-94.4123
11
121.333
21
-94.5076
0
LINE
8
BLACK
6
CONTINUOUS
10
121.333
20
-94.5076
11
121.237
21
-94.6028
0
LINE
8
BLACK
6
CONTINUOUS
10
121.237
20
-94.6028
11
121.047
21
-94.8885
0
LINE
8
BLACK
6
CONTINUOUS
10
121.047
20
-94.8885
11
120.952
21
-95.2695
0
LINE
8
BLACK
6
CONTINUOUS
10
120.952
20
-95.2695
11
120.952
21
-96.0314
0
LINE
8
BLACK
6
CONTINUOUS
10
120.952
20
-96.0314
11
121.047
21
-96.2219
0
LINE
8
BLACK
6
CONTINUOUS
10
121.047
20
-96.2219
11
121.142
21
-96.3171
0
LINE
8
BLACK
6
CONTINUOUS
10
121.142
20
-96.3171
11
121.333
21
-96.4123
0
LINE
8
BLACK
6
CONTINUOUS
10
121.333
20
-96.4123
11
121.713
21
-96.4123
0
LINE
8
BLACK
6
CONTINUOUS
10
121.713
20
-96.4123
11
121.904
21
-96.3171
0
LINE
8
BLACK
6
CONTINUOUS
10
121.904
20
-96.3171
11
121.999
21
-96.2219
0
LINE
8
BLACK
6
CONTINUOUS
10
121.999
20
-96.2219
11
122.094
21
-96.0314
0
LINE
8
BLACK
6
CONTINUOUS
10
122.094
20
-96.0314
11
122.094
21
-95.5552
0
LINE
8
BLACK
6
CONTINUOUS
10
122.094
20
-95.5552
11
121.999
21
-95.3647
0
LINE
8
BLACK
6
CONTINUOUS
10
121.999
20
-95.3647
11
121.904
21
-95.2695
0
LINE
8
BLACK
6
CONTINUOUS
10
121.904
20
-95.2695
11
121.713
21
-95.1742
0
LINE
8
BLACK
6
CONTINUOUS
10
121.713
20
-95.1742
11
121.333
21
-95.1742
0
LINE
8
BLACK
6
CONTINUOUS
10
121.333
20
-95.1742
11
121.142
21
-95.2695
0
LINE
8
BLACK
6
CONTINUOUS
10
121.142
20
-95.2695
11
121.047
21
-95.3647
0
LINE
8
BLACK
6
CONTINUOUS
10
121.047
20
-95.3647
11
120.952
21
-95.5552
0
LINE
8
BLACK
6
CONTINUOUS
10
122.856
20
-94.4123
11
122.856
21
-94.7933
0
LINE
8
BLACK
6
CONTINUOUS
10
123.618
20
-94.4123
11
123.618
21
-94.7933
0
LINE
8
BLACK
6
CONTINUOUS
10
126.571
20
-97.1742
11
126.475
21
-97.079
0
LINE
8
BLACK
6
CONTINUOUS
10
126.475
20
-97.079
11
126.285
21
-96.7933
0
LINE
8
BLACK
6
CONTINUOUS
10
126.285
20
-96.7933
11
126.19
21
-96.6028
0
LINE
8
BLACK
6
CONTINUOUS
10
126.19
20
-96.6028
11
126.094
21
-96.3171
0
LINE
8
BLACK
6
CONTINUOUS
10
126.094
20
-96.3171
11
125.999
21
-95.8409
0
LINE
8
BLACK
6
CONTINUOUS
10
125.999
20
-95.8409
11
125.999
21
-95.46
0
LINE
8
BLACK
6
CONTINUOUS
10
125.999
20
-95.46
11
126.094
21
-94.9838
0
LINE
8
BLACK
6
CONTINUOUS
10
126.094
20
-94.9838
11
126.19
21
-94.6981
0
LINE
8
BLACK
6
CONTINUOUS
10
126.19
20
-94.6981
11
126.285
21
-94.5076
0
LINE
8
BLACK
6
CONTINUOUS
10
126.285
20
-94.5076
11
126.475
21
-94.2219
0
LINE
8
BLACK
6
CONTINUOUS
10
126.475
20
-94.2219
11
126.571
21
-94.1266
0
LINE
8
BLACK
6
CONTINUOUS
10
127.713
20
-94.4123
11
127.904
21
-94.4123
0
LINE
8
BLACK
6
CONTINUOUS
10
127.904
20
-94.4123
11
128.094
21
-94.5076
0
LINE
8
BLACK
6
CONTINUOUS
10
128.094
20
-94.5076
11
128.19
21
-94.6028
0
LINE
8
BLACK
6
CONTINUOUS
10
128.19
20
-94.6028
11
128.285
21
-94.7933
0
LINE
8
BLACK
6
CONTINUOUS
10
128.285
20
-94.7933
11
128.38
21
-95.1742
0
LINE
8
BLACK
6
CONTINUOUS
10
128.38
20
-95.1742
11
128.38
21
-95.6504
0
LINE
8
BLACK
6
CONTINUOUS
10
128.38
20
-95.6504
11
128.285
21
-96.0314
0
LINE
8
BLACK
6
CONTINUOUS
10
128.285
20
-96.0314
11
128.19
21
-96.2219
0
LINE
8
BLACK
6
CONTINUOUS
10
128.19
20
-96.2219
11
128.094
21
-96.3171
0
LINE
8
BLACK
6
CONTINUOUS
10
128.094
20
-96.3171
11
127.904
21
-96.4123
0
LINE
8
BLACK
6
CONTINUOUS
10
127.904
20
-96.4123
11
127.713
21
-96.4123
0
LINE
8
BLACK
6
CONTINUOUS
10
127.713
20
-96.4123
11
127.523
21
-96.3171
0
LINE
8
BLACK
6
CONTINUOUS
10
127.523
20
-96.3171
11
127.428
21
-96.2219
0
LINE
8
BLACK
6
CONTINUOUS
10
127.428
20
-96.2219
11
127.333
21
-96.0314
0
LINE
8
BLACK
6
CONTINUOUS
10
127.333
20
-96.0314
11
127.237
21
-95.6504
0
LINE
8
BLACK
6
CONTINUOUS
10
127.237
20
-95.6504
11
127.237
21
-95.1742
0
LINE
8
BLACK
6
CONTINUOUS
10
127.237
20
-95.1742
11
127.333
21
-94.7933
0
LINE
8
BLACK
6
CONTINUOUS
10
127.333
20
-94.7933
11
127.428
21
-94.6028
0
LINE
8
BLACK
6
CONTINUOUS
10
127.428
20
-94.6028
11
127.523
21
-94.5076
0
LINE
8
BLACK
6
CONTINUOUS
10
127.523
20
-94.5076
11
127.713
21
-94.4123
0
LINE
8
BLACK
6
CONTINUOUS
10
130.761
20
-96.4123
11
130.761
21
-94.4123
0
LINE
8
BLACK
6
CONTINUOUS
10
131.618
20
-96.4123
11
131.618
21
-95.3647
0
LINE
8
BLACK
6
CONTINUOUS
10
131.618
20
-95.3647
11
131.523
21
-95.1742
0
LINE
8
BLACK
6
CONTINUOUS
10
131.523
20
-95.1742
11
131.333
21
-95.079
0
LINE
8
BLACK
6
CONTINUOUS
10
131.333
20
-95.079
11
131.047
21
-95.079
0
LINE
8
BLACK
6
CONTINUOUS
10
131.047
20
-95.079
11
130.856
21
-95.1742
0
LINE
8
BLACK
6
CONTINUOUS
10
130.856
20
-95.1742
11
130.761
21
-95.2695
0
LINE
8
BLACK
6
CONTINUOUS
10
132.856
20
-96.4123
11
132.666
21
-96.3171
0
LINE
8
BLACK
6
CONTINUOUS
10
132.666
20
-96.3171
11
132.571
21
-96.2219
0
LINE
8
BLACK
6
CONTINUOUS
10
132.571
20
-96.2219
11
132.475
21
-96.0314
0
LINE
8
BLACK
6
CONTINUOUS
10
132.475
20
-96.0314
11
132.475
21
-95.46
0
LINE
8
BLACK
6
CONTINUOUS
10
132.475
20
-95.46
11
132.571
21
-95.2695
0
LINE
8
BLACK
6
CONTINUOUS
10
132.571
20
-95.2695
11
132.666
21
-95.1742
0
LINE
8
BLACK
6
CONTINUOUS
10
132.666
20
-95.1742
11
132.856
21
-95.079
0
LINE
8
BLACK
6
CONTINUOUS
10
132.856
20
-95.079
11
133.142
21
-95.079
0
LINE
8
BLACK
6
CONTINUOUS
10
133.142
20
-95.079
11
133.333
21
-95.1742
0
LINE
8
BLACK
6
CONTINUOUS
10
133.333
20
-95.1742
11
133.428
21
-95.2695
0
LINE
8
BLACK
6
CONTINUOUS
10
133.428
20
-95.2695
11
133.523
21
-95.46
0
LINE
8
BLACK
6
CONTINUOUS
10
133.523
20
-95.46
11
133.523
21
-96.0314
0
LINE
8
BLACK
6
CONTINUOUS
10
133.523
20
-96.0314
11
133.428
21
-96.2219
0
LINE
8
BLACK
6
CONTINUOUS
10
133.428
20
-96.2219
11
133.333
21
-96.3171
0
LINE
8
BLACK
6
CONTINUOUS
10
133.333
20
-96.3171
11
133.142
21
-96.4123
0
LINE
8
BLACK
6
CONTINUOUS
10
133.142
20
-96.4123
11
132.856
21
-96.4123
0
LINE
8
BLACK
6
CONTINUOUS
10
134.666
20
-96.4123
11
134.475
21
-96.3171
0
LINE
8
BLACK
6
CONTINUOUS
10
134.475
20
-96.3171
11
134.38
21
-96.1266
0
LINE
8
BLACK
6
CONTINUOUS
10
134.38
20
-96.1266
11
134.38
21
-94.4123
0
LINE
8
BLACK
6
CONTINUOUS
10
136.19
20
-96.3171
11
135.999
21
-96.4123
0
LINE
8
BLACK
6
CONTINUOUS
10
135.999
20
-96.4123
11
135.618
21
-96.4123
0
LINE
8
BLACK
6
CONTINUOUS
10
135.618
20
-96.4123
11
135.428
21
-96.3171
0
LINE
8
BLACK
6
CONTINUOUS
10
135.428
20
-96.3171
11
135.333
21
-96.1266
0
LINE
8
BLACK
6
CONTINUOUS
10
135.333
20
-96.1266
11
135.333
21
-95.3647
0
LINE
8
BLACK
6
CONTINUOUS
10
135.333
20
-95.3647
11
135.428
21
-95.1742
0
LINE
8
BLACK
6
CONTINUOUS
10
135.428
20
-95.1742
11
135.618
21
-95.079
0
LINE
8
BLACK
6
CONTINUOUS
10
135.618
20
-95.079
11
135.999
21
-95.079
0
LINE
8
BLACK
6
CONTINUOUS
10
135.999
20
-95.079
11
136.19
21
-95.1742
0
LINE
8
BLACK
6
CONTINUOUS
10
136.19
20
-95.1742
11
136.285
21
-95.3647
0
LINE
8
BLACK
6
CONTINUOUS
10
136.285
20
-95.3647
11
136.285
21
-95.5552
0
LINE
8
BLACK
6
CONTINUOUS
10
136.285
20
-95.5552
11
135.333
21
-95.7457
0
LINE
8
BLACK
6
CONTINUOUS
10
137.047
20
-96.3171
11
137.237
21
-96.4123
0
LINE
8
BLACK
6
CONTINUOUS
10
137.237
20
-96.4123
11
137.618
21
-96.4123
0
LINE
8
BLACK
6
CONTINUOUS
10
137.618
20
-96.4123
11
137.809
21
-96.3171
0
LINE
8
BLACK
6
CONTINUOUS
10
137.809
20
-96.3171
11
137.904
21
-96.1266
0
LINE
8
BLACK
6
CONTINUOUS
10
137.904
20
-96.1266
11
137.904
21
-96.0314
0
LINE
8
BLACK
6
CONTINUOUS
10
137.904
20
-96.0314
11
137.809
21
-95.8409
0
LINE
8
BLACK
6
CONTINUOUS
10
137.809
20
-95.8409
11
137.618
21
-95.7457
0
LINE
8
BLACK
6
CONTINUOUS
10
137.618
20
-95.7457
11
137.333
21
-95.7457
0
LINE
8
BLACK
6
CONTINUOUS
10
137.333
20
-95.7457
11
137.142
21
-95.6504
0
LINE
8
BLACK
6
CONTINUOUS
10
137.142
20
-95.6504
11
137.047
21
-95.46
0
LINE
8
BLACK
6
CONTINUOUS
10
137.047
20
-95.46
11
137.047
21
-95.3647
0
LINE
8
BLACK
6
CONTINUOUS
10
137.047
20
-95.3647
11
137.142
21
-95.1742
0
LINE
8
BLACK
6
CONTINUOUS
10
137.142
20
-95.1742
11
137.333
21
-95.079
0
LINE
8
BLACK
6
CONTINUOUS
10
137.333
20
-95.079
11
137.618
21
-95.079
0
LINE
8
BLACK
6
CONTINUOUS
10
137.618
20
-95.079
11
137.809
21
-95.1742
0
LINE
8
BLACK
6
CONTINUOUS
10
140.285
20
-95.6504
11
141.809
21
-95.6504
0
LINE
8
BLACK
6
CONTINUOUS
10
141.047
20
-96.4123
11
141.047
21
-94.8885
0
LINE
8
BLACK
6
CONTINUOUS
10
145.142
20
-95.079
11
145.142
21
-96.4123
0
LINE
8
BLACK
6
CONTINUOUS
10
144.666
20
-94.3171
11
144.19
21
-95.7457
0
LINE
8
BLACK
6
CONTINUOUS
10
144.19
20
-95.7457
11
145.428
21
-95.7457
0
LINE
8
BLACK
6
CONTINUOUS
10
147.618
20
-96.3171
11
147.809
21
-96.4123
0
LINE
8
BLACK
6
CONTINUOUS
10
147.809
20
-96.4123
11
148.19
21
-96.4123
0
LINE
8
BLACK
6
CONTINUOUS
10
148.19
20
-96.4123
11
148.38
21
-96.3171
0
LINE
8
BLACK
6
CONTINUOUS
10
148.38
20
-96.3171
11
148.475
21
-96.1266
0
LINE
8
BLACK
6
CONTINUOUS
10
148.475
20
-96.1266
11
148.475
21
-96.0314
0
LINE
8
BLACK
6
CONTINUOUS
10
148.475
20
-96.0314
11
148.38
21
-95.8409
0
LINE
8
BLACK
6
CONTINUOUS
10
148.38
20
-95.8409
11
148.19
21
-95.7457
0
LINE
8
BLACK
6
CONTINUOUS
10
148.19
20
-95.7457
11
147.904
21
-95.7457
0
LINE
8
BLACK
6
CONTINUOUS
10
147.904
20
-95.7457
11
147.713
21
-95.6504
0
LINE
8
BLACK
6
CONTINUOUS
10
147.713
20
-95.6504
11
147.618
21
-95.46
0
LINE
8
BLACK
6
CONTINUOUS
10
147.618
20
-95.46
11
147.618
21
-95.3647
0
LINE
8
BLACK
6
CONTINUOUS
10
147.618
20
-95.3647
11
147.713
21
-95.1742
0
LINE
8
BLACK
6
CONTINUOUS
10
147.713
20
-95.1742
11
147.904
21
-95.079
0
LINE
8
BLACK
6
CONTINUOUS
10
147.904
20
-95.079
11
148.19
21
-95.079
0
LINE
8
BLACK
6
CONTINUOUS
10
148.19
20
-95.079
11
148.38
21
-95.1742
0
LINE
8
BLACK
6
CONTINUOUS
10
149.618
20
-96.4123
11
149.428
21
-96.3171
0
LINE
8
BLACK
6
CONTINUOUS
10
149.428
20
-96.3171
11
149.333
21
-96.1266
0
LINE
8
BLACK
6
CONTINUOUS
10
149.333
20
-96.1266
11
149.333
21
-94.4123
0
LINE
8
BLACK
6
CONTINUOUS
10
150.666
20
-96.4123
11
150.475
21
-96.3171
0
LINE
8
BLACK
6
CONTINUOUS
10
150.475
20
-96.3171
11
150.38
21
-96.2219
0
LINE
8
BLACK
6
CONTINUOUS
10
150.38
20
-96.2219
11
150.285
21
-96.0314
0
LINE
8
BLACK
6
CONTINUOUS
10
150.285
20
-96.0314
11
150.285
21
-95.46
0
LINE
8
BLACK
6
CONTINUOUS
10
150.285
20
-95.46
11
150.38
21
-95.2695
0
LINE
8
BLACK
6
CONTINUOUS
10
150.38
20
-95.2695
11
150.475
21
-95.1742
0
LINE
8
BLACK
6
CONTINUOUS
10
150.475
20
-95.1742
11
150.666
21
-95.079
0
LINE
8
BLACK
6
CONTINUOUS
10
150.666
20
-95.079
11
150.952
21
-95.079
0
LINE
8
BLACK
6
CONTINUOUS
10
150.952
20
-95.079
11
151.142
21
-95.1742
0
LINE
8
BLACK
6
CONTINUOUS
10
151.142
20
-95.1742
11
151.237
21
-95.2695
0
LINE
8
BLACK
6
CONTINUOUS
10
151.237
20
-95.2695
11
151.333
21
-95.46
0
LINE
8
BLACK
6
CONTINUOUS
10
151.333
20
-95.46
11
151.333
21
-96.0314
0
LINE
8
BLACK
6
CONTINUOUS
10
151.333
20
-96.0314
11
151.237
21
-96.2219
0
LINE
8
BLACK
6
CONTINUOUS
10
151.237
20
-96.2219
11
151.142
21
-96.3171
0
LINE
8
BLACK
6
CONTINUOUS
10
151.142
20
-96.3171
11
150.952
21
-96.4123
0
LINE
8
BLACK
6
CONTINUOUS
10
150.952
20
-96.4123
11
150.666
21
-96.4123
0
LINE
8
BLACK
6
CONTINUOUS
10
151.904
20
-95.079
11
152.666
21
-95.079
0
LINE
8
BLACK
6
CONTINUOUS
10
152.19
20
-94.4123
11
152.19
21
-96.1266
0
LINE
8
BLACK
6
CONTINUOUS
10
152.19
20
-96.1266
11
152.285
21
-96.3171
0
LINE
8
BLACK
6
CONTINUOUS
10
152.285
20
-96.3171
11
152.475
21
-96.4123
0
LINE
8
BLACK
6
CONTINUOUS
10
152.475
20
-96.4123
11
152.666
21
-96.4123
0
LINE
8
BLACK
6
CONTINUOUS
10
153.237
20
-96.3171
11
153.428
21
-96.4123
0
LINE
8
BLACK
6
CONTINUOUS
10
153.428
20
-96.4123
11
153.809
21
-96.4123
0
LINE
8
BLACK
6
CONTINUOUS
10
153.809
20
-96.4123
11
153.999
21
-96.3171
0
LINE
8
BLACK
6
CONTINUOUS
10
153.999
20
-96.3171
11
154.094
21
-96.1266
0
LINE
8
BLACK
6
CONTINUOUS
10
154.094
20
-96.1266
11
154.094
21
-96.0314
0
LINE
8
BLACK
6
CONTINUOUS
10
154.094
20
-96.0314
11
153.999
21
-95.8409
0
LINE
8
BLACK
6
CONTINUOUS
10
153.999
20
-95.8409
11
153.809
21
-95.7457
0
LINE
8
BLACK
6
CONTINUOUS
10
153.809
20
-95.7457
11
153.523
21
-95.7457
0
LINE
8
BLACK
6
CONTINUOUS
10
153.523
20
-95.7457
11
153.333
21
-95.6504
0
LINE
8
BLACK
6
CONTINUOUS
10
153.333
20
-95.6504
11
153.237
21
-95.46
0
LINE
8
BLACK
6
CONTINUOUS
10
153.237
20
-95.46
11
153.237
21
-95.3647
0
LINE
8
BLACK
6
CONTINUOUS
10
153.237
20
-95.3647
11
153.333
21
-95.1742
0
LINE
8
BLACK
6
CONTINUOUS
10
153.333
20
-95.1742
11
153.523
21
-95.079
0
LINE
8
BLACK
6
CONTINUOUS
10
153.523
20
-95.079
11
153.809
21
-95.079
0
LINE
8
BLACK
6
CONTINUOUS
10
153.809
20
-95.079
11
153.999
21
-95.1742
0
LINE
8
BLACK
6
CONTINUOUS
10
154.761
20
-97.1742
11
154.856
21
-97.079
0
LINE
8
BLACK
6
CONTINUOUS
10
154.856
20
-97.079
11
155.047
21
-96.7933
0
LINE
8
BLACK
6
CONTINUOUS
10
155.047
20
-96.7933
11
155.142
21
-96.6028
0
LINE
8
BLACK
6
CONTINUOUS
10
155.142
20
-96.6028
11
155.237
21
-96.3171
0
LINE
8
BLACK
6
CONTINUOUS
10
155.237
20
-96.3171
11
155.333
21
-95.8409
0
LINE
8
BLACK
6
CONTINUOUS
10
155.333
20
-95.8409
11
155.333
21
-95.46
0
LINE
8
BLACK
6
CONTINUOUS
10
155.333
20
-95.46
11
155.237
21
-94.9838
0
LINE
8
BLACK
6
CONTINUOUS
10
155.237
20
-94.9838
11
155.142
21
-94.6981
0
LINE
8
BLACK
6
CONTINUOUS
10
155.142
20
-94.6981
11
155.047
21
-94.5076
0
LINE
8
BLACK
6
CONTINUOUS
10
155.047
20
-94.5076
11
154.856
21
-94.2219
0
LINE
8
BLACK
6
CONTINUOUS
10
154.856
20
-94.2219
11
154.761
21
-94.1266
0
LINE
8
BLACK
6
CONTINUOUS
10
90.6736
20
-98.4911
11
90.6736
21
-97.7839
0
LINE
8
BLACK
6
CONTINUOUS
10
90.6736
20
-97.7839
11
89.9664
21
-97.7839
0
LINE
8
BLACK
6
CONTINUOUS
10
89.9664
20
-97.7839
11
89.9664
21
-98.4911
0
LINE
8
BLACK
6
CONTINUOUS
10
89.9664
20
-98.4911
11
90.6736
21
-98.4911
0
LINE
8
BLACK
6
CONTINUOUS
10
94.4754
20
-99.0523
11
93.3325
21
-99.0523
0
LINE
8
BLACK
6
CONTINUOUS
10
93.904
20
-99.0523
11
93.904
21
-97.0523
0
LINE
8
BLACK
6
CONTINUOUS
10
93.904
20
-97.0523
11
93.7135
21
-97.3381
0
LINE
8
BLACK
6
CONTINUOUS
10
93.7135
20
-97.3381
11
93.523
21
-97.5285
0
LINE
8
BLACK
6
CONTINUOUS
10
93.523
20
-97.5285
11
93.3325
21
-97.6238
0
LINE
8
BLACK
6
CONTINUOUS
10
95.3325
20
-98.8619
11
95.4278
21
-98.9571
0
LINE
8
BLACK
6
CONTINUOUS
10
95.4278
20
-98.9571
11
95.3325
21
-99.0523
0
LINE
8
BLACK
6
CONTINUOUS
10
95.3325
20
-99.0523
11
95.2373
21
-98.9571
0
LINE
8
BLACK
6
CONTINUOUS
10
95.2373
20
-98.9571
11
95.3325
21
-98.8619
0
LINE
8
BLACK
6
CONTINUOUS
10
95.3325
20
-98.8619
11
95.3325
21
-99.0523
0
LINE
8
BLACK
6
CONTINUOUS
10
96.6659
20
-97.0523
11
96.8563
21
-97.0523
0
LINE
8
BLACK
6
CONTINUOUS
10
96.8563
20
-97.0523
11
97.0468
21
-97.1476
0
LINE
8
BLACK
6
CONTINUOUS
10
97.0468
20
-97.1476
11
97.1421
21
-97.2428
0
LINE
8
BLACK
6
CONTINUOUS
10
97.1421
20
-97.2428
11
97.2373
21
-97.4333
0
LINE
8
BLACK
6
CONTINUOUS
10
97.2373
20
-97.4333
11
97.3325
21
-97.8142
0
LINE
8
BLACK
6
CONTINUOUS
10
97.3325
20
-97.8142
11
97.3325
21
-98.2904
0
LINE
8
BLACK
6
CONTINUOUS
10
97.3325
20
-98.2904
11
97.2373
21
-98.6714
0
LINE
8
BLACK
6
CONTINUOUS
10
97.2373
20
-98.6714
11
97.1421
21
-98.8619
0
LINE
8
BLACK
6
CONTINUOUS
10
97.1421
20
-98.8619
11
97.0468
21
-98.9571
0
LINE
8
BLACK
6
CONTINUOUS
10
97.0468
20
-98.9571
11
96.8563
21
-99.0523
0
LINE
8
BLACK
6
CONTINUOUS
10
96.8563
20
-99.0523
11
96.6659
21
-99.0523
0
LINE
8
BLACK
6
CONTINUOUS
10
96.6659
20
-99.0523
11
96.4754
21
-98.9571
0
LINE
8
BLACK
6
CONTINUOUS
10
96.4754
20
-98.9571
11
96.3801
21
-98.8619
0
LINE
8
BLACK
6
CONTINUOUS
10
96.3801
20
-98.8619
11
96.2849
21
-98.6714
0
LINE
8
BLACK
6
CONTINUOUS
10
96.2849
20
-98.6714
11
96.1897
21
-98.2904
0
LINE
8
BLACK
6
CONTINUOUS
10
96.1897
20
-98.2904
11
96.1897
21
-97.8142
0
LINE
8
BLACK
6
CONTINUOUS
10
96.1897
20
-97.8142
11
96.2849
21
-97.4333
0
LINE
8
BLACK
6
CONTINUOUS
10
96.2849
20
-97.4333
11
96.3801
21
-97.2428
0
LINE
8
BLACK
6
CONTINUOUS
10
96.3801
20
-97.2428
11
96.4754
21
-97.1476
0
LINE
8
BLACK
6
CONTINUOUS
10
96.4754
20
-97.1476
11
96.6659
21
-97.0523
0
LINE
8
BLACK
6
CONTINUOUS
10
98.5706
20
-97.0523
11
98.7611
21
-97.0523
0
LINE
8
BLACK
6
CONTINUOUS
10
98.7611
20
-97.0523
11
98.9516
21
-97.1476
0
LINE
8
BLACK
6
CONTINUOUS
10
98.9516
20
-97.1476
11
99.0468
21
-97.2428
0
LINE
8
BLACK
6
CONTINUOUS
10
99.0468
20
-97.2428
11
99.1421
21
-97.4333
0
LINE
8
BLACK
6
CONTINUOUS
10
99.1421
20
-97.4333
11
99.2373
21
-97.8142
0
LINE
8
BLACK
6
CONTINUOUS
10
99.2373
20
-97.8142
11
99.2373
21
-98.2904
0
LINE
8
BLACK
6
CONTINUOUS
10
99.2373
20
-98.2904
11
99.1421
21
-98.6714
0
LINE
8
BLACK
6
CONTINUOUS
10
99.1421
20
-98.6714
11
99.0468
21
-98.8619
0
LINE
8
BLACK
6
CONTINUOUS
10
99.0468
20
-98.8619
11
98.9516
21
-98.9571
0
LINE
8
BLACK
6
CONTINUOUS
10
98.9516
20
-98.9571
11
98.7611
21
-99.0523
0
LINE
8
BLACK
6
CONTINUOUS
10
98.7611
20
-99.0523
11
98.5706
21
-99.0523
0
LINE
8
BLACK
6
CONTINUOUS
10
98.5706
20
-99.0523
11
98.3801
21
-98.9571
0
LINE
8
BLACK
6
CONTINUOUS
10
98.3801
20
-98.9571
11
98.2849
21
-98.8619
0
LINE
8
BLACK
6
CONTINUOUS
10
98.2849
20
-98.8619
11
98.1897
21
-98.6714
0
LINE
8
BLACK
6
CONTINUOUS
10
98.1897
20
-98.6714
11
98.0944
21
-98.2904
0
LINE
8
BLACK
6
CONTINUOUS
10
98.0944
20
-98.2904
11
98.0944
21
-97.8142
0
LINE
8
BLACK
6
CONTINUOUS
10
98.0944
20
-97.8142
11
98.1897
21
-97.4333
0
LINE
8
BLACK
6
CONTINUOUS
10
98.1897
20
-97.4333
11
98.2849
21
-97.2428
0
LINE
8
BLACK
6
CONTINUOUS
10
98.2849
20
-97.2428
11
98.3801
21
-97.1476
0
LINE
8
BLACK
6
CONTINUOUS
10
98.3801
20
-97.1476
11
98.5706
21
-97.0523
0
LINE
8
BLACK
6
CONTINUOUS
10
100.475
20
-97.0523
11
100.666
21
-97.0523
0
LINE
8
BLACK
6
CONTINUOUS
10
100.666
20
-97.0523
11
100.856
21
-97.1476
0
LINE
8
BLACK
6
CONTINUOUS
10
100.856
20
-97.1476
11
100.952
21
-97.2428
0
LINE
8
BLACK
6
CONTINUOUS
10
100.952
20
-97.2428
11
101.047
21
-97.4333
0
LINE
8
BLACK
6
CONTINUOUS
10
101.047
20
-97.4333
11
101.142
21
-97.8142
0
LINE
8
BLACK
6
CONTINUOUS
10
101.142
20
-97.8142
11
101.142
21
-98.2904
0
LINE
8
BLACK
6
CONTINUOUS
10
101.142
20
-98.2904
11
101.047
21
-98.6714
0
LINE
8
BLACK
6
CONTINUOUS
10
101.047
20
-98.6714
11
100.952
21
-98.8619
0
LINE
8
BLACK
6
CONTINUOUS
10
100.952
20
-98.8619
11
100.856
21
-98.9571
0
LINE
8
BLACK
6
CONTINUOUS
10
100.856
20
-98.9571
11
100.666
21
-99.0523
0
LINE
8
BLACK
6
CONTINUOUS
10
100.666
20
-99.0523
11
100.475
21
-99.0523
0
LINE
8
BLACK
6
CONTINUOUS
10
100.475
20
-99.0523
11
100.285
21
-98.9571
0
LINE
8
BLACK
6
CONTINUOUS
10
100.285
20
-98.9571
11
100.19
21
-98.8619
0
LINE
8
BLACK
6
CONTINUOUS
10
100.19
20
-98.8619
11
100.094
21
-98.6714
0
LINE
8
BLACK
6
CONTINUOUS
10
100.094
20
-98.6714
11
99.9992
21
-98.2904
0
LINE
8
BLACK
6
CONTINUOUS
10
99.9992
20
-98.2904
11
99.9992
21
-97.8142
0
LINE
8
BLACK
6
CONTINUOUS
10
99.9992
20
-97.8142
11
100.094
21
-97.4333
0
LINE
8
BLACK
6
CONTINUOUS
10
100.094
20
-97.4333
11
100.19
21
-97.2428
0
LINE
8
BLACK
6
CONTINUOUS
10
100.19
20
-97.2428
11
100.285
21
-97.1476
0
LINE
8
BLACK
6
CONTINUOUS
10
100.285
20
-97.1476
11
100.475
21
-97.0523
0
LINE
8
BLACK
6
CONTINUOUS
10
101.999
20
-99.0523
11
101.999
21
-97.719
0
LINE
8
BLACK
6
CONTINUOUS
10
101.999
20
-97.9095
11
102.094
21
-97.8142
0
LINE
8
BLACK
6
CONTINUOUS
10
102.094
20
-97.8142
11
102.285
21
-97.719
0
LINE
8
BLACK
6
CONTINUOUS
10
102.285
20
-97.719
11
102.571
21
-97.719
0
LINE
8
BLACK
6
CONTINUOUS
10
102.571
20
-97.719
11
102.761
21
-97.8142
0
LINE
8
BLACK
6
CONTINUOUS
10
102.761
20
-97.8142
11
102.856
21
-98.0047
0
LINE
8
BLACK
6
CONTINUOUS
10
102.856
20
-98.0047
11
102.856
21
-99.0523
0
LINE
8
BLACK
6
CONTINUOUS
10
102.856
20
-98.0047
11
102.952
21
-97.8142
0
LINE
8
BLACK
6
CONTINUOUS
10
102.952
20
-97.8142
11
103.142
21
-97.719
0
LINE
8
BLACK
6
CONTINUOUS
10
103.142
20
-97.719
11
103.428
21
-97.719
0
LINE
8
BLACK
6
CONTINUOUS
10
103.428
20
-97.719
11
103.618
21
-97.8142
0
LINE
8
BLACK
6
CONTINUOUS
10
103.618
20
-97.8142
11
103.713
21
-98.0047
0
LINE
8
BLACK
6
CONTINUOUS
10
103.713
20
-98.0047
11
103.713
21
-99.0523
0
LINE
8
BLACK
6
CONTINUOUS
10
104.666
20
-99.0523
11
104.666
21
-97.719
0
LINE
8
BLACK
6
CONTINUOUS
10
104.666
20
-97.9095
11
104.761
21
-97.8142
0
LINE
8
BLACK
6
CONTINUOUS
10
104.761
20
-97.8142
11
104.952
21
-97.719
0
LINE
8
BLACK
6
CONTINUOUS
10
104.952
20
-97.719
11
105.237
21
-97.719
0
LINE
8
BLACK
6
CONTINUOUS
10
105.237
20
-97.719
11
105.428
21
-97.8142
0
LINE
8
BLACK
6
CONTINUOUS
10
105.428
20
-97.8142
11
105.523
21
-98.0047
0
LINE
8
BLACK
6
CONTINUOUS
10
105.523
20
-98.0047
11
105.523
21
-99.0523
0
LINE
8
BLACK
6
CONTINUOUS
10
105.523
20
-98.0047
11
105.618
21
-97.8142
0
LINE
8
BLACK
6
CONTINUOUS
10
105.618
20
-97.8142
11
105.809
21
-97.719
0
LINE
8
BLACK
6
CONTINUOUS
10
105.809
20
-97.719
11
106.094
21
-97.719
0
LINE
8
BLACK
6
CONTINUOUS
10
106.094
20
-97.719
11
106.285
21
-97.8142
0
LINE
8
BLACK
6
CONTINUOUS
10
106.285
20
-97.8142
11
106.38
21
-98.0047
0
LINE
8
BLACK
6
CONTINUOUS
10
106.38
20
-98.0047
11
106.38
21
-99.0523
0
LINE
8
BLACK
6
CONTINUOUS
10
110.285
20
-96.9571
11
108.571
21
-99.5285
0
LINE
8
BLACK
6
CONTINUOUS
10
112.856
20
-97.0523
11
113.047
21
-97.0523
0
LINE
8
BLACK
6
CONTINUOUS
10
113.047
20
-97.0523
11
113.237
21
-97.1476
0
LINE
8
BLACK
6
CONTINUOUS
10
113.237
20
-97.1476
11
113.333
21
-97.2428
0
LINE
8
BLACK
6
CONTINUOUS
10
113.333
20
-97.2428
11
113.428
21
-97.4333
0
LINE
8
BLACK
6
CONTINUOUS
10
113.428
20
-97.4333
11
113.523
21
-97.8142
0
LINE
8
BLACK
6
CONTINUOUS
10
113.523
20
-97.8142
11
113.523
21
-98.2904
0
LINE
8
BLACK
6
CONTINUOUS
10
113.523
20
-98.2904
11
113.428
21
-98.6714
0
LINE
8
BLACK
6
CONTINUOUS
10
113.428
20
-98.6714
11
113.333
21
-98.8619
0
LINE
8
BLACK
6
CONTINUOUS
10
113.333
20
-98.8619
11
113.237
21
-98.9571
0
LINE
8
BLACK
6
CONTINUOUS
10
113.237
20
-98.9571
11
113.047
21
-99.0523
0
LINE
8
BLACK
6
CONTINUOUS
10
113.047
20
-99.0523
11
112.856
21
-99.0523
0
LINE
8
BLACK
6
CONTINUOUS
10
112.856
20
-99.0523
11
112.666
21
-98.9571
0
LINE
8
BLACK
6
CONTINUOUS
10
112.666
20
-98.9571
11
112.571
21
-98.8619
0
LINE
8
BLACK
6
CONTINUOUS
10
112.571
20
-98.8619
11
112.475
21
-98.6714
0
LINE
8
BLACK
6
CONTINUOUS
10
112.475
20
-98.6714
11
112.38
21
-98.2904
0
LINE
8
BLACK
6
CONTINUOUS
10
112.38
20
-98.2904
11
112.38
21
-97.8142
0
LINE
8
BLACK
6
CONTINUOUS
10
112.38
20
-97.8142
11
112.475
21
-97.4333
0
LINE
8
BLACK
6
CONTINUOUS
10
112.475
20
-97.4333
11
112.571
21
-97.2428
0
LINE
8
BLACK
6
CONTINUOUS
10
112.571
20
-97.2428
11
112.666
21
-97.1476
0
LINE
8
BLACK
6
CONTINUOUS
10
112.666
20
-97.1476
11
112.856
21
-97.0523
0
LINE
8
BLACK
6
CONTINUOUS
10
114.38
20
-98.8619
11
114.475
21
-98.9571
0
LINE
8
BLACK
6
CONTINUOUS
10
114.475
20
-98.9571
11
114.38
21
-99.0523
0
LINE
8
BLACK
6
CONTINUOUS
10
114.38
20
-99.0523
11
114.285
21
-98.9571
0
LINE
8
BLACK
6
CONTINUOUS
10
114.285
20
-98.9571
11
114.38
21
-98.8619
0
LINE
8
BLACK
6
CONTINUOUS
10
114.38
20
-98.8619
11
114.38
21
-99.0523
0
LINE
8
BLACK
6
CONTINUOUS
10
115.713
20
-97.0523
11
115.904
21
-97.0523
0
LINE
8
BLACK
6
CONTINUOUS
10
115.904
20
-97.0523
11
116.094
21
-97.1476
0
LINE
8
BLACK
6
CONTINUOUS
10
116.094
20
-97.1476
11
116.19
21
-97.2428
0
LINE
8
BLACK
6
CONTINUOUS
10
116.19
20
-97.2428
11
116.285
21
-97.4333
0
LINE
8
BLACK
6
CONTINUOUS
10
116.285
20
-97.4333
11
116.38
21
-97.8142
0
LINE
8
BLACK
6
CONTINUOUS
10
116.38
20
-97.8142
11
116.38
21
-98.2904
0
LINE
8
BLACK
6
CONTINUOUS
10
116.38
20
-98.2904
11
116.285
21
-98.6714
0
LINE
8
BLACK
6
CONTINUOUS
10
116.285
20
-98.6714
11
116.19
21
-98.8619
0
LINE
8
BLACK
6
CONTINUOUS
10
116.19
20
-98.8619
11
116.094
21
-98.9571
0
LINE
8
BLACK
6
CONTINUOUS
10
116.094
20
-98.9571
11
115.904
21
-99.0523
0
LINE
8
BLACK
6
CONTINUOUS
10
115.904
20
-99.0523
11
115.713
21
-99.0523
0
LINE
8
BLACK
6
CONTINUOUS
10
115.713
20
-99.0523
11
115.523
21
-98.9571
0
LINE
8
BLACK
6
CONTINUOUS
10
115.523
20
-98.9571
11
115.428
21
-98.8619
0
LINE
8
BLACK
6
CONTINUOUS
10
115.428
20
-98.8619
11
115.333
21
-98.6714
0
LINE
8
BLACK
6
CONTINUOUS
10
115.333
20
-98.6714
11
115.237
21
-98.2904
0
LINE
8
BLACK
6
CONTINUOUS
10
115.237
20
-98.2904
11
115.237
21
-97.8142
0
LINE
8
BLACK
6
CONTINUOUS
10
115.237
20
-97.8142
11
115.333
21
-97.4333
0
LINE
8
BLACK
6
CONTINUOUS
10
115.333
20
-97.4333
11
115.428
21
-97.2428
0
LINE
8
BLACK
6
CONTINUOUS
10
115.428
20
-97.2428
11
115.523
21
-97.1476
0
LINE
8
BLACK
6
CONTINUOUS
10
115.523
20
-97.1476
11
115.713
21
-97.0523
0
LINE
8
BLACK
6
CONTINUOUS
10
117.047
20
-97.0523
11
118.285
21
-97.0523
0
LINE
8
BLACK
6
CONTINUOUS
10
118.285
20
-97.0523
11
117.618
21
-97.8142
0
LINE
8
BLACK
6
CONTINUOUS
10
117.618
20
-97.8142
11
117.904
21
-97.8142
0
LINE
8
BLACK
6
CONTINUOUS
10
117.904
20
-97.8142
11
118.094
21
-97.9095
0
LINE
8
BLACK
6
CONTINUOUS
10
118.094
20
-97.9095
11
118.19
21
-98.0047
0
LINE
8
BLACK
6
CONTINUOUS
10
118.19
20
-98.0047
11
118.285
21
-98.1952
0
LINE
8
BLACK
6
CONTINUOUS
10
118.285
20
-98.1952
11
118.285
21
-98.6714
0
LINE
8
BLACK
6
CONTINUOUS
10
118.285
20
-98.6714
11
118.19
21
-98.8619
0
LINE
8
BLACK
6
CONTINUOUS
10
118.19
20
-98.8619
11
118.094
21
-98.9571
0
LINE
8
BLACK
6
CONTINUOUS
10
118.094
20
-98.9571
11
117.904
21
-99.0523
0
LINE
8
BLACK
6
CONTINUOUS
10
117.904
20
-99.0523
11
117.333
21
-99.0523
0
LINE
8
BLACK
6
CONTINUOUS
10
117.333
20
-99.0523
11
117.142
21
-98.9571
0
LINE
8
BLACK
6
CONTINUOUS
10
117.142
20
-98.9571
11
117.047
21
-98.8619
0
LINE
8
BLACK
6
CONTINUOUS
10
119.237
20
-99.0523
11
119.618
21
-99.0523
0
LINE
8
BLACK
6
CONTINUOUS
10
119.618
20
-99.0523
11
119.809
21
-98.9571
0
LINE
8
BLACK
6
CONTINUOUS
10
119.809
20
-98.9571
11
119.904
21
-98.8619
0
LINE
8
BLACK
6
CONTINUOUS
10
119.904
20
-98.8619
11
120.094
21
-98.5761
0
LINE
8
BLACK
6
CONTINUOUS
10
120.094
20
-98.5761
11
120.19
21
-98.1952
0
LINE
8
BLACK
6
CONTINUOUS
10
120.19
20
-98.1952
11
120.19
21
-97.4333
0
LINE
8
BLACK
6
CONTINUOUS
10
120.19
20
-97.4333
11
120.094
21
-97.2428
0
LINE
8
BLACK
6
CONTINUOUS
10
120.094
20
-97.2428
11
119.999
21
-97.1476
0
LINE
8
BLACK
6
CONTINUOUS
10
119.999
20
-97.1476
11
119.809
21
-97.0523
0
LINE
8
BLACK
6
CONTINUOUS
10
119.809
20
-97.0523
11
119.428
21
-97.0523
0
LINE
8
BLACK
6
CONTINUOUS
10
119.428
20
-97.0523
11
119.237
21
-97.1476
0
LINE
8
BLACK
6
CONTINUOUS
10
119.237
20
-97.1476
11
119.142
21
-97.2428
0
LINE
8
BLACK
6
CONTINUOUS
10
119.142
20
-97.2428
11
119.047
21
-97.4333
0
LINE
8
BLACK
6
CONTINUOUS
10
119.047
20
-97.4333
11
119.047
21
-97.9095
0
LINE
8
BLACK
6
CONTINUOUS
10
119.047
20
-97.9095
11
119.142
21
-98.1
0
LINE
8
BLACK
6
CONTINUOUS
10
119.142
20
-98.1
11
119.237
21
-98.1952
0
LINE
8
BLACK
6
CONTINUOUS
10
119.237
20
-98.1952
11
119.428
21
-98.2904
0
LINE
8
BLACK
6
CONTINUOUS
10
119.428
20
-98.2904
11
119.809
21
-98.2904
0
LINE
8
BLACK
6
CONTINUOUS
10
119.809
20
-98.2904
11
119.999
21
-98.1952
0
LINE
8
BLACK
6
CONTINUOUS
10
119.999
20
-98.1952
11
120.094
21
-98.1
0
LINE
8
BLACK
6
CONTINUOUS
10
120.094
20
-98.1
11
120.19
21
-97.9095
0
LINE
8
BLACK
6
CONTINUOUS
10
121.904
20
-97.719
11
121.904
21
-99.0523
0
LINE
8
BLACK
6
CONTINUOUS
10
121.428
20
-96.9571
11
120.952
21
-98.3857
0
LINE
8
BLACK
6
CONTINUOUS
10
120.952
20
-98.3857
11
122.19
21
-98.3857
0
LINE
8
BLACK
6
CONTINUOUS
10
122.856
20
-97.0523
11
122.856
21
-97.4333
0
LINE
8
BLACK
6
CONTINUOUS
10
123.618
20
-97.0523
11
123.618
21
-97.4333
0
LINE
8
BLACK
6
CONTINUOUS
10
126.571
20
-99.8142
11
126.475
21
-99.719
0
LINE
8
BLACK
6
CONTINUOUS
10
126.475
20
-99.719
11
126.285
21
-99.4333
0
LINE
8
BLACK
6
CONTINUOUS
10
126.285
20
-99.4333
11
126.19
21
-99.2428
0
LINE
8
BLACK
6
CONTINUOUS
10
126.19
20
-99.2428
11
126.094
21
-98.9571
0
LINE
8
BLACK
6
CONTINUOUS
10
126.094
20
-98.9571
11
125.999
21
-98.4809
0
LINE
8
BLACK
6
CONTINUOUS
10
125.999
20
-98.4809
11
125.999
21
-98.1
0
LINE
8
BLACK
6
CONTINUOUS
10
125.999
20
-98.1
11
126.094
21
-97.6238
0
LINE
8
BLACK
6
CONTINUOUS
10
126.094
20
-97.6238
11
126.19
21
-97.3381
0
LINE
8
BLACK
6
CONTINUOUS
10
126.19
20
-97.3381
11
126.285
21
-97.1476
0
LINE
8
BLACK
6
CONTINUOUS
10
126.285
20
-97.1476
11
126.475
21
-96.8619
0
LINE
8
BLACK
6
CONTINUOUS
10
126.475
20
-96.8619
11
126.571
21
-96.7666
0
LINE
8
BLACK
6
CONTINUOUS
10
128.38
20
-99.0523
11
127.237
21
-99.0523
0
LINE
8
BLACK
6
CONTINUOUS
10
127.809
20
-99.0523
11
127.809
21
-97.0523
0
LINE
8
BLACK
6
CONTINUOUS
10
127.809
20
-97.0523
11
127.618
21
-97.3381
0
LINE
8
BLACK
6
CONTINUOUS
10
127.618
20
-97.3381
11
127.428
21
-97.5285
0
LINE
8
BLACK
6
CONTINUOUS
10
127.428
20
-97.5285
11
127.237
21
-97.6238
0
LINE
8
BLACK
6
CONTINUOUS
10
130.094
20
-97.0523
11
129.713
21
-97.0523
0
LINE
8
BLACK
6
CONTINUOUS
10
129.713
20
-97.0523
11
129.523
21
-97.1476
0
LINE
8
BLACK
6
CONTINUOUS
10
129.523
20
-97.1476
11
129.428
21
-97.2428
0
LINE
8
BLACK
6
CONTINUOUS
10
129.428
20
-97.2428
11
129.237
21
-97.5285
0
LINE
8
BLACK
6
CONTINUOUS
10
129.237
20
-97.5285
11
129.142
21
-97.9095
0
LINE
8
BLACK
6
CONTINUOUS
10
129.142
20
-97.9095
11
129.142
21
-98.6714
0
LINE
8
BLACK
6
CONTINUOUS
10
129.142
20
-98.6714
11
129.237
21
-98.8619
0
LINE
8
BLACK
6
CONTINUOUS
10
129.237
20
-98.8619
11
129.333
21
-98.9571
0
LINE
8
BLACK
6
CONTINUOUS
10
129.333
20
-98.9571
11
129.523
21
-99.0523
0
LINE
8
BLACK
6
CONTINUOUS
10
129.523
20
-99.0523
11
129.904
21
-99.0523
0
LINE
8
BLACK
6
CONTINUOUS
10
129.904
20
-99.0523
11
130.094
21
-98.9571
0
LINE
8
BLACK
6
CONTINUOUS
10
130.094
20
-98.9571
11
130.19
21
-98.8619
0
LINE
8
BLACK
6
CONTINUOUS
10
130.19
20
-98.8619
11
130.285
21
-98.6714
0
LINE
8
BLACK
6
CONTINUOUS
10
130.285
20
-98.6714
11
130.285
21
-98.1952
0
LINE
8
BLACK
6
CONTINUOUS
10
130.285
20
-98.1952
11
130.19
21
-98.0047
0
LINE
8
BLACK
6
CONTINUOUS
10
130.19
20
-98.0047
11
130.094
21
-97.9095
0
LINE
8
BLACK
6
CONTINUOUS
10
130.094
20
-97.9095
11
129.904
21
-97.8142
0
LINE
8
BLACK
6
CONTINUOUS
10
129.904
20
-97.8142
11
129.523
21
-97.8142
0
LINE
8
BLACK
6
CONTINUOUS
10
129.523
20
-97.8142
11
129.333
21
-97.9095
0
LINE
8
BLACK
6
CONTINUOUS
10
129.333
20
-97.9095
11
129.237
21
-98.0047
0
LINE
8
BLACK
6
CONTINUOUS
10
129.237
20
-98.0047
11
129.142
21
-98.1952
0
LINE
8
BLACK
6
CONTINUOUS
10
132.666
20
-99.0523
11
132.666
21
-97.0523
0
LINE
8
BLACK
6
CONTINUOUS
10
133.523
20
-99.0523
11
133.523
21
-98.0047
0
LINE
8
BLACK
6
CONTINUOUS
10
133.523
20
-98.0047
11
133.428
21
-97.8142
0
LINE
8
BLACK
6
CONTINUOUS
10
133.428
20
-97.8142
11
133.237
21
-97.719
0
LINE
8
BLACK
6
CONTINUOUS
10
133.237
20
-97.719
11
132.952
21
-97.719
0
LINE
8
BLACK
6
CONTINUOUS
10
132.952
20
-97.719
11
132.761
21
-97.8142
0
LINE
8
BLACK
6
CONTINUOUS
10
132.761
20
-97.8142
11
132.666
21
-97.9095
0
LINE
8
BLACK
6
CONTINUOUS
10
134.761
20
-99.0523
11
134.571
21
-98.9571
0
LINE
8
BLACK
6
CONTINUOUS
10
134.571
20
-98.9571
11
134.475
21
-98.8619
0
LINE
8
BLACK
6
CONTINUOUS
10
134.475
20
-98.8619
11
134.38
21
-98.6714
0
LINE
8
BLACK
6
CONTINUOUS
10
134.38
20
-98.6714
11
134.38
21
-98.1
0
LINE
8
BLACK
6
CONTINUOUS
10
134.38
20
-98.1
11
134.475
21
-97.9095
0
LINE
8
BLACK
6
CONTINUOUS
10
134.475
20
-97.9095
11
134.571
21
-97.8142
0
LINE
8
BLACK
6
CONTINUOUS
10
134.571
20
-97.8142
11
134.761
21
-97.719
0
LINE
8
BLACK
6
CONTINUOUS
10
134.761
20
-97.719
11
135.047
21
-97.719
0
LINE
8
BLACK
6
CONTINUOUS
10
135.047
20
-97.719
11
135.237
21
-97.8142
0
LINE
8
BLACK
6
CONTINUOUS
10
135.237
20
-97.8142
11
135.333
21
-97.9095
0
LINE
8
BLACK
6
CONTINUOUS
10
135.333
20
-97.9095
11
135.428
21
-98.1
0
LINE
8
BLACK
6
CONTINUOUS
10
135.428
20
-98.1
11
135.428
21
-98.6714
0
LINE
8
BLACK
6
CONTINUOUS
10
135.428
20
-98.6714
11
135.333
21
-98.8619
0
LINE
8
BLACK
6
CONTINUOUS
10
135.333
20
-98.8619
11
135.237
21
-98.9571
0
LINE
8
BLACK
6
CONTINUOUS
10
135.237
20
-98.9571
11
135.047
21
-99.0523
0
LINE
8
BLACK
6
CONTINUOUS
10
135.047
20
-99.0523
11
134.761
21
-99.0523
0
LINE
8
BLACK
6
CONTINUOUS
10
136.571
20
-99.0523
11
136.38
21
-98.9571
0
LINE
8
BLACK
6
CONTINUOUS
10
136.38
20
-98.9571
11
136.285
21
-98.7666
0
LINE
8
BLACK
6
CONTINUOUS
10
136.285
20
-98.7666
11
136.285
21
-97.0523
0
LINE
8
BLACK
6
CONTINUOUS
10
138.094
20
-98.9571
11
137.904
21
-99.0523
0
LINE
8
BLACK
6
CONTINUOUS
10
137.904
20
-99.0523
11
137.523
21
-99.0523
0
LINE
8
BLACK
6
CONTINUOUS
10
137.523
20
-99.0523
11
137.333
21
-98.9571
0
LINE
8
BLACK
6
CONTINUOUS
10
137.333
20
-98.9571
11
137.237
21
-98.7666
0
LINE
8
BLACK
6
CONTINUOUS
10
137.237
20
-98.7666
11
137.237
21
-98.0047
0
LINE
8
BLACK
6
CONTINUOUS
10
137.237
20
-98.0047
11
137.333
21
-97.8142
0
LINE
8
BLACK
6
CONTINUOUS
10
137.333
20
-97.8142
11
137.523
21
-97.719
0
LINE
8
BLACK
6
CONTINUOUS
10
137.523
20
-97.719
11
137.904
21
-97.719
0
LINE
8
BLACK
6
CONTINUOUS
10
137.904
20
-97.719
11
138.094
21
-97.8142
0
LINE
8
BLACK
6
CONTINUOUS
10
138.094
20
-97.8142
11
138.19
21
-98.0047
0
LINE
8
BLACK
6
CONTINUOUS
10
138.19
20
-98.0047
11
138.19
21
-98.1952
0
LINE
8
BLACK
6
CONTINUOUS
10
138.19
20
-98.1952
11
137.237
21
-98.3857
0
LINE
8
BLACK
6
CONTINUOUS
10
138.952
20
-98.9571
11
139.142
21
-99.0523
0
LINE
8
BLACK
6
CONTINUOUS
10
139.142
20
-99.0523
11
139.523
21
-99.0523
0
LINE
8
BLACK
6
CONTINUOUS
10
139.523
20
-99.0523
11
139.713
21
-98.9571
0
LINE
8
BLACK
6
CONTINUOUS
10
139.713
20
-98.9571
11
139.809
21
-98.7666
0
LINE
8
BLACK
6
CONTINUOUS
10
139.809
20
-98.7666
11
139.809
21
-98.6714
0
LINE
8
BLACK
6
CONTINUOUS
10
139.809
20
-98.6714
11
139.713
21
-98.4809
0
LINE
8
BLACK
6
CONTINUOUS
10
139.713
20
-98.4809
11
139.523
21
-98.3857
0
LINE
8
BLACK
6
CONTINUOUS
10
139.523
20
-98.3857
11
139.237
21
-98.3857
0
LINE
8
BLACK
6
CONTINUOUS
10
139.237
20
-98.3857
11
139.047
21
-98.2904
0
LINE
8
BLACK
6
CONTINUOUS
10
139.047
20
-98.2904
11
138.952
21
-98.1
0
LINE
8
BLACK
6
CONTINUOUS
10
138.952
20
-98.1
11
138.952
21
-98.0047
0
LINE
8
BLACK
6
CONTINUOUS
10
138.952
20
-98.0047
11
139.047
21
-97.8142
0
LINE
8
BLACK
6
CONTINUOUS
10
139.047
20
-97.8142
11
139.237
21
-97.719
0
LINE
8
BLACK
6
CONTINUOUS
10
139.237
20
-97.719
11
139.523
21
-97.719
0
LINE
8
BLACK
6
CONTINUOUS
10
139.523
20
-97.719
11
139.713
21
-97.8142
0
LINE
8
BLACK
6
CONTINUOUS
10
140.475
20
-99.8142
11
140.571
21
-99.719
0
LINE
8
BLACK
6
CONTINUOUS
10
140.571
20
-99.719
11
140.761
21
-99.4333
0
LINE
8
BLACK
6
CONTINUOUS
10
140.761
20
-99.4333
11
140.856
21
-99.2428
0
LINE
8
BLACK
6
CONTINUOUS
10
140.856
20
-99.2428
11
140.952
21
-98.9571
0
LINE
8
BLACK
6
CONTINUOUS
10
140.952
20
-98.9571
11
141.047
21
-98.4809
0
LINE
8
BLACK
6
CONTINUOUS
10
141.047
20
-98.4809
11
141.047
21
-98.1
0
LINE
8
BLACK
6
CONTINUOUS
10
141.047
20
-98.1
11
140.952
21
-97.6238
0
LINE
8
BLACK
6
CONTINUOUS
10
140.952
20
-97.6238
11
140.856
21
-97.3381
0
LINE
8
BLACK
6
CONTINUOUS
10
140.856
20
-97.3381
11
140.761
21
-97.1476
0
LINE
8
BLACK
6
CONTINUOUS
10
140.761
20
-97.1476
11
140.571
21
-96.8619
0
LINE
8
BLACK
6
CONTINUOUS
10
140.571
20
-96.8619
11
140.475
21
-96.7666
  0
ENDSEC
  0
EOF
