%TF.GenerationSoftware,KiCad,Pcbnew,7.0.6-0*%
%TF.CreationDate,2023-07-21T12:15:06+07:00*%
%TF.ProjectId,RP2040Reference,52503230-3430-4526-9566-6572656e6365,rev?*%
%TF.SameCoordinates,Original*%
%TF.FileFunction,Legend,Bot*%
%TF.FilePolarity,Positive*%
%FSLAX46Y46*%
G04 Gerber Fmt 4.6, Leading zero omitted, Abs format (unit mm)*
G04 Created by KiCad (PCBNEW 7.0.6-0) date 2023-07-21 12:15:06*
%MOMM*%
%LPD*%
G01*
G04 APERTURE LIST*
%ADD10C,0.200000*%
%ADD11C,0.150000*%
%ADD12C,0.120000*%
G04 APERTURE END LIST*
D10*
G36*
X94677945Y-81128242D02*
G01*
X94496790Y-81128242D01*
X94456228Y-81107961D01*
X94441082Y-81092814D01*
X94420802Y-81052254D01*
X94420802Y-80985182D01*
X94441082Y-80944622D01*
X94456228Y-80929475D01*
X94496790Y-80909195D01*
X94677945Y-80909195D01*
X94677945Y-81128242D01*
G37*
G36*
X95830327Y-81823481D02*
G01*
X93309001Y-81823481D01*
X93309001Y-80787038D01*
X93423287Y-80787038D01*
X93425696Y-80813510D01*
X93425696Y-80840097D01*
X93428461Y-80843903D01*
X93428888Y-80848587D01*
X93771745Y-81648587D01*
X93812453Y-81695090D01*
X93872721Y-81708784D01*
X93929527Y-81684438D01*
X93961175Y-81631352D01*
X93955574Y-81569803D01*
X93743884Y-81075861D01*
X94220802Y-81075861D01*
X94227926Y-81097787D01*
X94231360Y-81120583D01*
X94269455Y-81196774D01*
X94280829Y-81208321D01*
X94288187Y-81222763D01*
X94326282Y-81260857D01*
X94340723Y-81268215D01*
X94352272Y-81279590D01*
X94428462Y-81317685D01*
X94451259Y-81321118D01*
X94473183Y-81328242D01*
X94677945Y-81328242D01*
X94677945Y-81609195D01*
X94697043Y-81667974D01*
X94747043Y-81704301D01*
X94808847Y-81704301D01*
X94858847Y-81667974D01*
X94877945Y-81609195D01*
X94877945Y-81533004D01*
X95020802Y-81533004D01*
X95023295Y-81540677D01*
X95022033Y-81548647D01*
X95032663Y-81569511D01*
X95039900Y-81591783D01*
X95046428Y-81596525D01*
X95050091Y-81603715D01*
X95088187Y-81641811D01*
X95108728Y-81652277D01*
X95127275Y-81665968D01*
X95241560Y-81704063D01*
X95257767Y-81704186D01*
X95273183Y-81709195D01*
X95349374Y-81709195D01*
X95364789Y-81704186D01*
X95380997Y-81704063D01*
X95495283Y-81665968D01*
X95513831Y-81652275D01*
X95534371Y-81641810D01*
X95610561Y-81565619D01*
X95617919Y-81551177D01*
X95629293Y-81539630D01*
X95667388Y-81463440D01*
X95669047Y-81452419D01*
X95674959Y-81442973D01*
X95713055Y-81290592D01*
X95712194Y-81278175D01*
X95716041Y-81266338D01*
X95716041Y-81152052D01*
X95712194Y-81140214D01*
X95713055Y-81127798D01*
X95674959Y-80975417D01*
X95669047Y-80965970D01*
X95667388Y-80954950D01*
X95629293Y-80878759D01*
X95617919Y-80867211D01*
X95610561Y-80852769D01*
X95534371Y-80776579D01*
X95513829Y-80766112D01*
X95495283Y-80752422D01*
X95380997Y-80714327D01*
X95364789Y-80714203D01*
X95349374Y-80709195D01*
X95235088Y-80709195D01*
X95213164Y-80716318D01*
X95190367Y-80719752D01*
X95114177Y-80757847D01*
X95070144Y-80801216D01*
X95060013Y-80862183D01*
X95087652Y-80917462D01*
X95142505Y-80945938D01*
X95203619Y-80936733D01*
X95258695Y-80909195D01*
X95333147Y-80909195D01*
X95409640Y-80934692D01*
X95457664Y-80982716D01*
X95483593Y-81034574D01*
X95516041Y-81164362D01*
X95516041Y-81254027D01*
X95483593Y-81383814D01*
X95457663Y-81435674D01*
X95409641Y-81483697D01*
X95333147Y-81509195D01*
X95289410Y-81509195D01*
X95220802Y-81486325D01*
X95220802Y-81366338D01*
X95273183Y-81366338D01*
X95331962Y-81347240D01*
X95368289Y-81297240D01*
X95368289Y-81235436D01*
X95331962Y-81185436D01*
X95273183Y-81166338D01*
X95120802Y-81166338D01*
X95105739Y-81171232D01*
X95089900Y-81171232D01*
X95077086Y-81180541D01*
X95062023Y-81185436D01*
X95052713Y-81198249D01*
X95039900Y-81207559D01*
X95035005Y-81222622D01*
X95025696Y-81235436D01*
X95025696Y-81251275D01*
X95020802Y-81266338D01*
X95020802Y-81533004D01*
X94877945Y-81533004D01*
X94877945Y-80809195D01*
X94873051Y-80794132D01*
X94873051Y-80778293D01*
X94863741Y-80765479D01*
X94858847Y-80750416D01*
X94846033Y-80741106D01*
X94836724Y-80728293D01*
X94821660Y-80723398D01*
X94808847Y-80714089D01*
X94793008Y-80714089D01*
X94777945Y-80709195D01*
X94473183Y-80709195D01*
X94451259Y-80716318D01*
X94428462Y-80719752D01*
X94352272Y-80757847D01*
X94340723Y-80769221D01*
X94326282Y-80776580D01*
X94288187Y-80814674D01*
X94280829Y-80829115D01*
X94269455Y-80840663D01*
X94231360Y-80916854D01*
X94227926Y-80939649D01*
X94220802Y-80961576D01*
X94220802Y-81075861D01*
X93743884Y-81075861D01*
X93672456Y-80909195D01*
X94054136Y-80909195D01*
X94112915Y-80890097D01*
X94149242Y-80840097D01*
X94149242Y-80778293D01*
X94112915Y-80728293D01*
X94054136Y-80709195D01*
X93520802Y-80709195D01*
X93516328Y-80710648D01*
X93511741Y-80709606D01*
X93487305Y-80720078D01*
X93462023Y-80728293D01*
X93459257Y-80732098D01*
X93454934Y-80733952D01*
X93441321Y-80756786D01*
X93425696Y-80778293D01*
X93425696Y-80782997D01*
X93423287Y-80787038D01*
X93309001Y-80787038D01*
X93309001Y-80594909D01*
X95830327Y-80594909D01*
X95830327Y-81823481D01*
G37*
G36*
X107492231Y-71159195D02*
G01*
X107417982Y-71159195D01*
X107341487Y-71133697D01*
X107293465Y-71085674D01*
X107267535Y-71033814D01*
X107235088Y-70904027D01*
X107235088Y-70814362D01*
X107267535Y-70684574D01*
X107293464Y-70632716D01*
X107341488Y-70584692D01*
X107417982Y-70559195D01*
X107492231Y-70559195D01*
X107492231Y-71159195D01*
G37*
G36*
X108177298Y-70930623D02*
G01*
X108073831Y-70930623D01*
X108125564Y-70775422D01*
X108177298Y-70930623D01*
G37*
G36*
X108601855Y-71473481D02*
G01*
X106158898Y-71473481D01*
X106158898Y-71106814D01*
X106273184Y-71106814D01*
X106280307Y-71128737D01*
X106283741Y-71151535D01*
X106321836Y-71227725D01*
X106333208Y-71239271D01*
X106340567Y-71253714D01*
X106378662Y-71291810D01*
X106393104Y-71299169D01*
X106404653Y-71310543D01*
X106480844Y-71348638D01*
X106503641Y-71352071D01*
X106525565Y-71359195D01*
X106754136Y-71359195D01*
X106776059Y-71352071D01*
X106798857Y-71348638D01*
X106875048Y-71310543D01*
X106886596Y-71299169D01*
X106901039Y-71291810D01*
X106939133Y-71253714D01*
X106967191Y-71198646D01*
X106957522Y-71137604D01*
X106913820Y-71093902D01*
X106852777Y-71084235D01*
X106797710Y-71112294D01*
X106771089Y-71138915D01*
X106730529Y-71159195D01*
X106549172Y-71159195D01*
X106508610Y-71138914D01*
X106493464Y-71123768D01*
X106473184Y-71083207D01*
X106473184Y-70939944D01*
X106484987Y-70916338D01*
X107035088Y-70916338D01*
X107038934Y-70928175D01*
X107038074Y-70940592D01*
X107076170Y-71092973D01*
X107082081Y-71102419D01*
X107083741Y-71113440D01*
X107121836Y-71189630D01*
X107133210Y-71201178D01*
X107140568Y-71215619D01*
X107216758Y-71291810D01*
X107237299Y-71302277D01*
X107255846Y-71315968D01*
X107370133Y-71354063D01*
X107386339Y-71354186D01*
X107401755Y-71359195D01*
X107592231Y-71359195D01*
X107607294Y-71354301D01*
X107623133Y-71354301D01*
X107635946Y-71344991D01*
X107651010Y-71340097D01*
X107660319Y-71327283D01*
X107673133Y-71317974D01*
X107678027Y-71302910D01*
X107687337Y-71290097D01*
X107687337Y-71289374D01*
X107763560Y-71289374D01*
X107799507Y-71339648D01*
X107858139Y-71359193D01*
X107917061Y-71340541D01*
X107953766Y-71290818D01*
X108007164Y-71130623D01*
X108243965Y-71130623D01*
X108297363Y-71290818D01*
X108334068Y-71340541D01*
X108392990Y-71359192D01*
X108451622Y-71339648D01*
X108487569Y-71289374D01*
X108487099Y-71227572D01*
X108220432Y-70427572D01*
X108202521Y-70403308D01*
X108184955Y-70378741D01*
X108184199Y-70378489D01*
X108183727Y-70377849D01*
X108154961Y-70368743D01*
X108126323Y-70359197D01*
X108125563Y-70359437D01*
X108124805Y-70359197D01*
X108096195Y-70368733D01*
X108067401Y-70377849D01*
X108066927Y-70378490D01*
X108066173Y-70378742D01*
X108048618Y-70403293D01*
X108030696Y-70427572D01*
X107764030Y-71227572D01*
X107763560Y-71289374D01*
X107687337Y-71289374D01*
X107687337Y-71274257D01*
X107692231Y-71259195D01*
X107692231Y-70459195D01*
X107687337Y-70444132D01*
X107687337Y-70428293D01*
X107678027Y-70415479D01*
X107673133Y-70400416D01*
X107660319Y-70391106D01*
X107651010Y-70378293D01*
X107635946Y-70373398D01*
X107623133Y-70364089D01*
X107607294Y-70364089D01*
X107592231Y-70359195D01*
X107401755Y-70359195D01*
X107386339Y-70364203D01*
X107370133Y-70364327D01*
X107255846Y-70402422D01*
X107237299Y-70416112D01*
X107216758Y-70426579D01*
X107140568Y-70502769D01*
X107133209Y-70517211D01*
X107121836Y-70528759D01*
X107083741Y-70604950D01*
X107082081Y-70615970D01*
X107076170Y-70625417D01*
X107038074Y-70777798D01*
X107038934Y-70790214D01*
X107035088Y-70802052D01*
X107035088Y-70916338D01*
X106484987Y-70916338D01*
X106493464Y-70899383D01*
X106508609Y-70884237D01*
X106549172Y-70863957D01*
X106639850Y-70863957D01*
X106659079Y-70857708D01*
X106679222Y-70855881D01*
X106687795Y-70848378D01*
X106698629Y-70844859D01*
X106710514Y-70828500D01*
X106725734Y-70815183D01*
X106728260Y-70804074D01*
X106734956Y-70794859D01*
X106734956Y-70774637D01*
X106739441Y-70754919D01*
X106734955Y-70744447D01*
X106734956Y-70733055D01*
X106723068Y-70716693D01*
X106715108Y-70698107D01*
X106593560Y-70559195D01*
X106868422Y-70559195D01*
X106927201Y-70540097D01*
X106963528Y-70490097D01*
X106963528Y-70428293D01*
X106927201Y-70378293D01*
X106868422Y-70359195D01*
X106373184Y-70359195D01*
X106353953Y-70365443D01*
X106333813Y-70367271D01*
X106325239Y-70374772D01*
X106314405Y-70378293D01*
X106302519Y-70394652D01*
X106287300Y-70407969D01*
X106284773Y-70419077D01*
X106278078Y-70428293D01*
X106278078Y-70448514D01*
X106273593Y-70468233D01*
X106278078Y-70478704D01*
X106278078Y-70490097D01*
X106289965Y-70506458D01*
X106297926Y-70525045D01*
X106444577Y-70692647D01*
X106404653Y-70712609D01*
X106393103Y-70723983D01*
X106378663Y-70731342D01*
X106340568Y-70769436D01*
X106333209Y-70783878D01*
X106321836Y-70795426D01*
X106283741Y-70871617D01*
X106280307Y-70894414D01*
X106273184Y-70916338D01*
X106273184Y-71106814D01*
X106158898Y-71106814D01*
X106158898Y-70244909D01*
X108601855Y-70244909D01*
X108601855Y-71473481D01*
G37*
G36*
X108530327Y-81873481D02*
G01*
X106049505Y-81873481D01*
X106049505Y-81423430D01*
X106163791Y-81423430D01*
X106200118Y-81473430D01*
X106258897Y-81492528D01*
X106273183Y-81492528D01*
X106273183Y-81659195D01*
X106292281Y-81717974D01*
X106342281Y-81754301D01*
X106404085Y-81754301D01*
X106454085Y-81717974D01*
X106473183Y-81659195D01*
X106473183Y-81492528D01*
X106754136Y-81492528D01*
X106754515Y-81492404D01*
X106754895Y-81492525D01*
X106783822Y-81482882D01*
X106812915Y-81473430D01*
X106813149Y-81473106D01*
X106813527Y-81472981D01*
X106831267Y-81448169D01*
X106849242Y-81423430D01*
X106849242Y-81423031D01*
X106849474Y-81422707D01*
X106849242Y-81392200D01*
X106849242Y-81361626D01*
X106849007Y-81361302D01*
X106849004Y-81360905D01*
X106757957Y-81087766D01*
X106958898Y-81087766D01*
X106963906Y-81103181D01*
X106964030Y-81119389D01*
X107002125Y-81233675D01*
X107015815Y-81252221D01*
X107026282Y-81272763D01*
X107312714Y-81559195D01*
X107058898Y-81559195D01*
X107000119Y-81578293D01*
X106963792Y-81628293D01*
X106963792Y-81690097D01*
X107000119Y-81740097D01*
X107058898Y-81759195D01*
X107554136Y-81759195D01*
X107576403Y-81751959D01*
X107599535Y-81748296D01*
X107605240Y-81742590D01*
X107612915Y-81740097D01*
X107626680Y-81721150D01*
X107643237Y-81704594D01*
X107644499Y-81696624D01*
X107649242Y-81690097D01*
X107649242Y-81666683D01*
X107652906Y-81643552D01*
X107649242Y-81636361D01*
X107649242Y-81628293D01*
X107635478Y-81609348D01*
X107624847Y-81588484D01*
X107619367Y-81583004D01*
X107720802Y-81583004D01*
X107723295Y-81590677D01*
X107722033Y-81598647D01*
X107732663Y-81619511D01*
X107739900Y-81641783D01*
X107746428Y-81646525D01*
X107750091Y-81653715D01*
X107788187Y-81691811D01*
X107808728Y-81702277D01*
X107827275Y-81715968D01*
X107941560Y-81754063D01*
X107957767Y-81754186D01*
X107973183Y-81759195D01*
X108049374Y-81759195D01*
X108064789Y-81754186D01*
X108080997Y-81754063D01*
X108195283Y-81715968D01*
X108213831Y-81702275D01*
X108234371Y-81691810D01*
X108310561Y-81615619D01*
X108317919Y-81601177D01*
X108329293Y-81589630D01*
X108367388Y-81513440D01*
X108369047Y-81502419D01*
X108374959Y-81492973D01*
X108413055Y-81340592D01*
X108412194Y-81328175D01*
X108416041Y-81316338D01*
X108416041Y-81202052D01*
X108412194Y-81190214D01*
X108413055Y-81177798D01*
X108374959Y-81025417D01*
X108369047Y-81015970D01*
X108367388Y-81004950D01*
X108329293Y-80928759D01*
X108317919Y-80917211D01*
X108310561Y-80902769D01*
X108234371Y-80826579D01*
X108213829Y-80816112D01*
X108195283Y-80802422D01*
X108080997Y-80764327D01*
X108064789Y-80764203D01*
X108049374Y-80759195D01*
X107935088Y-80759195D01*
X107913164Y-80766318D01*
X107890367Y-80769752D01*
X107814177Y-80807847D01*
X107770144Y-80851216D01*
X107760013Y-80912183D01*
X107787652Y-80967462D01*
X107842505Y-80995938D01*
X107903619Y-80986733D01*
X107958695Y-80959195D01*
X108033147Y-80959195D01*
X108109640Y-80984692D01*
X108157664Y-81032716D01*
X108183593Y-81084574D01*
X108216041Y-81214362D01*
X108216041Y-81304027D01*
X108183593Y-81433814D01*
X108157663Y-81485674D01*
X108109641Y-81533697D01*
X108033147Y-81559195D01*
X107989410Y-81559195D01*
X107920802Y-81536325D01*
X107920802Y-81416338D01*
X107973183Y-81416338D01*
X108031962Y-81397240D01*
X108068289Y-81347240D01*
X108068289Y-81285436D01*
X108031962Y-81235436D01*
X107973183Y-81216338D01*
X107820802Y-81216338D01*
X107805739Y-81221232D01*
X107789900Y-81221232D01*
X107777086Y-81230541D01*
X107762023Y-81235436D01*
X107752713Y-81248249D01*
X107739900Y-81257559D01*
X107735005Y-81272622D01*
X107725696Y-81285436D01*
X107725696Y-81301275D01*
X107720802Y-81316338D01*
X107720802Y-81583004D01*
X107619367Y-81583004D01*
X107184395Y-81148032D01*
X107158898Y-81071539D01*
X107158898Y-81035182D01*
X107179178Y-80994621D01*
X107194323Y-80979475D01*
X107234886Y-80959195D01*
X107378148Y-80959195D01*
X107418709Y-80979475D01*
X107445331Y-81006096D01*
X107500399Y-81034154D01*
X107561441Y-81024485D01*
X107605143Y-80980783D01*
X107614810Y-80919740D01*
X107586751Y-80864673D01*
X107548655Y-80826578D01*
X107534212Y-80819219D01*
X107522666Y-80807847D01*
X107446476Y-80769752D01*
X107423678Y-80766318D01*
X107401755Y-80759195D01*
X107211279Y-80759195D01*
X107189355Y-80766318D01*
X107166558Y-80769752D01*
X107090367Y-80807847D01*
X107078817Y-80819221D01*
X107064377Y-80826580D01*
X107026282Y-80864674D01*
X107018923Y-80879116D01*
X107007550Y-80890664D01*
X106969455Y-80966855D01*
X106966021Y-80989652D01*
X106958898Y-81011576D01*
X106958898Y-81087766D01*
X106757957Y-81087766D01*
X106658527Y-80789477D01*
X106621822Y-80739754D01*
X106562900Y-80721102D01*
X106504268Y-80740647D01*
X106468321Y-80790921D01*
X106468791Y-80852723D01*
X106615393Y-81292528D01*
X106473183Y-81292528D01*
X106473183Y-81125861D01*
X106454085Y-81067082D01*
X106404085Y-81030755D01*
X106342281Y-81030755D01*
X106292281Y-81067082D01*
X106273183Y-81125861D01*
X106273183Y-81292528D01*
X106258897Y-81292528D01*
X106200118Y-81311626D01*
X106163791Y-81361626D01*
X106163791Y-81423430D01*
X106049505Y-81423430D01*
X106049505Y-80606816D01*
X108530327Y-80606816D01*
X108530327Y-81873481D01*
G37*
G36*
X94677945Y-65628242D02*
G01*
X94496790Y-65628242D01*
X94456228Y-65607961D01*
X94441082Y-65592814D01*
X94420802Y-65552254D01*
X94420802Y-65485182D01*
X94441082Y-65444622D01*
X94456228Y-65429475D01*
X94496790Y-65409195D01*
X94677945Y-65409195D01*
X94677945Y-65628242D01*
G37*
G36*
X95830327Y-66323481D02*
G01*
X93349506Y-66323481D01*
X93349506Y-66140097D01*
X93463792Y-66140097D01*
X93500119Y-66190097D01*
X93558898Y-66209195D01*
X94016041Y-66209195D01*
X94074820Y-66190097D01*
X94111147Y-66140097D01*
X94111147Y-66078293D01*
X94074820Y-66028293D01*
X94016041Y-66009195D01*
X93887469Y-66009195D01*
X93887469Y-65581569D01*
X93895129Y-65589114D01*
X93971320Y-65627209D01*
X94032435Y-65636414D01*
X94087287Y-65607938D01*
X94103325Y-65575861D01*
X94220802Y-65575861D01*
X94227926Y-65597787D01*
X94231360Y-65620583D01*
X94269455Y-65696774D01*
X94280829Y-65708321D01*
X94288187Y-65722763D01*
X94326282Y-65760857D01*
X94340723Y-65768215D01*
X94352272Y-65779590D01*
X94428462Y-65817685D01*
X94451259Y-65821118D01*
X94473183Y-65828242D01*
X94677945Y-65828242D01*
X94677945Y-66109195D01*
X94697043Y-66167974D01*
X94747043Y-66204301D01*
X94808847Y-66204301D01*
X94858847Y-66167974D01*
X94877945Y-66109195D01*
X94877945Y-66033004D01*
X95020802Y-66033004D01*
X95023295Y-66040677D01*
X95022033Y-66048647D01*
X95032663Y-66069511D01*
X95039900Y-66091783D01*
X95046428Y-66096525D01*
X95050091Y-66103715D01*
X95088187Y-66141811D01*
X95108728Y-66152277D01*
X95127275Y-66165968D01*
X95241560Y-66204063D01*
X95257767Y-66204186D01*
X95273183Y-66209195D01*
X95349374Y-66209195D01*
X95364789Y-66204186D01*
X95380997Y-66204063D01*
X95495283Y-66165968D01*
X95513831Y-66152275D01*
X95534371Y-66141810D01*
X95610561Y-66065619D01*
X95617919Y-66051177D01*
X95629293Y-66039630D01*
X95667388Y-65963440D01*
X95669047Y-65952419D01*
X95674959Y-65942973D01*
X95713055Y-65790592D01*
X95712194Y-65778175D01*
X95716041Y-65766338D01*
X95716041Y-65652052D01*
X95712194Y-65640214D01*
X95713055Y-65627798D01*
X95674959Y-65475417D01*
X95669047Y-65465970D01*
X95667388Y-65454950D01*
X95629293Y-65378759D01*
X95617919Y-65367211D01*
X95610561Y-65352769D01*
X95534371Y-65276579D01*
X95513829Y-65266112D01*
X95495283Y-65252422D01*
X95380997Y-65214327D01*
X95364789Y-65214203D01*
X95349374Y-65209195D01*
X95235088Y-65209195D01*
X95213164Y-65216318D01*
X95190367Y-65219752D01*
X95114177Y-65257847D01*
X95070144Y-65301216D01*
X95060013Y-65362183D01*
X95087652Y-65417462D01*
X95142505Y-65445938D01*
X95203619Y-65436733D01*
X95258695Y-65409195D01*
X95333147Y-65409195D01*
X95409640Y-65434692D01*
X95457664Y-65482716D01*
X95483593Y-65534574D01*
X95516041Y-65664362D01*
X95516041Y-65754027D01*
X95483593Y-65883814D01*
X95457663Y-65935674D01*
X95409641Y-65983697D01*
X95333147Y-66009195D01*
X95289410Y-66009195D01*
X95220802Y-65986325D01*
X95220802Y-65866338D01*
X95273183Y-65866338D01*
X95331962Y-65847240D01*
X95368289Y-65797240D01*
X95368289Y-65735436D01*
X95331962Y-65685436D01*
X95273183Y-65666338D01*
X95120802Y-65666338D01*
X95105739Y-65671232D01*
X95089900Y-65671232D01*
X95077086Y-65680541D01*
X95062023Y-65685436D01*
X95052713Y-65698249D01*
X95039900Y-65707559D01*
X95035005Y-65722622D01*
X95025696Y-65735436D01*
X95025696Y-65751275D01*
X95020802Y-65766338D01*
X95020802Y-66033004D01*
X94877945Y-66033004D01*
X94877945Y-65309195D01*
X94873051Y-65294132D01*
X94873051Y-65278293D01*
X94863741Y-65265479D01*
X94858847Y-65250416D01*
X94846033Y-65241106D01*
X94836724Y-65228293D01*
X94821660Y-65223398D01*
X94808847Y-65214089D01*
X94793008Y-65214089D01*
X94777945Y-65209195D01*
X94473183Y-65209195D01*
X94451259Y-65216318D01*
X94428462Y-65219752D01*
X94352272Y-65257847D01*
X94340723Y-65269221D01*
X94326282Y-65276580D01*
X94288187Y-65314674D01*
X94280829Y-65329115D01*
X94269455Y-65340663D01*
X94231360Y-65416854D01*
X94227926Y-65439649D01*
X94220802Y-65461576D01*
X94220802Y-65575861D01*
X94103325Y-65575861D01*
X94114926Y-65552659D01*
X94104795Y-65491691D01*
X94060762Y-65448323D01*
X93999085Y-65417484D01*
X93941374Y-65359774D01*
X93870674Y-65253724D01*
X93869021Y-65252418D01*
X93868371Y-65250416D01*
X93844922Y-65233380D01*
X93822178Y-65215411D01*
X93820073Y-65215326D01*
X93818371Y-65214089D01*
X93789392Y-65214089D01*
X93760425Y-65212921D01*
X93758673Y-65214089D01*
X93756567Y-65214089D01*
X93733114Y-65231128D01*
X93709001Y-65247204D01*
X93708270Y-65249178D01*
X93706567Y-65250416D01*
X93697612Y-65277977D01*
X93687550Y-65305165D01*
X93688119Y-65307192D01*
X93687469Y-65309195D01*
X93687469Y-66009195D01*
X93558898Y-66009195D01*
X93500119Y-66028293D01*
X93463792Y-66078293D01*
X93463792Y-66140097D01*
X93349506Y-66140097D01*
X93349506Y-65094909D01*
X95830327Y-65094909D01*
X95830327Y-66323481D01*
G37*
G36*
X107492231Y-76359195D02*
G01*
X107417982Y-76359195D01*
X107341487Y-76333697D01*
X107293465Y-76285674D01*
X107267535Y-76233814D01*
X107235088Y-76104027D01*
X107235088Y-76014362D01*
X107267535Y-75884574D01*
X107293464Y-75832716D01*
X107341488Y-75784692D01*
X107417982Y-75759195D01*
X107492231Y-75759195D01*
X107492231Y-76359195D01*
G37*
G36*
X108177298Y-76130623D02*
G01*
X108073831Y-76130623D01*
X108125564Y-75975422D01*
X108177298Y-76130623D01*
G37*
G36*
X108601855Y-76673481D02*
G01*
X106163792Y-76673481D01*
X106163792Y-76490097D01*
X106278078Y-76490097D01*
X106314405Y-76540097D01*
X106373184Y-76559195D01*
X106830327Y-76559195D01*
X106889106Y-76540097D01*
X106925433Y-76490097D01*
X106925433Y-76428293D01*
X106889106Y-76378293D01*
X106830327Y-76359195D01*
X106701755Y-76359195D01*
X106701755Y-76116338D01*
X107035088Y-76116338D01*
X107038934Y-76128175D01*
X107038074Y-76140592D01*
X107076170Y-76292973D01*
X107082081Y-76302419D01*
X107083741Y-76313440D01*
X107121836Y-76389630D01*
X107133210Y-76401178D01*
X107140568Y-76415619D01*
X107216758Y-76491810D01*
X107237299Y-76502277D01*
X107255846Y-76515968D01*
X107370133Y-76554063D01*
X107386339Y-76554186D01*
X107401755Y-76559195D01*
X107592231Y-76559195D01*
X107607294Y-76554301D01*
X107623133Y-76554301D01*
X107635946Y-76544991D01*
X107651010Y-76540097D01*
X107660319Y-76527283D01*
X107673133Y-76517974D01*
X107678027Y-76502910D01*
X107687337Y-76490097D01*
X107687337Y-76489374D01*
X107763560Y-76489374D01*
X107799507Y-76539648D01*
X107858139Y-76559193D01*
X107917061Y-76540541D01*
X107953766Y-76490818D01*
X108007164Y-76330623D01*
X108243965Y-76330623D01*
X108297363Y-76490818D01*
X108334068Y-76540541D01*
X108392990Y-76559192D01*
X108451622Y-76539648D01*
X108487569Y-76489374D01*
X108487099Y-76427572D01*
X108220432Y-75627572D01*
X108202521Y-75603308D01*
X108184955Y-75578741D01*
X108184199Y-75578489D01*
X108183727Y-75577849D01*
X108154961Y-75568743D01*
X108126323Y-75559197D01*
X108125563Y-75559437D01*
X108124805Y-75559197D01*
X108096195Y-75568733D01*
X108067401Y-75577849D01*
X108066927Y-75578490D01*
X108066173Y-75578742D01*
X108048618Y-75603293D01*
X108030696Y-75627572D01*
X107764030Y-76427572D01*
X107763560Y-76489374D01*
X107687337Y-76489374D01*
X107687337Y-76474257D01*
X107692231Y-76459195D01*
X107692231Y-75659195D01*
X107687337Y-75644132D01*
X107687337Y-75628293D01*
X107678027Y-75615479D01*
X107673133Y-75600416D01*
X107660319Y-75591106D01*
X107651010Y-75578293D01*
X107635946Y-75573398D01*
X107623133Y-75564089D01*
X107607294Y-75564089D01*
X107592231Y-75559195D01*
X107401755Y-75559195D01*
X107386339Y-75564203D01*
X107370133Y-75564327D01*
X107255846Y-75602422D01*
X107237299Y-75616112D01*
X107216758Y-75626579D01*
X107140568Y-75702769D01*
X107133209Y-75717211D01*
X107121836Y-75728759D01*
X107083741Y-75804950D01*
X107082081Y-75815970D01*
X107076170Y-75825417D01*
X107038074Y-75977798D01*
X107038934Y-75990214D01*
X107035088Y-76002052D01*
X107035088Y-76116338D01*
X106701755Y-76116338D01*
X106701755Y-75931569D01*
X106709415Y-75939114D01*
X106785606Y-75977209D01*
X106846721Y-75986414D01*
X106901573Y-75957938D01*
X106929212Y-75902659D01*
X106919081Y-75841691D01*
X106875048Y-75798323D01*
X106813371Y-75767484D01*
X106755660Y-75709774D01*
X106684960Y-75603724D01*
X106683307Y-75602418D01*
X106682657Y-75600416D01*
X106659208Y-75583380D01*
X106636464Y-75565411D01*
X106634359Y-75565326D01*
X106632657Y-75564089D01*
X106603678Y-75564089D01*
X106574711Y-75562921D01*
X106572959Y-75564089D01*
X106570853Y-75564089D01*
X106547400Y-75581128D01*
X106523287Y-75597204D01*
X106522556Y-75599178D01*
X106520853Y-75600416D01*
X106511898Y-75627977D01*
X106501836Y-75655165D01*
X106502405Y-75657192D01*
X106501755Y-75659195D01*
X106501755Y-76359195D01*
X106373184Y-76359195D01*
X106314405Y-76378293D01*
X106278078Y-76428293D01*
X106278078Y-76490097D01*
X106163792Y-76490097D01*
X106163792Y-75444909D01*
X108601855Y-75444909D01*
X108601855Y-76673481D01*
G37*
G36*
X94677945Y-68128242D02*
G01*
X94496790Y-68128242D01*
X94456228Y-68107961D01*
X94441082Y-68092814D01*
X94420802Y-68052254D01*
X94420802Y-67985182D01*
X94441082Y-67944622D01*
X94456228Y-67929475D01*
X94496790Y-67909195D01*
X94677945Y-67909195D01*
X94677945Y-68128242D01*
G37*
G36*
X95830327Y-68823481D02*
G01*
X93344612Y-68823481D01*
X93344612Y-68037766D01*
X93458898Y-68037766D01*
X93463906Y-68053181D01*
X93464030Y-68069389D01*
X93502125Y-68183675D01*
X93515815Y-68202221D01*
X93526282Y-68222763D01*
X93812714Y-68509195D01*
X93558898Y-68509195D01*
X93500119Y-68528293D01*
X93463792Y-68578293D01*
X93463792Y-68640097D01*
X93500119Y-68690097D01*
X93558898Y-68709195D01*
X94054136Y-68709195D01*
X94076403Y-68701959D01*
X94099535Y-68698296D01*
X94105240Y-68692590D01*
X94112915Y-68690097D01*
X94126680Y-68671150D01*
X94143237Y-68654594D01*
X94144499Y-68646624D01*
X94149242Y-68640097D01*
X94149242Y-68616683D01*
X94152906Y-68593552D01*
X94149242Y-68586361D01*
X94149242Y-68578293D01*
X94135478Y-68559348D01*
X94124847Y-68538484D01*
X93684395Y-68098032D01*
X93677005Y-68075861D01*
X94220802Y-68075861D01*
X94227926Y-68097787D01*
X94231360Y-68120583D01*
X94269455Y-68196774D01*
X94280829Y-68208321D01*
X94288187Y-68222763D01*
X94326282Y-68260857D01*
X94340723Y-68268215D01*
X94352272Y-68279590D01*
X94428462Y-68317685D01*
X94451259Y-68321118D01*
X94473183Y-68328242D01*
X94677945Y-68328242D01*
X94677945Y-68609195D01*
X94697043Y-68667974D01*
X94747043Y-68704301D01*
X94808847Y-68704301D01*
X94858847Y-68667974D01*
X94877945Y-68609195D01*
X94877945Y-68533004D01*
X95020802Y-68533004D01*
X95023295Y-68540677D01*
X95022033Y-68548647D01*
X95032663Y-68569511D01*
X95039900Y-68591783D01*
X95046428Y-68596525D01*
X95050091Y-68603715D01*
X95088187Y-68641811D01*
X95108728Y-68652277D01*
X95127275Y-68665968D01*
X95241560Y-68704063D01*
X95257767Y-68704186D01*
X95273183Y-68709195D01*
X95349374Y-68709195D01*
X95364789Y-68704186D01*
X95380997Y-68704063D01*
X95495283Y-68665968D01*
X95513831Y-68652275D01*
X95534371Y-68641810D01*
X95610561Y-68565619D01*
X95617919Y-68551177D01*
X95629293Y-68539630D01*
X95667388Y-68463440D01*
X95669047Y-68452419D01*
X95674959Y-68442973D01*
X95713055Y-68290592D01*
X95712194Y-68278175D01*
X95716041Y-68266338D01*
X95716041Y-68152052D01*
X95712194Y-68140214D01*
X95713055Y-68127798D01*
X95674959Y-67975417D01*
X95669047Y-67965970D01*
X95667388Y-67954950D01*
X95629293Y-67878759D01*
X95617919Y-67867211D01*
X95610561Y-67852769D01*
X95534371Y-67776579D01*
X95513829Y-67766112D01*
X95495283Y-67752422D01*
X95380997Y-67714327D01*
X95364789Y-67714203D01*
X95349374Y-67709195D01*
X95235088Y-67709195D01*
X95213164Y-67716318D01*
X95190367Y-67719752D01*
X95114177Y-67757847D01*
X95070144Y-67801216D01*
X95060013Y-67862183D01*
X95087652Y-67917462D01*
X95142505Y-67945938D01*
X95203619Y-67936733D01*
X95258695Y-67909195D01*
X95333147Y-67909195D01*
X95409640Y-67934692D01*
X95457664Y-67982716D01*
X95483593Y-68034574D01*
X95516041Y-68164362D01*
X95516041Y-68254027D01*
X95483593Y-68383814D01*
X95457663Y-68435674D01*
X95409641Y-68483697D01*
X95333147Y-68509195D01*
X95289410Y-68509195D01*
X95220802Y-68486325D01*
X95220802Y-68366338D01*
X95273183Y-68366338D01*
X95331962Y-68347240D01*
X95368289Y-68297240D01*
X95368289Y-68235436D01*
X95331962Y-68185436D01*
X95273183Y-68166338D01*
X95120802Y-68166338D01*
X95105739Y-68171232D01*
X95089900Y-68171232D01*
X95077086Y-68180541D01*
X95062023Y-68185436D01*
X95052713Y-68198249D01*
X95039900Y-68207559D01*
X95035005Y-68222622D01*
X95025696Y-68235436D01*
X95025696Y-68251275D01*
X95020802Y-68266338D01*
X95020802Y-68533004D01*
X94877945Y-68533004D01*
X94877945Y-67809195D01*
X94873051Y-67794132D01*
X94873051Y-67778293D01*
X94863741Y-67765479D01*
X94858847Y-67750416D01*
X94846033Y-67741106D01*
X94836724Y-67728293D01*
X94821660Y-67723398D01*
X94808847Y-67714089D01*
X94793008Y-67714089D01*
X94777945Y-67709195D01*
X94473183Y-67709195D01*
X94451259Y-67716318D01*
X94428462Y-67719752D01*
X94352272Y-67757847D01*
X94340723Y-67769221D01*
X94326282Y-67776580D01*
X94288187Y-67814674D01*
X94280829Y-67829115D01*
X94269455Y-67840663D01*
X94231360Y-67916854D01*
X94227926Y-67939649D01*
X94220802Y-67961576D01*
X94220802Y-68075861D01*
X93677005Y-68075861D01*
X93658898Y-68021539D01*
X93658898Y-67985182D01*
X93679178Y-67944621D01*
X93694323Y-67929475D01*
X93734886Y-67909195D01*
X93878148Y-67909195D01*
X93918709Y-67929475D01*
X93945331Y-67956096D01*
X94000399Y-67984154D01*
X94061441Y-67974485D01*
X94105143Y-67930783D01*
X94114810Y-67869740D01*
X94086751Y-67814673D01*
X94048655Y-67776578D01*
X94034212Y-67769219D01*
X94022666Y-67757847D01*
X93946476Y-67719752D01*
X93923678Y-67716318D01*
X93901755Y-67709195D01*
X93711279Y-67709195D01*
X93689355Y-67716318D01*
X93666558Y-67719752D01*
X93590367Y-67757847D01*
X93578817Y-67769221D01*
X93564377Y-67776580D01*
X93526282Y-67814674D01*
X93518923Y-67829116D01*
X93507550Y-67840664D01*
X93469455Y-67916855D01*
X93466021Y-67939652D01*
X93458898Y-67961576D01*
X93458898Y-68037766D01*
X93344612Y-68037766D01*
X93344612Y-67594909D01*
X95830327Y-67594909D01*
X95830327Y-68823481D01*
G37*
D11*
G36*
X98726990Y-80142500D02*
G01*
X97548418Y-80142500D01*
X97548418Y-79838928D01*
X97662704Y-79838928D01*
X97663263Y-79840466D01*
X97666553Y-79862645D01*
X97704649Y-79976931D01*
X97736541Y-80017117D01*
X97786802Y-80027403D01*
X97831915Y-80002974D01*
X97850772Y-79955262D01*
X97846951Y-79929496D01*
X97812704Y-79826757D01*
X97812704Y-79666157D01*
X97837439Y-79616687D01*
X97858321Y-79595805D01*
X97907790Y-79571071D01*
X97948571Y-79571071D01*
X97998039Y-79595805D01*
X98018922Y-79616688D01*
X98047892Y-79674628D01*
X98083991Y-79819023D01*
X98085979Y-79821967D01*
X98089670Y-79834374D01*
X98127765Y-79910564D01*
X98128954Y-79911689D01*
X98141814Y-79930056D01*
X98179909Y-79968151D01*
X98181394Y-79968843D01*
X98199401Y-79982200D01*
X98275591Y-80020296D01*
X98280045Y-80020808D01*
X98283481Y-80023691D01*
X98309133Y-80028214D01*
X98385323Y-80028214D01*
X98389536Y-80026680D01*
X98393898Y-80027722D01*
X98418864Y-80020296D01*
X98495055Y-79982200D01*
X98496180Y-79981010D01*
X98514547Y-79968151D01*
X98552642Y-79930056D01*
X98553333Y-79928574D01*
X98566691Y-79910564D01*
X98604786Y-79834374D01*
X98605298Y-79829920D01*
X98608181Y-79826485D01*
X98612704Y-79800833D01*
X98612704Y-79610356D01*
X98612143Y-79608817D01*
X98608855Y-79586639D01*
X98570760Y-79472354D01*
X98538869Y-79432168D01*
X98488608Y-79421882D01*
X98443494Y-79446311D01*
X98424637Y-79494022D01*
X98428458Y-79519788D01*
X98462704Y-79622525D01*
X98462704Y-79783127D01*
X98437970Y-79832595D01*
X98417087Y-79853478D01*
X98367618Y-79878214D01*
X98326838Y-79878214D01*
X98277369Y-79853479D01*
X98256486Y-79832596D01*
X98227516Y-79774657D01*
X98191418Y-79630262D01*
X98189429Y-79627318D01*
X98185739Y-79614910D01*
X98147643Y-79538720D01*
X98146453Y-79537594D01*
X98133594Y-79519228D01*
X98095499Y-79481133D01*
X98094017Y-79480442D01*
X98076007Y-79467084D01*
X97999817Y-79428989D01*
X97995363Y-79428476D01*
X97991928Y-79425594D01*
X97966276Y-79421071D01*
X97890085Y-79421071D01*
X97885871Y-79422604D01*
X97881511Y-79421563D01*
X97856544Y-79428989D01*
X97780354Y-79467084D01*
X97779228Y-79468273D01*
X97760862Y-79481133D01*
X97722767Y-79519228D01*
X97722074Y-79520712D01*
X97708718Y-79538720D01*
X97670622Y-79614911D01*
X97670109Y-79619364D01*
X97667227Y-79622800D01*
X97662704Y-79648452D01*
X97662704Y-79838928D01*
X97548418Y-79838928D01*
X97548418Y-78738604D01*
X97662835Y-78738604D01*
X97665959Y-78745826D01*
X97665283Y-78753664D01*
X97675880Y-78768760D01*
X97683204Y-78785690D01*
X97690238Y-78789213D01*
X97694759Y-78795654D01*
X97718379Y-78806634D01*
X98018053Y-78886547D01*
X97718379Y-78966460D01*
X97711927Y-78970965D01*
X97704113Y-78971871D01*
X97691439Y-78985276D01*
X97676319Y-78995837D01*
X97674274Y-79003431D01*
X97668868Y-79009150D01*
X97667776Y-79027563D01*
X97662981Y-79045375D01*
X97666298Y-79052511D01*
X97665833Y-79060364D01*
X97676829Y-79075167D01*
X97684607Y-79091898D01*
X97691735Y-79095232D01*
X97696426Y-79101547D01*
X97720332Y-79111888D01*
X98520332Y-79302364D01*
X98571295Y-79296461D01*
X98606540Y-79259182D01*
X98609575Y-79207968D01*
X98578982Y-79166785D01*
X98555075Y-79156444D01*
X98044219Y-79034811D01*
X98328458Y-78959015D01*
X98334080Y-78955087D01*
X98340911Y-78954482D01*
X98354616Y-78940744D01*
X98370518Y-78929638D01*
X98372300Y-78923019D01*
X98377145Y-78918163D01*
X98378813Y-78898829D01*
X98383856Y-78880100D01*
X98380965Y-78873881D01*
X98381555Y-78867049D01*
X98370407Y-78851168D01*
X98362230Y-78833577D01*
X98356018Y-78830671D01*
X98352079Y-78825059D01*
X98328458Y-78814079D01*
X98044219Y-78738282D01*
X98555075Y-78616650D01*
X98597909Y-78588414D01*
X98612573Y-78539252D01*
X98592204Y-78492166D01*
X98546334Y-78469188D01*
X98520332Y-78470730D01*
X97720332Y-78661206D01*
X97713763Y-78665535D01*
X97705926Y-78666231D01*
X97692896Y-78679291D01*
X97677499Y-78689442D01*
X97675250Y-78696980D01*
X97669693Y-78702551D01*
X97668107Y-78720927D01*
X97662835Y-78738604D01*
X97548418Y-78738604D01*
X97548418Y-78010356D01*
X97662704Y-78010356D01*
X97663263Y-78011894D01*
X97666553Y-78034073D01*
X97704649Y-78148359D01*
X97707436Y-78151870D01*
X97707827Y-78156338D01*
X97722767Y-78177675D01*
X97798957Y-78253865D01*
X97800438Y-78254555D01*
X97818449Y-78267914D01*
X97894639Y-78306009D01*
X97898165Y-78306414D01*
X97909989Y-78311688D01*
X98062371Y-78349784D01*
X98065819Y-78349423D01*
X98080561Y-78352023D01*
X98194847Y-78352023D01*
X98198104Y-78350837D01*
X98213038Y-78349784D01*
X98365419Y-78311688D01*
X98368362Y-78309699D01*
X98380769Y-78306009D01*
X98456960Y-78267914D01*
X98458085Y-78266724D01*
X98476452Y-78253865D01*
X98552642Y-78177675D01*
X98554536Y-78173611D01*
X98558358Y-78171264D01*
X98570760Y-78148359D01*
X98608855Y-78034073D01*
X98608810Y-78032438D01*
X98612704Y-78010356D01*
X98612704Y-77934165D01*
X98612143Y-77932626D01*
X98608855Y-77910448D01*
X98570760Y-77796163D01*
X98567973Y-77792651D01*
X98567583Y-77788185D01*
X98552643Y-77766848D01*
X98514548Y-77728752D01*
X98468051Y-77707070D01*
X98418497Y-77720346D01*
X98389070Y-77762372D01*
X98393540Y-77813479D01*
X98408480Y-77834816D01*
X98434056Y-77860393D01*
X98462704Y-77946335D01*
X98462704Y-77998186D01*
X98434056Y-78084128D01*
X98378992Y-78139192D01*
X98321052Y-78168162D01*
X98185612Y-78202023D01*
X98089796Y-78202023D01*
X97954355Y-78168162D01*
X97896417Y-78139193D01*
X97841352Y-78084128D01*
X97812704Y-77998185D01*
X97812704Y-77946336D01*
X97841352Y-77860393D01*
X97866929Y-77834816D01*
X97888609Y-77788320D01*
X97875331Y-77738765D01*
X97833305Y-77709339D01*
X97782198Y-77713811D01*
X97760861Y-77728752D01*
X97722766Y-77766848D01*
X97720871Y-77770910D01*
X97717052Y-77773257D01*
X97704649Y-77796163D01*
X97666553Y-77910447D01*
X97666597Y-77912082D01*
X97662704Y-77934165D01*
X97662704Y-78010356D01*
X97548418Y-78010356D01*
X97548418Y-77592784D01*
X98726990Y-77592784D01*
X98726990Y-80142500D01*
G37*
D10*
G36*
X107492231Y-66059195D02*
G01*
X107311076Y-66059195D01*
X107270515Y-66038914D01*
X107255369Y-66023767D01*
X107235088Y-65983207D01*
X107235088Y-65916134D01*
X107255369Y-65875574D01*
X107265298Y-65865644D01*
X107341792Y-65840147D01*
X107492231Y-65840147D01*
X107492231Y-66059195D01*
G37*
G36*
X107492231Y-65640147D02*
G01*
X107349172Y-65640147D01*
X107308609Y-65619866D01*
X107293464Y-65604720D01*
X107273184Y-65564159D01*
X107273184Y-65535182D01*
X107293464Y-65494621D01*
X107308609Y-65479475D01*
X107349172Y-65459195D01*
X107492231Y-65459195D01*
X107492231Y-65640147D01*
G37*
G36*
X108601855Y-66373481D02*
G01*
X106120802Y-66373481D01*
X106120802Y-66006814D01*
X106235088Y-66006814D01*
X106242212Y-66028740D01*
X106245646Y-66051536D01*
X106283742Y-66127726D01*
X106295112Y-66139270D01*
X106302472Y-66153714D01*
X106340567Y-66191810D01*
X106355010Y-66199169D01*
X106366558Y-66210543D01*
X106442748Y-66248638D01*
X106465545Y-66252071D01*
X106487469Y-66259195D01*
X106639850Y-66259195D01*
X106661773Y-66252071D01*
X106684571Y-66248638D01*
X106760762Y-66210543D01*
X106772310Y-66199169D01*
X106786753Y-66191810D01*
X106824847Y-66153714D01*
X106832204Y-66139273D01*
X106843579Y-66127725D01*
X106881674Y-66051535D01*
X106885107Y-66028737D01*
X106892231Y-66006814D01*
X107035088Y-66006814D01*
X107042212Y-66028740D01*
X107045646Y-66051536D01*
X107083742Y-66127726D01*
X107095112Y-66139270D01*
X107102472Y-66153714D01*
X107140567Y-66191810D01*
X107155010Y-66199169D01*
X107166558Y-66210543D01*
X107242748Y-66248638D01*
X107265545Y-66252071D01*
X107287469Y-66259195D01*
X107592231Y-66259195D01*
X107607294Y-66254301D01*
X107623133Y-66254301D01*
X107635946Y-66244991D01*
X107651010Y-66240097D01*
X107660319Y-66227283D01*
X107673133Y-66217974D01*
X107678027Y-66202910D01*
X107687337Y-66190097D01*
X107687337Y-66174257D01*
X107692231Y-66159195D01*
X107692231Y-65359195D01*
X107687337Y-65344132D01*
X107687337Y-65329016D01*
X107763560Y-65329016D01*
X107764030Y-65390818D01*
X108030696Y-66190818D01*
X108048618Y-66215096D01*
X108066173Y-66239648D01*
X108066927Y-66239899D01*
X108067401Y-66240541D01*
X108096195Y-66249656D01*
X108124805Y-66259193D01*
X108125564Y-66258952D01*
X108126323Y-66259193D01*
X108154961Y-66249646D01*
X108183727Y-66240541D01*
X108184199Y-66239900D01*
X108184955Y-66239649D01*
X108202521Y-66215081D01*
X108220432Y-66190818D01*
X108487099Y-65390818D01*
X108487569Y-65329016D01*
X108451622Y-65278742D01*
X108392990Y-65259198D01*
X108334068Y-65277849D01*
X108297363Y-65327572D01*
X108125564Y-65842967D01*
X107953766Y-65327572D01*
X107917061Y-65277849D01*
X107858139Y-65259197D01*
X107799507Y-65278742D01*
X107763560Y-65329016D01*
X107687337Y-65329016D01*
X107687337Y-65328293D01*
X107678027Y-65315479D01*
X107673133Y-65300416D01*
X107660319Y-65291106D01*
X107651010Y-65278293D01*
X107635946Y-65273398D01*
X107623133Y-65264089D01*
X107607294Y-65264089D01*
X107592231Y-65259195D01*
X107325565Y-65259195D01*
X107303641Y-65266318D01*
X107280844Y-65269752D01*
X107204653Y-65307847D01*
X107193103Y-65319221D01*
X107178663Y-65326580D01*
X107140568Y-65364674D01*
X107133209Y-65379116D01*
X107121836Y-65390664D01*
X107083741Y-65466855D01*
X107080307Y-65489652D01*
X107073184Y-65511576D01*
X107073184Y-65587766D01*
X107080307Y-65609689D01*
X107083741Y-65632487D01*
X107121836Y-65708678D01*
X107130561Y-65717537D01*
X107102472Y-65745628D01*
X107095112Y-65760071D01*
X107083742Y-65771616D01*
X107045646Y-65847806D01*
X107042212Y-65870601D01*
X107035088Y-65892528D01*
X107035088Y-66006814D01*
X106892231Y-66006814D01*
X106892231Y-65359195D01*
X106873133Y-65300416D01*
X106823133Y-65264089D01*
X106761329Y-65264089D01*
X106711329Y-65300416D01*
X106692231Y-65359195D01*
X106692231Y-65983206D01*
X106671950Y-66023767D01*
X106656803Y-66038915D01*
X106616243Y-66059195D01*
X106511076Y-66059195D01*
X106470515Y-66038914D01*
X106455369Y-66023767D01*
X106435088Y-65983207D01*
X106435088Y-65359195D01*
X106415990Y-65300416D01*
X106365990Y-65264089D01*
X106304186Y-65264089D01*
X106254186Y-65300416D01*
X106235088Y-65359195D01*
X106235088Y-66006814D01*
X106120802Y-66006814D01*
X106120802Y-65144909D01*
X108601855Y-65144909D01*
X108601855Y-66373481D01*
G37*
D11*
G36*
X104367087Y-79507710D02*
G01*
X104387970Y-79528593D01*
X104412704Y-79578061D01*
X104412704Y-79790118D01*
X104143657Y-79790118D01*
X104143657Y-79578060D01*
X104168391Y-79528593D01*
X104189274Y-79507709D01*
X104238743Y-79482975D01*
X104317618Y-79482975D01*
X104367087Y-79507710D01*
G37*
G36*
X104676990Y-80054404D02*
G01*
X103498418Y-80054404D01*
X103498418Y-79401449D01*
X103612988Y-79401449D01*
X103626273Y-79451002D01*
X103644694Y-79469417D01*
X103993657Y-79713691D01*
X103993657Y-79790118D01*
X103687704Y-79790118D01*
X103639495Y-79807665D01*
X103613843Y-79852094D01*
X103622752Y-79902618D01*
X103662052Y-79935595D01*
X103687704Y-79940118D01*
X104487704Y-79940118D01*
X104506012Y-79933454D01*
X104525204Y-79930070D01*
X104529554Y-79924885D01*
X104535913Y-79922571D01*
X104545655Y-79905697D01*
X104558181Y-79890770D01*
X104559898Y-79881027D01*
X104561565Y-79878142D01*
X104560986Y-79874859D01*
X104562704Y-79865118D01*
X104562704Y-79560356D01*
X104561170Y-79556142D01*
X104562212Y-79551782D01*
X104554786Y-79526815D01*
X104516691Y-79450625D01*
X104515501Y-79449499D01*
X104502642Y-79431133D01*
X104464547Y-79393038D01*
X104463062Y-79392345D01*
X104445055Y-79378989D01*
X104368864Y-79340893D01*
X104364410Y-79340380D01*
X104360975Y-79337498D01*
X104335323Y-79332975D01*
X104221038Y-79332975D01*
X104216824Y-79334508D01*
X104212463Y-79333467D01*
X104187496Y-79340893D01*
X104111306Y-79378989D01*
X104110180Y-79380178D01*
X104091814Y-79393038D01*
X104053719Y-79431133D01*
X104053028Y-79432614D01*
X104039670Y-79450625D01*
X104001575Y-79526815D01*
X104001062Y-79531268D01*
X103998679Y-79534108D01*
X103730714Y-79346533D01*
X103681157Y-79333262D01*
X103634663Y-79354949D01*
X103612988Y-79401449D01*
X103498418Y-79401449D01*
X103498418Y-78912737D01*
X103612704Y-78912737D01*
X103614237Y-78916950D01*
X103613196Y-78921312D01*
X103620622Y-78946278D01*
X103658718Y-79022469D01*
X103659907Y-79023594D01*
X103672767Y-79041961D01*
X103710862Y-79080056D01*
X103712343Y-79080747D01*
X103730354Y-79094105D01*
X103806544Y-79132200D01*
X103810997Y-79132712D01*
X103814433Y-79135595D01*
X103840085Y-79140118D01*
X104487704Y-79140118D01*
X104535913Y-79122571D01*
X104561565Y-79078142D01*
X104552656Y-79027618D01*
X104513356Y-78994641D01*
X104487704Y-78990118D01*
X103857790Y-78990118D01*
X103808322Y-78965384D01*
X103787439Y-78944501D01*
X103762704Y-78895031D01*
X103762703Y-78778062D01*
X103787438Y-78728593D01*
X103808321Y-78707710D01*
X103857791Y-78682975D01*
X104487704Y-78682975D01*
X104535913Y-78665428D01*
X104561565Y-78620999D01*
X104552656Y-78570475D01*
X104513356Y-78537498D01*
X104487704Y-78532975D01*
X103840085Y-78532975D01*
X103835870Y-78534508D01*
X103831509Y-78533467D01*
X103806543Y-78540894D01*
X103730353Y-78578989D01*
X103729225Y-78580180D01*
X103710862Y-78593038D01*
X103672767Y-78631133D01*
X103672074Y-78632617D01*
X103658718Y-78650625D01*
X103620622Y-78726814D01*
X103620109Y-78731268D01*
X103617227Y-78734704D01*
X103612704Y-78760356D01*
X103612704Y-78912737D01*
X103498418Y-78912737D01*
X103498418Y-77770214D01*
X103612705Y-77770214D01*
X103619395Y-77788345D01*
X103622752Y-77807380D01*
X103628064Y-77811837D01*
X103630465Y-77818344D01*
X103650494Y-77834998D01*
X104205288Y-78152023D01*
X103687704Y-78152023D01*
X103639495Y-78169570D01*
X103613843Y-78213999D01*
X103622752Y-78264523D01*
X103662052Y-78297500D01*
X103687704Y-78302023D01*
X104487704Y-78302023D01*
X104494220Y-78299651D01*
X104501056Y-78300825D01*
X104517753Y-78291085D01*
X104535913Y-78284476D01*
X104539380Y-78278470D01*
X104545372Y-78274976D01*
X104551901Y-78256784D01*
X104561565Y-78240047D01*
X104560360Y-78233215D01*
X104562703Y-78226689D01*
X104556012Y-78208557D01*
X104552656Y-78189523D01*
X104547343Y-78185065D01*
X104544943Y-78178559D01*
X104524914Y-78161905D01*
X103970120Y-77844880D01*
X104487704Y-77844880D01*
X104535913Y-77827333D01*
X104561565Y-77782904D01*
X104552656Y-77732380D01*
X104513356Y-77699403D01*
X104487704Y-77694880D01*
X103687704Y-77694880D01*
X103681187Y-77697251D01*
X103674352Y-77696078D01*
X103657654Y-77705817D01*
X103639495Y-77712427D01*
X103636027Y-77718432D01*
X103630036Y-77721927D01*
X103623506Y-77740118D01*
X103613843Y-77756856D01*
X103615047Y-77763687D01*
X103612705Y-77770214D01*
X103498418Y-77770214D01*
X103498418Y-77580594D01*
X104676990Y-77580594D01*
X104676990Y-80054404D01*
G37*
D10*
G36*
X107492231Y-73759195D02*
G01*
X107417982Y-73759195D01*
X107341487Y-73733697D01*
X107293465Y-73685674D01*
X107267535Y-73633814D01*
X107235088Y-73504027D01*
X107235088Y-73414362D01*
X107267535Y-73284574D01*
X107293464Y-73232716D01*
X107341488Y-73184692D01*
X107417982Y-73159195D01*
X107492231Y-73159195D01*
X107492231Y-73759195D01*
G37*
G36*
X108177298Y-73530623D02*
G01*
X108073831Y-73530623D01*
X108125564Y-73375422D01*
X108177298Y-73530623D01*
G37*
G36*
X108601855Y-74073481D02*
G01*
X106158898Y-74073481D01*
X106158898Y-73287766D01*
X106273184Y-73287766D01*
X106278192Y-73303181D01*
X106278316Y-73319389D01*
X106316411Y-73433675D01*
X106330101Y-73452221D01*
X106340568Y-73472763D01*
X106627000Y-73759195D01*
X106373184Y-73759195D01*
X106314405Y-73778293D01*
X106278078Y-73828293D01*
X106278078Y-73890097D01*
X106314405Y-73940097D01*
X106373184Y-73959195D01*
X106868422Y-73959195D01*
X106890689Y-73951959D01*
X106913821Y-73948296D01*
X106919526Y-73942590D01*
X106927201Y-73940097D01*
X106940966Y-73921150D01*
X106957523Y-73904594D01*
X106958785Y-73896624D01*
X106963528Y-73890097D01*
X106963528Y-73866683D01*
X106967192Y-73843552D01*
X106963528Y-73836361D01*
X106963528Y-73828293D01*
X106949764Y-73809348D01*
X106939133Y-73788484D01*
X106666987Y-73516338D01*
X107035088Y-73516338D01*
X107038934Y-73528175D01*
X107038074Y-73540592D01*
X107076170Y-73692973D01*
X107082081Y-73702419D01*
X107083741Y-73713440D01*
X107121836Y-73789630D01*
X107133210Y-73801178D01*
X107140568Y-73815619D01*
X107216758Y-73891810D01*
X107237299Y-73902277D01*
X107255846Y-73915968D01*
X107370133Y-73954063D01*
X107386339Y-73954186D01*
X107401755Y-73959195D01*
X107592231Y-73959195D01*
X107607294Y-73954301D01*
X107623133Y-73954301D01*
X107635946Y-73944991D01*
X107651010Y-73940097D01*
X107660319Y-73927283D01*
X107673133Y-73917974D01*
X107678027Y-73902910D01*
X107687337Y-73890097D01*
X107687337Y-73889374D01*
X107763560Y-73889374D01*
X107799507Y-73939648D01*
X107858139Y-73959193D01*
X107917061Y-73940541D01*
X107953766Y-73890818D01*
X108007164Y-73730623D01*
X108243965Y-73730623D01*
X108297363Y-73890818D01*
X108334068Y-73940541D01*
X108392990Y-73959192D01*
X108451622Y-73939648D01*
X108487569Y-73889374D01*
X108487099Y-73827572D01*
X108220432Y-73027572D01*
X108202521Y-73003308D01*
X108184955Y-72978741D01*
X108184199Y-72978489D01*
X108183727Y-72977849D01*
X108154961Y-72968743D01*
X108126323Y-72959197D01*
X108125563Y-72959437D01*
X108124805Y-72959197D01*
X108096195Y-72968733D01*
X108067401Y-72977849D01*
X108066927Y-72978490D01*
X108066173Y-72978742D01*
X108048618Y-73003293D01*
X108030696Y-73027572D01*
X107764030Y-73827572D01*
X107763560Y-73889374D01*
X107687337Y-73889374D01*
X107687337Y-73874257D01*
X107692231Y-73859195D01*
X107692231Y-73059195D01*
X107687337Y-73044132D01*
X107687337Y-73028293D01*
X107678027Y-73015479D01*
X107673133Y-73000416D01*
X107660319Y-72991106D01*
X107651010Y-72978293D01*
X107635946Y-72973398D01*
X107623133Y-72964089D01*
X107607294Y-72964089D01*
X107592231Y-72959195D01*
X107401755Y-72959195D01*
X107386339Y-72964203D01*
X107370133Y-72964327D01*
X107255846Y-73002422D01*
X107237299Y-73016112D01*
X107216758Y-73026579D01*
X107140568Y-73102769D01*
X107133209Y-73117211D01*
X107121836Y-73128759D01*
X107083741Y-73204950D01*
X107082081Y-73215970D01*
X107076170Y-73225417D01*
X107038074Y-73377798D01*
X107038934Y-73390214D01*
X107035088Y-73402052D01*
X107035088Y-73516338D01*
X106666987Y-73516338D01*
X106498681Y-73348032D01*
X106473184Y-73271539D01*
X106473184Y-73235182D01*
X106493464Y-73194621D01*
X106508609Y-73179475D01*
X106549172Y-73159195D01*
X106692434Y-73159195D01*
X106732995Y-73179475D01*
X106759617Y-73206096D01*
X106814685Y-73234154D01*
X106875727Y-73224485D01*
X106919429Y-73180783D01*
X106929096Y-73119740D01*
X106901037Y-73064673D01*
X106862941Y-73026578D01*
X106848498Y-73019219D01*
X106836952Y-73007847D01*
X106760762Y-72969752D01*
X106737964Y-72966318D01*
X106716041Y-72959195D01*
X106525565Y-72959195D01*
X106503641Y-72966318D01*
X106480844Y-72969752D01*
X106404653Y-73007847D01*
X106393103Y-73019221D01*
X106378663Y-73026580D01*
X106340568Y-73064674D01*
X106333209Y-73079116D01*
X106321836Y-73090664D01*
X106283741Y-73166855D01*
X106280307Y-73189652D01*
X106273184Y-73211576D01*
X106273184Y-73287766D01*
X106158898Y-73287766D01*
X106158898Y-72844909D01*
X108601855Y-72844909D01*
X108601855Y-74073481D01*
G37*
G36*
X106539850Y-63559195D02*
G01*
X106465601Y-63559195D01*
X106389106Y-63533697D01*
X106341084Y-63485674D01*
X106315154Y-63433814D01*
X106282707Y-63304027D01*
X106282707Y-63214362D01*
X106315154Y-63084574D01*
X106341083Y-63032716D01*
X106389107Y-62984692D01*
X106465601Y-62959195D01*
X106539850Y-62959195D01*
X106539850Y-63559195D01*
G37*
G36*
X108530327Y-63873481D02*
G01*
X105968421Y-63873481D01*
X105968421Y-63316338D01*
X106082707Y-63316338D01*
X106086553Y-63328175D01*
X106085693Y-63340592D01*
X106123789Y-63492973D01*
X106129700Y-63502419D01*
X106131360Y-63513440D01*
X106169455Y-63589630D01*
X106180829Y-63601178D01*
X106188187Y-63615619D01*
X106264377Y-63691810D01*
X106284918Y-63702277D01*
X106303465Y-63715968D01*
X106417752Y-63754063D01*
X106433958Y-63754186D01*
X106449374Y-63759195D01*
X106639850Y-63759195D01*
X106654913Y-63754301D01*
X106670752Y-63754301D01*
X106683565Y-63744991D01*
X106698629Y-63740097D01*
X106707938Y-63727283D01*
X106720752Y-63717974D01*
X106725646Y-63702910D01*
X106734956Y-63690097D01*
X106734956Y-63674257D01*
X106739850Y-63659195D01*
X106920802Y-63659195D01*
X106922546Y-63664563D01*
X106921397Y-63670091D01*
X106931956Y-63693527D01*
X106939900Y-63717974D01*
X106944467Y-63721292D01*
X106946786Y-63726438D01*
X106969100Y-63739189D01*
X106989900Y-63754301D01*
X106995545Y-63754301D01*
X107000447Y-63757102D01*
X107026001Y-63754301D01*
X107051704Y-63754301D01*
X107056270Y-63750983D01*
X107061882Y-63750368D01*
X107080905Y-63733085D01*
X107101704Y-63717974D01*
X107103448Y-63712604D01*
X107107626Y-63708809D01*
X107377944Y-63235750D01*
X107377945Y-63659195D01*
X107397043Y-63717974D01*
X107447043Y-63754301D01*
X107508847Y-63754301D01*
X107558847Y-63717974D01*
X107577945Y-63659195D01*
X107577945Y-63583004D01*
X107720802Y-63583004D01*
X107723295Y-63590677D01*
X107722033Y-63598647D01*
X107732663Y-63619511D01*
X107739900Y-63641783D01*
X107746428Y-63646525D01*
X107750091Y-63653715D01*
X107788187Y-63691811D01*
X107808728Y-63702277D01*
X107827275Y-63715968D01*
X107941560Y-63754063D01*
X107957767Y-63754186D01*
X107973183Y-63759195D01*
X108049374Y-63759195D01*
X108064789Y-63754186D01*
X108080997Y-63754063D01*
X108195283Y-63715968D01*
X108213831Y-63702275D01*
X108234371Y-63691810D01*
X108310561Y-63615619D01*
X108317919Y-63601177D01*
X108329293Y-63589630D01*
X108367388Y-63513440D01*
X108369047Y-63502419D01*
X108374959Y-63492973D01*
X108413055Y-63340592D01*
X108412194Y-63328175D01*
X108416041Y-63316338D01*
X108416041Y-63202052D01*
X108412194Y-63190214D01*
X108413055Y-63177798D01*
X108374959Y-63025417D01*
X108369047Y-63015970D01*
X108367388Y-63004950D01*
X108329293Y-62928759D01*
X108317919Y-62917211D01*
X108310561Y-62902769D01*
X108234371Y-62826579D01*
X108213829Y-62816112D01*
X108195283Y-62802422D01*
X108080997Y-62764327D01*
X108064789Y-62764203D01*
X108049374Y-62759195D01*
X107935088Y-62759195D01*
X107913164Y-62766318D01*
X107890367Y-62769752D01*
X107814177Y-62807847D01*
X107770144Y-62851216D01*
X107760013Y-62912183D01*
X107787652Y-62967462D01*
X107842505Y-62995938D01*
X107903619Y-62986733D01*
X107958695Y-62959195D01*
X108033147Y-62959195D01*
X108109640Y-62984692D01*
X108157664Y-63032716D01*
X108183593Y-63084574D01*
X108216041Y-63214362D01*
X108216041Y-63304027D01*
X108183593Y-63433814D01*
X108157663Y-63485674D01*
X108109641Y-63533697D01*
X108033147Y-63559195D01*
X107989410Y-63559195D01*
X107920802Y-63536325D01*
X107920802Y-63416338D01*
X107973183Y-63416338D01*
X108031962Y-63397240D01*
X108068289Y-63347240D01*
X108068289Y-63285436D01*
X108031962Y-63235436D01*
X107973183Y-63216338D01*
X107820802Y-63216338D01*
X107805739Y-63221232D01*
X107789900Y-63221232D01*
X107777086Y-63230541D01*
X107762023Y-63235436D01*
X107752713Y-63248249D01*
X107739900Y-63257559D01*
X107735005Y-63272622D01*
X107725696Y-63285436D01*
X107725696Y-63301275D01*
X107720802Y-63316338D01*
X107720802Y-63583004D01*
X107577945Y-63583004D01*
X107577945Y-62859195D01*
X107576200Y-62853826D01*
X107577350Y-62848299D01*
X107566790Y-62824862D01*
X107558847Y-62800416D01*
X107554279Y-62797097D01*
X107551961Y-62791952D01*
X107529646Y-62779200D01*
X107508847Y-62764089D01*
X107503202Y-62764089D01*
X107498300Y-62761288D01*
X107472746Y-62764089D01*
X107447043Y-62764089D01*
X107442476Y-62767406D01*
X107436865Y-62768022D01*
X107417841Y-62785304D01*
X107397043Y-62800416D01*
X107395298Y-62805785D01*
X107391121Y-62809581D01*
X107120802Y-63282639D01*
X107120802Y-62859195D01*
X107101704Y-62800416D01*
X107051704Y-62764089D01*
X106989900Y-62764089D01*
X106939900Y-62800416D01*
X106920802Y-62859195D01*
X106920802Y-63659195D01*
X106739850Y-63659195D01*
X106739850Y-62859195D01*
X106734956Y-62844132D01*
X106734956Y-62828293D01*
X106725646Y-62815479D01*
X106720752Y-62800416D01*
X106707938Y-62791106D01*
X106698629Y-62778293D01*
X106683565Y-62773398D01*
X106670752Y-62764089D01*
X106654913Y-62764089D01*
X106639850Y-62759195D01*
X106449374Y-62759195D01*
X106433958Y-62764203D01*
X106417752Y-62764327D01*
X106303465Y-62802422D01*
X106284918Y-62816112D01*
X106264377Y-62826579D01*
X106188187Y-62902769D01*
X106180828Y-62917211D01*
X106169455Y-62928759D01*
X106131360Y-63004950D01*
X106129700Y-63015970D01*
X106123789Y-63025417D01*
X106085693Y-63177798D01*
X106086553Y-63190214D01*
X106082707Y-63202052D01*
X106082707Y-63316338D01*
X105968421Y-63316338D01*
X105968421Y-62644909D01*
X108530327Y-62644909D01*
X108530327Y-63873481D01*
G37*
G36*
X94677945Y-75928242D02*
G01*
X94496790Y-75928242D01*
X94456228Y-75907961D01*
X94441082Y-75892814D01*
X94420802Y-75852254D01*
X94420802Y-75785182D01*
X94441082Y-75744622D01*
X94456228Y-75729475D01*
X94496790Y-75709195D01*
X94677945Y-75709195D01*
X94677945Y-75928242D01*
G37*
G36*
X95830327Y-76623481D02*
G01*
X93344612Y-76623481D01*
X93344612Y-76256814D01*
X93458898Y-76256814D01*
X93466021Y-76278737D01*
X93469455Y-76301535D01*
X93507550Y-76377725D01*
X93518922Y-76389271D01*
X93526281Y-76403714D01*
X93564376Y-76441810D01*
X93578818Y-76449169D01*
X93590367Y-76460543D01*
X93666558Y-76498638D01*
X93689355Y-76502071D01*
X93711279Y-76509195D01*
X93901755Y-76509195D01*
X93923678Y-76502071D01*
X93946476Y-76498638D01*
X94022666Y-76460543D01*
X94034213Y-76449169D01*
X94048656Y-76441811D01*
X94086752Y-76403715D01*
X94114810Y-76348647D01*
X94105142Y-76287605D01*
X94061440Y-76243903D01*
X94000398Y-76234235D01*
X93945330Y-76262293D01*
X93918707Y-76288915D01*
X93878148Y-76309195D01*
X93734886Y-76309195D01*
X93694324Y-76288914D01*
X93679178Y-76273768D01*
X93658898Y-76233207D01*
X93658898Y-76089944D01*
X93679178Y-76049383D01*
X93694323Y-76034237D01*
X93734886Y-76013957D01*
X93878148Y-76013957D01*
X93918709Y-76034237D01*
X93945331Y-76060858D01*
X93970420Y-76073641D01*
X93994756Y-76087856D01*
X93997734Y-76087558D01*
X94000399Y-76088916D01*
X94028215Y-76084509D01*
X94056253Y-76081706D01*
X94058486Y-76079714D01*
X94061441Y-76079247D01*
X94081359Y-76059328D01*
X94102390Y-76040584D01*
X94103026Y-76037661D01*
X94105143Y-76035545D01*
X94109550Y-76007714D01*
X94115545Y-75980196D01*
X94105111Y-75875861D01*
X94220802Y-75875861D01*
X94227926Y-75897787D01*
X94231360Y-75920583D01*
X94269455Y-75996774D01*
X94280829Y-76008321D01*
X94288187Y-76022763D01*
X94326282Y-76060857D01*
X94340723Y-76068215D01*
X94352272Y-76079590D01*
X94428462Y-76117685D01*
X94451259Y-76121118D01*
X94473183Y-76128242D01*
X94677945Y-76128242D01*
X94677945Y-76409195D01*
X94697043Y-76467974D01*
X94747043Y-76504301D01*
X94808847Y-76504301D01*
X94858847Y-76467974D01*
X94877945Y-76409195D01*
X94877945Y-76333004D01*
X95020802Y-76333004D01*
X95023295Y-76340677D01*
X95022033Y-76348647D01*
X95032663Y-76369511D01*
X95039900Y-76391783D01*
X95046428Y-76396525D01*
X95050091Y-76403715D01*
X95088187Y-76441811D01*
X95108728Y-76452277D01*
X95127275Y-76465968D01*
X95241560Y-76504063D01*
X95257767Y-76504186D01*
X95273183Y-76509195D01*
X95349374Y-76509195D01*
X95364789Y-76504186D01*
X95380997Y-76504063D01*
X95495283Y-76465968D01*
X95513831Y-76452275D01*
X95534371Y-76441810D01*
X95610561Y-76365619D01*
X95617919Y-76351177D01*
X95629293Y-76339630D01*
X95667388Y-76263440D01*
X95669047Y-76252419D01*
X95674959Y-76242973D01*
X95713055Y-76090592D01*
X95712194Y-76078175D01*
X95716041Y-76066338D01*
X95716041Y-75952052D01*
X95712194Y-75940214D01*
X95713055Y-75927798D01*
X95674959Y-75775417D01*
X95669047Y-75765970D01*
X95667388Y-75754950D01*
X95629293Y-75678759D01*
X95617919Y-75667211D01*
X95610561Y-75652769D01*
X95534371Y-75576579D01*
X95513829Y-75566112D01*
X95495283Y-75552422D01*
X95380997Y-75514327D01*
X95364789Y-75514203D01*
X95349374Y-75509195D01*
X95235088Y-75509195D01*
X95213164Y-75516318D01*
X95190367Y-75519752D01*
X95114177Y-75557847D01*
X95070144Y-75601216D01*
X95060013Y-75662183D01*
X95087652Y-75717462D01*
X95142505Y-75745938D01*
X95203619Y-75736733D01*
X95258695Y-75709195D01*
X95333147Y-75709195D01*
X95409640Y-75734692D01*
X95457664Y-75782716D01*
X95483593Y-75834574D01*
X95516041Y-75964362D01*
X95516041Y-76054027D01*
X95483593Y-76183814D01*
X95457663Y-76235674D01*
X95409641Y-76283697D01*
X95333147Y-76309195D01*
X95289410Y-76309195D01*
X95220802Y-76286325D01*
X95220802Y-76166338D01*
X95273183Y-76166338D01*
X95331962Y-76147240D01*
X95368289Y-76097240D01*
X95368289Y-76035436D01*
X95331962Y-75985436D01*
X95273183Y-75966338D01*
X95120802Y-75966338D01*
X95105739Y-75971232D01*
X95089900Y-75971232D01*
X95077086Y-75980541D01*
X95062023Y-75985436D01*
X95052713Y-75998249D01*
X95039900Y-76007559D01*
X95035005Y-76022622D01*
X95025696Y-76035436D01*
X95025696Y-76051275D01*
X95020802Y-76066338D01*
X95020802Y-76333004D01*
X94877945Y-76333004D01*
X94877945Y-75609195D01*
X94873051Y-75594132D01*
X94873051Y-75578293D01*
X94863741Y-75565479D01*
X94858847Y-75550416D01*
X94846033Y-75541106D01*
X94836724Y-75528293D01*
X94821660Y-75523398D01*
X94808847Y-75514089D01*
X94793008Y-75514089D01*
X94777945Y-75509195D01*
X94473183Y-75509195D01*
X94451259Y-75516318D01*
X94428462Y-75519752D01*
X94352272Y-75557847D01*
X94340723Y-75569221D01*
X94326282Y-75576580D01*
X94288187Y-75614674D01*
X94280829Y-75629115D01*
X94269455Y-75640663D01*
X94231360Y-75716854D01*
X94227926Y-75739649D01*
X94220802Y-75761576D01*
X94220802Y-75875861D01*
X94105111Y-75875861D01*
X94077449Y-75599244D01*
X94073050Y-75589230D01*
X94073051Y-75578293D01*
X94060905Y-75561576D01*
X94052597Y-75542658D01*
X94043152Y-75537141D01*
X94036724Y-75528293D01*
X94017072Y-75521908D01*
X93999230Y-75511486D01*
X93988346Y-75512574D01*
X93977945Y-75509195D01*
X93596993Y-75509195D01*
X93538214Y-75528293D01*
X93501887Y-75578293D01*
X93501887Y-75640097D01*
X93538214Y-75690097D01*
X93596993Y-75709195D01*
X93887446Y-75709195D01*
X93897923Y-75813957D01*
X93711279Y-75813957D01*
X93689355Y-75821080D01*
X93666558Y-75824514D01*
X93590367Y-75862609D01*
X93578817Y-75873983D01*
X93564377Y-75881342D01*
X93526282Y-75919436D01*
X93518923Y-75933878D01*
X93507550Y-75945426D01*
X93469455Y-76021617D01*
X93466021Y-76044414D01*
X93458898Y-76066338D01*
X93458898Y-76256814D01*
X93344612Y-76256814D01*
X93344612Y-75394909D01*
X95830327Y-75394909D01*
X95830327Y-76623481D01*
G37*
D11*
G36*
X101321052Y-77890644D02*
G01*
X101378992Y-77919614D01*
X101434056Y-77974678D01*
X101462704Y-78060620D01*
X101462704Y-78163927D01*
X100812704Y-78163927D01*
X100812704Y-78060621D01*
X100841352Y-77974678D01*
X100896417Y-77919614D01*
X100954355Y-77890644D01*
X101089796Y-77856784D01*
X101185612Y-77856784D01*
X101321052Y-77890644D01*
G37*
G36*
X101726990Y-80142500D02*
G01*
X100548418Y-80142500D01*
X100548418Y-79838928D01*
X100662704Y-79838928D01*
X100663263Y-79840466D01*
X100666553Y-79862645D01*
X100704649Y-79976931D01*
X100736541Y-80017117D01*
X100786802Y-80027403D01*
X100831915Y-80002974D01*
X100850772Y-79955262D01*
X100846951Y-79929496D01*
X100812704Y-79826757D01*
X100812704Y-79666157D01*
X100837439Y-79616687D01*
X100858321Y-79595805D01*
X100907790Y-79571071D01*
X100948571Y-79571071D01*
X100998039Y-79595805D01*
X101018922Y-79616688D01*
X101047892Y-79674628D01*
X101083991Y-79819023D01*
X101085979Y-79821967D01*
X101089670Y-79834374D01*
X101127765Y-79910564D01*
X101128954Y-79911689D01*
X101141814Y-79930056D01*
X101179909Y-79968151D01*
X101181394Y-79968843D01*
X101199401Y-79982200D01*
X101275591Y-80020296D01*
X101280045Y-80020808D01*
X101283481Y-80023691D01*
X101309133Y-80028214D01*
X101385323Y-80028214D01*
X101389536Y-80026680D01*
X101393898Y-80027722D01*
X101418864Y-80020296D01*
X101495055Y-79982200D01*
X101496180Y-79981010D01*
X101514547Y-79968151D01*
X101552642Y-79930056D01*
X101553333Y-79928574D01*
X101566691Y-79910564D01*
X101604786Y-79834374D01*
X101605298Y-79829920D01*
X101608181Y-79826485D01*
X101612704Y-79800833D01*
X101612704Y-79610356D01*
X101612143Y-79608817D01*
X101608855Y-79586639D01*
X101570760Y-79472354D01*
X101538869Y-79432168D01*
X101488608Y-79421882D01*
X101443494Y-79446311D01*
X101424637Y-79494022D01*
X101428458Y-79519788D01*
X101462704Y-79622525D01*
X101462704Y-79783128D01*
X101437970Y-79832595D01*
X101417087Y-79853478D01*
X101367618Y-79878214D01*
X101326838Y-79878214D01*
X101277369Y-79853479D01*
X101256486Y-79832596D01*
X101227516Y-79774657D01*
X101191418Y-79630262D01*
X101189429Y-79627318D01*
X101185739Y-79614910D01*
X101147643Y-79538720D01*
X101146453Y-79537594D01*
X101133594Y-79519228D01*
X101095499Y-79481133D01*
X101094017Y-79480442D01*
X101076007Y-79467084D01*
X100999817Y-79428989D01*
X100995363Y-79428476D01*
X100991928Y-79425594D01*
X100966276Y-79421071D01*
X100890085Y-79421071D01*
X100885871Y-79422604D01*
X100881511Y-79421563D01*
X100856544Y-79428989D01*
X100780354Y-79467084D01*
X100779228Y-79468273D01*
X100760862Y-79481133D01*
X100722767Y-79519228D01*
X100722074Y-79520712D01*
X100708718Y-79538720D01*
X100670622Y-79614911D01*
X100670109Y-79619364D01*
X100667227Y-79622800D01*
X100662704Y-79648452D01*
X100662704Y-79838928D01*
X100548418Y-79838928D01*
X100548418Y-78738604D01*
X100662835Y-78738604D01*
X100665959Y-78745826D01*
X100665283Y-78753664D01*
X100675880Y-78768760D01*
X100683204Y-78785690D01*
X100690238Y-78789213D01*
X100694759Y-78795654D01*
X100718379Y-78806634D01*
X101018053Y-78886547D01*
X100718379Y-78966460D01*
X100711927Y-78970965D01*
X100704113Y-78971871D01*
X100691439Y-78985276D01*
X100676319Y-78995837D01*
X100674274Y-79003431D01*
X100668868Y-79009150D01*
X100667776Y-79027563D01*
X100662981Y-79045375D01*
X100666298Y-79052511D01*
X100665833Y-79060364D01*
X100676829Y-79075167D01*
X100684607Y-79091898D01*
X100691735Y-79095232D01*
X100696426Y-79101547D01*
X100720332Y-79111888D01*
X101520332Y-79302364D01*
X101571295Y-79296461D01*
X101606540Y-79259182D01*
X101609575Y-79207968D01*
X101578982Y-79166785D01*
X101555075Y-79156444D01*
X101044219Y-79034811D01*
X101328458Y-78959015D01*
X101334080Y-78955087D01*
X101340911Y-78954482D01*
X101354616Y-78940744D01*
X101370518Y-78929638D01*
X101372300Y-78923019D01*
X101377145Y-78918163D01*
X101378813Y-78898829D01*
X101383856Y-78880100D01*
X101380965Y-78873881D01*
X101381555Y-78867049D01*
X101370407Y-78851168D01*
X101362230Y-78833577D01*
X101356018Y-78830671D01*
X101352079Y-78825059D01*
X101328458Y-78814079D01*
X101044219Y-78738282D01*
X101555075Y-78616650D01*
X101597909Y-78588414D01*
X101612573Y-78539252D01*
X101592204Y-78492166D01*
X101546334Y-78469188D01*
X101520332Y-78470730D01*
X100720332Y-78661206D01*
X100713763Y-78665535D01*
X100705926Y-78666231D01*
X100692896Y-78679291D01*
X100677499Y-78689442D01*
X100675250Y-78696980D01*
X100669693Y-78702551D01*
X100668107Y-78720927D01*
X100662835Y-78738604D01*
X100548418Y-78738604D01*
X100548418Y-78238927D01*
X100662704Y-78238927D01*
X100669367Y-78257235D01*
X100672752Y-78276427D01*
X100677936Y-78280777D01*
X100680251Y-78287136D01*
X100697124Y-78296878D01*
X100712052Y-78309404D01*
X100721794Y-78311121D01*
X100724680Y-78312788D01*
X100727962Y-78312209D01*
X100737704Y-78313927D01*
X101537704Y-78313927D01*
X101556012Y-78307263D01*
X101575204Y-78303879D01*
X101579554Y-78298694D01*
X101585913Y-78296380D01*
X101595655Y-78279506D01*
X101608181Y-78264579D01*
X101609898Y-78254836D01*
X101611565Y-78251951D01*
X101610986Y-78248668D01*
X101612704Y-78238927D01*
X101612704Y-78048451D01*
X101612143Y-78046912D01*
X101608855Y-78024734D01*
X101570760Y-77910448D01*
X101567973Y-77906937D01*
X101567583Y-77902469D01*
X101552642Y-77881132D01*
X101476452Y-77804942D01*
X101474970Y-77804251D01*
X101456960Y-77790893D01*
X101380769Y-77752798D01*
X101377242Y-77752392D01*
X101365419Y-77747119D01*
X101213038Y-77709023D01*
X101209589Y-77709383D01*
X101194847Y-77706784D01*
X101080561Y-77706784D01*
X101077303Y-77707969D01*
X101062371Y-77709023D01*
X100909989Y-77747119D01*
X100907043Y-77749108D01*
X100894639Y-77752798D01*
X100818449Y-77790893D01*
X100817325Y-77792079D01*
X100798957Y-77804942D01*
X100722767Y-77881132D01*
X100720871Y-77885196D01*
X100717052Y-77887543D01*
X100704649Y-77910448D01*
X100666553Y-78024734D01*
X100666597Y-78026368D01*
X100662704Y-78048451D01*
X100662704Y-78238927D01*
X100548418Y-78238927D01*
X100548418Y-77592498D01*
X101726990Y-77592498D01*
X101726990Y-80142500D01*
G37*
D10*
G36*
X93842518Y-62929475D02*
G01*
X93857664Y-62944620D01*
X93883593Y-62996479D01*
X93916041Y-63126267D01*
X93916041Y-63292122D01*
X93883593Y-63421909D01*
X93857664Y-63473767D01*
X93842517Y-63488915D01*
X93801957Y-63509195D01*
X93772981Y-63509195D01*
X93732419Y-63488914D01*
X93717273Y-63473768D01*
X93691344Y-63421909D01*
X93658898Y-63292124D01*
X93658898Y-63126265D01*
X93691344Y-62996480D01*
X93717273Y-62944621D01*
X93732418Y-62929475D01*
X93772981Y-62909195D01*
X93801957Y-62909195D01*
X93842518Y-62929475D01*
G37*
G36*
X94677945Y-63128242D02*
G01*
X94496790Y-63128242D01*
X94456228Y-63107961D01*
X94441082Y-63092814D01*
X94420802Y-63052254D01*
X94420802Y-62985182D01*
X94441082Y-62944622D01*
X94456228Y-62929475D01*
X94496790Y-62909195D01*
X94677945Y-62909195D01*
X94677945Y-63128242D01*
G37*
G36*
X95830327Y-63823481D02*
G01*
X93344612Y-63823481D01*
X93344612Y-63304433D01*
X93458898Y-63304433D01*
X93462744Y-63316270D01*
X93461884Y-63328686D01*
X93499979Y-63481068D01*
X93505890Y-63490514D01*
X93507550Y-63501535D01*
X93545645Y-63577725D01*
X93557017Y-63589271D01*
X93564376Y-63603714D01*
X93602471Y-63641810D01*
X93616913Y-63649169D01*
X93628462Y-63660543D01*
X93704653Y-63698638D01*
X93727450Y-63702071D01*
X93749374Y-63709195D01*
X93825564Y-63709195D01*
X93847487Y-63702071D01*
X93870285Y-63698638D01*
X93946476Y-63660543D01*
X93958024Y-63649169D01*
X93972467Y-63641810D01*
X94010561Y-63603714D01*
X94017918Y-63589273D01*
X94029293Y-63577725D01*
X94067388Y-63501535D01*
X94069047Y-63490514D01*
X94074959Y-63481068D01*
X94113055Y-63328687D01*
X94112194Y-63316270D01*
X94116041Y-63304433D01*
X94116041Y-63113957D01*
X94112194Y-63102119D01*
X94113055Y-63089703D01*
X94109594Y-63075861D01*
X94220802Y-63075861D01*
X94227926Y-63097787D01*
X94231360Y-63120583D01*
X94269455Y-63196774D01*
X94280829Y-63208321D01*
X94288187Y-63222763D01*
X94326282Y-63260857D01*
X94340723Y-63268215D01*
X94352272Y-63279590D01*
X94428462Y-63317685D01*
X94451259Y-63321118D01*
X94473183Y-63328242D01*
X94677945Y-63328242D01*
X94677945Y-63609195D01*
X94697043Y-63667974D01*
X94747043Y-63704301D01*
X94808847Y-63704301D01*
X94858847Y-63667974D01*
X94877945Y-63609195D01*
X94877945Y-63533004D01*
X95020802Y-63533004D01*
X95023295Y-63540677D01*
X95022033Y-63548647D01*
X95032663Y-63569511D01*
X95039900Y-63591783D01*
X95046428Y-63596525D01*
X95050091Y-63603715D01*
X95088187Y-63641811D01*
X95108728Y-63652277D01*
X95127275Y-63665968D01*
X95241560Y-63704063D01*
X95257767Y-63704186D01*
X95273183Y-63709195D01*
X95349374Y-63709195D01*
X95364789Y-63704186D01*
X95380997Y-63704063D01*
X95495283Y-63665968D01*
X95513831Y-63652275D01*
X95534371Y-63641810D01*
X95610561Y-63565619D01*
X95617919Y-63551177D01*
X95629293Y-63539630D01*
X95667388Y-63463440D01*
X95669047Y-63452419D01*
X95674959Y-63442973D01*
X95713055Y-63290592D01*
X95712194Y-63278175D01*
X95716041Y-63266338D01*
X95716041Y-63152052D01*
X95712194Y-63140214D01*
X95713055Y-63127798D01*
X95674959Y-62975417D01*
X95669047Y-62965970D01*
X95667388Y-62954950D01*
X95629293Y-62878759D01*
X95617919Y-62867211D01*
X95610561Y-62852769D01*
X95534371Y-62776579D01*
X95513829Y-62766112D01*
X95495283Y-62752422D01*
X95380997Y-62714327D01*
X95364789Y-62714203D01*
X95349374Y-62709195D01*
X95235088Y-62709195D01*
X95213164Y-62716318D01*
X95190367Y-62719752D01*
X95114177Y-62757847D01*
X95070144Y-62801216D01*
X95060013Y-62862183D01*
X95087652Y-62917462D01*
X95142505Y-62945938D01*
X95203619Y-62936733D01*
X95258695Y-62909195D01*
X95333147Y-62909195D01*
X95409640Y-62934692D01*
X95457664Y-62982716D01*
X95483593Y-63034574D01*
X95516041Y-63164362D01*
X95516041Y-63254027D01*
X95483593Y-63383814D01*
X95457663Y-63435674D01*
X95409641Y-63483697D01*
X95333147Y-63509195D01*
X95289410Y-63509195D01*
X95220802Y-63486325D01*
X95220802Y-63366338D01*
X95273183Y-63366338D01*
X95331962Y-63347240D01*
X95368289Y-63297240D01*
X95368289Y-63235436D01*
X95331962Y-63185436D01*
X95273183Y-63166338D01*
X95120802Y-63166338D01*
X95105739Y-63171232D01*
X95089900Y-63171232D01*
X95077086Y-63180541D01*
X95062023Y-63185436D01*
X95052713Y-63198249D01*
X95039900Y-63207559D01*
X95035005Y-63222622D01*
X95025696Y-63235436D01*
X95025696Y-63251275D01*
X95020802Y-63266338D01*
X95020802Y-63533004D01*
X94877945Y-63533004D01*
X94877945Y-62809195D01*
X94873051Y-62794132D01*
X94873051Y-62778293D01*
X94863741Y-62765479D01*
X94858847Y-62750416D01*
X94846033Y-62741106D01*
X94836724Y-62728293D01*
X94821660Y-62723398D01*
X94808847Y-62714089D01*
X94793008Y-62714089D01*
X94777945Y-62709195D01*
X94473183Y-62709195D01*
X94451259Y-62716318D01*
X94428462Y-62719752D01*
X94352272Y-62757847D01*
X94340723Y-62769221D01*
X94326282Y-62776580D01*
X94288187Y-62814674D01*
X94280829Y-62829115D01*
X94269455Y-62840663D01*
X94231360Y-62916854D01*
X94227926Y-62939649D01*
X94220802Y-62961576D01*
X94220802Y-63075861D01*
X94109594Y-63075861D01*
X94074959Y-62937322D01*
X94069047Y-62927875D01*
X94067388Y-62916855D01*
X94029293Y-62840664D01*
X94017918Y-62829114D01*
X94010560Y-62814674D01*
X93972466Y-62776579D01*
X93958023Y-62769220D01*
X93946476Y-62757847D01*
X93870285Y-62719752D01*
X93847487Y-62716318D01*
X93825564Y-62709195D01*
X93749374Y-62709195D01*
X93727450Y-62716318D01*
X93704653Y-62719752D01*
X93628462Y-62757847D01*
X93616912Y-62769221D01*
X93602472Y-62776580D01*
X93564377Y-62814674D01*
X93557018Y-62829116D01*
X93545645Y-62840664D01*
X93507550Y-62916855D01*
X93505890Y-62927875D01*
X93499979Y-62937322D01*
X93461884Y-63089704D01*
X93462744Y-63102119D01*
X93458898Y-63113957D01*
X93458898Y-63304433D01*
X93344612Y-63304433D01*
X93344612Y-62594909D01*
X95830327Y-62594909D01*
X95830327Y-63823481D01*
G37*
G36*
X94677945Y-70728242D02*
G01*
X94496790Y-70728242D01*
X94456228Y-70707961D01*
X94441082Y-70692814D01*
X94420802Y-70652254D01*
X94420802Y-70585182D01*
X94441082Y-70544622D01*
X94456228Y-70529475D01*
X94496790Y-70509195D01*
X94677945Y-70509195D01*
X94677945Y-70728242D01*
G37*
G36*
X95830327Y-71423481D02*
G01*
X93344612Y-71423481D01*
X93344612Y-71056814D01*
X93458898Y-71056814D01*
X93466021Y-71078737D01*
X93469455Y-71101535D01*
X93507550Y-71177725D01*
X93518922Y-71189271D01*
X93526281Y-71203714D01*
X93564376Y-71241810D01*
X93578818Y-71249169D01*
X93590367Y-71260543D01*
X93666558Y-71298638D01*
X93689355Y-71302071D01*
X93711279Y-71309195D01*
X93939850Y-71309195D01*
X93961773Y-71302071D01*
X93984571Y-71298638D01*
X94060762Y-71260543D01*
X94072310Y-71249169D01*
X94086753Y-71241810D01*
X94124847Y-71203714D01*
X94152905Y-71148646D01*
X94143236Y-71087604D01*
X94099534Y-71043902D01*
X94038491Y-71034235D01*
X93983424Y-71062294D01*
X93956803Y-71088915D01*
X93916243Y-71109195D01*
X93734886Y-71109195D01*
X93694324Y-71088914D01*
X93679178Y-71073768D01*
X93658898Y-71033207D01*
X93658898Y-70889944D01*
X93679178Y-70849383D01*
X93694323Y-70834237D01*
X93734886Y-70813957D01*
X93825564Y-70813957D01*
X93844793Y-70807708D01*
X93864936Y-70805881D01*
X93873509Y-70798378D01*
X93884343Y-70794859D01*
X93896228Y-70778500D01*
X93911448Y-70765183D01*
X93913974Y-70754074D01*
X93920670Y-70744859D01*
X93920670Y-70724637D01*
X93925155Y-70704919D01*
X93920670Y-70694447D01*
X93920670Y-70683055D01*
X93915443Y-70675861D01*
X94220802Y-70675861D01*
X94227926Y-70697787D01*
X94231360Y-70720583D01*
X94269455Y-70796774D01*
X94280829Y-70808321D01*
X94288187Y-70822763D01*
X94326282Y-70860857D01*
X94340723Y-70868215D01*
X94352272Y-70879590D01*
X94428462Y-70917685D01*
X94451259Y-70921118D01*
X94473183Y-70928242D01*
X94677945Y-70928242D01*
X94677945Y-71209195D01*
X94697043Y-71267974D01*
X94747043Y-71304301D01*
X94808847Y-71304301D01*
X94858847Y-71267974D01*
X94877945Y-71209195D01*
X94877945Y-71133004D01*
X95020802Y-71133004D01*
X95023295Y-71140677D01*
X95022033Y-71148647D01*
X95032663Y-71169511D01*
X95039900Y-71191783D01*
X95046428Y-71196525D01*
X95050091Y-71203715D01*
X95088187Y-71241811D01*
X95108728Y-71252277D01*
X95127275Y-71265968D01*
X95241560Y-71304063D01*
X95257767Y-71304186D01*
X95273183Y-71309195D01*
X95349374Y-71309195D01*
X95364789Y-71304186D01*
X95380997Y-71304063D01*
X95495283Y-71265968D01*
X95513831Y-71252275D01*
X95534371Y-71241810D01*
X95610561Y-71165619D01*
X95617919Y-71151177D01*
X95629293Y-71139630D01*
X95667388Y-71063440D01*
X95669047Y-71052419D01*
X95674959Y-71042973D01*
X95713055Y-70890592D01*
X95712194Y-70878175D01*
X95716041Y-70866338D01*
X95716041Y-70752052D01*
X95712194Y-70740214D01*
X95713055Y-70727798D01*
X95674959Y-70575417D01*
X95669047Y-70565970D01*
X95667388Y-70554950D01*
X95629293Y-70478759D01*
X95617919Y-70467211D01*
X95610561Y-70452769D01*
X95534371Y-70376579D01*
X95513829Y-70366112D01*
X95495283Y-70352422D01*
X95380997Y-70314327D01*
X95364789Y-70314203D01*
X95349374Y-70309195D01*
X95235088Y-70309195D01*
X95213164Y-70316318D01*
X95190367Y-70319752D01*
X95114177Y-70357847D01*
X95070144Y-70401216D01*
X95060013Y-70462183D01*
X95087652Y-70517462D01*
X95142505Y-70545938D01*
X95203619Y-70536733D01*
X95258695Y-70509195D01*
X95333147Y-70509195D01*
X95409640Y-70534692D01*
X95457664Y-70582716D01*
X95483593Y-70634574D01*
X95516041Y-70764362D01*
X95516041Y-70854027D01*
X95483593Y-70983814D01*
X95457663Y-71035674D01*
X95409641Y-71083697D01*
X95333147Y-71109195D01*
X95289410Y-71109195D01*
X95220802Y-71086325D01*
X95220802Y-70966338D01*
X95273183Y-70966338D01*
X95331962Y-70947240D01*
X95368289Y-70897240D01*
X95368289Y-70835436D01*
X95331962Y-70785436D01*
X95273183Y-70766338D01*
X95120802Y-70766338D01*
X95105739Y-70771232D01*
X95089900Y-70771232D01*
X95077086Y-70780541D01*
X95062023Y-70785436D01*
X95052713Y-70798249D01*
X95039900Y-70807559D01*
X95035005Y-70822622D01*
X95025696Y-70835436D01*
X95025696Y-70851275D01*
X95020802Y-70866338D01*
X95020802Y-71133004D01*
X94877945Y-71133004D01*
X94877945Y-70409195D01*
X94873051Y-70394132D01*
X94873051Y-70378293D01*
X94863741Y-70365479D01*
X94858847Y-70350416D01*
X94846033Y-70341106D01*
X94836724Y-70328293D01*
X94821660Y-70323398D01*
X94808847Y-70314089D01*
X94793008Y-70314089D01*
X94777945Y-70309195D01*
X94473183Y-70309195D01*
X94451259Y-70316318D01*
X94428462Y-70319752D01*
X94352272Y-70357847D01*
X94340723Y-70369221D01*
X94326282Y-70376580D01*
X94288187Y-70414674D01*
X94280829Y-70429115D01*
X94269455Y-70440663D01*
X94231360Y-70516854D01*
X94227926Y-70539649D01*
X94220802Y-70561576D01*
X94220802Y-70675861D01*
X93915443Y-70675861D01*
X93908782Y-70666693D01*
X93900822Y-70648107D01*
X93779274Y-70509195D01*
X94054136Y-70509195D01*
X94112915Y-70490097D01*
X94149242Y-70440097D01*
X94149242Y-70378293D01*
X94112915Y-70328293D01*
X94054136Y-70309195D01*
X93558898Y-70309195D01*
X93539667Y-70315443D01*
X93519527Y-70317271D01*
X93510953Y-70324772D01*
X93500119Y-70328293D01*
X93488233Y-70344652D01*
X93473014Y-70357969D01*
X93470487Y-70369077D01*
X93463792Y-70378293D01*
X93463792Y-70398514D01*
X93459307Y-70418233D01*
X93463792Y-70428704D01*
X93463792Y-70440097D01*
X93475679Y-70456458D01*
X93483640Y-70475045D01*
X93630291Y-70642647D01*
X93590367Y-70662609D01*
X93578817Y-70673983D01*
X93564377Y-70681342D01*
X93526282Y-70719436D01*
X93518923Y-70733878D01*
X93507550Y-70745426D01*
X93469455Y-70821617D01*
X93466021Y-70844414D01*
X93458898Y-70866338D01*
X93458898Y-71056814D01*
X93344612Y-71056814D01*
X93344612Y-70194909D01*
X95830327Y-70194909D01*
X95830327Y-71423481D01*
G37*
G36*
X108567191Y-68873481D02*
G01*
X106196993Y-68873481D01*
X106196993Y-68506814D01*
X106311279Y-68506814D01*
X106318402Y-68528737D01*
X106321836Y-68551535D01*
X106359931Y-68627725D01*
X106371303Y-68639271D01*
X106378662Y-68653714D01*
X106416757Y-68691810D01*
X106431199Y-68699169D01*
X106442748Y-68710543D01*
X106518939Y-68748638D01*
X106541736Y-68752071D01*
X106563660Y-68759195D01*
X106792231Y-68759195D01*
X106814154Y-68752071D01*
X106836952Y-68748638D01*
X106913143Y-68710543D01*
X106924691Y-68699169D01*
X106939134Y-68691810D01*
X106977228Y-68653714D01*
X107005286Y-68598646D01*
X106995617Y-68537604D01*
X106951915Y-68493902D01*
X106890872Y-68484235D01*
X106835805Y-68512294D01*
X106809184Y-68538915D01*
X106768624Y-68559195D01*
X106587267Y-68559195D01*
X106546705Y-68538914D01*
X106531559Y-68523768D01*
X106511279Y-68483207D01*
X106511279Y-68339944D01*
X106531559Y-68299383D01*
X106546704Y-68284237D01*
X106587267Y-68263957D01*
X106677945Y-68263957D01*
X106697174Y-68257708D01*
X106717317Y-68255881D01*
X106725890Y-68248378D01*
X106736724Y-68244859D01*
X106748609Y-68228500D01*
X106763829Y-68215183D01*
X106766355Y-68204074D01*
X106773051Y-68194859D01*
X106773051Y-68174637D01*
X106777536Y-68154919D01*
X106773051Y-68144447D01*
X106773051Y-68133055D01*
X106761163Y-68116693D01*
X106753203Y-68098107D01*
X106631655Y-67959195D01*
X106906517Y-67959195D01*
X106965296Y-67940097D01*
X107001623Y-67890097D01*
X107001623Y-67829016D01*
X107001655Y-67829016D01*
X107002125Y-67890818D01*
X107268791Y-68690818D01*
X107286713Y-68715096D01*
X107304268Y-68739648D01*
X107305022Y-68739899D01*
X107305496Y-68740541D01*
X107334290Y-68749656D01*
X107362900Y-68759193D01*
X107363659Y-68758952D01*
X107364418Y-68759193D01*
X107393056Y-68749646D01*
X107421822Y-68740541D01*
X107422294Y-68739900D01*
X107423050Y-68739649D01*
X107440616Y-68715081D01*
X107458527Y-68690818D01*
X107519862Y-68506814D01*
X107758898Y-68506814D01*
X107766021Y-68528737D01*
X107769455Y-68551535D01*
X107807550Y-68627725D01*
X107818922Y-68639271D01*
X107826281Y-68653714D01*
X107864376Y-68691810D01*
X107878818Y-68699169D01*
X107890367Y-68710543D01*
X107966558Y-68748638D01*
X107989355Y-68752071D01*
X108011279Y-68759195D01*
X108239850Y-68759195D01*
X108261773Y-68752071D01*
X108284571Y-68748638D01*
X108360762Y-68710543D01*
X108372310Y-68699169D01*
X108386753Y-68691810D01*
X108424847Y-68653714D01*
X108452905Y-68598646D01*
X108443236Y-68537604D01*
X108399534Y-68493902D01*
X108338491Y-68484235D01*
X108283424Y-68512294D01*
X108256803Y-68538915D01*
X108216243Y-68559195D01*
X108034886Y-68559195D01*
X107994324Y-68538914D01*
X107979178Y-68523768D01*
X107958898Y-68483206D01*
X107958898Y-68339944D01*
X107979178Y-68299383D01*
X107994323Y-68284237D01*
X108034886Y-68263957D01*
X108125564Y-68263957D01*
X108144793Y-68257708D01*
X108164936Y-68255881D01*
X108173509Y-68248378D01*
X108184343Y-68244859D01*
X108196228Y-68228500D01*
X108211448Y-68215183D01*
X108213974Y-68204074D01*
X108220670Y-68194859D01*
X108220670Y-68174637D01*
X108225155Y-68154919D01*
X108220670Y-68144447D01*
X108220670Y-68133055D01*
X108208782Y-68116693D01*
X108200822Y-68098107D01*
X108079274Y-67959195D01*
X108354136Y-67959195D01*
X108412915Y-67940097D01*
X108449242Y-67890097D01*
X108449242Y-67828293D01*
X108412915Y-67778293D01*
X108354136Y-67759195D01*
X107858898Y-67759195D01*
X107839667Y-67765443D01*
X107819527Y-67767271D01*
X107810953Y-67774772D01*
X107800119Y-67778293D01*
X107788233Y-67794652D01*
X107773014Y-67807969D01*
X107770487Y-67819077D01*
X107763792Y-67828293D01*
X107763792Y-67848514D01*
X107759307Y-67868233D01*
X107763792Y-67878704D01*
X107763792Y-67890097D01*
X107775679Y-67906458D01*
X107783640Y-67925045D01*
X107930291Y-68092647D01*
X107890367Y-68112609D01*
X107878817Y-68123983D01*
X107864377Y-68131342D01*
X107826282Y-68169436D01*
X107818923Y-68183878D01*
X107807550Y-68195426D01*
X107769455Y-68271617D01*
X107766021Y-68294414D01*
X107758898Y-68316338D01*
X107758898Y-68506814D01*
X107519862Y-68506814D01*
X107725194Y-67890818D01*
X107725664Y-67829016D01*
X107689717Y-67778742D01*
X107631085Y-67759198D01*
X107572163Y-67777849D01*
X107535458Y-67827572D01*
X107363659Y-68342967D01*
X107191861Y-67827572D01*
X107155156Y-67777849D01*
X107096234Y-67759197D01*
X107037602Y-67778742D01*
X107001655Y-67829016D01*
X107001623Y-67829016D01*
X107001623Y-67828293D01*
X106965296Y-67778293D01*
X106906517Y-67759195D01*
X106411279Y-67759195D01*
X106392048Y-67765443D01*
X106371908Y-67767271D01*
X106363334Y-67774772D01*
X106352500Y-67778293D01*
X106340614Y-67794652D01*
X106325395Y-67807969D01*
X106322868Y-67819077D01*
X106316173Y-67828293D01*
X106316173Y-67848514D01*
X106311688Y-67868233D01*
X106316172Y-67878704D01*
X106316173Y-67890097D01*
X106328060Y-67906458D01*
X106336021Y-67925045D01*
X106482672Y-68092647D01*
X106442748Y-68112609D01*
X106431198Y-68123983D01*
X106416758Y-68131342D01*
X106378663Y-68169436D01*
X106371304Y-68183878D01*
X106359931Y-68195426D01*
X106321836Y-68271617D01*
X106318402Y-68294414D01*
X106311279Y-68316338D01*
X106311279Y-68506814D01*
X106196993Y-68506814D01*
X106196993Y-67644909D01*
X108567191Y-67644909D01*
X108567191Y-68873481D01*
G37*
G36*
X94677945Y-73328242D02*
G01*
X94496790Y-73328242D01*
X94456228Y-73307961D01*
X94441082Y-73292814D01*
X94420802Y-73252254D01*
X94420802Y-73185182D01*
X94441082Y-73144622D01*
X94456228Y-73129475D01*
X94496790Y-73109195D01*
X94677945Y-73109195D01*
X94677945Y-73328242D01*
G37*
G36*
X95830327Y-74023481D02*
G01*
X93311410Y-74023481D01*
X93311410Y-73573430D01*
X93425696Y-73573430D01*
X93462023Y-73623430D01*
X93520802Y-73642528D01*
X93535088Y-73642528D01*
X93535088Y-73809195D01*
X93554186Y-73867974D01*
X93604186Y-73904301D01*
X93665990Y-73904301D01*
X93715990Y-73867974D01*
X93735088Y-73809195D01*
X93735088Y-73642528D01*
X94016041Y-73642528D01*
X94016420Y-73642404D01*
X94016800Y-73642525D01*
X94045727Y-73632882D01*
X94074820Y-73623430D01*
X94075054Y-73623106D01*
X94075432Y-73622981D01*
X94093172Y-73598169D01*
X94111147Y-73573430D01*
X94111147Y-73573031D01*
X94111379Y-73572707D01*
X94111147Y-73542200D01*
X94111147Y-73511626D01*
X94110912Y-73511302D01*
X94110909Y-73510905D01*
X94032561Y-73275861D01*
X94220802Y-73275861D01*
X94227926Y-73297787D01*
X94231360Y-73320583D01*
X94269455Y-73396774D01*
X94280829Y-73408321D01*
X94288187Y-73422763D01*
X94326282Y-73460857D01*
X94340723Y-73468215D01*
X94352272Y-73479590D01*
X94428462Y-73517685D01*
X94451259Y-73521118D01*
X94473183Y-73528242D01*
X94677945Y-73528242D01*
X94677945Y-73809195D01*
X94697043Y-73867974D01*
X94747043Y-73904301D01*
X94808847Y-73904301D01*
X94858847Y-73867974D01*
X94877945Y-73809195D01*
X94877945Y-73733004D01*
X95020802Y-73733004D01*
X95023295Y-73740677D01*
X95022033Y-73748647D01*
X95032663Y-73769511D01*
X95039900Y-73791783D01*
X95046428Y-73796525D01*
X95050091Y-73803715D01*
X95088187Y-73841811D01*
X95108728Y-73852277D01*
X95127275Y-73865968D01*
X95241560Y-73904063D01*
X95257767Y-73904186D01*
X95273183Y-73909195D01*
X95349374Y-73909195D01*
X95364789Y-73904186D01*
X95380997Y-73904063D01*
X95495283Y-73865968D01*
X95513831Y-73852275D01*
X95534371Y-73841810D01*
X95610561Y-73765619D01*
X95617919Y-73751177D01*
X95629293Y-73739630D01*
X95667388Y-73663440D01*
X95669047Y-73652419D01*
X95674959Y-73642973D01*
X95713055Y-73490592D01*
X95712194Y-73478175D01*
X95716041Y-73466338D01*
X95716041Y-73352052D01*
X95712194Y-73340214D01*
X95713055Y-73327798D01*
X95674959Y-73175417D01*
X95669047Y-73165970D01*
X95667388Y-73154950D01*
X95629293Y-73078759D01*
X95617919Y-73067211D01*
X95610561Y-73052769D01*
X95534371Y-72976579D01*
X95513829Y-72966112D01*
X95495283Y-72952422D01*
X95380997Y-72914327D01*
X95364789Y-72914203D01*
X95349374Y-72909195D01*
X95235088Y-72909195D01*
X95213164Y-72916318D01*
X95190367Y-72919752D01*
X95114177Y-72957847D01*
X95070144Y-73001216D01*
X95060013Y-73062183D01*
X95087652Y-73117462D01*
X95142505Y-73145938D01*
X95203619Y-73136733D01*
X95258695Y-73109195D01*
X95333147Y-73109195D01*
X95409640Y-73134692D01*
X95457664Y-73182716D01*
X95483593Y-73234574D01*
X95516041Y-73364362D01*
X95516041Y-73454027D01*
X95483593Y-73583814D01*
X95457663Y-73635674D01*
X95409641Y-73683697D01*
X95333147Y-73709195D01*
X95289410Y-73709195D01*
X95220802Y-73686325D01*
X95220802Y-73566338D01*
X95273183Y-73566338D01*
X95331962Y-73547240D01*
X95368289Y-73497240D01*
X95368289Y-73435436D01*
X95331962Y-73385436D01*
X95273183Y-73366338D01*
X95120802Y-73366338D01*
X95105739Y-73371232D01*
X95089900Y-73371232D01*
X95077086Y-73380541D01*
X95062023Y-73385436D01*
X95052713Y-73398249D01*
X95039900Y-73407559D01*
X95035005Y-73422622D01*
X95025696Y-73435436D01*
X95025696Y-73451275D01*
X95020802Y-73466338D01*
X95020802Y-73733004D01*
X94877945Y-73733004D01*
X94877945Y-73009195D01*
X94873051Y-72994132D01*
X94873051Y-72978293D01*
X94863741Y-72965479D01*
X94858847Y-72950416D01*
X94846033Y-72941106D01*
X94836724Y-72928293D01*
X94821660Y-72923398D01*
X94808847Y-72914089D01*
X94793008Y-72914089D01*
X94777945Y-72909195D01*
X94473183Y-72909195D01*
X94451259Y-72916318D01*
X94428462Y-72919752D01*
X94352272Y-72957847D01*
X94340723Y-72969221D01*
X94326282Y-72976580D01*
X94288187Y-73014674D01*
X94280829Y-73029115D01*
X94269455Y-73040663D01*
X94231360Y-73116854D01*
X94227926Y-73139649D01*
X94220802Y-73161576D01*
X94220802Y-73275861D01*
X94032561Y-73275861D01*
X93920432Y-72939477D01*
X93883727Y-72889754D01*
X93824805Y-72871102D01*
X93766173Y-72890647D01*
X93730226Y-72940921D01*
X93730696Y-73002723D01*
X93877298Y-73442528D01*
X93735088Y-73442528D01*
X93735088Y-73275861D01*
X93715990Y-73217082D01*
X93665990Y-73180755D01*
X93604186Y-73180755D01*
X93554186Y-73217082D01*
X93535088Y-73275861D01*
X93535088Y-73442528D01*
X93520802Y-73442528D01*
X93462023Y-73461626D01*
X93425696Y-73511626D01*
X93425696Y-73573430D01*
X93311410Y-73573430D01*
X93311410Y-72756816D01*
X95830327Y-72756816D01*
X95830327Y-74023481D01*
G37*
D11*
X102109523Y-74412295D02*
X102109523Y-73878961D01*
X102109523Y-74031342D02*
X102071428Y-73955152D01*
X102071428Y-73955152D02*
X102033333Y-73917057D01*
X102033333Y-73917057D02*
X101957142Y-73878961D01*
X101957142Y-73878961D02*
X101880952Y-73878961D01*
X101195238Y-74412295D02*
X101652381Y-74412295D01*
X101423809Y-74412295D02*
X101423809Y-73612295D01*
X101423809Y-73612295D02*
X101500000Y-73726580D01*
X101500000Y-73726580D02*
X101576190Y-73802771D01*
X101576190Y-73802771D02*
X101652381Y-73840866D01*
X100852380Y-74336104D02*
X100814285Y-74374200D01*
X100814285Y-74374200D02*
X100852380Y-74412295D01*
X100852380Y-74412295D02*
X100890476Y-74374200D01*
X100890476Y-74374200D02*
X100852380Y-74336104D01*
X100852380Y-74336104D02*
X100852380Y-74412295D01*
X100509524Y-73688485D02*
X100471428Y-73650390D01*
X100471428Y-73650390D02*
X100395238Y-73612295D01*
X100395238Y-73612295D02*
X100204762Y-73612295D01*
X100204762Y-73612295D02*
X100128571Y-73650390D01*
X100128571Y-73650390D02*
X100090476Y-73688485D01*
X100090476Y-73688485D02*
X100052381Y-73764676D01*
X100052381Y-73764676D02*
X100052381Y-73840866D01*
X100052381Y-73840866D02*
X100090476Y-73955152D01*
X100090476Y-73955152D02*
X100547619Y-74412295D01*
X100547619Y-74412295D02*
X100052381Y-74412295D01*
D10*
G36*
X106656804Y-78379475D02*
G01*
X106671950Y-78394620D01*
X106697879Y-78446479D01*
X106730326Y-78576267D01*
X106730326Y-78742122D01*
X106697879Y-78871909D01*
X106671950Y-78923767D01*
X106656803Y-78938915D01*
X106616243Y-78959195D01*
X106587267Y-78959195D01*
X106546705Y-78938914D01*
X106531559Y-78923768D01*
X106505630Y-78871909D01*
X106473184Y-78742124D01*
X106473184Y-78576265D01*
X106505630Y-78446480D01*
X106531559Y-78394621D01*
X106546704Y-78379475D01*
X106587267Y-78359195D01*
X106616243Y-78359195D01*
X106656804Y-78379475D01*
G37*
G36*
X107492231Y-78959195D02*
G01*
X107417982Y-78959195D01*
X107341487Y-78933697D01*
X107293465Y-78885674D01*
X107267535Y-78833814D01*
X107235088Y-78704027D01*
X107235088Y-78614362D01*
X107267535Y-78484574D01*
X107293464Y-78432716D01*
X107341488Y-78384692D01*
X107417982Y-78359195D01*
X107492231Y-78359195D01*
X107492231Y-78959195D01*
G37*
G36*
X108177298Y-78730623D02*
G01*
X108073831Y-78730623D01*
X108125564Y-78575422D01*
X108177298Y-78730623D01*
G37*
G36*
X108601855Y-79273481D02*
G01*
X106158898Y-79273481D01*
X106158898Y-78754433D01*
X106273184Y-78754433D01*
X106277030Y-78766270D01*
X106276170Y-78778686D01*
X106314265Y-78931068D01*
X106320176Y-78940514D01*
X106321836Y-78951535D01*
X106359931Y-79027725D01*
X106371303Y-79039271D01*
X106378662Y-79053714D01*
X106416757Y-79091810D01*
X106431199Y-79099169D01*
X106442748Y-79110543D01*
X106518939Y-79148638D01*
X106541736Y-79152071D01*
X106563660Y-79159195D01*
X106639850Y-79159195D01*
X106661773Y-79152071D01*
X106684571Y-79148638D01*
X106760762Y-79110543D01*
X106772310Y-79099169D01*
X106786753Y-79091810D01*
X106824847Y-79053714D01*
X106832204Y-79039273D01*
X106843579Y-79027725D01*
X106881674Y-78951535D01*
X106883333Y-78940514D01*
X106889245Y-78931068D01*
X106927341Y-78778687D01*
X106926480Y-78766270D01*
X106930327Y-78754433D01*
X106930327Y-78716338D01*
X107035088Y-78716338D01*
X107038934Y-78728175D01*
X107038074Y-78740592D01*
X107076170Y-78892973D01*
X107082081Y-78902419D01*
X107083741Y-78913440D01*
X107121836Y-78989630D01*
X107133210Y-79001178D01*
X107140568Y-79015619D01*
X107216758Y-79091810D01*
X107237299Y-79102277D01*
X107255846Y-79115968D01*
X107370133Y-79154063D01*
X107386339Y-79154186D01*
X107401755Y-79159195D01*
X107592231Y-79159195D01*
X107607294Y-79154301D01*
X107623133Y-79154301D01*
X107635946Y-79144991D01*
X107651010Y-79140097D01*
X107660319Y-79127283D01*
X107673133Y-79117974D01*
X107678027Y-79102910D01*
X107687337Y-79090097D01*
X107687337Y-79089374D01*
X107763560Y-79089374D01*
X107799507Y-79139648D01*
X107858139Y-79159193D01*
X107917061Y-79140541D01*
X107953766Y-79090818D01*
X108007164Y-78930623D01*
X108243965Y-78930623D01*
X108297363Y-79090818D01*
X108334068Y-79140541D01*
X108392990Y-79159192D01*
X108451622Y-79139648D01*
X108487569Y-79089374D01*
X108487099Y-79027572D01*
X108220432Y-78227572D01*
X108202521Y-78203308D01*
X108184955Y-78178741D01*
X108184199Y-78178489D01*
X108183727Y-78177849D01*
X108154961Y-78168743D01*
X108126323Y-78159197D01*
X108125563Y-78159437D01*
X108124805Y-78159197D01*
X108096195Y-78168733D01*
X108067401Y-78177849D01*
X108066927Y-78178490D01*
X108066173Y-78178742D01*
X108048618Y-78203293D01*
X108030696Y-78227572D01*
X107764030Y-79027572D01*
X107763560Y-79089374D01*
X107687337Y-79089374D01*
X107687337Y-79074257D01*
X107692231Y-79059195D01*
X107692231Y-78259195D01*
X107687337Y-78244132D01*
X107687337Y-78228293D01*
X107678027Y-78215479D01*
X107673133Y-78200416D01*
X107660319Y-78191106D01*
X107651010Y-78178293D01*
X107635946Y-78173398D01*
X107623133Y-78164089D01*
X107607294Y-78164089D01*
X107592231Y-78159195D01*
X107401755Y-78159195D01*
X107386339Y-78164203D01*
X107370133Y-78164327D01*
X107255846Y-78202422D01*
X107237299Y-78216112D01*
X107216758Y-78226579D01*
X107140568Y-78302769D01*
X107133209Y-78317211D01*
X107121836Y-78328759D01*
X107083741Y-78404950D01*
X107082081Y-78415970D01*
X107076170Y-78425417D01*
X107038074Y-78577798D01*
X107038934Y-78590214D01*
X107035088Y-78602052D01*
X107035088Y-78716338D01*
X106930327Y-78716338D01*
X106930327Y-78563957D01*
X106926480Y-78552119D01*
X106927341Y-78539703D01*
X106889245Y-78387322D01*
X106883333Y-78377875D01*
X106881674Y-78366855D01*
X106843579Y-78290664D01*
X106832204Y-78279114D01*
X106824846Y-78264674D01*
X106786752Y-78226579D01*
X106772309Y-78219220D01*
X106760762Y-78207847D01*
X106684571Y-78169752D01*
X106661773Y-78166318D01*
X106639850Y-78159195D01*
X106563660Y-78159195D01*
X106541736Y-78166318D01*
X106518939Y-78169752D01*
X106442748Y-78207847D01*
X106431198Y-78219221D01*
X106416758Y-78226580D01*
X106378663Y-78264674D01*
X106371304Y-78279116D01*
X106359931Y-78290664D01*
X106321836Y-78366855D01*
X106320176Y-78377875D01*
X106314265Y-78387322D01*
X106276170Y-78539704D01*
X106277030Y-78552119D01*
X106273184Y-78563957D01*
X106273184Y-78754433D01*
X106158898Y-78754433D01*
X106158898Y-78044909D01*
X108601855Y-78044909D01*
X108601855Y-79273481D01*
G37*
G36*
X93880613Y-78634237D02*
G01*
X93895760Y-78649383D01*
X93916041Y-78689945D01*
X93916041Y-78833207D01*
X93895761Y-78873766D01*
X93880612Y-78888915D01*
X93840053Y-78909195D01*
X93734886Y-78909195D01*
X93694324Y-78888914D01*
X93679178Y-78873768D01*
X93658898Y-78833207D01*
X93658898Y-78689944D01*
X93679178Y-78649383D01*
X93694323Y-78634237D01*
X93734886Y-78613957D01*
X93840053Y-78613957D01*
X93880613Y-78634237D01*
G37*
G36*
X94677945Y-78528242D02*
G01*
X94496790Y-78528242D01*
X94456228Y-78507961D01*
X94441082Y-78492814D01*
X94420802Y-78452254D01*
X94420802Y-78385182D01*
X94441082Y-78344622D01*
X94456228Y-78329475D01*
X94496790Y-78309195D01*
X94677945Y-78309195D01*
X94677945Y-78528242D01*
G37*
G36*
X95830327Y-79223481D02*
G01*
X93344612Y-79223481D01*
X93344612Y-78856814D01*
X93458898Y-78856814D01*
X93466021Y-78878737D01*
X93469455Y-78901535D01*
X93507550Y-78977725D01*
X93518922Y-78989271D01*
X93526281Y-79003714D01*
X93564376Y-79041810D01*
X93578818Y-79049169D01*
X93590367Y-79060543D01*
X93666558Y-79098638D01*
X93689355Y-79102071D01*
X93711279Y-79109195D01*
X93863660Y-79109195D01*
X93885583Y-79102071D01*
X93908381Y-79098638D01*
X93984571Y-79060543D01*
X93996118Y-79049169D01*
X94010562Y-79041810D01*
X94048656Y-79003714D01*
X94056013Y-78989272D01*
X94067387Y-78977726D01*
X94105483Y-78901537D01*
X94108917Y-78878739D01*
X94116041Y-78856814D01*
X94116041Y-78552052D01*
X94112194Y-78540214D01*
X94113055Y-78527798D01*
X94100070Y-78475861D01*
X94220802Y-78475861D01*
X94227926Y-78497787D01*
X94231360Y-78520583D01*
X94269455Y-78596774D01*
X94280829Y-78608321D01*
X94288187Y-78622763D01*
X94326282Y-78660857D01*
X94340723Y-78668215D01*
X94352272Y-78679590D01*
X94428462Y-78717685D01*
X94451259Y-78721118D01*
X94473183Y-78728242D01*
X94677945Y-78728242D01*
X94677945Y-79009195D01*
X94697043Y-79067974D01*
X94747043Y-79104301D01*
X94808847Y-79104301D01*
X94858847Y-79067974D01*
X94877945Y-79009195D01*
X94877945Y-78933004D01*
X95020802Y-78933004D01*
X95023295Y-78940677D01*
X95022033Y-78948647D01*
X95032663Y-78969511D01*
X95039900Y-78991783D01*
X95046428Y-78996525D01*
X95050091Y-79003715D01*
X95088187Y-79041811D01*
X95108728Y-79052277D01*
X95127275Y-79065968D01*
X95241560Y-79104063D01*
X95257767Y-79104186D01*
X95273183Y-79109195D01*
X95349374Y-79109195D01*
X95364789Y-79104186D01*
X95380997Y-79104063D01*
X95495283Y-79065968D01*
X95513831Y-79052275D01*
X95534371Y-79041810D01*
X95610561Y-78965619D01*
X95617919Y-78951177D01*
X95629293Y-78939630D01*
X95667388Y-78863440D01*
X95669047Y-78852419D01*
X95674959Y-78842973D01*
X95713055Y-78690592D01*
X95712194Y-78678175D01*
X95716041Y-78666338D01*
X95716041Y-78552052D01*
X95712194Y-78540214D01*
X95713055Y-78527798D01*
X95674959Y-78375417D01*
X95669047Y-78365970D01*
X95667388Y-78354950D01*
X95629293Y-78278759D01*
X95617919Y-78267211D01*
X95610561Y-78252769D01*
X95534371Y-78176579D01*
X95513829Y-78166112D01*
X95495283Y-78152422D01*
X95380997Y-78114327D01*
X95364789Y-78114203D01*
X95349374Y-78109195D01*
X95235088Y-78109195D01*
X95213164Y-78116318D01*
X95190367Y-78119752D01*
X95114177Y-78157847D01*
X95070144Y-78201216D01*
X95060013Y-78262183D01*
X95087652Y-78317462D01*
X95142505Y-78345938D01*
X95203619Y-78336733D01*
X95258695Y-78309195D01*
X95333147Y-78309195D01*
X95409640Y-78334692D01*
X95457664Y-78382716D01*
X95483593Y-78434574D01*
X95516041Y-78564362D01*
X95516041Y-78654027D01*
X95483593Y-78783814D01*
X95457663Y-78835674D01*
X95409641Y-78883697D01*
X95333147Y-78909195D01*
X95289410Y-78909195D01*
X95220802Y-78886325D01*
X95220802Y-78766338D01*
X95273183Y-78766338D01*
X95331962Y-78747240D01*
X95368289Y-78697240D01*
X95368289Y-78635436D01*
X95331962Y-78585436D01*
X95273183Y-78566338D01*
X95120802Y-78566338D01*
X95105739Y-78571232D01*
X95089900Y-78571232D01*
X95077086Y-78580541D01*
X95062023Y-78585436D01*
X95052713Y-78598249D01*
X95039900Y-78607559D01*
X95035005Y-78622622D01*
X95025696Y-78635436D01*
X95025696Y-78651275D01*
X95020802Y-78666338D01*
X95020802Y-78933004D01*
X94877945Y-78933004D01*
X94877945Y-78209195D01*
X94873051Y-78194132D01*
X94873051Y-78178293D01*
X94863741Y-78165479D01*
X94858847Y-78150416D01*
X94846033Y-78141106D01*
X94836724Y-78128293D01*
X94821660Y-78123398D01*
X94808847Y-78114089D01*
X94793008Y-78114089D01*
X94777945Y-78109195D01*
X94473183Y-78109195D01*
X94451259Y-78116318D01*
X94428462Y-78119752D01*
X94352272Y-78157847D01*
X94340723Y-78169221D01*
X94326282Y-78176580D01*
X94288187Y-78214674D01*
X94280829Y-78229115D01*
X94269455Y-78240663D01*
X94231360Y-78316854D01*
X94227926Y-78339649D01*
X94220802Y-78361576D01*
X94220802Y-78475861D01*
X94100070Y-78475861D01*
X94074959Y-78375417D01*
X94065812Y-78360800D01*
X94061150Y-78344201D01*
X93984960Y-78229915D01*
X93977044Y-78223661D01*
X93972465Y-78214674D01*
X93934371Y-78176579D01*
X93919928Y-78169220D01*
X93908381Y-78157847D01*
X93832190Y-78119752D01*
X93809392Y-78116318D01*
X93787469Y-78109195D01*
X93635088Y-78109195D01*
X93576309Y-78128293D01*
X93539982Y-78178293D01*
X93539982Y-78240097D01*
X93576309Y-78290097D01*
X93635088Y-78309195D01*
X93763862Y-78309195D01*
X93804423Y-78329475D01*
X93824042Y-78349093D01*
X93868286Y-78415460D01*
X93863660Y-78413957D01*
X93711279Y-78413957D01*
X93689355Y-78421080D01*
X93666558Y-78424514D01*
X93590367Y-78462609D01*
X93578817Y-78473983D01*
X93564377Y-78481342D01*
X93526282Y-78519436D01*
X93518923Y-78533878D01*
X93507550Y-78545426D01*
X93469455Y-78621617D01*
X93466021Y-78644414D01*
X93458898Y-78666338D01*
X93458898Y-78856814D01*
X93344612Y-78856814D01*
X93344612Y-77994909D01*
X95830327Y-77994909D01*
X95830327Y-79223481D01*
G37*
D12*
%TO.C,TP3*%
X105050000Y-81667500D02*
G75*
G03*
X105050000Y-81667500I-950000J0D01*
G01*
%TO.C,TP2*%
X102150000Y-81667500D02*
G75*
G03*
X102150000Y-81667500I-950000J0D01*
G01*
%TO.C,TP1*%
X99150000Y-81667500D02*
G75*
G03*
X99150000Y-81667500I-950000J0D01*
G01*
%TD*%
M02*
