  0
SECTION
  2
HEADER
  9
$ANGBASE
  50
0.0
  9
$ANGDIR
  70
1
  9
$MEASUREMENT
  70
1
  0
ENDSEC
  0
SECTION
  2
TABLES
  0
TABLE
  2
LTYPE
  70
4
  0
LTYPE
  5
40F
  2
CONTINUOUS
  70
0
  3
Solid line
  72
65
  73
0
  40
0.0
  0
LTYPE
  5
410
  2
DASHDOT
 70
0
  3
Dash Dot ____ _ ____ _
 72
65
 73
4
 40
2.0
 49
1.25
 49
-0.25
 49
0.25
 49
-0.25
  0
LTYPE
  5
411
  2
DASHED
 70
0
  3
Dashed __ __ __ __ __
 72
65
 73
2
 40
0.75
 49
0.5
 49
-0.25
  0
LTYPE
  5
43B
  2
DOTTED
 70
0
  3
Dotted .  .  .  .
 72
65
 73
2
 40
0.2
 49
0.0
 49
-0.2
  0
ENDTAB
  0
TABLE
  2
STYLE
  70
4
  0
STYLE
  2
KICAD
  70
0
  40
0
  41
1
  42
1
  50
0
  71
0
  3
isocp.shx
  0
STYLE
  2
KICADB
  70
0
  40
0
  41
1
  42
1
  50
0
  71
0
  3
isocp.shx
  0
STYLE
  2
KICADI
  70
0
  40
0
  41
1
  42
1
  50
15
  71
0
  3
isocp.shx
  0
STYLE
  2
KICADBI
  70
0
  40
0
  41
1
  42
1
  50
15
  71
0
  3
isocp.shx
  0
ENDTAB
  0
TABLE
  2
LAYER
  70
1
  0
LAYER
  2
BLACK
  70
0
  62
7
  6
CONTINUOUS
  0
ENDTAB
  0
ENDSEC
  0
SECTION
  2
ENTITIES
0
LINE
8
BLACK
6
CONTINUOUS
10
92.87
20
-83.7675
11
109.23
21
-83.7675
0
LINE
8
BLACK
6
CONTINUOUS
10
109.23
20
-54.5675
11
92.87
21
-54.5675
0
LINE
8
BLACK
6
CONTINUOUS
10
111.23
20
-81.7675
11
111.23
21
-56.5675
0
ARC
8
BLACK
10
109.23
20
-81.7675
40
2
50
-90
51
-0
0
LINE
8
BLACK
6
CONTINUOUS
10
90.87
20
-56.5675
11
90.87
21
-81.7675
0
ARC
8
BLACK
10
109.23
20
-56.5675
40
2
50
-0
51
90
0
ARC
8
BLACK
10
92.87
20
-81.7675
40
2
50
-180
51
-90
0
ARC
8
BLACK
10
92.87
20
-56.5675
40
2
50
90
51
180
0
LINE
8
BLACK
6
CONTINUOUS
10
97.785
20
-59.6825
11
98.435
21
-60.3325
0
LINE
8
BLACK
6
CONTINUOUS
10
98.435
20
-59.6825
11
97.785
21
-60.3325
0
LINE
8
BLACK
6
CONTINUOUS
10
103.565
20
-59.6825
11
104.215
21
-60.3325
0
LINE
8
BLACK
6
CONTINUOUS
10
104.215
20
-59.6825
11
103.565
21
-60.3325
0
LINE
8
BLACK
6
CONTINUOUS
10
93.4278
20
-86.9323
11
93.4278
21
-84.9323
0
LINE
8
BLACK
6
CONTINUOUS
10
93.4278
20
-84.9323
11
93.904
21
-84.9323
0
LINE
8
BLACK
6
CONTINUOUS
10
93.904
20
-84.9323
11
94.1897
21
-85.0276
0
LINE
8
BLACK
6
CONTINUOUS
10
94.1897
20
-85.0276
11
94.3801
21
-85.2181
0
LINE
8
BLACK
6
CONTINUOUS
10
94.3801
20
-85.2181
11
94.4754
21
-85.4085
0
LINE
8
BLACK
6
CONTINUOUS
10
94.4754
20
-85.4085
11
94.5706
21
-85.7895
0
LINE
8
BLACK
6
CONTINUOUS
10
94.5706
20
-85.7895
11
94.5706
21
-86.0752
0
LINE
8
BLACK
6
CONTINUOUS
10
94.5706
20
-86.0752
11
94.4754
21
-86.4561
0
LINE
8
BLACK
6
CONTINUOUS
10
94.4754
20
-86.4561
11
94.3801
21
-86.6466
0
LINE
8
BLACK
6
CONTINUOUS
10
94.3801
20
-86.6466
11
94.1897
21
-86.8371
0
LINE
8
BLACK
6
CONTINUOUS
10
94.1897
20
-86.8371
11
93.904
21
-86.9323
0
LINE
8
BLACK
6
CONTINUOUS
10
93.904
20
-86.9323
11
93.4278
21
-86.9323
0
LINE
8
BLACK
6
CONTINUOUS
10
95.4278
20
-86.9323
11
95.4278
21
-85.599
0
LINE
8
BLACK
6
CONTINUOUS
10
95.4278
20
-85.98
11
95.523
21
-85.7895
0
LINE
8
BLACK
6
CONTINUOUS
10
95.523
20
-85.7895
11
95.6182
21
-85.6942
0
LINE
8
BLACK
6
CONTINUOUS
10
95.6182
20
-85.6942
11
95.8087
21
-85.599
0
LINE
8
BLACK
6
CONTINUOUS
10
95.8087
20
-85.599
11
95.9992
21
-85.599
0
LINE
8
BLACK
6
CONTINUOUS
10
96.6659
20
-86.9323
11
96.6659
21
-85.599
0
LINE
8
BLACK
6
CONTINUOUS
10
96.6659
20
-84.9323
11
96.5706
21
-85.0276
0
LINE
8
BLACK
6
CONTINUOUS
10
96.5706
20
-85.0276
11
96.6659
21
-85.1228
0
LINE
8
BLACK
6
CONTINUOUS
10
96.6659
20
-85.1228
11
96.7611
21
-85.0276
0
LINE
8
BLACK
6
CONTINUOUS
10
96.7611
20
-85.0276
11
96.6659
21
-84.9323
0
LINE
8
BLACK
6
CONTINUOUS
10
96.6659
20
-84.9323
11
96.6659
21
-85.1228
0
LINE
8
BLACK
6
CONTINUOUS
10
97.904
20
-86.9323
11
97.7135
21
-86.8371
0
LINE
8
BLACK
6
CONTINUOUS
10
97.7135
20
-86.8371
11
97.6182
21
-86.6466
0
LINE
8
BLACK
6
CONTINUOUS
10
97.6182
20
-86.6466
11
97.6182
21
-84.9323
0
LINE
8
BLACK
6
CONTINUOUS
10
98.9516
20
-86.9323
11
98.7611
21
-86.8371
0
LINE
8
BLACK
6
CONTINUOUS
10
98.7611
20
-86.8371
11
98.6659
21
-86.6466
0
LINE
8
BLACK
6
CONTINUOUS
10
98.6659
20
-86.6466
11
98.6659
21
-84.9323
0
LINE
8
BLACK
6
CONTINUOUS
10
101.237
20
-86.9323
11
101.237
21
-84.9323
0
LINE
8
BLACK
6
CONTINUOUS
10
101.237
20
-84.9323
11
101.904
21
-86.3609
0
LINE
8
BLACK
6
CONTINUOUS
10
101.904
20
-86.3609
11
102.571
21
-84.9323
0
LINE
8
BLACK
6
CONTINUOUS
10
102.571
20
-84.9323
11
102.571
21
-86.9323
0
LINE
8
BLACK
6
CONTINUOUS
10
104.38
20
-86.9323
11
104.38
21
-85.8847
0
LINE
8
BLACK
6
CONTINUOUS
10
104.38
20
-85.8847
11
104.285
21
-85.6942
0
LINE
8
BLACK
6
CONTINUOUS
10
104.285
20
-85.6942
11
104.094
21
-85.599
0
LINE
8
BLACK
6
CONTINUOUS
10
104.094
20
-85.599
11
103.713
21
-85.599
0
LINE
8
BLACK
6
CONTINUOUS
10
103.713
20
-85.599
11
103.523
21
-85.6942
0
LINE
8
BLACK
6
CONTINUOUS
10
104.38
20
-86.8371
11
104.19
21
-86.9323
0
LINE
8
BLACK
6
CONTINUOUS
10
104.19
20
-86.9323
11
103.713
21
-86.9323
0
LINE
8
BLACK
6
CONTINUOUS
10
103.713
20
-86.9323
11
103.523
21
-86.8371
0
LINE
8
BLACK
6
CONTINUOUS
10
103.523
20
-86.8371
11
103.428
21
-86.6466
0
LINE
8
BLACK
6
CONTINUOUS
10
103.428
20
-86.6466
11
103.428
21
-86.4561
0
LINE
8
BLACK
6
CONTINUOUS
10
103.428
20
-86.4561
11
103.523
21
-86.2657
0
LINE
8
BLACK
6
CONTINUOUS
10
103.523
20
-86.2657
11
103.713
21
-86.1704
0
LINE
8
BLACK
6
CONTINUOUS
10
103.713
20
-86.1704
11
104.19
21
-86.1704
0
LINE
8
BLACK
6
CONTINUOUS
10
104.19
20
-86.1704
11
104.38
21
-86.0752
0
LINE
8
BLACK
6
CONTINUOUS
10
105.333
20
-85.599
11
105.333
21
-87.599
0
LINE
8
BLACK
6
CONTINUOUS
10
105.333
20
-85.6942
11
105.523
21
-85.599
0
LINE
8
BLACK
6
CONTINUOUS
10
105.523
20
-85.599
11
105.904
21
-85.599
0
LINE
8
BLACK
6
CONTINUOUS
10
105.904
20
-85.599
11
106.094
21
-85.6942
0
LINE
8
BLACK
6
CONTINUOUS
10
106.094
20
-85.6942
11
106.19
21
-85.7895
0
LINE
8
BLACK
6
CONTINUOUS
10
106.19
20
-85.7895
11
106.285
21
-85.98
0
LINE
8
BLACK
6
CONTINUOUS
10
106.285
20
-85.98
11
106.285
21
-86.5514
0
LINE
8
BLACK
6
CONTINUOUS
10
106.285
20
-86.5514
11
106.19
21
-86.7419
0
LINE
8
BLACK
6
CONTINUOUS
10
106.19
20
-86.7419
11
106.094
21
-86.8371
0
LINE
8
BLACK
6
CONTINUOUS
10
106.094
20
-86.8371
11
105.904
21
-86.9323
0
LINE
8
BLACK
6
CONTINUOUS
10
105.904
20
-86.9323
11
105.523
21
-86.9323
0
LINE
8
BLACK
6
CONTINUOUS
10
105.523
20
-86.9323
11
105.333
21
-86.8371
0
LINE
8
BLACK
6
CONTINUOUS
10
107.142
20
-86.7419
11
107.237
21
-86.8371
0
LINE
8
BLACK
6
CONTINUOUS
10
107.237
20
-86.8371
11
107.142
21
-86.9323
0
LINE
8
BLACK
6
CONTINUOUS
10
107.142
20
-86.9323
11
107.047
21
-86.8371
0
LINE
8
BLACK
6
CONTINUOUS
10
107.047
20
-86.8371
11
107.142
21
-86.7419
0
LINE
8
BLACK
6
CONTINUOUS
10
107.142
20
-86.7419
11
107.142
21
-86.9323
0
LINE
8
BLACK
6
CONTINUOUS
10
107.142
20
-85.6942
11
107.237
21
-85.7895
0
LINE
8
BLACK
6
CONTINUOUS
10
107.237
20
-85.7895
11
107.142
21
-85.8847
0
LINE
8
BLACK
6
CONTINUOUS
10
107.142
20
-85.8847
11
107.047
21
-85.7895
0
LINE
8
BLACK
6
CONTINUOUS
10
107.047
20
-85.7895
11
107.142
21
-85.6942
0
LINE
8
BLACK
6
CONTINUOUS
10
107.142
20
-85.6942
11
107.142
21
-85.8847
0
LINE
8
BLACK
6
CONTINUOUS
10
90.17
20
-89.8925
11
90.82
21
-90.5425
0
LINE
8
BLACK
6
CONTINUOUS
10
90.82
20
-89.8925
11
90.17
21
-90.5425
0
LINE
8
BLACK
6
CONTINUOUS
10
93.8087
20
-89.1323
11
93.9992
21
-89.1323
0
LINE
8
BLACK
6
CONTINUOUS
10
93.9992
20
-89.1323
11
94.1897
21
-89.2276
0
LINE
8
BLACK
6
CONTINUOUS
10
94.1897
20
-89.2276
11
94.2849
21
-89.3228
0
LINE
8
BLACK
6
CONTINUOUS
10
94.2849
20
-89.3228
11
94.3801
21
-89.5133
0
LINE
8
BLACK
6
CONTINUOUS
10
94.3801
20
-89.5133
11
94.4754
21
-89.8942
0
LINE
8
BLACK
6
CONTINUOUS
10
94.4754
20
-89.8942
11
94.4754
21
-90.3704
0
LINE
8
BLACK
6
CONTINUOUS
10
94.4754
20
-90.3704
11
94.3801
21
-90.7514
0
LINE
8
BLACK
6
CONTINUOUS
10
94.3801
20
-90.7514
11
94.2849
21
-90.9419
0
LINE
8
BLACK
6
CONTINUOUS
10
94.2849
20
-90.9419
11
94.1897
21
-91.0371
0
LINE
8
BLACK
6
CONTINUOUS
10
94.1897
20
-91.0371
11
93.9992
21
-91.1323
0
LINE
8
BLACK
6
CONTINUOUS
10
93.9992
20
-91.1323
11
93.8087
21
-91.1323
0
LINE
8
BLACK
6
CONTINUOUS
10
93.8087
20
-91.1323
11
93.6182
21
-91.0371
0
LINE
8
BLACK
6
CONTINUOUS
10
93.6182
20
-91.0371
11
93.523
21
-90.9419
0
LINE
8
BLACK
6
CONTINUOUS
10
93.523
20
-90.9419
11
93.4278
21
-90.7514
0
LINE
8
BLACK
6
CONTINUOUS
10
93.4278
20
-90.7514
11
93.3325
21
-90.3704
0
LINE
8
BLACK
6
CONTINUOUS
10
93.3325
20
-90.3704
11
93.3325
21
-89.8942
0
LINE
8
BLACK
6
CONTINUOUS
10
93.3325
20
-89.8942
11
93.4278
21
-89.5133
0
LINE
8
BLACK
6
CONTINUOUS
10
93.4278
20
-89.5133
11
93.523
21
-89.3228
0
LINE
8
BLACK
6
CONTINUOUS
10
93.523
20
-89.3228
11
93.6182
21
-89.2276
0
LINE
8
BLACK
6
CONTINUOUS
10
93.6182
20
-89.2276
11
93.8087
21
-89.1323
0
LINE
8
BLACK
6
CONTINUOUS
10
95.3325
20
-90.9419
11
95.4278
21
-91.0371
0
LINE
8
BLACK
6
CONTINUOUS
10
95.4278
20
-91.0371
11
95.3325
21
-91.1323
0
LINE
8
BLACK
6
CONTINUOUS
10
95.3325
20
-91.1323
11
95.2373
21
-91.0371
0
LINE
8
BLACK
6
CONTINUOUS
10
95.2373
20
-91.0371
11
95.3325
21
-90.9419
0
LINE
8
BLACK
6
CONTINUOUS
10
95.3325
20
-90.9419
11
95.3325
21
-91.1323
0
LINE
8
BLACK
6
CONTINUOUS
10
97.1421
20
-89.1323
11
96.7611
21
-89.1323
0
LINE
8
BLACK
6
CONTINUOUS
10
96.7611
20
-89.1323
11
96.5706
21
-89.2276
0
LINE
8
BLACK
6
CONTINUOUS
10
96.5706
20
-89.2276
11
96.4754
21
-89.3228
0
LINE
8
BLACK
6
CONTINUOUS
10
96.4754
20
-89.3228
11
96.2849
21
-89.6085
0
LINE
8
BLACK
6
CONTINUOUS
10
96.2849
20
-89.6085
11
96.1897
21
-89.9895
0
LINE
8
BLACK
6
CONTINUOUS
10
96.1897
20
-89.9895
11
96.1897
21
-90.7514
0
LINE
8
BLACK
6
CONTINUOUS
10
96.1897
20
-90.7514
11
96.2849
21
-90.9419
0
LINE
8
BLACK
6
CONTINUOUS
10
96.2849
20
-90.9419
11
96.3801
21
-91.0371
0
LINE
8
BLACK
6
CONTINUOUS
10
96.3801
20
-91.0371
11
96.5706
21
-91.1323
0
LINE
8
BLACK
6
CONTINUOUS
10
96.5706
20
-91.1323
11
96.9516
21
-91.1323
0
LINE
8
BLACK
6
CONTINUOUS
10
96.9516
20
-91.1323
11
97.1421
21
-91.0371
0
LINE
8
BLACK
6
CONTINUOUS
10
97.1421
20
-91.0371
11
97.2373
21
-90.9419
0
LINE
8
BLACK
6
CONTINUOUS
10
97.2373
20
-90.9419
11
97.3325
21
-90.7514
0
LINE
8
BLACK
6
CONTINUOUS
10
97.3325
20
-90.7514
11
97.3325
21
-90.2752
0
LINE
8
BLACK
6
CONTINUOUS
10
97.3325
20
-90.2752
11
97.2373
21
-90.0847
0
LINE
8
BLACK
6
CONTINUOUS
10
97.2373
20
-90.0847
11
97.1421
21
-89.9895
0
LINE
8
BLACK
6
CONTINUOUS
10
97.1421
20
-89.9895
11
96.9516
21
-89.8942
0
LINE
8
BLACK
6
CONTINUOUS
10
96.9516
20
-89.8942
11
96.5706
21
-89.8942
0
LINE
8
BLACK
6
CONTINUOUS
10
96.5706
20
-89.8942
11
96.3801
21
-89.9895
0
LINE
8
BLACK
6
CONTINUOUS
10
96.3801
20
-89.9895
11
96.2849
21
-90.0847
0
LINE
8
BLACK
6
CONTINUOUS
10
96.2849
20
-90.0847
11
96.1897
21
-90.2752
0
LINE
8
BLACK
6
CONTINUOUS
10
99.1421
20
-89.1323
11
98.1897
21
-89.1323
0
LINE
8
BLACK
6
CONTINUOUS
10
98.1897
20
-89.1323
11
98.0944
21
-90.0847
0
LINE
8
BLACK
6
CONTINUOUS
10
98.0944
20
-90.0847
11
98.1897
21
-89.9895
0
LINE
8
BLACK
6
CONTINUOUS
10
98.1897
20
-89.9895
11
98.3801
21
-89.8942
0
LINE
8
BLACK
6
CONTINUOUS
10
98.3801
20
-89.8942
11
98.8563
21
-89.8942
0
LINE
8
BLACK
6
CONTINUOUS
10
98.8563
20
-89.8942
11
99.0468
21
-89.9895
0
LINE
8
BLACK
6
CONTINUOUS
10
99.0468
20
-89.9895
11
99.1421
21
-90.0847
0
LINE
8
BLACK
6
CONTINUOUS
10
99.1421
20
-90.0847
11
99.2373
21
-90.2752
0
LINE
8
BLACK
6
CONTINUOUS
10
99.2373
20
-90.2752
11
99.2373
21
-90.7514
0
LINE
8
BLACK
6
CONTINUOUS
10
99.2373
20
-90.7514
11
99.1421
21
-90.9419
0
LINE
8
BLACK
6
CONTINUOUS
10
99.1421
20
-90.9419
11
99.0468
21
-91.0371
0
LINE
8
BLACK
6
CONTINUOUS
10
99.0468
20
-91.0371
11
98.8563
21
-91.1323
0
LINE
8
BLACK
6
CONTINUOUS
10
98.8563
20
-91.1323
11
98.3801
21
-91.1323
0
LINE
8
BLACK
6
CONTINUOUS
10
98.3801
20
-91.1323
11
98.1897
21
-91.0371
0
LINE
8
BLACK
6
CONTINUOUS
10
98.1897
20
-91.0371
11
98.0944
21
-90.9419
0
LINE
8
BLACK
6
CONTINUOUS
10
100.475
20
-89.1323
11
100.666
21
-89.1323
0
LINE
8
BLACK
6
CONTINUOUS
10
100.666
20
-89.1323
11
100.856
21
-89.2276
0
LINE
8
BLACK
6
CONTINUOUS
10
100.856
20
-89.2276
11
100.952
21
-89.3228
0
LINE
8
BLACK
6
CONTINUOUS
10
100.952
20
-89.3228
11
101.047
21
-89.5133
0
LINE
8
BLACK
6
CONTINUOUS
10
101.047
20
-89.5133
11
101.142
21
-89.8942
0
LINE
8
BLACK
6
CONTINUOUS
10
101.142
20
-89.8942
11
101.142
21
-90.3704
0
LINE
8
BLACK
6
CONTINUOUS
10
101.142
20
-90.3704
11
101.047
21
-90.7514
0
LINE
8
BLACK
6
CONTINUOUS
10
101.047
20
-90.7514
11
100.952
21
-90.9419
0
LINE
8
BLACK
6
CONTINUOUS
10
100.952
20
-90.9419
11
100.856
21
-91.0371
0
LINE
8
BLACK
6
CONTINUOUS
10
100.856
20
-91.0371
11
100.666
21
-91.1323
0
LINE
8
BLACK
6
CONTINUOUS
10
100.666
20
-91.1323
11
100.475
21
-91.1323
0
LINE
8
BLACK
6
CONTINUOUS
10
100.475
20
-91.1323
11
100.285
21
-91.0371
0
LINE
8
BLACK
6
CONTINUOUS
10
100.285
20
-91.0371
11
100.19
21
-90.9419
0
LINE
8
BLACK
6
CONTINUOUS
10
100.19
20
-90.9419
11
100.094
21
-90.7514
0
LINE
8
BLACK
6
CONTINUOUS
10
100.094
20
-90.7514
11
99.9992
21
-90.3704
0
LINE
8
BLACK
6
CONTINUOUS
10
99.9992
20
-90.3704
11
99.9992
21
-89.8942
0
LINE
8
BLACK
6
CONTINUOUS
10
99.9992
20
-89.8942
11
100.094
21
-89.5133
0
LINE
8
BLACK
6
CONTINUOUS
10
100.094
20
-89.5133
11
100.19
21
-89.3228
0
LINE
8
BLACK
6
CONTINUOUS
10
100.19
20
-89.3228
11
100.285
21
-89.2276
0
LINE
8
BLACK
6
CONTINUOUS
10
100.285
20
-89.2276
11
100.475
21
-89.1323
0
LINE
8
BLACK
6
CONTINUOUS
10
101.999
20
-91.1323
11
101.999
21
-89.799
0
LINE
8
BLACK
6
CONTINUOUS
10
101.999
20
-89.9895
11
102.094
21
-89.8942
0
LINE
8
BLACK
6
CONTINUOUS
10
102.094
20
-89.8942
11
102.285
21
-89.799
0
LINE
8
BLACK
6
CONTINUOUS
10
102.285
20
-89.799
11
102.571
21
-89.799
0
LINE
8
BLACK
6
CONTINUOUS
10
102.571
20
-89.799
11
102.761
21
-89.8942
0
LINE
8
BLACK
6
CONTINUOUS
10
102.761
20
-89.8942
11
102.856
21
-90.0847
0
LINE
8
BLACK
6
CONTINUOUS
10
102.856
20
-90.0847
11
102.856
21
-91.1323
0
LINE
8
BLACK
6
CONTINUOUS
10
102.856
20
-90.0847
11
102.952
21
-89.8942
0
LINE
8
BLACK
6
CONTINUOUS
10
102.952
20
-89.8942
11
103.142
21
-89.799
0
LINE
8
BLACK
6
CONTINUOUS
10
103.142
20
-89.799
11
103.428
21
-89.799
0
LINE
8
BLACK
6
CONTINUOUS
10
103.428
20
-89.799
11
103.618
21
-89.8942
0
LINE
8
BLACK
6
CONTINUOUS
10
103.618
20
-89.8942
11
103.713
21
-90.0847
0
LINE
8
BLACK
6
CONTINUOUS
10
103.713
20
-90.0847
11
103.713
21
-91.1323
0
LINE
8
BLACK
6
CONTINUOUS
10
104.666
20
-91.1323
11
104.666
21
-89.799
0
LINE
8
BLACK
6
CONTINUOUS
10
104.666
20
-89.9895
11
104.761
21
-89.8942
0
LINE
8
BLACK
6
CONTINUOUS
10
104.761
20
-89.8942
11
104.952
21
-89.799
0
LINE
8
BLACK
6
CONTINUOUS
10
104.952
20
-89.799
11
105.237
21
-89.799
0
LINE
8
BLACK
6
CONTINUOUS
10
105.237
20
-89.799
11
105.428
21
-89.8942
0
LINE
8
BLACK
6
CONTINUOUS
10
105.428
20
-89.8942
11
105.523
21
-90.0847
0
LINE
8
BLACK
6
CONTINUOUS
10
105.523
20
-90.0847
11
105.523
21
-91.1323
0
LINE
8
BLACK
6
CONTINUOUS
10
105.523
20
-90.0847
11
105.618
21
-89.8942
0
LINE
8
BLACK
6
CONTINUOUS
10
105.618
20
-89.8942
11
105.809
21
-89.799
0
LINE
8
BLACK
6
CONTINUOUS
10
105.809
20
-89.799
11
106.094
21
-89.799
0
LINE
8
BLACK
6
CONTINUOUS
10
106.094
20
-89.799
11
106.285
21
-89.8942
0
LINE
8
BLACK
6
CONTINUOUS
10
106.285
20
-89.8942
11
106.38
21
-90.0847
0
LINE
8
BLACK
6
CONTINUOUS
10
106.38
20
-90.0847
11
106.38
21
-91.1323
0
LINE
8
BLACK
6
CONTINUOUS
10
110.285
20
-89.0371
11
108.571
21
-91.6085
0
LINE
8
BLACK
6
CONTINUOUS
10
112.856
20
-89.1323
11
113.047
21
-89.1323
0
LINE
8
BLACK
6
CONTINUOUS
10
113.047
20
-89.1323
11
113.237
21
-89.2276
0
LINE
8
BLACK
6
CONTINUOUS
10
113.237
20
-89.2276
11
113.333
21
-89.3228
0
LINE
8
BLACK
6
CONTINUOUS
10
113.333
20
-89.3228
11
113.428
21
-89.5133
0
LINE
8
BLACK
6
CONTINUOUS
10
113.428
20
-89.5133
11
113.523
21
-89.8942
0
LINE
8
BLACK
6
CONTINUOUS
10
113.523
20
-89.8942
11
113.523
21
-90.3704
0
LINE
8
BLACK
6
CONTINUOUS
10
113.523
20
-90.3704
11
113.428
21
-90.7514
0
LINE
8
BLACK
6
CONTINUOUS
10
113.428
20
-90.7514
11
113.333
21
-90.9419
0
LINE
8
BLACK
6
CONTINUOUS
10
113.333
20
-90.9419
11
113.237
21
-91.0371
0
LINE
8
BLACK
6
CONTINUOUS
10
113.237
20
-91.0371
11
113.047
21
-91.1323
0
LINE
8
BLACK
6
CONTINUOUS
10
113.047
20
-91.1323
11
112.856
21
-91.1323
0
LINE
8
BLACK
6
CONTINUOUS
10
112.856
20
-91.1323
11
112.666
21
-91.0371
0
LINE
8
BLACK
6
CONTINUOUS
10
112.666
20
-91.0371
11
112.571
21
-90.9419
0
LINE
8
BLACK
6
CONTINUOUS
10
112.571
20
-90.9419
11
112.475
21
-90.7514
0
LINE
8
BLACK
6
CONTINUOUS
10
112.475
20
-90.7514
11
112.38
21
-90.3704
0
LINE
8
BLACK
6
CONTINUOUS
10
112.38
20
-90.3704
11
112.38
21
-89.8942
0
LINE
8
BLACK
6
CONTINUOUS
10
112.38
20
-89.8942
11
112.475
21
-89.5133
0
LINE
8
BLACK
6
CONTINUOUS
10
112.475
20
-89.5133
11
112.571
21
-89.3228
0
LINE
8
BLACK
6
CONTINUOUS
10
112.571
20
-89.3228
11
112.666
21
-89.2276
0
LINE
8
BLACK
6
CONTINUOUS
10
112.666
20
-89.2276
11
112.856
21
-89.1323
0
LINE
8
BLACK
6
CONTINUOUS
10
114.38
20
-90.9419
11
114.475
21
-91.0371
0
LINE
8
BLACK
6
CONTINUOUS
10
114.475
20
-91.0371
11
114.38
21
-91.1323
0
LINE
8
BLACK
6
CONTINUOUS
10
114.38
20
-91.1323
11
114.285
21
-91.0371
0
LINE
8
BLACK
6
CONTINUOUS
10
114.285
20
-91.0371
11
114.38
21
-90.9419
0
LINE
8
BLACK
6
CONTINUOUS
10
114.38
20
-90.9419
11
114.38
21
-91.1323
0
LINE
8
BLACK
6
CONTINUOUS
10
115.713
20
-89.1323
11
115.904
21
-89.1323
0
LINE
8
BLACK
6
CONTINUOUS
10
115.904
20
-89.1323
11
116.094
21
-89.2276
0
LINE
8
BLACK
6
CONTINUOUS
10
116.094
20
-89.2276
11
116.19
21
-89.3228
0
LINE
8
BLACK
6
CONTINUOUS
10
116.19
20
-89.3228
11
116.285
21
-89.5133
0
LINE
8
BLACK
6
CONTINUOUS
10
116.285
20
-89.5133
11
116.38
21
-89.8942
0
LINE
8
BLACK
6
CONTINUOUS
10
116.38
20
-89.8942
11
116.38
21
-90.3704
0
LINE
8
BLACK
6
CONTINUOUS
10
116.38
20
-90.3704
11
116.285
21
-90.7514
0
LINE
8
BLACK
6
CONTINUOUS
10
116.285
20
-90.7514
11
116.19
21
-90.9419
0
LINE
8
BLACK
6
CONTINUOUS
10
116.19
20
-90.9419
11
116.094
21
-91.0371
0
LINE
8
BLACK
6
CONTINUOUS
10
116.094
20
-91.0371
11
115.904
21
-91.1323
0
LINE
8
BLACK
6
CONTINUOUS
10
115.904
20
-91.1323
11
115.713
21
-91.1323
0
LINE
8
BLACK
6
CONTINUOUS
10
115.713
20
-91.1323
11
115.523
21
-91.0371
0
LINE
8
BLACK
6
CONTINUOUS
10
115.523
20
-91.0371
11
115.428
21
-90.9419
0
LINE
8
BLACK
6
CONTINUOUS
10
115.428
20
-90.9419
11
115.333
21
-90.7514
0
LINE
8
BLACK
6
CONTINUOUS
10
115.333
20
-90.7514
11
115.237
21
-90.3704
0
LINE
8
BLACK
6
CONTINUOUS
10
115.237
20
-90.3704
11
115.237
21
-89.8942
0
LINE
8
BLACK
6
CONTINUOUS
10
115.237
20
-89.8942
11
115.333
21
-89.5133
0
LINE
8
BLACK
6
CONTINUOUS
10
115.333
20
-89.5133
11
115.428
21
-89.3228
0
LINE
8
BLACK
6
CONTINUOUS
10
115.428
20
-89.3228
11
115.523
21
-89.2276
0
LINE
8
BLACK
6
CONTINUOUS
10
115.523
20
-89.2276
11
115.713
21
-89.1323
0
LINE
8
BLACK
6
CONTINUOUS
10
117.142
20
-89.3228
11
117.237
21
-89.2276
0
LINE
8
BLACK
6
CONTINUOUS
10
117.237
20
-89.2276
11
117.428
21
-89.1323
0
LINE
8
BLACK
6
CONTINUOUS
10
117.428
20
-89.1323
11
117.904
21
-89.1323
0
LINE
8
BLACK
6
CONTINUOUS
10
117.904
20
-89.1323
11
118.094
21
-89.2276
0
LINE
8
BLACK
6
CONTINUOUS
10
118.094
20
-89.2276
11
118.19
21
-89.3228
0
LINE
8
BLACK
6
CONTINUOUS
10
118.19
20
-89.3228
11
118.285
21
-89.5133
0
LINE
8
BLACK
6
CONTINUOUS
10
118.285
20
-89.5133
11
118.285
21
-89.7038
0
LINE
8
BLACK
6
CONTINUOUS
10
118.285
20
-89.7038
11
118.19
21
-89.9895
0
LINE
8
BLACK
6
CONTINUOUS
10
118.19
20
-89.9895
11
117.047
21
-91.1323
0
LINE
8
BLACK
6
CONTINUOUS
10
117.047
20
-91.1323
11
118.285
21
-91.1323
0
LINE
8
BLACK
6
CONTINUOUS
10
120.094
20
-89.1323
11
119.142
21
-89.1323
0
LINE
8
BLACK
6
CONTINUOUS
10
119.142
20
-89.1323
11
119.047
21
-90.0847
0
LINE
8
BLACK
6
CONTINUOUS
10
119.047
20
-90.0847
11
119.142
21
-89.9895
0
LINE
8
BLACK
6
CONTINUOUS
10
119.142
20
-89.9895
11
119.333
21
-89.8942
0
LINE
8
BLACK
6
CONTINUOUS
10
119.333
20
-89.8942
11
119.809
21
-89.8942
0
LINE
8
BLACK
6
CONTINUOUS
10
119.809
20
-89.8942
11
119.999
21
-89.9895
0
LINE
8
BLACK
6
CONTINUOUS
10
119.999
20
-89.9895
11
120.094
21
-90.0847
0
LINE
8
BLACK
6
CONTINUOUS
10
120.094
20
-90.0847
11
120.19
21
-90.2752
0
LINE
8
BLACK
6
CONTINUOUS
10
120.19
20
-90.2752
11
120.19
21
-90.7514
0
LINE
8
BLACK
6
CONTINUOUS
10
120.19
20
-90.7514
11
120.094
21
-90.9419
0
LINE
8
BLACK
6
CONTINUOUS
10
120.094
20
-90.9419
11
119.999
21
-91.0371
0
LINE
8
BLACK
6
CONTINUOUS
10
119.999
20
-91.0371
11
119.809
21
-91.1323
0
LINE
8
BLACK
6
CONTINUOUS
10
119.809
20
-91.1323
11
119.333
21
-91.1323
0
LINE
8
BLACK
6
CONTINUOUS
10
119.333
20
-91.1323
11
119.142
21
-91.0371
0
LINE
8
BLACK
6
CONTINUOUS
10
119.142
20
-91.0371
11
119.047
21
-90.9419
0
LINE
8
BLACK
6
CONTINUOUS
10
121.904
20
-89.1323
11
121.523
21
-89.1323
0
LINE
8
BLACK
6
CONTINUOUS
10
121.523
20
-89.1323
11
121.333
21
-89.2276
0
LINE
8
BLACK
6
CONTINUOUS
10
121.333
20
-89.2276
11
121.237
21
-89.3228
0
LINE
8
BLACK
6
CONTINUOUS
10
121.237
20
-89.3228
11
121.047
21
-89.6085
0
LINE
8
BLACK
6
CONTINUOUS
10
121.047
20
-89.6085
11
120.952
21
-89.9895
0
LINE
8
BLACK
6
CONTINUOUS
10
120.952
20
-89.9895
11
120.952
21
-90.7514
0
LINE
8
BLACK
6
CONTINUOUS
10
120.952
20
-90.7514
11
121.047
21
-90.9419
0
LINE
8
BLACK
6
CONTINUOUS
10
121.047
20
-90.9419
11
121.142
21
-91.0371
0
LINE
8
BLACK
6
CONTINUOUS
10
121.142
20
-91.0371
11
121.333
21
-91.1323
0
LINE
8
BLACK
6
CONTINUOUS
10
121.333
20
-91.1323
11
121.713
21
-91.1323
0
LINE
8
BLACK
6
CONTINUOUS
10
121.713
20
-91.1323
11
121.904
21
-91.0371
0
LINE
8
BLACK
6
CONTINUOUS
10
121.904
20
-91.0371
11
121.999
21
-90.9419
0
LINE
8
BLACK
6
CONTINUOUS
10
121.999
20
-90.9419
11
122.094
21
-90.7514
0
LINE
8
BLACK
6
CONTINUOUS
10
122.094
20
-90.7514
11
122.094
21
-90.2752
0
LINE
8
BLACK
6
CONTINUOUS
10
122.094
20
-90.2752
11
121.999
21
-90.0847
0
LINE
8
BLACK
6
CONTINUOUS
10
121.999
20
-90.0847
11
121.904
21
-89.9895
0
LINE
8
BLACK
6
CONTINUOUS
10
121.904
20
-89.9895
11
121.713
21
-89.8942
0
LINE
8
BLACK
6
CONTINUOUS
10
121.713
20
-89.8942
11
121.333
21
-89.8942
0
LINE
8
BLACK
6
CONTINUOUS
10
121.333
20
-89.8942
11
121.142
21
-89.9895
0
LINE
8
BLACK
6
CONTINUOUS
10
121.142
20
-89.9895
11
121.047
21
-90.0847
0
LINE
8
BLACK
6
CONTINUOUS
10
121.047
20
-90.0847
11
120.952
21
-90.2752
0
LINE
8
BLACK
6
CONTINUOUS
10
122.856
20
-89.1323
11
122.856
21
-89.5133
0
LINE
8
BLACK
6
CONTINUOUS
10
123.618
20
-89.1323
11
123.618
21
-89.5133
0
LINE
8
BLACK
6
CONTINUOUS
10
126.571
20
-91.8942
11
126.475
21
-91.799
0
LINE
8
BLACK
6
CONTINUOUS
10
126.475
20
-91.799
11
126.285
21
-91.5133
0
LINE
8
BLACK
6
CONTINUOUS
10
126.285
20
-91.5133
11
126.19
21
-91.3228
0
LINE
8
BLACK
6
CONTINUOUS
10
126.19
20
-91.3228
11
126.094
21
-91.0371
0
LINE
8
BLACK
6
CONTINUOUS
10
126.094
20
-91.0371
11
125.999
21
-90.5609
0
LINE
8
BLACK
6
CONTINUOUS
10
125.999
20
-90.5609
11
125.999
21
-90.18
0
LINE
8
BLACK
6
CONTINUOUS
10
125.999
20
-90.18
11
126.094
21
-89.7038
0
LINE
8
BLACK
6
CONTINUOUS
10
126.094
20
-89.7038
11
126.19
21
-89.4181
0
LINE
8
BLACK
6
CONTINUOUS
10
126.19
20
-89.4181
11
126.285
21
-89.2276
0
LINE
8
BLACK
6
CONTINUOUS
10
126.285
20
-89.2276
11
126.475
21
-88.9419
0
LINE
8
BLACK
6
CONTINUOUS
10
126.475
20
-88.9419
11
126.571
21
-88.8466
0
LINE
8
BLACK
6
CONTINUOUS
10
127.237
20
-89.3228
11
127.333
21
-89.2276
0
LINE
8
BLACK
6
CONTINUOUS
10
127.333
20
-89.2276
11
127.523
21
-89.1323
0
LINE
8
BLACK
6
CONTINUOUS
10
127.523
20
-89.1323
11
127.999
21
-89.1323
0
LINE
8
BLACK
6
CONTINUOUS
10
127.999
20
-89.1323
11
128.19
21
-89.2276
0
LINE
8
BLACK
6
CONTINUOUS
10
128.19
20
-89.2276
11
128.285
21
-89.3228
0
LINE
8
BLACK
6
CONTINUOUS
10
128.285
20
-89.3228
11
128.38
21
-89.5133
0
LINE
8
BLACK
6
CONTINUOUS
10
128.38
20
-89.5133
11
128.38
21
-89.7038
0
LINE
8
BLACK
6
CONTINUOUS
10
128.38
20
-89.7038
11
128.285
21
-89.9895
0
LINE
8
BLACK
6
CONTINUOUS
10
128.285
20
-89.9895
11
127.142
21
-91.1323
0
LINE
8
BLACK
6
CONTINUOUS
10
127.142
20
-91.1323
11
128.38
21
-91.1323
0
LINE
8
BLACK
6
CONTINUOUS
10
130.761
20
-91.1323
11
130.761
21
-89.1323
0
LINE
8
BLACK
6
CONTINUOUS
10
131.618
20
-91.1323
11
131.618
21
-90.0847
0
LINE
8
BLACK
6
CONTINUOUS
10
131.618
20
-90.0847
11
131.523
21
-89.8942
0
LINE
8
BLACK
6
CONTINUOUS
10
131.523
20
-89.8942
11
131.333
21
-89.799
0
LINE
8
BLACK
6
CONTINUOUS
10
131.333
20
-89.799
11
131.047
21
-89.799
0
LINE
8
BLACK
6
CONTINUOUS
10
131.047
20
-89.799
11
130.856
21
-89.8942
0
LINE
8
BLACK
6
CONTINUOUS
10
130.856
20
-89.8942
11
130.761
21
-89.9895
0
LINE
8
BLACK
6
CONTINUOUS
10
132.856
20
-91.1323
11
132.666
21
-91.0371
0
LINE
8
BLACK
6
CONTINUOUS
10
132.666
20
-91.0371
11
132.571
21
-90.9419
0
LINE
8
BLACK
6
CONTINUOUS
10
132.571
20
-90.9419
11
132.475
21
-90.7514
0
LINE
8
BLACK
6
CONTINUOUS
10
132.475
20
-90.7514
11
132.475
21
-90.18
0
LINE
8
BLACK
6
CONTINUOUS
10
132.475
20
-90.18
11
132.571
21
-89.9895
0
LINE
8
BLACK
6
CONTINUOUS
10
132.571
20
-89.9895
11
132.666
21
-89.8942
0
LINE
8
BLACK
6
CONTINUOUS
10
132.666
20
-89.8942
11
132.856
21
-89.799
0
LINE
8
BLACK
6
CONTINUOUS
10
132.856
20
-89.799
11
133.142
21
-89.799
0
LINE
8
BLACK
6
CONTINUOUS
10
133.142
20
-89.799
11
133.333
21
-89.8942
0
LINE
8
BLACK
6
CONTINUOUS
10
133.333
20
-89.8942
11
133.428
21
-89.9895
0
LINE
8
BLACK
6
CONTINUOUS
10
133.428
20
-89.9895
11
133.523
21
-90.18
0
LINE
8
BLACK
6
CONTINUOUS
10
133.523
20
-90.18
11
133.523
21
-90.7514
0
LINE
8
BLACK
6
CONTINUOUS
10
133.523
20
-90.7514
11
133.428
21
-90.9419
0
LINE
8
BLACK
6
CONTINUOUS
10
133.428
20
-90.9419
11
133.333
21
-91.0371
0
LINE
8
BLACK
6
CONTINUOUS
10
133.333
20
-91.0371
11
133.142
21
-91.1323
0
LINE
8
BLACK
6
CONTINUOUS
10
133.142
20
-91.1323
11
132.856
21
-91.1323
0
LINE
8
BLACK
6
CONTINUOUS
10
134.666
20
-91.1323
11
134.475
21
-91.0371
0
LINE
8
BLACK
6
CONTINUOUS
10
134.475
20
-91.0371
11
134.38
21
-90.8466
0
LINE
8
BLACK
6
CONTINUOUS
10
134.38
20
-90.8466
11
134.38
21
-89.1323
0
LINE
8
BLACK
6
CONTINUOUS
10
136.19
20
-91.0371
11
135.999
21
-91.1323
0
LINE
8
BLACK
6
CONTINUOUS
10
135.999
20
-91.1323
11
135.618
21
-91.1323
0
LINE
8
BLACK
6
CONTINUOUS
10
135.618
20
-91.1323
11
135.428
21
-91.0371
0
LINE
8
BLACK
6
CONTINUOUS
10
135.428
20
-91.0371
11
135.333
21
-90.8466
0
LINE
8
BLACK
6
CONTINUOUS
10
135.333
20
-90.8466
11
135.333
21
-90.0847
0
LINE
8
BLACK
6
CONTINUOUS
10
135.333
20
-90.0847
11
135.428
21
-89.8942
0
LINE
8
BLACK
6
CONTINUOUS
10
135.428
20
-89.8942
11
135.618
21
-89.799
0
LINE
8
BLACK
6
CONTINUOUS
10
135.618
20
-89.799
11
135.999
21
-89.799
0
LINE
8
BLACK
6
CONTINUOUS
10
135.999
20
-89.799
11
136.19
21
-89.8942
0
LINE
8
BLACK
6
CONTINUOUS
10
136.19
20
-89.8942
11
136.285
21
-90.0847
0
LINE
8
BLACK
6
CONTINUOUS
10
136.285
20
-90.0847
11
136.285
21
-90.2752
0
LINE
8
BLACK
6
CONTINUOUS
10
136.285
20
-90.2752
11
135.333
21
-90.4657
0
LINE
8
BLACK
6
CONTINUOUS
10
137.047
20
-91.0371
11
137.237
21
-91.1323
0
LINE
8
BLACK
6
CONTINUOUS
10
137.237
20
-91.1323
11
137.618
21
-91.1323
0
LINE
8
BLACK
6
CONTINUOUS
10
137.618
20
-91.1323
11
137.809
21
-91.0371
0
LINE
8
BLACK
6
CONTINUOUS
10
137.809
20
-91.0371
11
137.904
21
-90.8466
0
LINE
8
BLACK
6
CONTINUOUS
10
137.904
20
-90.8466
11
137.904
21
-90.7514
0
LINE
8
BLACK
6
CONTINUOUS
10
137.904
20
-90.7514
11
137.809
21
-90.5609
0
LINE
8
BLACK
6
CONTINUOUS
10
137.809
20
-90.5609
11
137.618
21
-90.4657
0
LINE
8
BLACK
6
CONTINUOUS
10
137.618
20
-90.4657
11
137.333
21
-90.4657
0
LINE
8
BLACK
6
CONTINUOUS
10
137.333
20
-90.4657
11
137.142
21
-90.3704
0
LINE
8
BLACK
6
CONTINUOUS
10
137.142
20
-90.3704
11
137.047
21
-90.18
0
LINE
8
BLACK
6
CONTINUOUS
10
137.047
20
-90.18
11
137.047
21
-90.0847
0
LINE
8
BLACK
6
CONTINUOUS
10
137.047
20
-90.0847
11
137.142
21
-89.8942
0
LINE
8
BLACK
6
CONTINUOUS
10
137.142
20
-89.8942
11
137.333
21
-89.799
0
LINE
8
BLACK
6
CONTINUOUS
10
137.333
20
-89.799
11
137.618
21
-89.799
0
LINE
8
BLACK
6
CONTINUOUS
10
137.618
20
-89.799
11
137.809
21
-89.8942
0
LINE
8
BLACK
6
CONTINUOUS
10
138.571
20
-91.8942
11
138.666
21
-91.799
0
LINE
8
BLACK
6
CONTINUOUS
10
138.666
20
-91.799
11
138.856
21
-91.5133
0
LINE
8
BLACK
6
CONTINUOUS
10
138.856
20
-91.5133
11
138.952
21
-91.3228
0
LINE
8
BLACK
6
CONTINUOUS
10
138.952
20
-91.3228
11
139.047
21
-91.0371
0
LINE
8
BLACK
6
CONTINUOUS
10
139.047
20
-91.0371
11
139.142
21
-90.5609
0
LINE
8
BLACK
6
CONTINUOUS
10
139.142
20
-90.5609
11
139.142
21
-90.18
0
LINE
8
BLACK
6
CONTINUOUS
10
139.142
20
-90.18
11
139.047
21
-89.7038
0
LINE
8
BLACK
6
CONTINUOUS
10
139.047
20
-89.7038
11
138.952
21
-89.4181
0
LINE
8
BLACK
6
CONTINUOUS
10
138.952
20
-89.4181
11
138.856
21
-89.2276
0
LINE
8
BLACK
6
CONTINUOUS
10
138.856
20
-89.2276
11
138.666
21
-88.9419
0
LINE
8
BLACK
6
CONTINUOUS
10
138.666
20
-88.9419
11
138.571
21
-88.8466
0
LINE
8
BLACK
6
CONTINUOUS
10
142.19
20
-91.8942
11
142.094
21
-91.799
0
LINE
8
BLACK
6
CONTINUOUS
10
142.094
20
-91.799
11
141.904
21
-91.5133
0
LINE
8
BLACK
6
CONTINUOUS
10
141.904
20
-91.5133
11
141.809
21
-91.3228
0
LINE
8
BLACK
6
CONTINUOUS
10
141.809
20
-91.3228
11
141.713
21
-91.0371
0
LINE
8
BLACK
6
CONTINUOUS
10
141.713
20
-91.0371
11
141.618
21
-90.5609
0
LINE
8
BLACK
6
CONTINUOUS
10
141.618
20
-90.5609
11
141.618
21
-90.18
0
LINE
8
BLACK
6
CONTINUOUS
10
141.618
20
-90.18
11
141.713
21
-89.7038
0
LINE
8
BLACK
6
CONTINUOUS
10
141.713
20
-89.7038
11
141.809
21
-89.4181
0
LINE
8
BLACK
6
CONTINUOUS
10
141.809
20
-89.4181
11
141.904
21
-89.2276
0
LINE
8
BLACK
6
CONTINUOUS
10
141.904
20
-89.2276
11
142.094
21
-88.9419
0
LINE
8
BLACK
6
CONTINUOUS
10
142.094
20
-88.9419
11
142.19
21
-88.8466
0
LINE
8
BLACK
6
CONTINUOUS
10
142.952
20
-89.799
11
142.952
21
-91.1323
0
LINE
8
BLACK
6
CONTINUOUS
10
142.952
20
-89.9895
11
143.047
21
-89.8942
0
LINE
8
BLACK
6
CONTINUOUS
10
143.047
20
-89.8942
11
143.237
21
-89.799
0
LINE
8
BLACK
6
CONTINUOUS
10
143.237
20
-89.799
11
143.523
21
-89.799
0
LINE
8
BLACK
6
CONTINUOUS
10
143.523
20
-89.799
11
143.713
21
-89.8942
0
LINE
8
BLACK
6
CONTINUOUS
10
143.713
20
-89.8942
11
143.809
21
-90.0847
0
LINE
8
BLACK
6
CONTINUOUS
10
143.809
20
-90.0847
11
143.809
21
-91.1323
0
LINE
8
BLACK
6
CONTINUOUS
10
145.047
20
-91.1323
11
144.856
21
-91.0371
0
LINE
8
BLACK
6
CONTINUOUS
10
144.856
20
-91.0371
11
144.761
21
-90.9419
0
LINE
8
BLACK
6
CONTINUOUS
10
144.761
20
-90.9419
11
144.666
21
-90.7514
0
LINE
8
BLACK
6
CONTINUOUS
10
144.666
20
-90.7514
11
144.666
21
-90.18
0
LINE
8
BLACK
6
CONTINUOUS
10
144.666
20
-90.18
11
144.761
21
-89.9895
0
LINE
8
BLACK
6
CONTINUOUS
10
144.761
20
-89.9895
11
144.856
21
-89.8942
0
LINE
8
BLACK
6
CONTINUOUS
10
144.856
20
-89.8942
11
145.047
21
-89.799
0
LINE
8
BLACK
6
CONTINUOUS
10
145.047
20
-89.799
11
145.333
21
-89.799
0
LINE
8
BLACK
6
CONTINUOUS
10
145.333
20
-89.799
11
145.523
21
-89.8942
0
LINE
8
BLACK
6
CONTINUOUS
10
145.523
20
-89.8942
11
145.618
21
-89.9895
0
LINE
8
BLACK
6
CONTINUOUS
10
145.618
20
-89.9895
11
145.713
21
-90.18
0
LINE
8
BLACK
6
CONTINUOUS
10
145.713
20
-90.18
11
145.713
21
-90.7514
0
LINE
8
BLACK
6
CONTINUOUS
10
145.713
20
-90.7514
11
145.618
21
-90.9419
0
LINE
8
BLACK
6
CONTINUOUS
10
145.618
20
-90.9419
11
145.523
21
-91.0371
0
LINE
8
BLACK
6
CONTINUOUS
10
145.523
20
-91.0371
11
145.333
21
-91.1323
0
LINE
8
BLACK
6
CONTINUOUS
10
145.333
20
-91.1323
11
145.047
21
-91.1323
0
LINE
8
BLACK
6
CONTINUOUS
10
146.285
20
-89.799
11
147.047
21
-89.799
0
LINE
8
BLACK
6
CONTINUOUS
10
146.571
20
-89.1323
11
146.571
21
-90.8466
0
LINE
8
BLACK
6
CONTINUOUS
10
146.571
20
-90.8466
11
146.666
21
-91.0371
0
LINE
8
BLACK
6
CONTINUOUS
10
146.666
20
-91.0371
11
146.856
21
-91.1323
0
LINE
8
BLACK
6
CONTINUOUS
10
146.856
20
-91.1323
11
147.047
21
-91.1323
0
LINE
8
BLACK
6
CONTINUOUS
10
149.237
20
-89.799
11
149.237
21
-91.799
0
LINE
8
BLACK
6
CONTINUOUS
10
149.237
20
-89.8942
11
149.428
21
-89.799
0
LINE
8
BLACK
6
CONTINUOUS
10
149.428
20
-89.799
11
149.809
21
-89.799
0
LINE
8
BLACK
6
CONTINUOUS
10
149.809
20
-89.799
11
149.999
21
-89.8942
0
LINE
8
BLACK
6
CONTINUOUS
10
149.999
20
-89.8942
11
150.094
21
-89.9895
0
LINE
8
BLACK
6
CONTINUOUS
10
150.094
20
-89.9895
11
150.19
21
-90.18
0
LINE
8
BLACK
6
CONTINUOUS
10
150.19
20
-90.18
11
150.19
21
-90.7514
0
LINE
8
BLACK
6
CONTINUOUS
10
150.19
20
-90.7514
11
150.094
21
-90.9419
0
LINE
8
BLACK
6
CONTINUOUS
10
150.094
20
-90.9419
11
149.999
21
-91.0371
0
LINE
8
BLACK
6
CONTINUOUS
10
149.999
20
-91.0371
11
149.809
21
-91.1323
0
LINE
8
BLACK
6
CONTINUOUS
10
149.809
20
-91.1323
11
149.428
21
-91.1323
0
LINE
8
BLACK
6
CONTINUOUS
10
149.428
20
-91.1323
11
149.237
21
-91.0371
0
LINE
8
BLACK
6
CONTINUOUS
10
151.333
20
-91.1323
11
151.142
21
-91.0371
0
LINE
8
BLACK
6
CONTINUOUS
10
151.142
20
-91.0371
11
151.047
21
-90.8466
0
LINE
8
BLACK
6
CONTINUOUS
10
151.047
20
-90.8466
11
151.047
21
-89.1323
0
LINE
8
BLACK
6
CONTINUOUS
10
152.952
20
-91.1323
11
152.952
21
-90.0847
0
LINE
8
BLACK
6
CONTINUOUS
10
152.952
20
-90.0847
11
152.856
21
-89.8942
0
LINE
8
BLACK
6
CONTINUOUS
10
152.856
20
-89.8942
11
152.666
21
-89.799
0
LINE
8
BLACK
6
CONTINUOUS
10
152.666
20
-89.799
11
152.285
21
-89.799
0
LINE
8
BLACK
6
CONTINUOUS
10
152.285
20
-89.799
11
152.094
21
-89.8942
0
LINE
8
BLACK
6
CONTINUOUS
10
152.952
20
-91.0371
11
152.761
21
-91.1323
0
LINE
8
BLACK
6
CONTINUOUS
10
152.761
20
-91.1323
11
152.285
21
-91.1323
0
LINE
8
BLACK
6
CONTINUOUS
10
152.285
20
-91.1323
11
152.094
21
-91.0371
0
LINE
8
BLACK
6
CONTINUOUS
10
152.094
20
-91.0371
11
151.999
21
-90.8466
0
LINE
8
BLACK
6
CONTINUOUS
10
151.999
20
-90.8466
11
151.999
21
-90.6561
0
LINE
8
BLACK
6
CONTINUOUS
10
151.999
20
-90.6561
11
152.094
21
-90.4657
0
LINE
8
BLACK
6
CONTINUOUS
10
152.094
20
-90.4657
11
152.285
21
-90.3704
0
LINE
8
BLACK
6
CONTINUOUS
10
152.285
20
-90.3704
11
152.761
21
-90.3704
0
LINE
8
BLACK
6
CONTINUOUS
10
152.761
20
-90.3704
11
152.952
21
-90.2752
0
LINE
8
BLACK
6
CONTINUOUS
10
153.618
20
-89.799
11
154.38
21
-89.799
0
LINE
8
BLACK
6
CONTINUOUS
10
153.904
20
-89.1323
11
153.904
21
-90.8466
0
LINE
8
BLACK
6
CONTINUOUS
10
153.904
20
-90.8466
11
153.999
21
-91.0371
0
LINE
8
BLACK
6
CONTINUOUS
10
153.999
20
-91.0371
11
154.19
21
-91.1323
0
LINE
8
BLACK
6
CONTINUOUS
10
154.19
20
-91.1323
11
154.38
21
-91.1323
0
LINE
8
BLACK
6
CONTINUOUS
10
155.809
20
-91.0371
11
155.618
21
-91.1323
0
LINE
8
BLACK
6
CONTINUOUS
10
155.618
20
-91.1323
11
155.237
21
-91.1323
0
LINE
8
BLACK
6
CONTINUOUS
10
155.237
20
-91.1323
11
155.047
21
-91.0371
0
LINE
8
BLACK
6
CONTINUOUS
10
155.047
20
-91.0371
11
154.952
21
-90.8466
0
LINE
8
BLACK
6
CONTINUOUS
10
154.952
20
-90.8466
11
154.952
21
-90.0847
0
LINE
8
BLACK
6
CONTINUOUS
10
154.952
20
-90.0847
11
155.047
21
-89.8942
0
LINE
8
BLACK
6
CONTINUOUS
10
155.047
20
-89.8942
11
155.237
21
-89.799
0
LINE
8
BLACK
6
CONTINUOUS
10
155.237
20
-89.799
11
155.618
21
-89.799
0
LINE
8
BLACK
6
CONTINUOUS
10
155.618
20
-89.799
11
155.809
21
-89.8942
0
LINE
8
BLACK
6
CONTINUOUS
10
155.809
20
-89.8942
11
155.904
21
-90.0847
0
LINE
8
BLACK
6
CONTINUOUS
10
155.904
20
-90.0847
11
155.904
21
-90.2752
0
LINE
8
BLACK
6
CONTINUOUS
10
155.904
20
-90.2752
11
154.952
21
-90.4657
0
LINE
8
BLACK
6
CONTINUOUS
10
157.618
20
-91.1323
11
157.618
21
-89.1323
0
LINE
8
BLACK
6
CONTINUOUS
10
157.618
20
-91.0371
11
157.428
21
-91.1323
0
LINE
8
BLACK
6
CONTINUOUS
10
157.428
20
-91.1323
11
157.047
21
-91.1323
0
LINE
8
BLACK
6
CONTINUOUS
10
157.047
20
-91.1323
11
156.856
21
-91.0371
0
LINE
8
BLACK
6
CONTINUOUS
10
156.856
20
-91.0371
11
156.761
21
-90.9419
0
LINE
8
BLACK
6
CONTINUOUS
10
156.761
20
-90.9419
11
156.666
21
-90.7514
0
LINE
8
BLACK
6
CONTINUOUS
10
156.666
20
-90.7514
11
156.666
21
-90.18
0
LINE
8
BLACK
6
CONTINUOUS
10
156.666
20
-90.18
11
156.761
21
-89.9895
0
LINE
8
BLACK
6
CONTINUOUS
10
156.761
20
-89.9895
11
156.856
21
-89.8942
0
LINE
8
BLACK
6
CONTINUOUS
10
156.856
20
-89.8942
11
157.047
21
-89.799
0
LINE
8
BLACK
6
CONTINUOUS
10
157.047
20
-89.799
11
157.428
21
-89.799
0
LINE
8
BLACK
6
CONTINUOUS
10
157.428
20
-89.799
11
157.618
21
-89.8942
0
LINE
8
BLACK
6
CONTINUOUS
10
158.38
20
-91.8942
11
158.475
21
-91.799
0
LINE
8
BLACK
6
CONTINUOUS
10
158.475
20
-91.799
11
158.666
21
-91.5133
0
LINE
8
BLACK
6
CONTINUOUS
10
158.666
20
-91.5133
11
158.761
21
-91.3228
0
LINE
8
BLACK
6
CONTINUOUS
10
158.761
20
-91.3228
11
158.856
21
-91.0371
0
LINE
8
BLACK
6
CONTINUOUS
10
158.856
20
-91.0371
11
158.952
21
-90.5609
0
LINE
8
BLACK
6
CONTINUOUS
10
158.952
20
-90.5609
11
158.952
21
-90.18
0
LINE
8
BLACK
6
CONTINUOUS
10
158.952
20
-90.18
11
158.856
21
-89.7038
0
LINE
8
BLACK
6
CONTINUOUS
10
158.856
20
-89.7038
11
158.761
21
-89.4181
0
LINE
8
BLACK
6
CONTINUOUS
10
158.761
20
-89.4181
11
158.666
21
-89.2276
0
LINE
8
BLACK
6
CONTINUOUS
10
158.666
20
-89.2276
11
158.475
21
-88.9419
0
LINE
8
BLACK
6
CONTINUOUS
10
158.475
20
-88.9419
11
158.38
21
-88.8466
  0
ENDSEC
  0
EOF
